solid 
facet normal -1.0 0.0 0.0
outer loop
vertex -35.0 35.0 0.0
vertex -35.0 -35.0 0.0
vertex -35.0 -35.0 276.0
endloop
endfacet
facet normal -1.0 0.0 0.0
outer loop
vertex -35.0 35.0 0.0
vertex -35.0 -35.0 276.0
vertex -35.0 35.0 276.0
endloop
endfacet
facet normal 0.0 1.0 -0.0
outer loop
vertex 35.0 35.0 0.0
vertex -35.0 35.0 0.0
vertex -35.0 35.0 276.0
endloop
endfacet
facet normal 0.0 1.0 -0.0
outer loop
vertex 35.0 35.0 0.0
vertex -35.0 35.0 276.0
vertex 35.0 35.0 276.0
endloop
endfacet
facet normal 1.0 -0.0 0.0
outer loop
vertex 35.0 -35.0 276.0
vertex 35.0 -35.0 0.0
vertex 35.0 35.0 0.0
endloop
endfacet
facet normal 1.0 -0.0 0.0
outer loop
vertex 35.0 -35.0 276.0
vertex 35.0 35.0 0.0
vertex 35.0 35.0 276.0
endloop
endfacet
facet normal 0.0 -1.0 0.0
outer loop
vertex -35.0 -35.0 276.0
vertex -35.0 -35.0 0.0
vertex 35.0 -35.0 0.0
endloop
endfacet
facet normal 0.0 -1.0 0.0
outer loop
vertex -35.0 -35.0 276.0
vertex 35.0 -35.0 0.0
vertex 35.0 -35.0 276.0
endloop
endfacet
facet normal 0.0 0.0 -1.0
outer loop
vertex -35.0 35.0 0.0
vertex 35.0 35.0 0.0
vertex 35.0 -35.0 0.0
endloop
endfacet
facet normal -0.0 -0.0 -1.0
outer loop
vertex -35.0 35.0 0.0
vertex 35.0 -35.0 0.0
vertex -35.0 -35.0 0.0
endloop
endfacet
facet normal 0.0 0.0 1.0
outer loop
vertex -19.0 19.0 300.0
vertex -35.0 35.0 300.0
vertex -35.0 -35.0 300.0
endloop
endfacet
facet normal 0.0 -0.0 1.0
outer loop
vertex -35.0 -35.0 300.0
vertex 35.0 -35.0 300.0
vertex 19.0 -19.0 300.0
endloop
endfacet
facet normal 0.0 -0.0 1.0
outer loop
vertex -19.0 -19.0 300.0
vertex -19.0 19.0 300.0
vertex -35.0 -35.0 300.0
endloop
endfacet
facet normal 0.0 -0.0 1.0
outer loop
vertex -35.0 -35.0 300.0
vertex 19.0 -19.0 300.0
vertex -19.0 -19.0 300.0
endloop
endfacet
facet normal -0.0 0.0 1.0
outer loop
vertex 19.0 -19.0 300.0
vertex 35.0 -35.0 300.0
vertex 35.0 35.0 300.0
endloop
endfacet
facet normal 0.0 0.0 1.0
outer loop
vertex 35.0 35.0 300.0
vertex -35.0 35.0 300.0
vertex -19.0 19.0 300.0
endloop
endfacet
facet normal -0.0 0.0 1.0
outer loop
vertex 19.0 19.0 300.0
vertex 19.0 -19.0 300.0
vertex 35.0 35.0 300.0
endloop
endfacet
facet normal -0.0 0.0 1.0
outer loop
vertex 35.0 35.0 300.0
vertex -19.0 19.0 300.0
vertex 19.0 19.0 300.0
endloop
endfacet
facet normal -1.0 0.0 0.0
outer loop
vertex -39.0 -39.0 276.0
vertex -39.0 -39.0 300.0
vertex -39.0 39.0 300.0
endloop
endfacet
facet normal -1.0 0.0 0.0
outer loop
vertex -39.0 -39.0 276.0
vertex -39.0 39.0 300.0
vertex -39.0 39.0 276.0
endloop
endfacet
facet normal 0.0 1.0 0.0
outer loop
vertex -39.0 39.0 276.0
vertex -39.0 39.0 300.0
vertex 39.0 39.0 300.0
endloop
endfacet
facet normal -0.0 1.0 0.0
outer loop
vertex -39.0 39.0 276.0
vertex 39.0 39.0 300.0
vertex 39.0 39.0 276.0
endloop
endfacet
facet normal 1.0 0.0 -0.0
outer loop
vertex 39.0 39.0 276.0
vertex 39.0 39.0 300.0
vertex 39.0 -39.0 300.0
endloop
endfacet
facet normal 1.0 0.0 0.0
outer loop
vertex 39.0 39.0 276.0
vertex 39.0 -39.0 300.0
vertex 39.0 -39.0 276.0
endloop
endfacet
facet normal 0.0 -1.0 0.0
outer loop
vertex 39.0 -39.0 276.0
vertex 39.0 -39.0 300.0
vertex -39.0 -39.0 300.0
endloop
endfacet
facet normal -0.0 -1.0 -0.0
outer loop
vertex 39.0 -39.0 276.0
vertex -39.0 -39.0 300.0
vertex -39.0 -39.0 276.0
endloop
endfacet
facet normal 0.0 -0.0 -1.0
outer loop
vertex -35.0 35.0 276.0
vertex -35.0 -35.0 276.0
vertex -39.0 -39.0 276.0
endloop
endfacet
facet normal -0.0 -0.0 -1.0
outer loop
vertex 39.0 39.0 276.0
vertex 39.0 -39.0 276.0
vertex 35.0 -35.0 276.0
endloop
endfacet
facet normal -0.0 0.0 -1.0
outer loop
vertex 39.0 39.0 276.0
vertex 35.0 -35.0 276.0
vertex 35.0 35.0 276.0
endloop
endfacet
facet normal -0.0 0.0 -1.0
outer loop
vertex -35.0 35.0 276.0
vertex -39.0 -39.0 276.0
vertex -39.0 39.0 276.0
endloop
endfacet
facet normal -0.0 0.0 -1.0
outer loop
vertex 39.0 39.0 276.0
vertex 35.0 35.0 276.0
vertex -35.0 35.0 276.0
endloop
endfacet
facet normal 0.0 0.0 -1.0
outer loop
vertex -35.0 35.0 276.0
vertex -39.0 39.0 276.0
vertex 39.0 39.0 276.0
endloop
endfacet
facet normal 0.0 0.0 -1.0
outer loop
vertex 39.0 -39.0 276.0
vertex -39.0 -39.0 276.0
vertex -35.0 -35.0 276.0
endloop
endfacet
facet normal 0.0 0.0 -1.0
outer loop
vertex 39.0 -39.0 276.0
vertex -35.0 -35.0 276.0
vertex 35.0 -35.0 276.0
endloop
endfacet
facet normal 0.0 -0.0 1.0
outer loop
vertex 39.0 -39.0 300.0
vertex 39.0 39.0 300.0
vertex 35.0 35.0 300.0
endloop
endfacet
facet normal 0.0 0.0 1.0
outer loop
vertex 39.0 -39.0 300.0
vertex 35.0 35.0 300.0
vertex 35.0 -35.0 300.0
endloop
endfacet
facet normal 0.0 -0.0 1.0
outer loop
vertex -39.0 -39.0 300.0
vertex 39.0 -39.0 300.0
vertex 35.0 -35.0 300.0
endloop
endfacet
facet normal 0.0 -0.0 1.0
outer loop
vertex -39.0 -39.0 300.0
vertex 35.0 -35.0 300.0
vertex -35.0 -35.0 300.0
endloop
endfacet
facet normal 0.0 -0.0 1.0
outer loop
vertex 35.0 35.0 300.0
vertex 39.0 39.0 300.0
vertex -39.0 39.0 300.0
endloop
endfacet
facet normal 0.0 0.0 1.0
outer loop
vertex -39.0 -39.0 300.0
vertex -35.0 -35.0 300.0
vertex -35.0 35.0 300.0
endloop
endfacet
facet normal 0.0 -0.0 1.0
outer loop
vertex -35.0 35.0 300.0
vertex 35.0 35.0 300.0
vertex -39.0 39.0 300.0
endloop
endfacet
facet normal 0.0 -0.0 1.0
outer loop
vertex -39.0 -39.0 300.0
vertex -35.0 35.0 300.0
vertex -39.0 39.0 300.0
endloop
endfacet
facet normal -1.0 0.0 0.0
outer loop
vertex -19.0 -19.0 300.0
vertex -19.0 -19.0 330.0
vertex -19.0 19.0 330.0
endloop
endfacet
facet normal -1.0 0.0 0.0
outer loop
vertex -19.0 -19.0 300.0
vertex -19.0 19.0 330.0
vertex -19.0 19.0 300.0
endloop
endfacet
facet normal 0.0 1.0 0.0
outer loop
vertex -19.0 19.0 300.0
vertex -19.0 19.0 330.0
vertex 19.0 19.0 330.0
endloop
endfacet
facet normal -0.0 1.0 0.0
outer loop
vertex -19.0 19.0 300.0
vertex 19.0 19.0 330.0
vertex 19.0 19.0 300.0
endloop
endfacet
facet normal 1.0 0.0 -0.0
outer loop
vertex 19.0 19.0 300.0
vertex 19.0 19.0 330.0
vertex 19.0 -19.0 330.0
endloop
endfacet
facet normal 1.0 0.0 0.0
outer loop
vertex 19.0 19.0 300.0
vertex 19.0 -19.0 330.0
vertex 19.0 -19.0 300.0
endloop
endfacet
facet normal 0.0 -1.0 0.0
outer loop
vertex 19.0 -19.0 300.0
vertex 19.0 -19.0 330.0
vertex -19.0 -19.0 330.0
endloop
endfacet
facet normal -0.0 -1.0 -0.0
outer loop
vertex 19.0 -19.0 300.0
vertex -19.0 -19.0 330.0
vertex -19.0 -19.0 300.0
endloop
endfacet
facet normal 0.0 0.0 1.0
outer loop
vertex 19.0 19.0 330.0
vertex -19.0 19.0 330.0
vertex -19.0 -19.0 330.0
endloop
endfacet
facet normal -0.0 0.0 1.0
outer loop
vertex 19.0 19.0 330.0
vertex -19.0 -19.0 330.0
vertex 19.0 -19.0 330.0
endloop
endfacet

endsolid
