solid 
facet normal -1.0 -0.0 0.0
outer loop
vertex -44.0 -15.0 1.25
vertex -44.0 -16.0 0.0
vertex -44.0 -16.0 6.0
endloop
endfacet
facet normal -1.0 0.0 0.0
outer loop
vertex -44.0 -15.0 1.25
vertex -44.0 -16.0 6.0
vertex -44.0 -15.0 4.75
endloop
endfacet
facet normal -1.0 -0.0 -0.0
outer loop
vertex -44.0 16.0 6.0
vertex -44.0 16.0 0.0
vertex -44.0 15.0 1.25
endloop
endfacet
facet normal -1.0 -0.0 0.0
outer loop
vertex -44.0 16.0 6.0
vertex -44.0 15.0 1.25
vertex -44.0 15.0 4.75
endloop
endfacet
facet normal -1.0 0.0 0.0
outer loop
vertex -44.0 5.0 1.25
vertex -44.0 15.0 1.25
vertex -44.0 16.0 0.0
endloop
endfacet
facet normal -1.0 0.0 0.0
outer loop
vertex -44.0 16.0 0.0
vertex -44.0 -16.0 0.0
vertex -44.0 -15.0 1.25
endloop
endfacet
facet normal -1.0 0.0 0.0
outer loop
vertex -44.0 16.0 0.0
vertex -44.0 -15.0 1.25
vertex -44.0 -5.0 1.25
endloop
endfacet
facet normal -1.0 -0.0 -0.0
outer loop
vertex -44.0 5.0 1.25
vertex -44.0 16.0 0.0
vertex -44.0 -5.0 1.25
endloop
endfacet
facet normal -1.0 0.0 0.0
outer loop
vertex -44.0 -5.0 4.75
vertex -44.0 -15.0 4.75
vertex -44.0 -16.0 6.0
endloop
endfacet
facet normal -1.0 0.0 0.0
outer loop
vertex -44.0 5.0 1.25
vertex -44.0 -5.0 1.25
vertex -44.0 -5.0 4.75
endloop
endfacet
facet normal -1.0 -0.0 0.0
outer loop
vertex -44.0 16.0 6.0
vertex -44.0 15.0 4.75
vertex -44.0 5.0 4.75
endloop
endfacet
facet normal -1.0 -0.0 -0.0
outer loop
vertex -44.0 5.0 4.75
vertex -44.0 5.0 1.25
vertex -44.0 -5.0 4.75
endloop
endfacet
facet normal -1.0 0.0 0.0
outer loop
vertex -44.0 -5.0 4.75
vertex -44.0 -16.0 6.0
vertex -44.0 16.0 6.0
endloop
endfacet
facet normal -1.0 0.0 -0.0
outer loop
vertex -44.0 -5.0 4.75
vertex -44.0 16.0 6.0
vertex -44.0 5.0 4.75
endloop
endfacet
facet normal 0.0 1.0 0.0
outer loop
vertex -44.0 16.0 0.0
vertex -44.0 16.0 6.0
vertex 44.0 16.0 6.0
endloop
endfacet
facet normal -0.0 1.0 0.0
outer loop
vertex -44.0 16.0 0.0
vertex 44.0 16.0 6.0
vertex 44.0 16.0 0.0
endloop
endfacet
facet normal 1.0 0.0 0.0
outer loop
vertex 44.0 -15.0 4.75
vertex 44.0 -16.0 6.0
vertex 44.0 -16.0 0.0
endloop
endfacet
facet normal 1.0 -0.0 0.0
outer loop
vertex 44.0 -15.0 4.75
vertex 44.0 -16.0 0.0
vertex 44.0 -15.0 1.25
endloop
endfacet
facet normal 1.0 -0.0 0.0
outer loop
vertex 44.0 15.0 1.25
vertex 44.0 16.0 0.0
vertex 44.0 16.0 6.0
endloop
endfacet
facet normal 1.0 0.0 -0.0
outer loop
vertex 44.0 15.0 1.25
vertex 44.0 16.0 6.0
vertex 44.0 15.0 4.75
endloop
endfacet
facet normal 1.0 0.0 0.0
outer loop
vertex 44.0 5.0 4.75
vertex 44.0 15.0 4.75
vertex 44.0 16.0 6.0
endloop
endfacet
facet normal 1.0 0.0 0.0
outer loop
vertex 44.0 16.0 6.0
vertex 44.0 -16.0 6.0
vertex 44.0 -15.0 4.75
endloop
endfacet
facet normal 1.0 -0.0 0.0
outer loop
vertex 44.0 16.0 6.0
vertex 44.0 -15.0 4.75
vertex 44.0 -5.0 4.75
endloop
endfacet
facet normal 1.0 0.0 -0.0
outer loop
vertex 44.0 5.0 4.75
vertex 44.0 16.0 6.0
vertex 44.0 -5.0 4.75
endloop
endfacet
facet normal 1.0 0.0 0.0
outer loop
vertex 44.0 -5.0 1.25
vertex 44.0 -15.0 1.25
vertex 44.0 -16.0 0.0
endloop
endfacet
facet normal 1.0 0.0 0.0
outer loop
vertex 44.0 5.0 4.75
vertex 44.0 -5.0 4.75
vertex 44.0 -5.0 1.25
endloop
endfacet
facet normal 1.0 0.0 0.0
outer loop
vertex 44.0 16.0 0.0
vertex 44.0 15.0 1.25
vertex 44.0 5.0 1.25
endloop
endfacet
facet normal 1.0 0.0 -0.0
outer loop
vertex 44.0 5.0 1.25
vertex 44.0 5.0 4.75
vertex 44.0 -5.0 1.25
endloop
endfacet
facet normal 1.0 -0.0 0.0
outer loop
vertex 44.0 -5.0 1.25
vertex 44.0 -16.0 0.0
vertex 44.0 16.0 0.0
endloop
endfacet
facet normal 1.0 -0.0 -0.0
outer loop
vertex 44.0 -5.0 1.25
vertex 44.0 16.0 0.0
vertex 44.0 5.0 1.25
endloop
endfacet
facet normal -0.0 -1.0 -0.0
outer loop
vertex 21.842315673828125 -16.0 2.524993896484375
vertex -37.0 -16.0 2.524993896484375
vertex -37.0 -16.0 1.725006103515625
endloop
endfacet
facet normal 0.0 -1.0 0.0
outer loop
vertex -37.0 -16.0 1.725006103515625
vertex 37.0 -16.0 1.725006103515625
vertex 37.0 -16.0 2.524993896484375
endloop
endfacet
facet normal 0.0 -1.0 -0.0
outer loop
vertex 21.842315673828125 -16.0 2.524993896484375
vertex -37.0 -16.0 1.725006103515625
vertex 37.0 -16.0 2.524993896484375
endloop
endfacet
facet normal -0.0 -1.0 -0.0
outer loop
vertex -11.315627098083496 -16.0 4.274993896484375
vertex -37.0 -16.0 4.274993896484375
vertex -37.0 -16.0 3.475006103515625
endloop
endfacet
facet normal 0.0 -1.0 0.0
outer loop
vertex 3.842057943344116 -16.0 3.475006103515625
vertex 37.0 -16.0 3.475006103515625
vertex 37.0 -16.0 4.274993896484375
endloop
endfacet
facet normal 0.0 -1.0 -0.0
outer loop
vertex -11.315627098083496 -16.0 4.274993896484375
vertex -37.0 -16.0 3.475006103515625
vertex 3.842057943344116 -16.0 3.475006103515625
endloop
endfacet
facet normal 0.0 -1.0 0.0
outer loop
vertex 3.842057943344116 -16.0 3.475006103515625
vertex 37.0 -16.0 4.274993896484375
vertex 16.565202713012695 -16.0 4.274993896484375
endloop
endfacet
facet normal 0.0 -1.0 0.0
outer loop
vertex -11.315627098083496 -16.0 4.274993896484375
vertex 3.842057943344116 -16.0 3.475006103515625
vertex 16.565202713012695 -16.0 4.274993896484375
endloop
endfacet
facet normal 0.0 -1.0 0.0
outer loop
vertex -44.0 -16.0 6.0
vertex -44.0 -16.0 0.0
vertex -37.0 -16.0 0.975006103515625
endloop
endfacet
facet normal 0.0 -1.0 0.0
outer loop
vertex -44.0 -16.0 6.0
vertex -37.0 -16.0 0.975006103515625
vertex -37.0 -16.0 1.725006103515625
endloop
endfacet
facet normal 0.0 -1.0 0.0
outer loop
vertex 37.0 -16.0 0.975006103515625
vertex 44.0 -16.0 0.0
vertex 44.0 -16.0 6.0
endloop
endfacet
facet normal 0.0 -1.0 0.0
outer loop
vertex 37.0 -16.0 1.725006103515625
vertex 37.0 -16.0 0.975006103515625
vertex 44.0 -16.0 6.0
endloop
endfacet
facet normal 0.0 -1.0 0.0
outer loop
vertex -44.0 -16.0 6.0
vertex -37.0 -16.0 1.725006103515625
vertex -37.0 -16.0 2.524993896484375
endloop
endfacet
facet normal 0.0 -1.0 0.0
outer loop
vertex -44.0 -16.0 6.0
vertex -37.0 -16.0 2.524993896484375
vertex -37.0 -16.0 3.475006103515625
endloop
endfacet
facet normal 0.0 -1.0 0.0
outer loop
vertex 37.0 -16.0 2.524993896484375
vertex 37.0 -16.0 1.725006103515625
vertex 44.0 -16.0 6.0
endloop
endfacet
facet normal 0.0 -1.0 0.0
outer loop
vertex 37.0 -16.0 3.475006103515625
vertex 37.0 -16.0 2.524993896484375
vertex 44.0 -16.0 6.0
endloop
endfacet
facet normal 0.0 -1.0 0.0
outer loop
vertex -44.0 -16.0 6.0
vertex -37.0 -16.0 3.475006103515625
vertex -37.0 -16.0 4.274993896484375
endloop
endfacet
facet normal 0.0 -1.0 0.0
outer loop
vertex -44.0 -16.0 6.0
vertex -37.0 -16.0 4.274993896484375
vertex -37.0 -16.0 5.024993896484375
endloop
endfacet
facet normal 0.0 -1.0 0.0
outer loop
vertex 37.0 -16.0 4.274993896484375
vertex 37.0 -16.0 3.475006103515625
vertex 44.0 -16.0 6.0
endloop
endfacet
facet normal 0.0 -1.0 0.0
outer loop
vertex 37.0 -16.0 5.024993896484375
vertex 37.0 -16.0 4.274993896484375
vertex 44.0 -16.0 6.0
endloop
endfacet
facet normal -0.0 -0.9999999999999999 -0.0
outer loop
vertex 44.0 -16.0 6.0
vertex -44.0 -16.0 6.0
vertex -37.0 -16.0 5.024993896484375
endloop
endfacet
facet normal 0.0 -1.0 -0.0
outer loop
vertex 44.0 -16.0 6.0
vertex -37.0 -16.0 5.024993896484375
vertex -25.526174545288086 -16.0 5.024993896484375
endloop
endfacet
facet normal 0.0 -1.0 0.0
outer loop
vertex 28.49333381652832 -16.0 5.024993896484375
vertex 37.0 -16.0 5.024993896484375
vertex 44.0 -16.0 6.0
endloop
endfacet
facet normal 0.0 -1.0 0.0
outer loop
vertex -25.526174545288086 -16.0 5.024993896484375
vertex 28.49333381652832 -16.0 5.024993896484375
vertex 44.0 -16.0 6.0
endloop
endfacet
facet normal -0.0 -1.0 -0.0
outer loop
vertex -25.526174545288086 -16.0 5.024993896484375
vertex -37.0 -16.0 5.024993896484375
vertex -37.0 -16.0 4.274993896484375
endloop
endfacet
facet normal 0.0 -1.0 -0.0
outer loop
vertex -25.526174545288086 -16.0 5.024993896484375
vertex -37.0 -16.0 4.274993896484375
vertex -11.315627098083496 -16.0 4.274993896484375
endloop
endfacet
facet normal 0.0 -1.0 0.0
outer loop
vertex 16.565202713012695 -16.0 4.274993896484375
vertex 37.0 -16.0 4.274993896484375
vertex 37.0 -16.0 5.024993896484375
endloop
endfacet
facet normal 0.0 -1.0 0.0
outer loop
vertex 16.565202713012695 -16.0 4.274993896484375
vertex 37.0 -16.0 5.024993896484375
vertex 28.49333381652832 -16.0 5.024993896484375
endloop
endfacet
facet normal 0.0 -1.0 0.0
outer loop
vertex -11.315627098083496 -16.0 4.274993896484375
vertex 16.565202713012695 -16.0 4.274993896484375
vertex 28.49333381652832 -16.0 5.024993896484375
endloop
endfacet
facet normal 0.0 -1.0 0.0
outer loop
vertex -11.315627098083496 -16.0 4.274993896484375
vertex 28.49333381652832 -16.0 5.024993896484375
vertex -25.526174545288086 -16.0 5.024993896484375
endloop
endfacet
facet normal -0.0 -1.0 -0.0
outer loop
vertex 3.842057943344116 -16.0 3.475006103515625
vertex -37.0 -16.0 3.475006103515625
vertex -37.0 -16.0 2.524993896484375
endloop
endfacet
facet normal 0.0 -1.0 -0.0
outer loop
vertex 3.842057943344116 -16.0 3.475006103515625
vertex -37.0 -16.0 2.524993896484375
vertex 21.842315673828125 -16.0 2.524993896484375
endloop
endfacet
facet normal 0.0 -1.0 0.0
outer loop
vertex 21.842315673828125 -16.0 2.524993896484375
vertex 37.0 -16.0 2.524993896484375
vertex 37.0 -16.0 3.475006103515625
endloop
endfacet
facet normal 0.0 -1.0 0.0
outer loop
vertex 21.842315673828125 -16.0 2.524993896484375
vertex 37.0 -16.0 3.475006103515625
vertex 3.842057943344116 -16.0 3.475006103515625
endloop
endfacet
facet normal -0.0 -1.0 0.0
outer loop
vertex 29.69991111755371 -16.0 0.975006103515625
vertex -37.0 -16.0 0.975006103515625
vertex -44.0 -16.0 0.0
endloop
endfacet
facet normal 0.0 -0.9999999999999999 0.0
outer loop
vertex -44.0 -16.0 0.0
vertex 44.0 -16.0 0.0
vertex 37.0 -16.0 0.975006103515625
endloop
endfacet
facet normal 0.0 -1.0 -0.0
outer loop
vertex 29.69991111755371 -16.0 0.975006103515625
vertex -44.0 -16.0 0.0
vertex 37.0 -16.0 0.975006103515625
endloop
endfacet
facet normal 0.0 -1.0 0.0
outer loop
vertex 29.69991111755371 -16.0 0.975006103515625
vertex 37.0 -16.0 0.975006103515625
vertex 28.425291061401367 -16.0 1.0619049072265625
endloop
endfacet
facet normal 0.0 -1.0 0.0
outer loop
vertex 28.425291061401367 -16.0 1.0619049072265625
vertex 37.0 -16.0 0.975006103515625
vertex 37.0 -16.0 1.725006103515625
endloop
endfacet
facet normal -0.0 -1.0 -0.0
outer loop
vertex 37.0 -16.0 1.725006103515625
vertex -37.0 -16.0 1.725006103515625
vertex -37.0 -16.0 0.975006103515625
endloop
endfacet
facet normal 0.0 -1.0 0.0
outer loop
vertex -37.0 -16.0 0.975006103515625
vertex 29.69991111755371 -16.0 0.975006103515625
vertex 28.425291061401367 -16.0 1.0619049072265625
endloop
endfacet
facet normal -0.0 -1.0 0.0
outer loop
vertex 28.425291061401367 -16.0 1.0619049072265625
vertex 37.0 -16.0 1.725006103515625
vertex -37.0 -16.0 0.975006103515625
endloop
endfacet
facet normal 0.0 0.0 -1.0
outer loop
vertex -44.0 16.0 0.0
vertex 44.0 16.0 0.0
vertex 44.0 -16.0 0.0
endloop
endfacet
facet normal -0.0 -0.0 -1.0
outer loop
vertex -44.0 16.0 0.0
vertex 44.0 -16.0 0.0
vertex -44.0 -16.0 0.0
endloop
endfacet
facet normal 0.0 0.0 1.0
outer loop
vertex -32.381248474121094 -11.774999618530273 6.0
vertex -37.0 -11.774999618530273 6.0
vertex -44.0 -16.0 6.0
endloop
endfacet
facet normal 0.0 -0.0 1.0
outer loop
vertex -44.0 -16.0 6.0
vertex 44.0 -16.0 6.0
vertex 37.0 -11.774999618530273 6.0
endloop
endfacet
facet normal -0.0 0.0 1.0
outer loop
vertex -32.381248474121094 -11.774999618530273 6.0
vertex -44.0 -16.0 6.0
vertex 37.0 -11.774999618530273 6.0
endloop
endfacet
facet normal -0.0 0.0 1.0
outer loop
vertex -44.0 16.0 6.0
vertex -44.0 -16.0 6.0
vertex -37.0 -11.774999618530273 6.0
endloop
endfacet
facet normal -0.0 0.0 1.0
outer loop
vertex -44.0 16.0 6.0
vertex -37.0 -11.774999618530273 6.0
vertex -37.0 -10.625 6.0
endloop
endfacet
facet normal -0.0 0.0 1.0
outer loop
vertex 37.0 -11.774999618530273 6.0
vertex 44.0 -16.0 6.0
vertex 44.0 16.0 6.0
endloop
endfacet
facet normal -0.0 0.0 1.0
outer loop
vertex 37.0 -10.625 6.0
vertex 37.0 -11.774999618530273 6.0
vertex 44.0 16.0 6.0
endloop
endfacet
facet normal -0.0 0.0 1.0
outer loop
vertex -44.0 16.0 6.0
vertex -37.0 -10.625 6.0
vertex -37.0 -4.425000190734863 6.0
endloop
endfacet
facet normal -0.0 0.0 1.0
outer loop
vertex -44.0 16.0 6.0
vertex -37.0 -4.425000190734863 6.0
vertex -37.0 -3.575000047683716 6.0
endloop
endfacet
facet normal -0.0 0.0 1.0
outer loop
vertex 37.0 -4.425000190734863 6.0
vertex 37.0 -10.625 6.0
vertex 44.0 16.0 6.0
endloop
endfacet
facet normal -0.0 0.0 1.0
outer loop
vertex 37.0 -3.575000047683716 6.0
vertex 37.0 -4.425000190734863 6.0
vertex 44.0 16.0 6.0
endloop
endfacet
facet normal -0.0 0.0 1.0
outer loop
vertex -44.0 16.0 6.0
vertex -37.0 -3.575000047683716 6.0
vertex -37.0 3.674999713897705 6.0
endloop
endfacet
facet normal -0.0 0.0 1.0
outer loop
vertex -44.0 16.0 6.0
vertex -37.0 3.674999713897705 6.0
vertex -37.0 4.724999904632568 6.0
endloop
endfacet
facet normal -0.0 0.0 1.0
outer loop
vertex 37.0 3.674999713897705 6.0
vertex 37.0 -3.575000047683716 6.0
vertex 44.0 16.0 6.0
endloop
endfacet
facet normal -0.0 0.0 1.0
outer loop
vertex 37.0 4.724999904632568 6.0
vertex 37.0 3.674999713897705 6.0
vertex 44.0 16.0 6.0
endloop
endfacet
facet normal -0.0 0.0 1.0
outer loop
vertex -44.0 16.0 6.0
vertex -37.0 4.724999904632568 6.0
vertex -37.0 10.65000057220459 6.0
endloop
endfacet
facet normal -0.0 0.0 1.0
outer loop
vertex -44.0 16.0 6.0
vertex -37.0 10.65000057220459 6.0
vertex -37.0 11.550000190734863 6.0
endloop
endfacet
facet normal -0.0 0.0 1.0
outer loop
vertex 37.0 10.65000057220459 6.0
vertex 37.0 4.724999904632568 6.0
vertex 44.0 16.0 6.0
endloop
endfacet
facet normal -0.0 0.0 1.0
outer loop
vertex 37.0 11.550000190734863 6.0
vertex 37.0 10.65000057220459 6.0
vertex 44.0 16.0 6.0
endloop
endfacet
facet normal 0.0 0.0 1.0
outer loop
vertex 44.0 16.0 6.0
vertex -44.0 16.0 6.0
vertex -37.0 11.550000190734863 6.0
endloop
endfacet
facet normal -0.0 0.0 1.0
outer loop
vertex 44.0 16.0 6.0
vertex -37.0 11.550000190734863 6.0
vertex 12.031044006347656 11.550000190734863 6.0
endloop
endfacet
facet normal 0.0 0.0 1.0
outer loop
vertex 31.762500762939453 11.550000190734863 6.0
vertex 37.0 11.550000190734863 6.0
vertex 44.0 16.0 6.0
endloop
endfacet
facet normal -0.0 0.0 0.9999999999999999
outer loop
vertex 44.0 16.0 6.0
vertex 12.031044006347656 11.550000190734863 6.0
vertex 25.58620834350586 11.550000190734863 6.0
endloop
endfacet
facet normal 0.0 0.0 1.0
outer loop
vertex 25.58620834350586 11.550000190734863 6.0
vertex 31.762500762939453 11.550000190734863 6.0
vertex 44.0 16.0 6.0
endloop
endfacet
facet normal 0.0 0.0 0.9999999999999999
outer loop
vertex 5.5654144287109375 10.65000057220459 6.0
vertex -37.0 10.65000057220459 6.0
vertex -37.0 4.724999904632568 6.0
endloop
endfacet
facet normal -0.0 0.0 1.0
outer loop
vertex 5.5654144287109375 10.65000057220459 6.0
vertex -37.0 4.724999904632568 6.0
vertex -2.65517258644104 4.724999904632568 6.0
endloop
endfacet
facet normal 0.0 0.0 1.0
outer loop
vertex 21.862071990966797 10.65000057220459 6.0
vertex 5.5654144287109375 10.65000057220459 6.0
vertex -2.65517258644104 4.724999904632568 6.0
endloop
endfacet
facet normal 0.0 0.0 1.0
outer loop
vertex 12.993749618530273 4.724999904632568 6.0
vertex 37.0 4.724999904632568 6.0
vertex 37.0 10.65000057220459 6.0
endloop
endfacet
facet normal -0.0 0.0 1.0
outer loop
vertex 21.862071990966797 10.65000057220459 6.0
vertex -2.65517258644104 4.724999904632568 6.0
vertex 12.993749618530273 4.724999904632568 6.0
endloop
endfacet
facet normal 0.0 -0.0 1.0
outer loop
vertex 12.993749618530273 4.724999904632568 6.0
vertex 37.0 10.65000057220459 6.0
vertex 29.28750228881836 10.65000057220459 6.0
endloop
endfacet
facet normal 0.0 -0.0 0.9999999999999999
outer loop
vertex 12.993749618530273 4.724999904632568 6.0
vertex 29.28750228881836 10.65000057220459 6.0
vertex 21.862071990966797 10.65000057220459 6.0
endloop
endfacet
facet normal 0.0 -0.0 1.0
outer loop
vertex 37.0 10.65000057220459 6.0
vertex 37.0 11.550000190734863 6.0
vertex 31.762500762939453 11.550000190734863 6.0
endloop
endfacet
facet normal 0.0 0.0 0.9999999999999999
outer loop
vertex 37.0 10.65000057220459 6.0
vertex 31.762500762939453 11.550000190734863 6.0
vertex 29.28750228881836 10.65000057220459 6.0
endloop
endfacet
facet normal -0.0 0.0 1.0
outer loop
vertex -37.0 11.550000190734863 6.0
vertex -37.0 10.65000057220459 6.0
vertex 5.5654144287109375 10.65000057220459 6.0
endloop
endfacet
facet normal -0.0 0.0 1.0
outer loop
vertex -37.0 11.550000190734863 6.0
vertex 5.5654144287109375 10.65000057220459 6.0
vertex 12.031044006347656 11.550000190734863 6.0
endloop
endfacet
facet normal 0.0 0.0 1.0
outer loop
vertex 31.762500762939453 11.550000190734863 6.0
vertex 25.58620834350586 11.550000190734863 6.0
vertex 21.862071990966797 10.65000057220459 6.0
endloop
endfacet
facet normal -0.0 0.0 1.0
outer loop
vertex 31.762500762939453 11.550000190734863 6.0
vertex 21.862071990966797 10.65000057220459 6.0
vertex 29.28750228881836 10.65000057220459 6.0
endloop
endfacet
facet normal 0.0 0.0 1.0
outer loop
vertex 5.5654144287109375 10.65000057220459 6.0
vertex 21.862071990966797 10.65000057220459 6.0
vertex 25.58620834350586 11.550000190734863 6.0
endloop
endfacet
facet normal 0.0 -0.0 1.0
outer loop
vertex 5.5654144287109375 10.65000057220459 6.0
vertex 25.58620834350586 11.550000190734863 6.0
vertex 12.031044006347656 11.550000190734863 6.0
endloop
endfacet
facet normal 0.0 0.0 0.9999999999999999
outer loop
vertex -7.000000953674316 3.674999713897705 6.0
vertex -37.0 3.674999713897705 6.0
vertex -37.0 -3.575000047683716 6.0
endloop
endfacet
facet normal -0.0 0.0 1.0
outer loop
vertex -7.000000953674316 3.674999713897705 6.0
vertex -37.0 -3.575000047683716 6.0
vertex -33.132659912109375 -3.575000047683716 6.0
endloop
endfacet
facet normal 0.0 0.0 1.0
outer loop
vertex -4.565009117126465 3.674999713897705 6.0
vertex -7.000000953674316 3.674999713897705 6.0
vertex -33.132659912109375 -3.575000047683716 6.0
endloop
endfacet
facet normal 0.0 0.0 1.0
outer loop
vertex -9.831250190734863 -3.575000047683716 6.0
vertex 37.0 -3.575000047683716 6.0
vertex 37.0 3.674999713897705 6.0
endloop
endfacet
facet normal -0.0 0.0 1.0
outer loop
vertex -4.565009117126465 3.674999713897705 6.0
vertex -33.132659912109375 -3.575000047683716 6.0
vertex -9.831250190734863 -3.575000047683716 6.0
endloop
endfacet
facet normal 0.0 -0.0 1.0
outer loop
vertex -9.831250190734863 -3.575000047683716 6.0
vertex 37.0 3.674999713897705 6.0
vertex 10.10624885559082 3.674999713897705 6.0
endloop
endfacet
facet normal 0.0 -0.0 1.0
outer loop
vertex -9.831250190734863 -3.575000047683716 6.0
vertex 10.10624885559082 3.674999713897705 6.0
vertex -4.565009117126465 3.674999713897705 6.0
endloop
endfacet
facet normal 0.0 -0.0 1.0
outer loop
vertex 37.0 3.674999713897705 6.0
vertex 37.0 4.724999904632568 6.0
vertex 12.993749618530273 4.724999904632568 6.0
endloop
endfacet
facet normal 0.0 0.0 1.0
outer loop
vertex 37.0 3.674999713897705 6.0
vertex 12.993749618530273 4.724999904632568 6.0
vertex 10.10624885559082 3.674999713897705 6.0
endloop
endfacet
facet normal -0.0 0.0 0.9999999999999999
outer loop
vertex -2.644152879714966 4.162481307983398 6.0
vertex -4.565009117126465 3.674999713897705 6.0
vertex 10.10624885559082 3.674999713897705 6.0
endloop
endfacet
facet normal 0.0 -0.0 1.0
outer loop
vertex 10.10624885559082 3.674999713897705 6.0
vertex 12.993749618530273 4.724999904632568 6.0
vertex -2.65517258644104 4.724999904632568 6.0
endloop
endfacet
facet normal -0.0 -0.0 1.0
outer loop
vertex -2.644152879714966 4.162481307983398 6.0
vertex 10.10624885559082 3.674999713897705 6.0
vertex -2.65517258644104 4.724999904632568 6.0
endloop
endfacet
facet normal 0.0 -0.0 1.0
outer loop
vertex -7.000000953674316 3.674999713897705 6.0
vertex -4.565009117126465 3.674999713897705 6.0
vertex -5.128713607788086 4.127227306365967 6.0
endloop
endfacet
facet normal -0.0 0.0 1.0
outer loop
vertex -5.128713607788086 4.127227306365967 6.0
vertex -4.565009117126465 3.674999713897705 6.0
vertex -2.644152879714966 4.162481307983398 6.0
endloop
endfacet
facet normal 0.0 0.0 1.0
outer loop
vertex -2.644152879714966 4.162481307983398 6.0
vertex -2.65517258644104 4.724999904632568 6.0
vertex -37.0 4.724999904632568 6.0
endloop
endfacet
facet normal -0.0 0.0 1.0
outer loop
vertex -37.0 4.724999904632568 6.0
vertex -37.0 3.674999713897705 6.0
vertex -7.000000953674316 3.674999713897705 6.0
endloop
endfacet
facet normal 0.0 -0.0 1.0
outer loop
vertex -5.128713607788086 4.127227306365967 6.0
vertex -2.644152879714966 4.162481307983398 6.0
vertex -37.0 4.724999904632568 6.0
endloop
endfacet
facet normal -0.0 0.0 1.0
outer loop
vertex -37.0 4.724999904632568 6.0
vertex -7.000000953674316 3.674999713897705 6.0
vertex -5.128713607788086 4.127227306365967 6.0
endloop
endfacet
facet normal 0.0 0.0 1.0
outer loop
vertex -32.660770416259766 -4.425000190734863 6.0
vertex -37.0 -4.425000190734863 6.0
vertex -37.0 -10.625 6.0
endloop
endfacet
facet normal 0.0 0.0 0.9999999999999999
outer loop
vertex -29.21875 -10.625 6.0
vertex 37.0 -10.625 6.0
vertex 37.0 -4.425000190734863 6.0
endloop
endfacet
facet normal -0.0 0.0 1.0
outer loop
vertex -32.660770416259766 -4.425000190734863 6.0
vertex -37.0 -10.625 6.0
vertex -29.21875 -10.625 6.0
endloop
endfacet
facet normal 0.0 -0.0 0.9999999999999999
outer loop
vertex -29.21875 -10.625 6.0
vertex 37.0 -4.425000190734863 6.0
vertex -12.168750762939453 -4.425000190734863 6.0
endloop
endfacet
facet normal -0.0 0.0 1.0
outer loop
vertex -32.660770416259766 -4.425000190734863 6.0
vertex -29.21875 -10.625 6.0
vertex -12.168750762939453 -4.425000190734863 6.0
endloop
endfacet
facet normal -0.0 0.0 1.0
outer loop
vertex -37.0 -3.575000047683716 6.0
vertex -37.0 -4.425000190734863 6.0
vertex -32.660770416259766 -4.425000190734863 6.0
endloop
endfacet
facet normal -0.0 -0.0 1.0
outer loop
vertex -37.0 -3.575000047683716 6.0
vertex -32.660770416259766 -4.425000190734863 6.0
vertex -33.132659912109375 -3.575000047683716 6.0
endloop
endfacet
facet normal 0.0 -0.0 1.0
outer loop
vertex 37.0 -4.425000190734863 6.0
vertex 37.0 -3.575000047683716 6.0
vertex -9.831250190734863 -3.575000047683716 6.0
endloop
endfacet
facet normal 0.0 0.0 1.0
outer loop
vertex 37.0 -4.425000190734863 6.0
vertex -9.831250190734863 -3.575000047683716 6.0
vertex -12.168750762939453 -4.425000190734863 6.0
endloop
endfacet
facet normal 0.0 0.0 1.0
outer loop
vertex -32.660770416259766 -4.425000190734863 6.0
vertex -12.168750762939453 -4.425000190734863 6.0
vertex -9.831250190734863 -3.575000047683716 6.0
endloop
endfacet
facet normal 0.0 -0.0 1.0
outer loop
vertex -32.660770416259766 -4.425000190734863 6.0
vertex -9.831250190734863 -3.575000047683716 6.0
vertex -33.132659912109375 -3.575000047683716 6.0
endloop
endfacet
facet normal 0.0 0.0 1.0
outer loop
vertex -29.21875 -10.625 6.0
vertex -37.0 -10.625 6.0
vertex -37.0 -11.774999618530273 6.0
endloop
endfacet
facet normal -0.0 0.0 1.0
outer loop
vertex -29.21875 -10.625 6.0
vertex -37.0 -11.774999618530273 6.0
vertex -32.381248474121094 -11.774999618530273 6.0
endloop
endfacet
facet normal 0.0 0.0 1.0
outer loop
vertex -32.381248474121094 -11.774999618530273 6.0
vertex 37.0 -11.774999618530273 6.0
vertex 37.0 -10.625 6.0
endloop
endfacet
facet normal 0.0 -0.0 1.0
outer loop
vertex -32.381248474121094 -11.774999618530273 6.0
vertex 37.0 -10.625 6.0
vertex -29.21875 -10.625 6.0
endloop
endfacet
facet normal -0.0 -1.0 -0.0
outer loop
vertex -47.64999771118164 -15.0 4.75
vertex -47.650001525878906 -15.0 4.75
vertex -47.650001525878906 -15.0 1.25
endloop
endfacet
facet normal 0.0 -1.0 0.0
outer loop
vertex -47.650001525878906 -15.0 1.25
vertex -44.0 -15.0 1.25
vertex -44.0 -15.0 4.75
endloop
endfacet
facet normal 0.0 -1.0 -0.0
outer loop
vertex -47.64999771118164 -15.0 4.75
vertex -47.650001525878906 -15.0 1.25
vertex -44.0 -15.0 4.75
endloop
endfacet
facet normal 0.0 0.0 -1.0
outer loop
vertex -44.0 -15.0 1.25
vertex -47.650001525878906 -15.0 1.25
vertex -47.650001525878906 -5.0 1.25
endloop
endfacet
facet normal 0.0 0.0 -1.0
outer loop
vertex -44.0 -15.0 1.25
vertex -47.650001525878906 -5.0 1.25
vertex -44.0 -5.0 1.25
endloop
endfacet
facet normal 0.0 1.0 0.0
outer loop
vertex -47.650001525878906 -5.0 1.25
vertex -47.650001525878906 -5.0 4.75
vertex -47.64999771118164 -5.0 4.75
endloop
endfacet
facet normal -0.0 1.0 0.0
outer loop
vertex -47.64999771118164 -5.0 4.75
vertex -44.0 -5.0 4.75
vertex -44.0 -5.0 1.25
endloop
endfacet
facet normal 0.0 1.0 0.0
outer loop
vertex -47.64999771118164 -5.0 4.75
vertex -44.0 -5.0 1.25
vertex -47.650001525878906 -5.0 1.25
endloop
endfacet
facet normal 0.0 0.0 1.0
outer loop
vertex -44.0 -5.0 4.75
vertex -47.64999771118164 -5.0 4.75
vertex -47.64999771118164 -15.0 4.75
endloop
endfacet
facet normal -0.0 0.0 1.0
outer loop
vertex -44.0 -5.0 4.75
vertex -47.64999771118164 -15.0 4.75
vertex -44.0 -15.0 4.75
endloop
endfacet
facet normal -1.0 0.0 -0.0
outer loop
vertex -48.0 -14.650001525878906 4.399993896484375
vertex -48.0 -5.349997520446777 4.399993896484375
vertex -48.0 -5.349998474121094 1.600006103515625
endloop
endfacet
facet normal -0.9999999999999999 -0.0 -0.0
outer loop
vertex -48.0 -14.650001525878906 4.399993896484375
vertex -48.0 -5.349998474121094 1.600006103515625
vertex -48.0 -14.650001525878906 1.600006103515625
endloop
endfacet
facet normal -0.7071067811865475 -0.7071067811865475 0.0
outer loop
vertex -47.650001525878906 -15.0 1.25
vertex -47.650001525878906 -15.0 4.75
vertex -48.0 -14.650001525878906 4.399993896484375
endloop
endfacet
facet normal -0.7071067811865476 -0.7071067811865476 -0.0
outer loop
vertex -47.650001525878906 -15.0 1.25
vertex -48.0 -14.650001525878906 4.399993896484375
vertex -48.0 -14.650001525878906 1.600006103515625
endloop
endfacet
facet normal -0.7071056974005809 0.707107864970812 -2.40840553464173e-07
outer loop
vertex -48.0 -5.349998474121094 1.600006103515625
vertex -48.0 -5.349997520446777 4.399993896484375
vertex -47.650001525878906 -5.0 4.75
endloop
endfacet
facet normal -0.7071067811865475 0.7071067811865475 0.0
outer loop
vertex -48.0 -5.349998474121094 1.600006103515625
vertex -47.650001525878906 -5.0 4.75
vertex -47.650001525878906 -5.0 1.25
endloop
endfacet
facet normal -0.0 0.7071144879464492 0.7070990743426487
outer loop
vertex -48.0 -14.650001525878906 4.399993896484375
vertex -47.650001525878906 -15.0 4.75
vertex -47.64999771118164 -15.0 4.75
endloop
endfacet
facet normal -0.7071106345559992 0.0 0.707102927796097
outer loop
vertex -48.0 -5.349997520446777 4.399993896484375
vertex -48.0 -14.650001525878906 4.399993896484375
vertex -47.64999771118164 -15.0 4.75
endloop
endfacet
facet normal 0.0 -0.0 1.0
outer loop
vertex -47.64999771118164 -15.0 4.75
vertex -47.64999771118164 -5.0 4.75
vertex -47.650001525878906 -5.0 4.75
endloop
endfacet
facet normal -0.7071143530783587 -2.697427189172206e-07 0.7070992092136023
outer loop
vertex -47.64999771118164 -15.0 4.75
vertex -47.650001525878906 -5.0 4.75
vertex -48.0 -5.349997520446777 4.399993896484375
endloop
endfacet
facet normal -0.7071144879464493 -0.0 -0.7070990743426488
outer loop
vertex -47.650001525878906 -5.0 1.25
vertex -47.650001525878906 -15.0 1.25
vertex -48.0 -14.650001525878906 1.600006103515625
endloop
endfacet
facet normal -0.7071144879464492 0.0 -0.7070990743426487
outer loop
vertex -47.650001525878906 -5.0 1.25
vertex -48.0 -14.650001525878906 1.600006103515625
vertex -48.0 -5.349998474121094 1.600006103515625
endloop
endfacet
facet normal -0.0 -1.0 -0.0
outer loop
vertex -47.64999771118164 5.0 4.75
vertex -47.650001525878906 5.0 4.75
vertex -47.650001525878906 5.0 1.25
endloop
endfacet
facet normal 0.0 -1.0 0.0
outer loop
vertex -47.650001525878906 5.0 1.25
vertex -44.0 5.0 1.25
vertex -44.0 5.0 4.75
endloop
endfacet
facet normal 0.0 -1.0 -0.0
outer loop
vertex -47.64999771118164 5.0 4.75
vertex -47.650001525878906 5.0 1.25
vertex -44.0 5.0 4.75
endloop
endfacet
facet normal 0.0 0.0 -1.0
outer loop
vertex -44.0 5.0 1.25
vertex -47.650001525878906 5.0 1.25
vertex -47.650001525878906 15.0 1.25
endloop
endfacet
facet normal 0.0 0.0 -1.0
outer loop
vertex -44.0 5.0 1.25
vertex -47.650001525878906 15.0 1.25
vertex -44.0 15.0 1.25
endloop
endfacet
facet normal 0.0 1.0 0.0
outer loop
vertex -47.650001525878906 15.0 1.25
vertex -47.650001525878906 15.0 4.75
vertex -47.64999771118164 15.0 4.75
endloop
endfacet
facet normal -0.0 1.0 0.0
outer loop
vertex -47.64999771118164 15.0 4.75
vertex -44.0 15.0 4.75
vertex -44.0 15.0 1.25
endloop
endfacet
facet normal 0.0 1.0 0.0
outer loop
vertex -47.64999771118164 15.0 4.75
vertex -44.0 15.0 1.25
vertex -47.650001525878906 15.0 1.25
endloop
endfacet
facet normal 0.0 0.0 1.0
outer loop
vertex -44.0 15.0 4.75
vertex -47.64999771118164 15.0 4.75
vertex -47.64999771118164 5.0 4.75
endloop
endfacet
facet normal -0.0 0.0 1.0
outer loop
vertex -44.0 15.0 4.75
vertex -47.64999771118164 5.0 4.75
vertex -44.0 5.0 4.75
endloop
endfacet
facet normal -0.9999999999999999 0.0 0.0
outer loop
vertex -48.0 5.349998474121094 4.399993896484375
vertex -48.0 14.650001525878906 4.399993896484375
vertex -48.0 14.650001525878906 1.600006103515625
endloop
endfacet
facet normal -1.0 -0.0 -0.0
outer loop
vertex -48.0 5.349998474121094 4.399993896484375
vertex -48.0 14.650001525878906 1.600006103515625
vertex -48.0 5.349997520446777 1.600006103515625
endloop
endfacet
facet normal -0.7071067811865475 -0.7071067811865475 0.0
outer loop
vertex -47.650001525878906 5.0 1.25
vertex -47.650001525878906 5.0 4.75
vertex -48.0 5.349998474121094 4.399993896484375
endloop
endfacet
facet normal -0.7071056974005809 -0.707107864970812 2.40840553464173e-07
outer loop
vertex -47.650001525878906 5.0 1.25
vertex -48.0 5.349998474121094 4.399993896484375
vertex -48.0 5.349997520446777 1.600006103515625
endloop
endfacet
facet normal -0.7071067811865476 0.7071067811865476 0.0
outer loop
vertex -48.0 14.650001525878906 1.600006103515625
vertex -48.0 14.650001525878906 4.399993896484375
vertex -47.650001525878906 15.0 4.75
endloop
endfacet
facet normal -0.7071067811865475 0.7071067811865475 0.0
outer loop
vertex -48.0 14.650001525878906 1.600006103515625
vertex -47.650001525878906 15.0 4.75
vertex -47.650001525878906 15.0 1.25
endloop
endfacet
facet normal -0.0 0.7071144879464492 0.7070990743426487
outer loop
vertex -48.0 5.349998474121094 4.399993896484375
vertex -47.650001525878906 5.0 4.75
vertex -47.64999771118164 5.0 4.75
endloop
endfacet
facet normal -0.7071106345559992 0.0 0.707102927796097
outer loop
vertex -48.0 14.650001525878906 4.399993896484375
vertex -48.0 5.349998474121094 4.399993896484375
vertex -47.64999771118164 5.0 4.75
endloop
endfacet
facet normal 0.0 -0.0 1.0
outer loop
vertex -47.64999771118164 5.0 4.75
vertex -47.64999771118164 15.0 4.75
vertex -47.650001525878906 15.0 4.75
endloop
endfacet
facet normal -0.7071143530779911 -2.6974271891708034e-07 0.7070992092139697
outer loop
vertex -47.64999771118164 5.0 4.75
vertex -47.650001525878906 15.0 4.75
vertex -48.0 14.650001525878906 4.399993896484375
endloop
endfacet
facet normal -0.7071144879464493 -0.0 -0.7070990743426488
outer loop
vertex -47.650001525878906 15.0 1.25
vertex -47.650001525878906 5.0 1.25
vertex -48.0 5.349997520446777 1.600006103515625
endloop
endfacet
facet normal -0.7071144879464492 0.0 -0.7070990743426487
outer loop
vertex -47.650001525878906 15.0 1.25
vertex -48.0 5.349997520446777 1.600006103515625
vertex -48.0 14.650001525878906 1.600006103515625
endloop
endfacet
facet normal 0.0 -1.0 0.0
outer loop
vertex 44.0 -15.0 4.75
vertex 44.0 -15.0 1.25
vertex 47.64999771118164 -15.0 1.25
endloop
endfacet
facet normal 0.0 -1.0 0.0
outer loop
vertex 44.0 -15.0 4.75
vertex 47.64999771118164 -15.0 1.25
vertex 47.64999771118164 -15.0 4.75
endloop
endfacet
facet normal 0.0 -0.0 1.0
outer loop
vertex 47.64999771118164 -15.0 4.75
vertex 47.64999771118164 -5.0 4.75
vertex 44.0 -5.0 4.75
endloop
endfacet
facet normal 0.0 0.0 1.0
outer loop
vertex 47.64999771118164 -15.0 4.75
vertex 44.0 -5.0 4.75
vertex 44.0 -15.0 4.75
endloop
endfacet
facet normal 0.0 1.0 0.0
outer loop
vertex 47.64999771118164 -5.0 4.75
vertex 47.64999771118164 -5.0 1.25
vertex 44.0 -5.0 1.25
endloop
endfacet
facet normal 0.0 1.0 -0.0
outer loop
vertex 47.64999771118164 -5.0 4.75
vertex 44.0 -5.0 1.25
vertex 44.0 -5.0 4.75
endloop
endfacet
facet normal -0.0 -0.0 -1.0
outer loop
vertex 47.64999771118164 -5.0 1.25
vertex 47.64999771118164 -15.0 1.25
vertex 44.0 -15.0 1.25
endloop
endfacet
facet normal -0.0 0.0 -1.0
outer loop
vertex 47.64999771118164 -5.0 1.25
vertex 44.0 -15.0 1.25
vertex 44.0 -5.0 1.25
endloop
endfacet
facet normal 1.0 -0.0 0.0
outer loop
vertex 48.0 -14.650004386901855 4.399993896484375
vertex 48.0 -14.650004386901855 1.600006103515625
vertex 48.0 -5.349996089935303 1.600006103515625
endloop
endfacet
facet normal 1.0 -0.0 0.0
outer loop
vertex 48.0 -14.650004386901855 4.399993896484375
vertex 48.0 -5.349996089935303 1.600006103515625
vertex 48.0 -5.349996089935303 4.399993896484375
endloop
endfacet
facet normal 0.7071000376384182 -0.7071135246703653 0.0
outer loop
vertex 47.64999771118164 -15.0 4.75
vertex 47.64999771118164 -15.0 1.25
vertex 48.0 -14.650004386901855 1.600006103515625
endloop
endfacet
facet normal 0.7071000376384183 -0.7071135246703654 0.0
outer loop
vertex 47.64999771118164 -15.0 4.75
vertex 48.0 -14.650004386901855 1.600006103515625
vertex 48.0 -14.650004386901855 4.399993896484375
endloop
endfacet
facet normal 0.7071005193268258 0.7071130429908171 0.0
outer loop
vertex 48.0 -5.349996089935303 4.399993896484375
vertex 48.0 -5.349996089935303 1.600006103515625
vertex 47.64999771118164 -5.0 1.25
endloop
endfacet
facet normal 0.7071005193268259 0.7071130429908171 -0.0
outer loop
vertex 48.0 -5.349996089935303 4.399993896484375
vertex 47.64999771118164 -5.0 1.25
vertex 47.64999771118164 -5.0 4.75
endloop
endfacet
facet normal 0.7071106345559992 0.0 -0.7071029277960968
outer loop
vertex 48.0 -14.650004386901855 1.600006103515625
vertex 47.64999771118164 -15.0 1.25
vertex 47.64999771118164 -5.0 1.25
endloop
endfacet
facet normal 0.7071106345559991 0.0 -0.7071029277960968
outer loop
vertex 48.0 -14.650004386901855 1.600006103515625
vertex 47.64999771118164 -5.0 1.25
vertex 48.0 -5.349996089935303 1.600006103515625
endloop
endfacet
facet normal 0.7071106345559992 0.0 0.7071029277960968
outer loop
vertex 48.0 -5.349996089935303 4.399993896484375
vertex 47.64999771118164 -5.0 4.75
vertex 47.64999771118164 -15.0 4.75
endloop
endfacet
facet normal 0.7071106345559991 0.0 0.7071029277960968
outer loop
vertex 48.0 -5.349996089935303 4.399993896484375
vertex 47.64999771118164 -15.0 4.75
vertex 48.0 -14.650004386901855 4.399993896484375
endloop
endfacet
facet normal 0.0 -1.0 0.0
outer loop
vertex 47.64999771118164 5.0 1.25
vertex 47.64999771118164 5.0 4.75
vertex 44.0 5.0 4.75
endloop
endfacet
facet normal -0.0 -1.0 -0.0
outer loop
vertex 47.64999771118164 5.0 1.25
vertex 44.0 5.0 4.75
vertex 44.0 5.0 1.25
endloop
endfacet
facet normal 0.0 -0.0 1.0
outer loop
vertex 47.64999771118164 5.0 4.75
vertex 47.64999771118164 15.0 4.75
vertex 44.0 15.0 4.75
endloop
endfacet
facet normal 0.0 0.0 1.0
outer loop
vertex 47.64999771118164 5.0 4.75
vertex 44.0 15.0 4.75
vertex 44.0 5.0 4.75
endloop
endfacet
facet normal 0.0 1.0 0.0
outer loop
vertex 47.64999771118164 15.0 4.75
vertex 47.64999771118164 15.0 1.25
vertex 44.0 15.0 1.25
endloop
endfacet
facet normal 0.0 1.0 -0.0
outer loop
vertex 47.64999771118164 15.0 4.75
vertex 44.0 15.0 1.25
vertex 44.0 15.0 4.75
endloop
endfacet
facet normal -0.0 -0.0 -1.0
outer loop
vertex 47.64999771118164 15.0 1.25
vertex 47.64999771118164 5.0 1.25
vertex 44.0 5.0 1.25
endloop
endfacet
facet normal -0.0 0.0 -1.0
outer loop
vertex 47.64999771118164 15.0 1.25
vertex 44.0 5.0 1.25
vertex 44.0 15.0 1.25
endloop
endfacet
facet normal 1.0 -0.0 0.0
outer loop
vertex 48.0 5.349996089935303 4.399993896484375
vertex 48.0 5.349996089935303 1.600006103515625
vertex 48.0 14.650004386901855 1.600006103515625
endloop
endfacet
facet normal 1.0 -0.0 0.0
outer loop
vertex 48.0 5.349996089935303 4.399993896484375
vertex 48.0 14.650004386901855 1.600006103515625
vertex 48.0 14.650004386901855 4.399993896484375
endloop
endfacet
facet normal 0.7071005193268259 -0.7071130429908171 0.0
outer loop
vertex 47.64999771118164 5.0 4.75
vertex 47.64999771118164 5.0 1.25
vertex 48.0 5.349996089935303 1.600006103515625
endloop
endfacet
facet normal 0.7071005193268258 -0.7071130429908171 0.0
outer loop
vertex 47.64999771118164 5.0 4.75
vertex 48.0 5.349996089935303 1.600006103515625
vertex 48.0 5.349996089935303 4.399993896484375
endloop
endfacet
facet normal 0.7071000376384183 0.7071135246703654 0.0
outer loop
vertex 48.0 14.650004386901855 4.399993896484375
vertex 48.0 14.650004386901855 1.600006103515625
vertex 47.64999771118164 15.0 1.25
endloop
endfacet
facet normal 0.7071000376384182 0.7071135246703653 -0.0
outer loop
vertex 48.0 14.650004386901855 4.399993896484375
vertex 47.64999771118164 15.0 1.25
vertex 47.64999771118164 15.0 4.75
endloop
endfacet
facet normal 0.7071106345559992 0.0 -0.7071029277960968
outer loop
vertex 48.0 5.349996089935303 1.600006103515625
vertex 47.64999771118164 5.0 1.25
vertex 47.64999771118164 15.0 1.25
endloop
endfacet
facet normal 0.7071106345559991 0.0 -0.7071029277960968
outer loop
vertex 48.0 5.349996089935303 1.600006103515625
vertex 47.64999771118164 15.0 1.25
vertex 48.0 14.650004386901855 1.600006103515625
endloop
endfacet
facet normal 0.7071106345559992 0.0 0.7071029277960968
outer loop
vertex 48.0 14.650004386901855 4.399993896484375
vertex 47.64999771118164 15.0 4.75
vertex 47.64999771118164 5.0 4.75
endloop
endfacet
facet normal 0.7071106345559991 0.0 0.7071029277960968
outer loop
vertex 48.0 14.650004386901855 4.399993896484375
vertex 47.64999771118164 5.0 4.75
vertex 48.0 5.349996089935303 4.399993896484375
endloop
endfacet

endsolid
