solid 
facet normal -1.0 0.0 0.0
outer loop
vertex -44.0 -16.0 0.0
vertex -44.0 -16.0 6.0
vertex -44.0 -15.0 4.75
endloop
endfacet
facet normal -1.0 0.0 0.0
outer loop
vertex -44.0 -16.0 0.0
vertex -44.0 -15.0 4.75
vertex -44.0 -15.0 1.2499998807907104
endloop
endfacet
facet normal -1.0 0.0 0.0
outer loop
vertex -44.0 15.0 4.75
vertex -44.0 16.0 6.0
vertex -44.0 16.0 0.0
endloop
endfacet
facet normal -1.0 -0.0 -0.0
outer loop
vertex -44.0 15.0 4.75
vertex -44.0 16.0 0.0
vertex -44.0 15.0 1.2499998807907104
endloop
endfacet
facet normal -1.0 0.0 0.0
outer loop
vertex -44.0 5.0 1.2499998807907104
vertex -44.0 15.0 1.2499998807907104
vertex -44.0 16.0 0.0
endloop
endfacet
facet normal -0.9999999999999999 0.0 0.0
outer loop
vertex -44.0 16.0 0.0
vertex -44.0 -16.0 0.0
vertex -44.0 -15.0 1.2499998807907104
endloop
endfacet
facet normal -1.0 0.0 0.0
outer loop
vertex -44.0 16.0 0.0
vertex -44.0 -15.0 1.2499998807907104
vertex -44.0 -5.0 1.2499998807907104
endloop
endfacet
facet normal -1.0 -0.0 -0.0
outer loop
vertex -44.0 5.0 1.2499998807907104
vertex -44.0 16.0 0.0
vertex -44.0 -5.0 1.2499998807907104
endloop
endfacet
facet normal -1.0 0.0 0.0
outer loop
vertex -44.0 -5.0 4.75
vertex -44.0 -15.0 4.75
vertex -44.0 -16.0 6.0
endloop
endfacet
facet normal -1.0 0.0 0.0
outer loop
vertex -44.0 5.0 1.2499998807907104
vertex -44.0 -5.0 1.2499998807907104
vertex -44.0 -5.0 4.75
endloop
endfacet
facet normal -1.0 -0.0 0.0
outer loop
vertex -44.0 16.0 6.0
vertex -44.0 15.0 4.75
vertex -44.0 5.0 4.75
endloop
endfacet
facet normal -1.0 -0.0 -0.0
outer loop
vertex -44.0 5.0 4.75
vertex -44.0 5.0 1.2499998807907104
vertex -44.0 -5.0 4.75
endloop
endfacet
facet normal -1.0 0.0 0.0
outer loop
vertex -44.0 -5.0 4.75
vertex -44.0 -16.0 6.0
vertex -44.0 16.0 6.0
endloop
endfacet
facet normal -1.0 0.0 -0.0
outer loop
vertex -44.0 -5.0 4.75
vertex -44.0 16.0 6.0
vertex -44.0 5.0 4.75
endloop
endfacet
facet normal 0.0 1.0 0.0
outer loop
vertex -44.0 16.0 0.0
vertex -44.0 16.0 6.0
vertex 44.0 16.0 6.0
endloop
endfacet
facet normal -0.0 1.0 0.0
outer loop
vertex -44.0 16.0 0.0
vertex 44.0 16.0 6.0
vertex 44.0 16.0 0.0
endloop
endfacet
facet normal 1.0 0.0 0.0
outer loop
vertex 44.0 -15.0 4.75
vertex 44.0 -16.0 6.0
vertex 44.0 -16.0 0.0
endloop
endfacet
facet normal 1.0 -0.0 0.0
outer loop
vertex 44.0 -15.0 4.75
vertex 44.0 -16.0 0.0
vertex 44.0 -15.0 1.2499998807907104
endloop
endfacet
facet normal 1.0 -0.0 0.0
outer loop
vertex 44.0 15.0 1.2499998807907104
vertex 44.0 16.0 0.0
vertex 44.0 16.0 6.0
endloop
endfacet
facet normal 1.0 0.0 -0.0
outer loop
vertex 44.0 15.0 1.2499998807907104
vertex 44.0 16.0 6.0
vertex 44.0 15.0 4.75
endloop
endfacet
facet normal 1.0 0.0 0.0
outer loop
vertex 44.0 5.0 4.75
vertex 44.0 15.0 4.75
vertex 44.0 16.0 6.0
endloop
endfacet
facet normal 1.0 0.0 0.0
outer loop
vertex 44.0 16.0 6.0
vertex 44.0 -16.0 6.0
vertex 44.0 -15.0 4.75
endloop
endfacet
facet normal 1.0 -0.0 0.0
outer loop
vertex 44.0 16.0 6.0
vertex 44.0 -15.0 4.75
vertex 44.0 -5.0 4.75
endloop
endfacet
facet normal 1.0 0.0 -0.0
outer loop
vertex 44.0 5.0 4.75
vertex 44.0 16.0 6.0
vertex 44.0 -5.0 4.75
endloop
endfacet
facet normal 1.0 0.0 0.0
outer loop
vertex 44.0 -5.0 1.2499998807907104
vertex 44.0 -15.0 1.2499998807907104
vertex 44.0 -16.0 0.0
endloop
endfacet
facet normal 1.0 0.0 0.0
outer loop
vertex 44.0 5.0 4.75
vertex 44.0 -5.0 4.75
vertex 44.0 -5.0 1.2499998807907104
endloop
endfacet
facet normal 1.0 0.0 0.0
outer loop
vertex 44.0 16.0 0.0
vertex 44.0 15.0 1.2499998807907104
vertex 44.0 5.0 1.2499998807907104
endloop
endfacet
facet normal 1.0 0.0 -0.0
outer loop
vertex 44.0 5.0 1.2499998807907104
vertex 44.0 5.0 4.75
vertex 44.0 -5.0 1.2499998807907104
endloop
endfacet
facet normal 0.9999999999999999 -0.0 0.0
outer loop
vertex 44.0 -5.0 1.2499998807907104
vertex 44.0 -16.0 0.0
vertex 44.0 16.0 0.0
endloop
endfacet
facet normal 1.0 -0.0 -0.0
outer loop
vertex 44.0 -5.0 1.2499998807907104
vertex 44.0 16.0 0.0
vertex 44.0 5.0 1.2499998807907104
endloop
endfacet
facet normal -0.0 -0.9999999999999999 -0.0
outer loop
vertex 21.842103958129883 -16.0 2.5250000953674316
vertex -37.0 -16.0 2.5250000953674316
vertex -37.0 -16.0 1.725000023841858
endloop
endfacet
facet normal 0.0 -1.0 0.0
outer loop
vertex -37.0 -16.0 1.725000023841858
vertex 37.0 -16.0 1.725000023841858
vertex 37.0 -16.0 2.5250000953674316
endloop
endfacet
facet normal 0.0 -1.0 -0.0
outer loop
vertex 21.842103958129883 -16.0 2.5250000953674316
vertex -37.0 -16.0 1.725000023841858
vertex 37.0 -16.0 2.5250000953674316
endloop
endfacet
facet normal -0.0 -1.0 -0.0
outer loop
vertex -11.315791130065918 -16.0 4.275000095367432
vertex -37.0 -16.0 4.275000095367432
vertex -37.0 -16.0 3.4749999046325684
endloop
endfacet
facet normal 0.0 -0.9999999999999999 0.0
outer loop
vertex 3.8421072959899902 -16.0 3.4749999046325684
vertex 37.0 -16.0 3.4749999046325684
vertex 37.0 -16.0 4.275000095367432
endloop
endfacet
facet normal 0.0 -1.0 -0.0
outer loop
vertex -11.315791130065918 -16.0 4.275000095367432
vertex -37.0 -16.0 3.4749999046325684
vertex 3.8421072959899902 -16.0 3.4749999046325684
endloop
endfacet
facet normal 0.0 -1.0 0.0
outer loop
vertex 3.8421072959899902 -16.0 3.4749999046325684
vertex 37.0 -16.0 4.275000095367432
vertex 16.56540298461914 -16.0 4.275000095367432
endloop
endfacet
facet normal 0.0 -1.0 0.0
outer loop
vertex -11.315791130065918 -16.0 4.275000095367432
vertex 3.8421072959899902 -16.0 3.4749999046325684
vertex 16.56540298461914 -16.0 4.275000095367432
endloop
endfacet
facet normal 0.0 -1.0 0.0
outer loop
vertex -44.0 -16.0 6.0
vertex -44.0 -16.0 0.0
vertex -37.0 -16.0 0.9750000238418579
endloop
endfacet
facet normal 0.0 -1.0 0.0
outer loop
vertex -44.0 -16.0 6.0
vertex -37.0 -16.0 0.9750000238418579
vertex -37.0 -16.0 1.725000023841858
endloop
endfacet
facet normal 0.0 -1.0 0.0
outer loop
vertex 37.0 -16.0 0.9750000238418579
vertex 44.0 -16.0 0.0
vertex 44.0 -16.0 6.0
endloop
endfacet
facet normal 0.0 -1.0 0.0
outer loop
vertex 37.0 -16.0 1.725000023841858
vertex 37.0 -16.0 0.9750000238418579
vertex 44.0 -16.0 6.0
endloop
endfacet
facet normal 0.0 -1.0 0.0
outer loop
vertex -44.0 -16.0 6.0
vertex -37.0 -16.0 1.725000023841858
vertex -37.0 -16.0 2.5250000953674316
endloop
endfacet
facet normal 0.0 -1.0 0.0
outer loop
vertex -44.0 -16.0 6.0
vertex -37.0 -16.0 2.5250000953674316
vertex -37.0 -16.0 3.4749999046325684
endloop
endfacet
facet normal 0.0 -1.0 0.0
outer loop
vertex 37.0 -16.0 2.5250000953674316
vertex 37.0 -16.0 1.725000023841858
vertex 44.0 -16.0 6.0
endloop
endfacet
facet normal 0.0 -1.0 0.0
outer loop
vertex 37.0 -16.0 3.4749999046325684
vertex 37.0 -16.0 2.5250000953674316
vertex 44.0 -16.0 6.0
endloop
endfacet
facet normal 0.0 -1.0 0.0
outer loop
vertex -44.0 -16.0 6.0
vertex -37.0 -16.0 3.4749999046325684
vertex -37.0 -16.0 4.275000095367432
endloop
endfacet
facet normal 0.0 -1.0 0.0
outer loop
vertex -44.0 -16.0 6.0
vertex -37.0 -16.0 4.275000095367432
vertex -37.0 -16.0 5.025000095367432
endloop
endfacet
facet normal 0.0 -1.0 0.0
outer loop
vertex 37.0 -16.0 4.275000095367432
vertex 37.0 -16.0 3.4749999046325684
vertex 44.0 -16.0 6.0
endloop
endfacet
facet normal 0.0 -1.0 0.0
outer loop
vertex 37.0 -16.0 5.025000095367432
vertex 37.0 -16.0 4.275000095367432
vertex 44.0 -16.0 6.0
endloop
endfacet
facet normal -0.0 -1.0 -0.0
outer loop
vertex 44.0 -16.0 6.0
vertex -44.0 -16.0 6.0
vertex -37.0 -16.0 5.025000095367432
endloop
endfacet
facet normal 0.0 -1.0 -0.0
outer loop
vertex 44.0 -16.0 6.0
vertex -37.0 -16.0 5.025000095367432
vertex -25.526317596435547 -16.0 5.025000095367432
endloop
endfacet
facet normal 0.0 -1.0 0.0
outer loop
vertex 28.493488311767578 -16.0 5.025000095367432
vertex 37.0 -16.0 5.025000095367432
vertex 44.0 -16.0 6.0
endloop
endfacet
facet normal 0.0 -1.0 0.0
outer loop
vertex -25.526317596435547 -16.0 5.025000095367432
vertex 28.493488311767578 -16.0 5.025000095367432
vertex 44.0 -16.0 6.0
endloop
endfacet
facet normal -0.0 -1.0 -0.0
outer loop
vertex -25.526317596435547 -16.0 5.025000095367432
vertex -37.0 -16.0 5.025000095367432
vertex -37.0 -16.0 4.275000095367432
endloop
endfacet
facet normal 0.0 -1.0 -0.0
outer loop
vertex -25.526317596435547 -16.0 5.025000095367432
vertex -37.0 -16.0 4.275000095367432
vertex -11.315791130065918 -16.0 4.275000095367432
endloop
endfacet
facet normal 0.0 -1.0 0.0
outer loop
vertex 16.56540298461914 -16.0 4.275000095367432
vertex 37.0 -16.0 4.275000095367432
vertex 37.0 -16.0 5.025000095367432
endloop
endfacet
facet normal 0.0 -0.9999999999999999 0.0
outer loop
vertex 16.56540298461914 -16.0 4.275000095367432
vertex 37.0 -16.0 5.025000095367432
vertex 28.493488311767578 -16.0 5.025000095367432
endloop
endfacet
facet normal 0.0 -1.0 0.0
outer loop
vertex -11.315791130065918 -16.0 4.275000095367432
vertex 16.56540298461914 -16.0 4.275000095367432
vertex 28.493488311767578 -16.0 5.025000095367432
endloop
endfacet
facet normal 0.0 -1.0 0.0
outer loop
vertex -11.315791130065918 -16.0 4.275000095367432
vertex 28.493488311767578 -16.0 5.025000095367432
vertex -25.526317596435547 -16.0 5.025000095367432
endloop
endfacet
facet normal -0.0 -0.9999999999999999 -0.0
outer loop
vertex 3.8421072959899902 -16.0 3.4749999046325684
vertex -37.0 -16.0 3.4749999046325684
vertex -37.0 -16.0 2.5250000953674316
endloop
endfacet
facet normal 0.0 -0.9999999999999999 -0.0
outer loop
vertex 3.8421072959899902 -16.0 3.4749999046325684
vertex -37.0 -16.0 2.5250000953674316
vertex 21.842103958129883 -16.0 2.5250000953674316
endloop
endfacet
facet normal 0.0 -1.0 0.0
outer loop
vertex 21.842103958129883 -16.0 2.5250000953674316
vertex 37.0 -16.0 2.5250000953674316
vertex 37.0 -16.0 3.4749999046325684
endloop
endfacet
facet normal 0.0 -0.9999999999999999 0.0
outer loop
vertex 21.842103958129883 -16.0 2.5250000953674316
vertex 37.0 -16.0 3.4749999046325684
vertex 3.8421072959899902 -16.0 3.4749999046325684
endloop
endfacet
facet normal -0.0 -1.0 0.0
outer loop
vertex 29.69999885559082 -16.0 0.9750000238418579
vertex -37.0 -16.0 0.9750000238418579
vertex -44.0 -16.0 0.0
endloop
endfacet
facet normal 0.0 -1.0 0.0
outer loop
vertex -44.0 -16.0 0.0
vertex 44.0 -16.0 0.0
vertex 37.0 -16.0 0.9750000238418579
endloop
endfacet
facet normal 0.0 -1.0 -0.0
outer loop
vertex 29.69999885559082 -16.0 0.9750000238418579
vertex -44.0 -16.0 0.0
vertex 37.0 -16.0 0.9750000238418579
endloop
endfacet
facet normal 0.0 -1.0 0.0
outer loop
vertex 29.69999885559082 -16.0 0.9750000238418579
vertex 37.0 -16.0 0.9750000238418579
vertex 28.425395965576172 -16.0 1.061904788017273
endloop
endfacet
facet normal 0.0 -1.0 0.0
outer loop
vertex 28.425395965576172 -16.0 1.061904788017273
vertex 37.0 -16.0 0.9750000238418579
vertex 37.0 -16.0 1.725000023841858
endloop
endfacet
facet normal -0.0 -1.0 -0.0
outer loop
vertex 37.0 -16.0 1.725000023841858
vertex -37.0 -16.0 1.725000023841858
vertex -37.0 -16.0 0.9750000238418579
endloop
endfacet
facet normal 0.0 -0.9999999999999999 0.0
outer loop
vertex -37.0 -16.0 0.9750000238418579
vertex 29.69999885559082 -16.0 0.9750000238418579
vertex 28.425395965576172 -16.0 1.061904788017273
endloop
endfacet
facet normal -0.0 -1.0 0.0
outer loop
vertex 28.425395965576172 -16.0 1.061904788017273
vertex 37.0 -16.0 1.725000023841858
vertex -37.0 -16.0 0.9750000238418579
endloop
endfacet
facet normal 0.0 0.0 -1.0
outer loop
vertex -44.0 16.0 0.0
vertex 44.0 16.0 0.0
vertex 44.0 -16.0 0.0
endloop
endfacet
facet normal -0.0 -0.0 -1.0
outer loop
vertex -44.0 16.0 0.0
vertex 44.0 -16.0 0.0
vertex -44.0 -16.0 0.0
endloop
endfacet
facet normal 0.0 0.0 1.0
outer loop
vertex -32.381248474121094 -11.774999618530273 6.0
vertex -37.0 -11.774999618530273 6.0
vertex -44.0 -16.0 6.0
endloop
endfacet
facet normal 0.0 -0.0 1.0
outer loop
vertex -44.0 -16.0 6.0
vertex 44.0 -16.0 6.0
vertex 37.0 -11.774999618530273 6.0
endloop
endfacet
facet normal -0.0 0.0 1.0
outer loop
vertex -32.381248474121094 -11.774999618530273 6.0
vertex -44.0 -16.0 6.0
vertex 37.0 -11.774999618530273 6.0
endloop
endfacet
facet normal -0.0 0.0 1.0
outer loop
vertex -44.0 16.0 6.0
vertex -44.0 -16.0 6.0
vertex -37.0 -11.774999618530273 6.0
endloop
endfacet
facet normal -0.0 0.0 1.0
outer loop
vertex -44.0 16.0 6.0
vertex -37.0 -11.774999618530273 6.0
vertex -37.0 -10.625 6.0
endloop
endfacet
facet normal -0.0 0.0 1.0
outer loop
vertex 37.0 -11.774999618530273 6.0
vertex 44.0 -16.0 6.0
vertex 44.0 16.0 6.0
endloop
endfacet
facet normal -0.0 0.0 1.0
outer loop
vertex 37.0 -10.625 6.0
vertex 37.0 -11.774999618530273 6.0
vertex 44.0 16.0 6.0
endloop
endfacet
facet normal -0.0 0.0 1.0
outer loop
vertex -44.0 16.0 6.0
vertex -37.0 -10.625 6.0
vertex -37.0 -4.425000190734863 6.0
endloop
endfacet
facet normal -0.0 0.0 1.0
outer loop
vertex -44.0 16.0 6.0
vertex -37.0 -4.425000190734863 6.0
vertex -37.0 -3.575000047683716 6.0
endloop
endfacet
facet normal -0.0 0.0 1.0
outer loop
vertex 37.0 -4.425000190734863 6.0
vertex 37.0 -10.625 6.0
vertex 44.0 16.0 6.0
endloop
endfacet
facet normal -0.0 0.0 1.0
outer loop
vertex 37.0 -3.575000047683716 6.0
vertex 37.0 -4.425000190734863 6.0
vertex 44.0 16.0 6.0
endloop
endfacet
facet normal -0.0 0.0 1.0
outer loop
vertex -44.0 16.0 6.0
vertex -37.0 -3.575000047683716 6.0
vertex -37.0 3.674999713897705 6.0
endloop
endfacet
facet normal -0.0 0.0 1.0
outer loop
vertex -44.0 16.0 6.0
vertex -37.0 3.674999713897705 6.0
vertex -37.0 4.724999904632568 6.0
endloop
endfacet
facet normal -0.0 0.0 1.0
outer loop
vertex 37.0 3.674999713897705 6.0
vertex 37.0 -3.575000047683716 6.0
vertex 44.0 16.0 6.0
endloop
endfacet
facet normal -0.0 0.0 1.0
outer loop
vertex 37.0 4.724999904632568 6.0
vertex 37.0 3.674999713897705 6.0
vertex 44.0 16.0 6.0
endloop
endfacet
facet normal -0.0 0.0 1.0
outer loop
vertex -44.0 16.0 6.0
vertex -37.0 4.724999904632568 6.0
vertex -37.0 10.65000057220459 6.0
endloop
endfacet
facet normal -0.0 0.0 1.0
outer loop
vertex -44.0 16.0 6.0
vertex -37.0 10.65000057220459 6.0
vertex -37.0 11.550000190734863 6.0
endloop
endfacet
facet normal -0.0 0.0 1.0
outer loop
vertex 37.0 10.65000057220459 6.0
vertex 37.0 4.724999904632568 6.0
vertex 44.0 16.0 6.0
endloop
endfacet
facet normal -0.0 0.0 1.0
outer loop
vertex 37.0 11.550000190734863 6.0
vertex 37.0 10.65000057220459 6.0
vertex 44.0 16.0 6.0
endloop
endfacet
facet normal 0.0 0.0 1.0
outer loop
vertex 44.0 16.0 6.0
vertex -44.0 16.0 6.0
vertex -37.0 11.550000190734863 6.0
endloop
endfacet
facet normal -0.0 0.0 1.0
outer loop
vertex 44.0 16.0 6.0
vertex -37.0 11.550000190734863 6.0
vertex 12.031044006347656 11.550000190734863 6.0
endloop
endfacet
facet normal 0.0 0.0 1.0
outer loop
vertex 31.762500762939453 11.550000190734863 6.0
vertex 37.0 11.550000190734863 6.0
vertex 44.0 16.0 6.0
endloop
endfacet
facet normal -0.0 0.0 0.9999999999999999
outer loop
vertex 44.0 16.0 6.0
vertex 12.031044006347656 11.550000190734863 6.0
vertex 25.58620834350586 11.550000190734863 6.0
endloop
endfacet
facet normal 0.0 0.0 1.0
outer loop
vertex 25.58620834350586 11.550000190734863 6.0
vertex 31.762500762939453 11.550000190734863 6.0
vertex 44.0 16.0 6.0
endloop
endfacet
facet normal 0.0 0.0 0.9999999999999999
outer loop
vertex 5.5654144287109375 10.65000057220459 6.0
vertex -37.0 10.65000057220459 6.0
vertex -37.0 4.724999904632568 6.0
endloop
endfacet
facet normal -0.0 0.0 1.0
outer loop
vertex 5.5654144287109375 10.65000057220459 6.0
vertex -37.0 4.724999904632568 6.0
vertex -2.65517258644104 4.724999904632568 6.0
endloop
endfacet
facet normal 0.0 0.0 1.0
outer loop
vertex 21.862071990966797 10.65000057220459 6.0
vertex 5.5654144287109375 10.65000057220459 6.0
vertex -2.65517258644104 4.724999904632568 6.0
endloop
endfacet
facet normal 0.0 0.0 1.0
outer loop
vertex 12.993749618530273 4.724999904632568 6.0
vertex 37.0 4.724999904632568 6.0
vertex 37.0 10.65000057220459 6.0
endloop
endfacet
facet normal -0.0 0.0 1.0
outer loop
vertex 21.862071990966797 10.65000057220459 6.0
vertex -2.65517258644104 4.724999904632568 6.0
vertex 12.993749618530273 4.724999904632568 6.0
endloop
endfacet
facet normal 0.0 -0.0 1.0
outer loop
vertex 12.993749618530273 4.724999904632568 6.0
vertex 37.0 10.65000057220459 6.0
vertex 29.28750228881836 10.65000057220459 6.0
endloop
endfacet
facet normal 0.0 -0.0 0.9999999999999999
outer loop
vertex 12.993749618530273 4.724999904632568 6.0
vertex 29.28750228881836 10.65000057220459 6.0
vertex 21.862071990966797 10.65000057220459 6.0
endloop
endfacet
facet normal 0.0 -0.0 1.0
outer loop
vertex 37.0 10.65000057220459 6.0
vertex 37.0 11.550000190734863 6.0
vertex 31.762500762939453 11.550000190734863 6.0
endloop
endfacet
facet normal 0.0 0.0 0.9999999999999999
outer loop
vertex 37.0 10.65000057220459 6.0
vertex 31.762500762939453 11.550000190734863 6.0
vertex 29.28750228881836 10.65000057220459 6.0
endloop
endfacet
facet normal -0.0 0.0 1.0
outer loop
vertex -37.0 11.550000190734863 6.0
vertex -37.0 10.65000057220459 6.0
vertex 5.5654144287109375 10.65000057220459 6.0
endloop
endfacet
facet normal -0.0 0.0 1.0
outer loop
vertex -37.0 11.550000190734863 6.0
vertex 5.5654144287109375 10.65000057220459 6.0
vertex 12.031044006347656 11.550000190734863 6.0
endloop
endfacet
facet normal 0.0 0.0 1.0
outer loop
vertex 31.762500762939453 11.550000190734863 6.0
vertex 25.58620834350586 11.550000190734863 6.0
vertex 21.862071990966797 10.65000057220459 6.0
endloop
endfacet
facet normal -0.0 0.0 1.0
outer loop
vertex 31.762500762939453 11.550000190734863 6.0
vertex 21.862071990966797 10.65000057220459 6.0
vertex 29.28750228881836 10.65000057220459 6.0
endloop
endfacet
facet normal 0.0 0.0 1.0
outer loop
vertex 5.5654144287109375 10.65000057220459 6.0
vertex 21.862071990966797 10.65000057220459 6.0
vertex 25.58620834350586 11.550000190734863 6.0
endloop
endfacet
facet normal 0.0 -0.0 1.0
outer loop
vertex 5.5654144287109375 10.65000057220459 6.0
vertex 25.58620834350586 11.550000190734863 6.0
vertex 12.031044006347656 11.550000190734863 6.0
endloop
endfacet
facet normal 0.0 0.0 0.9999999999999999
outer loop
vertex -7.000000953674316 3.674999713897705 6.0
vertex -37.0 3.674999713897705 6.0
vertex -37.0 -3.575000047683716 6.0
endloop
endfacet
facet normal -0.0 0.0 1.0
outer loop
vertex -7.000000953674316 3.674999713897705 6.0
vertex -37.0 -3.575000047683716 6.0
vertex -33.132659912109375 -3.575000047683716 6.0
endloop
endfacet
facet normal 0.0 0.0 1.0
outer loop
vertex -4.565009117126465 3.674999713897705 6.0
vertex -7.000000953674316 3.674999713897705 6.0
vertex -33.132659912109375 -3.575000047683716 6.0
endloop
endfacet
facet normal 0.0 0.0 1.0
outer loop
vertex -9.831250190734863 -3.575000047683716 6.0
vertex 37.0 -3.575000047683716 6.0
vertex 37.0 3.674999713897705 6.0
endloop
endfacet
facet normal -0.0 0.0 1.0
outer loop
vertex -4.565009117126465 3.674999713897705 6.0
vertex -33.132659912109375 -3.575000047683716 6.0
vertex -9.831250190734863 -3.575000047683716 6.0
endloop
endfacet
facet normal 0.0 -0.0 1.0
outer loop
vertex -9.831250190734863 -3.575000047683716 6.0
vertex 37.0 3.674999713897705 6.0
vertex 10.10624885559082 3.674999713897705 6.0
endloop
endfacet
facet normal 0.0 -0.0 1.0
outer loop
vertex -9.831250190734863 -3.575000047683716 6.0
vertex 10.10624885559082 3.674999713897705 6.0
vertex -4.565009117126465 3.674999713897705 6.0
endloop
endfacet
facet normal 0.0 -0.0 1.0
outer loop
vertex 37.0 3.674999713897705 6.0
vertex 37.0 4.724999904632568 6.0
vertex 12.993749618530273 4.724999904632568 6.0
endloop
endfacet
facet normal 0.0 0.0 1.0
outer loop
vertex 37.0 3.674999713897705 6.0
vertex 12.993749618530273 4.724999904632568 6.0
vertex 10.10624885559082 3.674999713897705 6.0
endloop
endfacet
facet normal -0.0 0.0 0.9999999999999999
outer loop
vertex -2.644152879714966 4.162481307983398 6.0
vertex -4.565009117126465 3.674999713897705 6.0
vertex 10.10624885559082 3.674999713897705 6.0
endloop
endfacet
facet normal 0.0 -0.0 1.0
outer loop
vertex 10.10624885559082 3.674999713897705 6.0
vertex 12.993749618530273 4.724999904632568 6.0
vertex -2.65517258644104 4.724999904632568 6.0
endloop
endfacet
facet normal -0.0 -0.0 1.0
outer loop
vertex -2.644152879714966 4.162481307983398 6.0
vertex 10.10624885559082 3.674999713897705 6.0
vertex -2.65517258644104 4.724999904632568 6.0
endloop
endfacet
facet normal 0.0 -0.0 1.0
outer loop
vertex -7.000000953674316 3.674999713897705 6.0
vertex -4.565009117126465 3.674999713897705 6.0
vertex -5.128713607788086 4.127227306365967 6.0
endloop
endfacet
facet normal -0.0 0.0 1.0
outer loop
vertex -5.128713607788086 4.127227306365967 6.0
vertex -4.565009117126465 3.674999713897705 6.0
vertex -2.644152879714966 4.162481307983398 6.0
endloop
endfacet
facet normal 0.0 0.0 1.0
outer loop
vertex -2.644152879714966 4.162481307983398 6.0
vertex -2.65517258644104 4.724999904632568 6.0
vertex -37.0 4.724999904632568 6.0
endloop
endfacet
facet normal -0.0 0.0 1.0
outer loop
vertex -37.0 4.724999904632568 6.0
vertex -37.0 3.674999713897705 6.0
vertex -7.000000953674316 3.674999713897705 6.0
endloop
endfacet
facet normal 0.0 -0.0 1.0
outer loop
vertex -5.128713607788086 4.127227306365967 6.0
vertex -2.644152879714966 4.162481307983398 6.0
vertex -37.0 4.724999904632568 6.0
endloop
endfacet
facet normal -0.0 0.0 1.0
outer loop
vertex -37.0 4.724999904632568 6.0
vertex -7.000000953674316 3.674999713897705 6.0
vertex -5.128713607788086 4.127227306365967 6.0
endloop
endfacet
facet normal 0.0 0.0 1.0
outer loop
vertex -32.660770416259766 -4.425000190734863 6.0
vertex -37.0 -4.425000190734863 6.0
vertex -37.0 -10.625 6.0
endloop
endfacet
facet normal 0.0 0.0 0.9999999999999999
outer loop
vertex -29.21875 -10.625 6.0
vertex 37.0 -10.625 6.0
vertex 37.0 -4.425000190734863 6.0
endloop
endfacet
facet normal -0.0 0.0 1.0
outer loop
vertex -32.660770416259766 -4.425000190734863 6.0
vertex -37.0 -10.625 6.0
vertex -29.21875 -10.625 6.0
endloop
endfacet
facet normal 0.0 -0.0 0.9999999999999999
outer loop
vertex -29.21875 -10.625 6.0
vertex 37.0 -4.425000190734863 6.0
vertex -12.168750762939453 -4.425000190734863 6.0
endloop
endfacet
facet normal -0.0 0.0 1.0
outer loop
vertex -32.660770416259766 -4.425000190734863 6.0
vertex -29.21875 -10.625 6.0
vertex -12.168750762939453 -4.425000190734863 6.0
endloop
endfacet
facet normal -0.0 0.0 1.0
outer loop
vertex -37.0 -3.575000047683716 6.0
vertex -37.0 -4.425000190734863 6.0
vertex -32.660770416259766 -4.425000190734863 6.0
endloop
endfacet
facet normal -0.0 -0.0 1.0
outer loop
vertex -37.0 -3.575000047683716 6.0
vertex -32.660770416259766 -4.425000190734863 6.0
vertex -33.132659912109375 -3.575000047683716 6.0
endloop
endfacet
facet normal 0.0 -0.0 1.0
outer loop
vertex 37.0 -4.425000190734863 6.0
vertex 37.0 -3.575000047683716 6.0
vertex -9.831250190734863 -3.575000047683716 6.0
endloop
endfacet
facet normal 0.0 0.0 1.0
outer loop
vertex 37.0 -4.425000190734863 6.0
vertex -9.831250190734863 -3.575000047683716 6.0
vertex -12.168750762939453 -4.425000190734863 6.0
endloop
endfacet
facet normal 0.0 0.0 1.0
outer loop
vertex -32.660770416259766 -4.425000190734863 6.0
vertex -12.168750762939453 -4.425000190734863 6.0
vertex -9.831250190734863 -3.575000047683716 6.0
endloop
endfacet
facet normal 0.0 -0.0 1.0
outer loop
vertex -32.660770416259766 -4.425000190734863 6.0
vertex -9.831250190734863 -3.575000047683716 6.0
vertex -33.132659912109375 -3.575000047683716 6.0
endloop
endfacet
facet normal 0.0 0.0 1.0
outer loop
vertex -29.21875 -10.625 6.0
vertex -37.0 -10.625 6.0
vertex -37.0 -11.774999618530273 6.0
endloop
endfacet
facet normal -0.0 0.0 1.0
outer loop
vertex -29.21875 -10.625 6.0
vertex -37.0 -11.774999618530273 6.0
vertex -32.381248474121094 -11.774999618530273 6.0
endloop
endfacet
facet normal 0.0 0.0 1.0
outer loop
vertex -32.381248474121094 -11.774999618530273 6.0
vertex 37.0 -11.774999618530273 6.0
vertex 37.0 -10.625 6.0
endloop
endfacet
facet normal 0.0 -0.0 1.0
outer loop
vertex -32.381248474121094 -11.774999618530273 6.0
vertex 37.0 -10.625 6.0
vertex -29.21875 -10.625 6.0
endloop
endfacet
facet normal 0.0 -1.0 0.0
outer loop
vertex -47.650001525878906 -15.0 4.75
vertex -47.650001525878906 -15.0 1.250000238418579
vertex -44.0 -15.0 1.2499998807907104
endloop
endfacet
facet normal 0.0 -1.0 0.0
outer loop
vertex -47.650001525878906 -15.0 4.75
vertex -44.0 -15.0 1.2499998807907104
vertex -44.0 -15.0 4.75
endloop
endfacet
facet normal 0.0 0.0 -1.0
outer loop
vertex -47.650001525878906 -15.0 1.250000238418579
vertex -47.65000534057617 -14.999996185302734 1.250000238418579
vertex -47.65000534057617 -5.000003814697266 1.250000238418579
endloop
endfacet
facet normal -9.798019702641766e-08 9.798019702641766e-08 -0.9999999999999903
outer loop
vertex -47.65000534057617 -5.000003814697266 1.250000238418579
vertex -47.650001525878906 -5.0 1.250000238418579
vertex -44.0 -5.0 1.2499998807907104
endloop
endfacet
facet normal -9.798019702641812e-08 -0.0 -0.9999999999999951
outer loop
vertex -44.0 -5.0 1.2499998807907104
vertex -44.0 -15.0 1.2499998807907104
vertex -47.650001525878906 -15.0 1.250000238418579
endloop
endfacet
facet normal -9.798009462521664e-08 -3.737645416323502e-14 -0.9999999999999951
outer loop
vertex -47.65000534057617 -5.000003814697266 1.250000238418579
vertex -44.0 -5.0 1.2499998807907104
vertex -47.650001525878906 -15.0 1.250000238418579
endloop
endfacet
facet normal 0.0 1.0 -0.0
outer loop
vertex -44.0 -5.0 1.2499998807907104
vertex -47.650001525878906 -5.0 1.250000238418579
vertex -47.650001525878906 -5.0 4.75
endloop
endfacet
facet normal 0.0 1.0 -0.0
outer loop
vertex -44.0 -5.0 1.2499998807907104
vertex -47.650001525878906 -5.0 4.75
vertex -44.0 -5.0 4.75
endloop
endfacet
facet normal 0.0 -0.0 1.0
outer loop
vertex -44.0 -15.0 4.75
vertex -44.0 -5.0 4.75
vertex -47.650001525878906 -5.0 4.75
endloop
endfacet
facet normal 0.0 0.0 1.0
outer loop
vertex -47.650001525878906 -5.0 4.75
vertex -47.65000534057617 -5.000003337860107 4.75
vertex -47.65000534057617 -14.99999713897705 4.75
endloop
endfacet
facet normal -0.0 0.0 1.0
outer loop
vertex -47.65000534057617 -14.99999713897705 4.75
vertex -47.650001525878906 -15.0 4.75
vertex -44.0 -15.0 4.75
endloop
endfacet
facet normal 0.0 0.0 1.0
outer loop
vertex -47.650001525878906 -5.0 4.75
vertex -47.65000534057617 -14.99999713897705 4.75
vertex -44.0 -15.0 4.75
endloop
endfacet
facet normal -1.0 0.0 -0.0
outer loop
vertex -48.0 -14.650001525878906 4.400004863739014
vertex -48.0 -5.349997520446777 4.400004863739014
vertex -48.0 -5.349998474121094 1.5999948978424072
endloop
endfacet
facet normal -1.0 0.0 -0.0
outer loop
vertex -48.0 -14.650001525878906 4.400004863739014
vertex -48.0 -5.349998474121094 1.5999948978424072
vertex -48.0 -14.650001525878906 1.5999946594238281
endloop
endfacet
facet normal -0.7071067811865476 -0.7071067811865476 -0.0
outer loop
vertex -48.0 -14.650001525878906 4.400004863739014
vertex -48.0 -14.650001525878906 1.5999946594238281
vertex -47.65000534057617 -14.999996185302734 1.250000238418579
endloop
endfacet
facet normal -0.7071067811865476 -0.7071067811865476 0.0
outer loop
vertex -47.65000534057617 -14.999996185302734 1.250000238418579
vertex -47.650001525878906 -15.0 1.250000238418579
vertex -47.650001525878906 -15.0 4.75
endloop
endfacet
facet normal -0.5883481896057339 -0.7844642528076452 -0.1961179335364273
outer loop
vertex -47.650001525878906 -15.0 4.75
vertex -47.65000534057617 -14.99999713897705 4.75
vertex -48.0 -14.650001525878906 4.400004863739014
endloop
endfacet
facet normal -0.7071067811865475 -0.7071067811865475 0.0
outer loop
vertex -47.65000534057617 -14.999996185302734 1.250000238418579
vertex -47.650001525878906 -15.0 4.75
vertex -48.0 -14.650001525878906 4.400004863739014
endloop
endfacet
facet normal -0.6585046078685182 0.7525766947068779 0.0
outer loop
vertex -47.65000534057617 -5.000003337860107 4.75
vertex -47.650001525878906 -5.0 4.75
vertex -47.650001525878906 -5.0 1.250000238418579
endloop
endfacet
facet normal -0.7071067811865476 0.7071067811865476 0.0
outer loop
vertex -47.650001525878906 -5.0 1.250000238418579
vertex -47.65000534057617 -5.000003814697266 1.250000238418579
vertex -48.0 -5.349998474121094 1.5999948978424072
endloop
endfacet
facet normal -0.7071061790808367 0.7071073832917046 -2.4083848221968427e-07
outer loop
vertex -48.0 -5.349998474121094 1.5999948978424072
vertex -48.0 -5.349997520446777 4.400004863739014
vertex -47.65000534057617 -5.000003337860107 4.75
endloop
endfacet
facet normal -0.7071068293538969 0.7071067330191881 -9.633575873575723e-08
outer loop
vertex -47.650001525878906 -5.0 1.250000238418579
vertex -48.0 -5.349998474121094 1.5999948978424072
vertex -47.65000534057617 -5.000003337860107 4.75
endloop
endfacet
facet normal -0.7071072628716739 0.0 0.7071062995010929
outer loop
vertex -47.65000534057617 -14.99999713897705 4.75
vertex -47.65000534057617 -5.000003337860107 4.75
vertex -48.0 -5.349997520446777 4.400004863739014
endloop
endfacet
facet normal -0.707107262871674 0.0 0.7071062995010929
outer loop
vertex -47.65000534057617 -14.99999713897705 4.75
vertex -48.0 -5.349997520446777 4.400004863739014
vertex -48.0 -14.650001525878906 4.400004863739014
endloop
endfacet
facet normal -0.7071065312797701 1.8127677237063778e-08 -0.7071070310932362
outer loop
vertex -47.65000534057617 -14.999996185302734 1.250000238418579
vertex -48.0 -14.650001525878906 1.5999946594238281
vertex -48.0 -5.349998474121094 1.5999948978424072
endloop
endfacet
facet normal -0.7071067811865475 0.0 -0.7071067811865475
outer loop
vertex -47.65000534057617 -14.999996185302734 1.250000238418579
vertex -48.0 -5.349998474121094 1.5999948978424072
vertex -47.65000534057617 -5.000003814697266 1.250000238418579
endloop
endfacet
facet normal 0.0 -1.0 0.0
outer loop
vertex -47.650001525878906 5.0 4.75
vertex -47.650001525878906 5.0 1.250000238418579
vertex -44.0 5.0 1.2499998807907104
endloop
endfacet
facet normal 0.0 -1.0 0.0
outer loop
vertex -47.650001525878906 5.0 4.75
vertex -44.0 5.0 1.2499998807907104
vertex -44.0 5.0 4.75
endloop
endfacet
facet normal 0.0 0.0 -1.0
outer loop
vertex -47.650001525878906 5.0 1.250000238418579
vertex -47.65000534057617 5.000004291534424 1.250000238418579
vertex -47.65000534057617 14.999996185302734 1.250000238418579
endloop
endfacet
facet normal -9.798019702641766e-08 9.798019702641766e-08 -0.9999999999999903
outer loop
vertex -47.65000534057617 14.999996185302734 1.250000238418579
vertex -47.650001525878906 15.0 1.250000238418579
vertex -44.0 15.0 1.2499998807907104
endloop
endfacet
facet normal -9.798019702641812e-08 -0.0 -0.9999999999999951
outer loop
vertex -44.0 15.0 1.2499998807907104
vertex -44.0 5.0 1.2499998807907104
vertex -47.650001525878906 5.0 1.250000238418579
endloop
endfacet
facet normal -9.798009462521664e-08 -3.737645416323502e-14 -0.9999999999999951
outer loop
vertex -47.65000534057617 14.999996185302734 1.250000238418579
vertex -44.0 15.0 1.2499998807907104
vertex -47.650001525878906 5.0 1.250000238418579
endloop
endfacet
facet normal 0.0 1.0 -0.0
outer loop
vertex -44.0 15.0 1.2499998807907104
vertex -47.650001525878906 15.0 1.250000238418579
vertex -47.650001525878906 15.0 4.75
endloop
endfacet
facet normal 0.0 1.0 -0.0
outer loop
vertex -44.0 15.0 1.2499998807907104
vertex -47.650001525878906 15.0 4.75
vertex -44.0 15.0 4.75
endloop
endfacet
facet normal 0.0 -0.0 1.0
outer loop
vertex -44.0 5.0 4.75
vertex -44.0 15.0 4.75
vertex -47.650001525878906 15.0 4.75
endloop
endfacet
facet normal 0.0 0.0 1.0
outer loop
vertex -47.650001525878906 15.0 4.75
vertex -47.65000534057617 14.999996185302734 4.75
vertex -47.65000534057617 5.000003337860107 4.75
endloop
endfacet
facet normal -0.0 0.0 1.0
outer loop
vertex -47.65000534057617 5.000003337860107 4.75
vertex -47.650001525878906 5.0 4.75
vertex -44.0 5.0 4.75
endloop
endfacet
facet normal 0.0 0.0 1.0
outer loop
vertex -47.650001525878906 15.0 4.75
vertex -47.65000534057617 5.000003337860107 4.75
vertex -44.0 5.0 4.75
endloop
endfacet
facet normal -0.9999999999999999 0.0 0.0
outer loop
vertex -48.0 5.349998474121094 4.400004863739014
vertex -48.0 14.650001525878906 4.400004863739014
vertex -48.0 14.650001525878906 1.5999948978424072
endloop
endfacet
facet normal -1.0 0.0 -0.0
outer loop
vertex -48.0 5.349998474121094 4.400004863739014
vertex -48.0 14.650001525878906 1.5999948978424072
vertex -48.0 5.349997520446777 1.5999946594238281
endloop
endfacet
facet normal -0.7071052157054261 -0.7071083466641621 2.4083878983399217e-07
outer loop
vertex -48.0 5.349998474121094 4.400004863739014
vertex -48.0 5.349997520446777 1.5999946594238281
vertex -47.65000534057617 5.000004291534424 1.250000238418579
endloop
endfacet
facet normal -0.7474093186836597 -0.6643638388299198 0.0
outer loop
vertex -47.65000534057617 5.000004291534424 1.250000238418579
vertex -47.650001525878906 5.0 1.250000238418579
vertex -47.650001525878906 5.0 4.75
endloop
endfacet
facet normal -0.655610013260688 -0.7492685865836434 -0.09365946653312672
outer loop
vertex -47.650001525878906 5.0 4.75
vertex -47.65000534057617 5.000003337860107 4.75
vertex -48.0 5.349998474121094 4.400004863739014
endloop
endfacet
facet normal -0.7071067330191161 -0.7071068293539693 -9.633577186048783e-08
outer loop
vertex -47.65000534057617 5.000004291534424 1.250000238418579
vertex -47.650001525878906 5.0 4.75
vertex -48.0 5.349998474121094 4.400004863739014
endloop
endfacet
facet normal -0.7071067811865476 0.7071067811865476 0.0
outer loop
vertex -47.65000534057617 14.999996185302734 4.75
vertex -47.650001525878906 15.0 4.75
vertex -47.650001525878906 15.0 1.250000238418579
endloop
endfacet
facet normal -0.7071067811865476 0.7071067811865476 0.0
outer loop
vertex -47.650001525878906 15.0 1.250000238418579
vertex -47.65000534057617 14.999996185302734 1.250000238418579
vertex -48.0 14.650001525878906 1.5999948978424072
endloop
endfacet
facet normal -0.7071067811865475 0.7071067811865475 0.0
outer loop
vertex -48.0 14.650001525878906 1.5999948978424072
vertex -48.0 14.650001525878906 4.400004863739014
vertex -47.65000534057617 14.999996185302734 4.75
endloop
endfacet
facet normal -0.7071067811865476 0.7071067811865476 0.0
outer loop
vertex -47.650001525878906 15.0 1.250000238418579
vertex -48.0 14.650001525878906 1.5999948978424072
vertex -47.65000534057617 14.999996185302734 4.75
endloop
endfacet
facet normal -0.7071072628716739 0.0 0.7071062995010929
outer loop
vertex -47.65000534057617 5.000003337860107 4.75
vertex -47.65000534057617 14.999996185302734 4.75
vertex -48.0 14.650001525878906 4.400004863739014
endloop
endfacet
facet normal -0.707107262871674 0.0 0.7071062995010929
outer loop
vertex -47.65000534057617 5.000003337860107 4.75
vertex -48.0 14.650001525878906 4.400004863739014
vertex -48.0 5.349998474121094 4.400004863739014
endloop
endfacet
facet normal -0.7071065312798082 1.8127675378149605e-08 -0.7071070310931983
outer loop
vertex -47.65000534057617 5.000004291534424 1.250000238418579
vertex -48.0 5.349997520446777 1.5999946594238281
vertex -48.0 14.650001525878906 1.5999948978424072
endloop
endfacet
facet normal -0.7071067811865476 0.0 -0.7071067811865476
outer loop
vertex -47.65000534057617 5.000004291534424 1.250000238418579
vertex -48.0 14.650001525878906 1.5999948978424072
vertex -47.65000534057617 14.999996185302734 1.250000238418579
endloop
endfacet
facet normal 0.0 -1.0 0.0
outer loop
vertex 44.0 -15.0 4.75
vertex 44.0 -15.0 1.2499998807907104
vertex 47.65000534057617 -15.0 1.250000238418579
endloop
endfacet
facet normal 0.0 -1.0 0.0
outer loop
vertex 44.0 -15.0 4.75
vertex 47.65000534057617 -15.0 1.250000238418579
vertex 47.65000534057617 -15.0 1.250001311302185
endloop
endfacet
facet normal 0.0 -1.0 0.0
outer loop
vertex 47.65000534057617 -15.0 4.749999046325684
vertex 47.65000534057617 -15.0 4.75
vertex 44.0 -15.0 4.75
endloop
endfacet
facet normal 0.0 -1.0 0.0
outer loop
vertex 47.65000534057617 -15.0 1.250001311302185
vertex 47.65000534057617 -15.0 4.749999046325684
vertex 44.0 -15.0 4.75
endloop
endfacet
facet normal 0.0 -0.0 0.9999999999999999
outer loop
vertex 47.65000534057617 -15.0 4.75
vertex 47.65000534057617 -5.0 4.75
vertex 44.0 -5.0 4.75
endloop
endfacet
facet normal 0.0 0.0 0.9999999999999999
outer loop
vertex 47.65000534057617 -15.0 4.75
vertex 44.0 -5.0 4.75
vertex 44.0 -15.0 4.75
endloop
endfacet
facet normal 0.0 0.9999999999999999 0.0
outer loop
vertex 47.65000534057617 -5.0 1.250001072883606
vertex 47.65000534057617 -5.0 1.250000238418579
vertex 44.0 -5.0 1.2499998807907104
endloop
endfacet
facet normal 0.0 1.0 0.0
outer loop
vertex 44.0 -5.0 1.2499998807907104
vertex 44.0 -5.0 4.75
vertex 47.65000534057617 -5.0 4.75
endloop
endfacet
facet normal 0.0 1.0 0.0
outer loop
vertex 47.65000534057617 -5.0 4.749998569488525
vertex 47.65000534057617 -5.0 1.250001072883606
vertex 44.0 -5.0 1.2499998807907104
endloop
endfacet
facet normal 0.0 1.0 -0.0
outer loop
vertex 47.65000534057617 -5.0 4.749998569488525
vertex 44.0 -5.0 1.2499998807907104
vertex 47.65000534057617 -5.0 4.75
endloop
endfacet
facet normal 9.79800946252557e-08 0.0 -0.9999999999999951
outer loop
vertex 47.65000534057617 -5.0 1.250000238418579
vertex 47.65000534057617 -15.0 1.250000238418579
vertex 44.0 -15.0 1.2499998807907104
endloop
endfacet
facet normal 9.79800946252557e-08 0.0 -0.9999999999999951
outer loop
vertex 47.65000534057617 -5.0 1.250000238418579
vertex 44.0 -15.0 1.2499998807907104
vertex 44.0 -5.0 1.2499998807907104
endloop
endfacet
facet normal 0.9999999999999999 0.0 0.0
outer loop
vertex 48.0 -14.650004386901855 4.4000043869018555
vertex 48.0 -14.650004386901855 1.5999958515167236
vertex 48.0 -5.349996089935303 1.5999956130981445
endloop
endfacet
facet normal 1.0 -0.0 0.0
outer loop
vertex 48.0 -14.650004386901855 4.4000043869018555
vertex 48.0 -5.349996089935303 1.5999956130981445
vertex 48.0 -5.349996089935303 4.4000043869018555
endloop
endfacet
facet normal 0.707107744555816 -0.7071058178159665 0.0
outer loop
vertex 47.65000534057617 -15.0 4.749999046325684
vertex 47.65000534057617 -15.0 1.250001311302185
vertex 48.0 -14.650004386901855 1.5999958515167236
endloop
endfacet
facet normal 0.707107744555816 -0.7071058178159665 0.0
outer loop
vertex 47.65000534057617 -15.0 4.749999046325684
vertex 48.0 -14.650004386901855 1.5999958515167236
vertex 48.0 -14.650004386901855 4.4000043869018555
endloop
endfacet
facet normal 0.7071082262389737 0.7071053361311682 0.0
outer loop
vertex 48.0 -5.349996089935303 4.4000043869018555
vertex 48.0 -5.349996089935303 1.5999956130981445
vertex 47.65000534057617 -5.0 1.250001072883606
endloop
endfacet
facet normal 0.7071082262389737 0.7071053361311682 -0.0
outer loop
vertex 48.0 -5.349996089935303 4.4000043869018555
vertex 47.65000534057617 -5.0 1.250001072883606
vertex 47.65000534057617 -5.0 4.749998569488525
endloop
endfacet
facet normal 0.7071077445558162 -0.7071058178159666 0.0
outer loop
vertex 48.0 -14.650004386901855 1.5999958515167236
vertex 47.65000534057617 -15.0 1.250001311302185
vertex 47.65000534057617 -15.0 1.250000238418579
endloop
endfacet
facet normal 0.7071077536196335 -1.812763567664039e-08 -0.7071058087521237
outer loop
vertex 48.0 -5.349996089935303 1.5999956130981445
vertex 48.0 -14.650004386901855 1.5999958515167236
vertex 47.65000534057617 -15.0 1.250000238418579
endloop
endfacet
facet normal 1.0 0.0 0.0
outer loop
vertex 47.65000534057617 -15.0 1.250000238418579
vertex 47.65000534057617 -5.0 1.250000238418579
vertex 47.65000534057617 -5.0 1.250001072883606
endloop
endfacet
facet normal 0.7071066902680386 5.9005595502082054e-08 -0.7071068721050422
outer loop
vertex 47.65000534057617 -15.0 1.250000238418579
vertex 47.65000534057617 -5.0 1.250001072883606
vertex 48.0 -5.349996089935303 1.5999956130981445
endloop
endfacet
facet normal 0.7071062995004366 -0.0 0.7071072628723302
outer loop
vertex 48.0 -14.650004386901855 4.4000043869018555
vertex 48.0 -5.349996089935303 4.4000043869018555
vertex 47.65000534057617 -5.0 4.749998569488525
endloop
endfacet
facet normal 1.0 0.0 -0.0
outer loop
vertex 47.65000534057617 -5.0 4.749998569488525
vertex 47.65000534057617 -5.0 4.75
vertex 47.65000534057617 -15.0 4.75
endloop
endfacet
facet normal 0.707107744555816 -0.7071058178159665 0.0
outer loop
vertex 47.65000534057617 -15.0 4.75
vertex 47.65000534057617 -15.0 4.749999046325684
vertex 48.0 -14.650004386901855 4.4000043869018555
endloop
endfacet
facet normal 0.7071076939796577 1.0115230584987428e-07 0.7071058683922519
outer loop
vertex 47.65000534057617 -5.0 4.749998569488525
vertex 47.65000534057617 -15.0 4.75
vertex 48.0 -14.650004386901855 4.4000043869018555
endloop
endfacet
facet normal 0.0 -1.0 0.0
outer loop
vertex 44.0 5.0 1.2499998807907104
vertex 47.65000534057617 5.0 1.250000238418579
vertex 47.65000534057617 5.0 1.250001311302185
endloop
endfacet
facet normal 0.0 -1.0 0.0
outer loop
vertex 47.65000534057617 5.0 4.749999046325684
vertex 47.65000534057617 5.0 4.75
vertex 44.0 5.0 4.75
endloop
endfacet
facet normal 0.0 -1.0 0.0
outer loop
vertex 44.0 5.0 1.2499998807907104
vertex 47.65000534057617 5.0 1.250001311302185
vertex 47.65000534057617 5.0 4.749999046325684
endloop
endfacet
facet normal -0.0 -1.0 -0.0
outer loop
vertex 47.65000534057617 5.0 4.749999046325684
vertex 44.0 5.0 4.75
vertex 44.0 5.0 1.2499998807907104
endloop
endfacet
facet normal 0.0 -0.0 0.9999999999999999
outer loop
vertex 47.65000534057617 5.0 4.75
vertex 47.65000534057617 15.0 4.75
vertex 44.0 15.0 4.75
endloop
endfacet
facet normal 0.0 0.0 0.9999999999999999
outer loop
vertex 47.65000534057617 5.0 4.75
vertex 44.0 15.0 4.75
vertex 44.0 5.0 4.75
endloop
endfacet
facet normal -0.0 1.0 0.0
outer loop
vertex 44.0 15.0 4.75
vertex 47.65000534057617 15.0 4.75
vertex 47.65000534057617 15.0 4.749998569488525
endloop
endfacet
facet normal 0.0 0.9999999999999999 0.0
outer loop
vertex 47.65000534057617 15.0 1.250001072883606
vertex 47.65000534057617 15.0 1.250000238418579
vertex 44.0 15.0 1.2499998807907104
endloop
endfacet
facet normal 0.0 1.0 0.0
outer loop
vertex 44.0 15.0 4.75
vertex 47.65000534057617 15.0 4.749998569488525
vertex 47.65000534057617 15.0 1.250001072883606
endloop
endfacet
facet normal 0.0 1.0 -0.0
outer loop
vertex 47.65000534057617 15.0 1.250001072883606
vertex 44.0 15.0 1.2499998807907104
vertex 44.0 15.0 4.75
endloop
endfacet
facet normal 9.79800946252557e-08 0.0 -0.9999999999999951
outer loop
vertex 47.65000534057617 15.0 1.250000238418579
vertex 47.65000534057617 5.0 1.250000238418579
vertex 44.0 5.0 1.2499998807907104
endloop
endfacet
facet normal 9.79800946252557e-08 0.0 -0.9999999999999951
outer loop
vertex 47.65000534057617 15.0 1.250000238418579
vertex 44.0 5.0 1.2499998807907104
vertex 44.0 15.0 1.2499998807907104
endloop
endfacet
facet normal 0.9999999999999999 0.0 0.0
outer loop
vertex 48.0 5.349996089935303 4.4000043869018555
vertex 48.0 5.349996089935303 1.5999958515167236
vertex 48.0 14.650004386901855 1.5999956130981445
endloop
endfacet
facet normal 1.0 -0.0 0.0
outer loop
vertex 48.0 5.349996089935303 4.4000043869018555
vertex 48.0 14.650004386901855 1.5999956130981445
vertex 48.0 14.650004386901855 4.4000043869018555
endloop
endfacet
facet normal 0.7071082262389736 -0.7071053361311681 0.0
outer loop
vertex 47.65000534057617 5.0 4.749999046325684
vertex 47.65000534057617 5.0 1.250001311302185
vertex 48.0 5.349996089935303 1.5999958515167236
endloop
endfacet
facet normal 0.7071082262389737 -0.7071053361311682 0.0
outer loop
vertex 47.65000534057617 5.0 4.749999046325684
vertex 48.0 5.349996089935303 1.5999958515167236
vertex 48.0 5.349996089935303 4.4000043869018555
endloop
endfacet
facet normal 0.7071077445558159 0.7071058178159664 0.0
outer loop
vertex 48.0 14.650004386901855 4.4000043869018555
vertex 48.0 14.650004386901855 1.5999956130981445
vertex 47.65000534057617 15.0 1.250001072883606
endloop
endfacet
facet normal 0.707107744555816 0.7071058178159665 -0.0
outer loop
vertex 48.0 14.650004386901855 4.4000043869018555
vertex 47.65000534057617 15.0 1.250001072883606
vertex 47.65000534057617 15.0 4.749998569488525
endloop
endfacet
facet normal 0.7071082262389737 -0.7071053361311682 0.0
outer loop
vertex 48.0 5.349996089935303 1.5999958515167236
vertex 47.65000534057617 5.0 1.250001311302185
vertex 47.65000534057617 5.0 1.250000238418579
endloop
endfacet
facet normal 0.707107753619646 -1.8127635676640075e-08 -0.7071058087521114
outer loop
vertex 48.0 14.650004386901855 1.5999956130981445
vertex 48.0 5.349996089935303 1.5999958515167236
vertex 47.65000534057617 5.0 1.250000238418579
endloop
endfacet
facet normal 1.0 0.0 0.0
outer loop
vertex 47.65000534057617 5.0 1.250000238418579
vertex 47.65000534057617 15.0 1.250000238418579
vertex 47.65000534057617 15.0 1.250001072883606
endloop
endfacet
facet normal 0.7071066902679984 5.900559550208541e-08 -0.7071068721050824
outer loop
vertex 47.65000534057617 5.0 1.250000238418579
vertex 47.65000534057617 15.0 1.250001072883606
vertex 48.0 14.650004386901855 1.5999956130981445
endloop
endfacet
facet normal 0.7071077445558162 0.7071058178159666 -0.0
outer loop
vertex 48.0 14.650004386901855 4.4000043869018555
vertex 47.65000534057617 15.0 4.749998569488525
vertex 47.65000534057617 15.0 4.75
endloop
endfacet
facet normal 0.707107744555816 -0.0 0.7071058178159665
outer loop
vertex 48.0 5.349996089935303 4.4000043869018555
vertex 48.0 14.650004386901855 4.4000043869018555
vertex 47.65000534057617 15.0 4.75
endloop
endfacet
facet normal 1.0 0.0 0.0
outer loop
vertex 47.65000534057617 15.0 4.75
vertex 47.65000534057617 5.0 4.75
vertex 47.65000534057617 5.0 4.749999046325684
endloop
endfacet
facet normal 0.70710681490416 -6.743495440186787e-08 0.70710674746893
outer loop
vertex 47.65000534057617 15.0 4.75
vertex 47.65000534057617 5.0 4.749999046325684
vertex 48.0 5.349996089935303 4.4000043869018555
endloop
endfacet

endsolid
