solid 
facet normal -1.0 0.0 0.0
outer loop
vertex -44.0 -16.0 0.0
vertex -44.0 -16.0 6.0
vertex -44.0 -15.0 4.75
endloop
endfacet
facet normal -1.0 0.0 0.0
outer loop
vertex -44.0 -16.0 0.0
vertex -44.0 -15.0 4.75
vertex -44.0 -15.0 1.25
endloop
endfacet
facet normal -1.0 0.0 0.0
outer loop
vertex -44.0 15.0 4.75
vertex -44.0 16.0 6.0
vertex -44.0 16.0 0.0
endloop
endfacet
facet normal -1.0 -0.0 -0.0
outer loop
vertex -44.0 15.0 4.75
vertex -44.0 16.0 0.0
vertex -44.0 15.0 1.25
endloop
endfacet
facet normal -1.0 0.0 0.0
outer loop
vertex -44.0 5.0 1.25
vertex -44.0 15.0 1.25
vertex -44.0 16.0 0.0
endloop
endfacet
facet normal -1.0 0.0 0.0
outer loop
vertex -44.0 16.0 0.0
vertex -44.0 -16.0 0.0
vertex -44.0 -15.0 1.25
endloop
endfacet
facet normal -1.0 0.0 0.0
outer loop
vertex -44.0 16.0 0.0
vertex -44.0 -15.0 1.25
vertex -44.0 -5.0 1.25
endloop
endfacet
facet normal -1.0 -0.0 -0.0
outer loop
vertex -44.0 5.0 1.25
vertex -44.0 16.0 0.0
vertex -44.0 -5.0 1.25
endloop
endfacet
facet normal -1.0 0.0 0.0
outer loop
vertex -44.0 -5.0 4.75
vertex -44.0 -15.0 4.75
vertex -44.0 -16.0 6.0
endloop
endfacet
facet normal -1.0 0.0 0.0
outer loop
vertex -44.0 5.0 1.25
vertex -44.0 -5.0 1.25
vertex -44.0 -5.0 4.75
endloop
endfacet
facet normal -1.0 -0.0 0.0
outer loop
vertex -44.0 16.0 6.0
vertex -44.0 15.0 4.75
vertex -44.0 5.0 4.75
endloop
endfacet
facet normal -1.0 -0.0 -0.0
outer loop
vertex -44.0 5.0 4.75
vertex -44.0 5.0 1.25
vertex -44.0 -5.0 4.75
endloop
endfacet
facet normal -1.0 0.0 0.0
outer loop
vertex -44.0 -5.0 4.75
vertex -44.0 -16.0 6.0
vertex -44.0 16.0 6.0
endloop
endfacet
facet normal -1.0 0.0 -0.0
outer loop
vertex -44.0 -5.0 4.75
vertex -44.0 16.0 6.0
vertex -44.0 5.0 4.75
endloop
endfacet
facet normal 0.0 1.0 0.0
outer loop
vertex -44.0 16.0 0.0
vertex -44.0 16.0 6.0
vertex 44.0 16.0 6.0
endloop
endfacet
facet normal -0.0 1.0 0.0
outer loop
vertex -44.0 16.0 0.0
vertex 44.0 16.0 6.0
vertex 44.0 16.0 0.0
endloop
endfacet
facet normal 1.0 0.0 0.0
outer loop
vertex 44.0 -15.0 4.75
vertex 44.0 -16.0 6.0
vertex 44.0 -16.0 0.0
endloop
endfacet
facet normal 1.0 -0.0 0.0
outer loop
vertex 44.0 -15.0 4.75
vertex 44.0 -16.0 0.0
vertex 44.0 -15.0 1.25
endloop
endfacet
facet normal 1.0 -0.0 0.0
outer loop
vertex 44.0 15.0 1.25
vertex 44.0 16.0 0.0
vertex 44.0 16.0 6.0
endloop
endfacet
facet normal 1.0 0.0 -0.0
outer loop
vertex 44.0 15.0 1.25
vertex 44.0 16.0 6.0
vertex 44.0 15.0 4.75
endloop
endfacet
facet normal 1.0 0.0 0.0
outer loop
vertex 44.0 5.0 4.75
vertex 44.0 15.0 4.75
vertex 44.0 16.0 6.0
endloop
endfacet
facet normal 1.0 0.0 0.0
outer loop
vertex 44.0 16.0 6.0
vertex 44.0 -16.0 6.0
vertex 44.0 -15.0 4.75
endloop
endfacet
facet normal 1.0 -0.0 0.0
outer loop
vertex 44.0 16.0 6.0
vertex 44.0 -15.0 4.75
vertex 44.0 -5.0 4.75
endloop
endfacet
facet normal 1.0 0.0 -0.0
outer loop
vertex 44.0 5.0 4.75
vertex 44.0 16.0 6.0
vertex 44.0 -5.0 4.75
endloop
endfacet
facet normal 1.0 0.0 0.0
outer loop
vertex 44.0 -5.0 1.25
vertex 44.0 -15.0 1.25
vertex 44.0 -16.0 0.0
endloop
endfacet
facet normal 1.0 0.0 0.0
outer loop
vertex 44.0 5.0 4.75
vertex 44.0 -5.0 4.75
vertex 44.0 -5.0 1.25
endloop
endfacet
facet normal 1.0 0.0 0.0
outer loop
vertex 44.0 16.0 0.0
vertex 44.0 15.0 1.25
vertex 44.0 5.0 1.25
endloop
endfacet
facet normal 1.0 0.0 -0.0
outer loop
vertex 44.0 5.0 1.25
vertex 44.0 5.0 4.75
vertex 44.0 -5.0 1.25
endloop
endfacet
facet normal 1.0 -0.0 0.0
outer loop
vertex 44.0 -5.0 1.25
vertex 44.0 -16.0 0.0
vertex 44.0 16.0 0.0
endloop
endfacet
facet normal 1.0 -0.0 -0.0
outer loop
vertex 44.0 -5.0 1.25
vertex 44.0 16.0 0.0
vertex 44.0 5.0 1.25
endloop
endfacet
facet normal -0.0 -1.0 -0.0
outer loop
vertex 21.842111587524414 -16.0 2.5250015258789062
vertex -37.0 -16.0 2.5250015258789062
vertex -37.0 -16.0 1.7250022888183594
endloop
endfacet
facet normal 0.0 -0.9999999999999999 0.0
outer loop
vertex -37.0 -16.0 1.7250022888183594
vertex 37.0 -16.0 1.7250022888183594
vertex 37.0 -16.0 2.5250015258789062
endloop
endfacet
facet normal 0.0 -1.0 -0.0
outer loop
vertex 21.842111587524414 -16.0 2.5250015258789062
vertex -37.0 -16.0 1.7250022888183594
vertex 37.0 -16.0 2.5250015258789062
endloop
endfacet
facet normal -0.0 -1.0 -0.0
outer loop
vertex -11.315800666809082 -16.0 4.275001525878906
vertex -37.0 -16.0 4.275001525878906
vertex -37.0 -16.0 3.4749984741210938
endloop
endfacet
facet normal 0.0 -1.0 0.0
outer loop
vertex 3.8421597480773926 -16.0 3.4749984741210938
vertex 37.0 -16.0 3.4749984741210938
vertex 37.0 -16.0 4.275001525878906
endloop
endfacet
facet normal 0.0 -1.0 -0.0
outer loop
vertex -11.315800666809082 -16.0 4.275001525878906
vertex -37.0 -16.0 3.4749984741210938
vertex 3.8421597480773926 -16.0 3.4749984741210938
endloop
endfacet
facet normal 0.0 -1.0 0.0
outer loop
vertex 3.8421597480773926 -16.0 3.4749984741210938
vertex 37.0 -16.0 4.275001525878906
vertex 16.56547737121582 -16.0 4.275001525878906
endloop
endfacet
facet normal 0.0 -1.0 0.0
outer loop
vertex -11.315800666809082 -16.0 4.275001525878906
vertex 3.8421597480773926 -16.0 3.4749984741210938
vertex 16.56547737121582 -16.0 4.275001525878906
endloop
endfacet
facet normal 0.0 -1.0 0.0
outer loop
vertex -44.0 -16.0 6.0
vertex -44.0 -16.0 0.0
vertex -37.0 -16.0 0.9750022888183594
endloop
endfacet
facet normal 0.0 -1.0 0.0
outer loop
vertex -44.0 -16.0 6.0
vertex -37.0 -16.0 0.9750022888183594
vertex -37.0 -16.0 1.7250022888183594
endloop
endfacet
facet normal 0.0 -1.0 0.0
outer loop
vertex 37.0 -16.0 0.9750022888183594
vertex 44.0 -16.0 0.0
vertex 44.0 -16.0 6.0
endloop
endfacet
facet normal 0.0 -1.0 0.0
outer loop
vertex 37.0 -16.0 1.7250022888183594
vertex 37.0 -16.0 0.9750022888183594
vertex 44.0 -16.0 6.0
endloop
endfacet
facet normal 0.0 -1.0 0.0
outer loop
vertex -44.0 -16.0 6.0
vertex -37.0 -16.0 1.7250022888183594
vertex -37.0 -16.0 2.5250015258789062
endloop
endfacet
facet normal 0.0 -1.0 0.0
outer loop
vertex -44.0 -16.0 6.0
vertex -37.0 -16.0 2.5250015258789062
vertex -37.0 -16.0 3.4749984741210938
endloop
endfacet
facet normal 0.0 -1.0 0.0
outer loop
vertex 37.0 -16.0 2.5250015258789062
vertex 37.0 -16.0 1.7250022888183594
vertex 44.0 -16.0 6.0
endloop
endfacet
facet normal 0.0 -1.0 0.0
outer loop
vertex 37.0 -16.0 3.4749984741210938
vertex 37.0 -16.0 2.5250015258789062
vertex 44.0 -16.0 6.0
endloop
endfacet
facet normal 0.0 -1.0 0.0
outer loop
vertex -44.0 -16.0 6.0
vertex -37.0 -16.0 3.4749984741210938
vertex -37.0 -16.0 4.275001525878906
endloop
endfacet
facet normal 0.0 -1.0 0.0
outer loop
vertex -44.0 -16.0 6.0
vertex -37.0 -16.0 4.275001525878906
vertex -37.0 -16.0 5.025001525878906
endloop
endfacet
facet normal 0.0 -1.0 0.0
outer loop
vertex 37.0 -16.0 4.275001525878906
vertex 37.0 -16.0 3.4749984741210938
vertex 44.0 -16.0 6.0
endloop
endfacet
facet normal 0.0 -1.0 0.0
outer loop
vertex 37.0 -16.0 5.025001525878906
vertex 37.0 -16.0 4.275001525878906
vertex 44.0 -16.0 6.0
endloop
endfacet
facet normal -0.0 -1.0 -0.0
outer loop
vertex 44.0 -16.0 6.0
vertex -44.0 -16.0 6.0
vertex -37.0 -16.0 5.025001525878906
endloop
endfacet
facet normal 0.0 -0.9999999999999999 -0.0
outer loop
vertex 44.0 -16.0 6.0
vertex -37.0 -16.0 5.025001525878906
vertex -25.526334762573242 -16.0 5.025001525878906
endloop
endfacet
facet normal 0.0 -1.0 0.0
outer loop
vertex 28.493541717529297 -16.0 5.025001525878906
vertex 37.0 -16.0 5.025001525878906
vertex 44.0 -16.0 6.0
endloop
endfacet
facet normal 0.0 -1.0 0.0
outer loop
vertex -25.526334762573242 -16.0 5.025001525878906
vertex 28.493541717529297 -16.0 5.025001525878906
vertex 44.0 -16.0 6.0
endloop
endfacet
facet normal -0.0 -1.0 -0.0
outer loop
vertex -25.526334762573242 -16.0 5.025001525878906
vertex -37.0 -16.0 5.025001525878906
vertex -37.0 -16.0 4.275001525878906
endloop
endfacet
facet normal 0.0 -1.0 -0.0
outer loop
vertex -25.526334762573242 -16.0 5.025001525878906
vertex -37.0 -16.0 4.275001525878906
vertex -11.315800666809082 -16.0 4.275001525878906
endloop
endfacet
facet normal 0.0 -0.9999999999999999 0.0
outer loop
vertex 16.56547737121582 -16.0 4.275001525878906
vertex 37.0 -16.0 4.275001525878906
vertex 37.0 -16.0 5.025001525878906
endloop
endfacet
facet normal 0.0 -1.0 0.0
outer loop
vertex 16.56547737121582 -16.0 4.275001525878906
vertex 37.0 -16.0 5.025001525878906
vertex 28.493541717529297 -16.0 5.025001525878906
endloop
endfacet
facet normal 0.0 -1.0 0.0
outer loop
vertex -11.315800666809082 -16.0 4.275001525878906
vertex 16.56547737121582 -16.0 4.275001525878906
vertex 28.493541717529297 -16.0 5.025001525878906
endloop
endfacet
facet normal 0.0 -1.0 0.0
outer loop
vertex -11.315800666809082 -16.0 4.275001525878906
vertex 28.493541717529297 -16.0 5.025001525878906
vertex -25.526334762573242 -16.0 5.025001525878906
endloop
endfacet
facet normal -0.0 -1.0 -0.0
outer loop
vertex 3.8421597480773926 -16.0 3.4749984741210938
vertex -37.0 -16.0 3.4749984741210938
vertex -37.0 -16.0 2.5250015258789062
endloop
endfacet
facet normal 0.0 -1.0 -0.0
outer loop
vertex 3.8421597480773926 -16.0 3.4749984741210938
vertex -37.0 -16.0 2.5250015258789062
vertex 21.842111587524414 -16.0 2.5250015258789062
endloop
endfacet
facet normal 0.0 -1.0 0.0
outer loop
vertex 21.842111587524414 -16.0 2.5250015258789062
vertex 37.0 -16.0 2.5250015258789062
vertex 37.0 -16.0 3.4749984741210938
endloop
endfacet
facet normal 0.0 -1.0 0.0
outer loop
vertex 21.842111587524414 -16.0 2.5250015258789062
vertex 37.0 -16.0 3.4749984741210938
vertex 3.8421597480773926 -16.0 3.4749984741210938
endloop
endfacet
facet normal -0.0 -1.0 0.0
outer loop
vertex 29.699966430664062 -16.0 0.9750022888183594
vertex -37.0 -16.0 0.9750022888183594
vertex -44.0 -16.0 0.0
endloop
endfacet
facet normal 0.0 -1.0 0.0
outer loop
vertex -44.0 -16.0 0.0
vertex 44.0 -16.0 0.0
vertex 37.0 -16.0 0.9750022888183594
endloop
endfacet
facet normal 0.0 -1.0 -0.0
outer loop
vertex 29.699966430664062 -16.0 0.9750022888183594
vertex -44.0 -16.0 0.0
vertex 37.0 -16.0 0.9750022888183594
endloop
endfacet
facet normal 0.0 -1.0 0.0
outer loop
vertex 29.699966430664062 -16.0 0.9750022888183594
vertex 37.0 -16.0 0.9750022888183594
vertex 28.425357818603516 -16.0 1.0619087219238281
endloop
endfacet
facet normal 0.0 -1.0 0.0
outer loop
vertex 28.425357818603516 -16.0 1.0619087219238281
vertex 37.0 -16.0 0.9750022888183594
vertex 37.0 -16.0 1.7250022888183594
endloop
endfacet
facet normal -0.0 -1.0 -0.0
outer loop
vertex 37.0 -16.0 1.7250022888183594
vertex -37.0 -16.0 1.7250022888183594
vertex -37.0 -16.0 0.9750022888183594
endloop
endfacet
facet normal 0.0 -1.0 0.0
outer loop
vertex -37.0 -16.0 0.9750022888183594
vertex 29.699966430664062 -16.0 0.9750022888183594
vertex 28.425357818603516 -16.0 1.0619087219238281
endloop
endfacet
facet normal -0.0 -1.0 0.0
outer loop
vertex 28.425357818603516 -16.0 1.0619087219238281
vertex 37.0 -16.0 1.7250022888183594
vertex -37.0 -16.0 0.9750022888183594
endloop
endfacet
facet normal 0.0 0.0 -1.0
outer loop
vertex -44.0 16.0 0.0
vertex 44.0 16.0 0.0
vertex 44.0 -16.0 0.0
endloop
endfacet
facet normal -0.0 -0.0 -1.0
outer loop
vertex -44.0 16.0 0.0
vertex 44.0 -16.0 0.0
vertex -44.0 -16.0 0.0
endloop
endfacet
facet normal 0.0 0.0 1.0
outer loop
vertex -32.381248474121094 -11.774999618530273 6.0
vertex -37.0 -11.774999618530273 6.0
vertex -44.0 -16.0 6.0
endloop
endfacet
facet normal 0.0 -0.0 1.0
outer loop
vertex -44.0 -16.0 6.0
vertex 44.0 -16.0 6.0
vertex 37.0 -11.774999618530273 6.0
endloop
endfacet
facet normal -0.0 0.0 1.0
outer loop
vertex -32.381248474121094 -11.774999618530273 6.0
vertex -44.0 -16.0 6.0
vertex 37.0 -11.774999618530273 6.0
endloop
endfacet
facet normal -0.0 0.0 1.0
outer loop
vertex -44.0 16.0 6.0
vertex -44.0 -16.0 6.0
vertex -37.0 -11.774999618530273 6.0
endloop
endfacet
facet normal -0.0 0.0 1.0
outer loop
vertex -44.0 16.0 6.0
vertex -37.0 -11.774999618530273 6.0
vertex -37.0 -10.625 6.0
endloop
endfacet
facet normal -0.0 0.0 1.0
outer loop
vertex 37.0 -11.774999618530273 6.0
vertex 44.0 -16.0 6.0
vertex 44.0 16.0 6.0
endloop
endfacet
facet normal -0.0 0.0 1.0
outer loop
vertex 37.0 -10.625 6.0
vertex 37.0 -11.774999618530273 6.0
vertex 44.0 16.0 6.0
endloop
endfacet
facet normal -0.0 0.0 1.0
outer loop
vertex -44.0 16.0 6.0
vertex -37.0 -10.625 6.0
vertex -37.0 -4.425000190734863 6.0
endloop
endfacet
facet normal -0.0 0.0 1.0
outer loop
vertex -44.0 16.0 6.0
vertex -37.0 -4.425000190734863 6.0
vertex -37.0 -3.575000047683716 6.0
endloop
endfacet
facet normal -0.0 0.0 1.0
outer loop
vertex 37.0 -4.425000190734863 6.0
vertex 37.0 -10.625 6.0
vertex 44.0 16.0 6.0
endloop
endfacet
facet normal -0.0 0.0 1.0
outer loop
vertex 37.0 -3.575000047683716 6.0
vertex 37.0 -4.425000190734863 6.0
vertex 44.0 16.0 6.0
endloop
endfacet
facet normal -0.0 0.0 1.0
outer loop
vertex -44.0 16.0 6.0
vertex -37.0 -3.575000047683716 6.0
vertex -37.0 3.674999713897705 6.0
endloop
endfacet
facet normal -0.0 0.0 1.0
outer loop
vertex -44.0 16.0 6.0
vertex -37.0 3.674999713897705 6.0
vertex -37.0 4.724999904632568 6.0
endloop
endfacet
facet normal -0.0 0.0 1.0
outer loop
vertex 37.0 3.674999713897705 6.0
vertex 37.0 -3.575000047683716 6.0
vertex 44.0 16.0 6.0
endloop
endfacet
facet normal -0.0 0.0 1.0
outer loop
vertex 37.0 4.724999904632568 6.0
vertex 37.0 3.674999713897705 6.0
vertex 44.0 16.0 6.0
endloop
endfacet
facet normal -0.0 0.0 1.0
outer loop
vertex -44.0 16.0 6.0
vertex -37.0 4.724999904632568 6.0
vertex -37.0 10.65000057220459 6.0
endloop
endfacet
facet normal -0.0 0.0 1.0
outer loop
vertex -44.0 16.0 6.0
vertex -37.0 10.65000057220459 6.0
vertex -37.0 11.550000190734863 6.0
endloop
endfacet
facet normal -0.0 0.0 1.0
outer loop
vertex 37.0 10.65000057220459 6.0
vertex 37.0 4.724999904632568 6.0
vertex 44.0 16.0 6.0
endloop
endfacet
facet normal -0.0 0.0 1.0
outer loop
vertex 37.0 11.550000190734863 6.0
vertex 37.0 10.65000057220459 6.0
vertex 44.0 16.0 6.0
endloop
endfacet
facet normal 0.0 0.0 1.0
outer loop
vertex 44.0 16.0 6.0
vertex -44.0 16.0 6.0
vertex -37.0 11.550000190734863 6.0
endloop
endfacet
facet normal -0.0 0.0 1.0
outer loop
vertex 44.0 16.0 6.0
vertex -37.0 11.550000190734863 6.0
vertex 12.031044006347656 11.550000190734863 6.0
endloop
endfacet
facet normal 0.0 0.0 1.0
outer loop
vertex 31.762500762939453 11.550000190734863 6.0
vertex 37.0 11.550000190734863 6.0
vertex 44.0 16.0 6.0
endloop
endfacet
facet normal -0.0 0.0 0.9999999999999999
outer loop
vertex 44.0 16.0 6.0
vertex 12.031044006347656 11.550000190734863 6.0
vertex 25.58620834350586 11.550000190734863 6.0
endloop
endfacet
facet normal 0.0 0.0 1.0
outer loop
vertex 25.58620834350586 11.550000190734863 6.0
vertex 31.762500762939453 11.550000190734863 6.0
vertex 44.0 16.0 6.0
endloop
endfacet
facet normal 0.0 0.0 0.9999999999999999
outer loop
vertex 5.5654144287109375 10.65000057220459 6.0
vertex -37.0 10.65000057220459 6.0
vertex -37.0 4.724999904632568 6.0
endloop
endfacet
facet normal -0.0 0.0 1.0
outer loop
vertex 5.5654144287109375 10.65000057220459 6.0
vertex -37.0 4.724999904632568 6.0
vertex -2.65517258644104 4.724999904632568 6.0
endloop
endfacet
facet normal 0.0 0.0 1.0
outer loop
vertex 21.862071990966797 10.65000057220459 6.0
vertex 5.5654144287109375 10.65000057220459 6.0
vertex -2.65517258644104 4.724999904632568 6.0
endloop
endfacet
facet normal 0.0 0.0 1.0
outer loop
vertex 12.993749618530273 4.724999904632568 6.0
vertex 37.0 4.724999904632568 6.0
vertex 37.0 10.65000057220459 6.0
endloop
endfacet
facet normal -0.0 0.0 1.0
outer loop
vertex 21.862071990966797 10.65000057220459 6.0
vertex -2.65517258644104 4.724999904632568 6.0
vertex 12.993749618530273 4.724999904632568 6.0
endloop
endfacet
facet normal 0.0 -0.0 1.0
outer loop
vertex 12.993749618530273 4.724999904632568 6.0
vertex 37.0 10.65000057220459 6.0
vertex 29.28750228881836 10.65000057220459 6.0
endloop
endfacet
facet normal 0.0 -0.0 0.9999999999999999
outer loop
vertex 12.993749618530273 4.724999904632568 6.0
vertex 29.28750228881836 10.65000057220459 6.0
vertex 21.862071990966797 10.65000057220459 6.0
endloop
endfacet
facet normal 0.0 -0.0 1.0
outer loop
vertex 37.0 10.65000057220459 6.0
vertex 37.0 11.550000190734863 6.0
vertex 31.762500762939453 11.550000190734863 6.0
endloop
endfacet
facet normal 0.0 0.0 0.9999999999999999
outer loop
vertex 37.0 10.65000057220459 6.0
vertex 31.762500762939453 11.550000190734863 6.0
vertex 29.28750228881836 10.65000057220459 6.0
endloop
endfacet
facet normal -0.0 0.0 1.0
outer loop
vertex -37.0 11.550000190734863 6.0
vertex -37.0 10.65000057220459 6.0
vertex 5.5654144287109375 10.65000057220459 6.0
endloop
endfacet
facet normal -0.0 0.0 1.0
outer loop
vertex -37.0 11.550000190734863 6.0
vertex 5.5654144287109375 10.65000057220459 6.0
vertex 12.031044006347656 11.550000190734863 6.0
endloop
endfacet
facet normal 0.0 0.0 1.0
outer loop
vertex 31.762500762939453 11.550000190734863 6.0
vertex 25.58620834350586 11.550000190734863 6.0
vertex 21.862071990966797 10.65000057220459 6.0
endloop
endfacet
facet normal -0.0 0.0 1.0
outer loop
vertex 31.762500762939453 11.550000190734863 6.0
vertex 21.862071990966797 10.65000057220459 6.0
vertex 29.28750228881836 10.65000057220459 6.0
endloop
endfacet
facet normal 0.0 0.0 1.0
outer loop
vertex 5.5654144287109375 10.65000057220459 6.0
vertex 21.862071990966797 10.65000057220459 6.0
vertex 25.58620834350586 11.550000190734863 6.0
endloop
endfacet
facet normal 0.0 -0.0 1.0
outer loop
vertex 5.5654144287109375 10.65000057220459 6.0
vertex 25.58620834350586 11.550000190734863 6.0
vertex 12.031044006347656 11.550000190734863 6.0
endloop
endfacet
facet normal 0.0 0.0 0.9999999999999999
outer loop
vertex -7.000000953674316 3.674999713897705 6.0
vertex -37.0 3.674999713897705 6.0
vertex -37.0 -3.575000047683716 6.0
endloop
endfacet
facet normal -0.0 0.0 1.0
outer loop
vertex -7.000000953674316 3.674999713897705 6.0
vertex -37.0 -3.575000047683716 6.0
vertex -33.132659912109375 -3.575000047683716 6.0
endloop
endfacet
facet normal 0.0 0.0 1.0
outer loop
vertex -4.565009117126465 3.674999713897705 6.0
vertex -7.000000953674316 3.674999713897705 6.0
vertex -33.132659912109375 -3.575000047683716 6.0
endloop
endfacet
facet normal 0.0 0.0 1.0
outer loop
vertex -9.831250190734863 -3.575000047683716 6.0
vertex 37.0 -3.575000047683716 6.0
vertex 37.0 3.674999713897705 6.0
endloop
endfacet
facet normal -0.0 0.0 1.0
outer loop
vertex -4.565009117126465 3.674999713897705 6.0
vertex -33.132659912109375 -3.575000047683716 6.0
vertex -9.831250190734863 -3.575000047683716 6.0
endloop
endfacet
facet normal 0.0 -0.0 1.0
outer loop
vertex -9.831250190734863 -3.575000047683716 6.0
vertex 37.0 3.674999713897705 6.0
vertex 10.10624885559082 3.674999713897705 6.0
endloop
endfacet
facet normal 0.0 -0.0 1.0
outer loop
vertex -9.831250190734863 -3.575000047683716 6.0
vertex 10.10624885559082 3.674999713897705 6.0
vertex -4.565009117126465 3.674999713897705 6.0
endloop
endfacet
facet normal 0.0 -0.0 1.0
outer loop
vertex 37.0 3.674999713897705 6.0
vertex 37.0 4.724999904632568 6.0
vertex 12.993749618530273 4.724999904632568 6.0
endloop
endfacet
facet normal 0.0 0.0 1.0
outer loop
vertex 37.0 3.674999713897705 6.0
vertex 12.993749618530273 4.724999904632568 6.0
vertex 10.10624885559082 3.674999713897705 6.0
endloop
endfacet
facet normal -0.0 0.0 0.9999999999999999
outer loop
vertex -2.644152879714966 4.162481307983398 6.0
vertex -4.565009117126465 3.674999713897705 6.0
vertex 10.10624885559082 3.674999713897705 6.0
endloop
endfacet
facet normal 0.0 -0.0 1.0
outer loop
vertex 10.10624885559082 3.674999713897705 6.0
vertex 12.993749618530273 4.724999904632568 6.0
vertex -2.65517258644104 4.724999904632568 6.0
endloop
endfacet
facet normal -0.0 -0.0 1.0
outer loop
vertex -2.644152879714966 4.162481307983398 6.0
vertex 10.10624885559082 3.674999713897705 6.0
vertex -2.65517258644104 4.724999904632568 6.0
endloop
endfacet
facet normal 0.0 -0.0 1.0
outer loop
vertex -7.000000953674316 3.674999713897705 6.0
vertex -4.565009117126465 3.674999713897705 6.0
vertex -5.128713607788086 4.127227306365967 6.0
endloop
endfacet
facet normal -0.0 0.0 1.0
outer loop
vertex -5.128713607788086 4.127227306365967 6.0
vertex -4.565009117126465 3.674999713897705 6.0
vertex -2.644152879714966 4.162481307983398 6.0
endloop
endfacet
facet normal 0.0 0.0 1.0
outer loop
vertex -2.644152879714966 4.162481307983398 6.0
vertex -2.65517258644104 4.724999904632568 6.0
vertex -37.0 4.724999904632568 6.0
endloop
endfacet
facet normal -0.0 0.0 1.0
outer loop
vertex -37.0 4.724999904632568 6.0
vertex -37.0 3.674999713897705 6.0
vertex -7.000000953674316 3.674999713897705 6.0
endloop
endfacet
facet normal 0.0 -0.0 1.0
outer loop
vertex -5.128713607788086 4.127227306365967 6.0
vertex -2.644152879714966 4.162481307983398 6.0
vertex -37.0 4.724999904632568 6.0
endloop
endfacet
facet normal -0.0 0.0 1.0
outer loop
vertex -37.0 4.724999904632568 6.0
vertex -7.000000953674316 3.674999713897705 6.0
vertex -5.128713607788086 4.127227306365967 6.0
endloop
endfacet
facet normal 0.0 0.0 1.0
outer loop
vertex -32.660770416259766 -4.425000190734863 6.0
vertex -37.0 -4.425000190734863 6.0
vertex -37.0 -10.625 6.0
endloop
endfacet
facet normal 0.0 0.0 0.9999999999999999
outer loop
vertex -29.21875 -10.625 6.0
vertex 37.0 -10.625 6.0
vertex 37.0 -4.425000190734863 6.0
endloop
endfacet
facet normal -0.0 0.0 1.0
outer loop
vertex -32.660770416259766 -4.425000190734863 6.0
vertex -37.0 -10.625 6.0
vertex -29.21875 -10.625 6.0
endloop
endfacet
facet normal 0.0 -0.0 0.9999999999999999
outer loop
vertex -29.21875 -10.625 6.0
vertex 37.0 -4.425000190734863 6.0
vertex -12.168750762939453 -4.425000190734863 6.0
endloop
endfacet
facet normal -0.0 0.0 1.0
outer loop
vertex -32.660770416259766 -4.425000190734863 6.0
vertex -29.21875 -10.625 6.0
vertex -12.168750762939453 -4.425000190734863 6.0
endloop
endfacet
facet normal -0.0 0.0 1.0
outer loop
vertex -37.0 -3.575000047683716 6.0
vertex -37.0 -4.425000190734863 6.0
vertex -32.660770416259766 -4.425000190734863 6.0
endloop
endfacet
facet normal -0.0 -0.0 1.0
outer loop
vertex -37.0 -3.575000047683716 6.0
vertex -32.660770416259766 -4.425000190734863 6.0
vertex -33.132659912109375 -3.575000047683716 6.0
endloop
endfacet
facet normal 0.0 -0.0 1.0
outer loop
vertex 37.0 -4.425000190734863 6.0
vertex 37.0 -3.575000047683716 6.0
vertex -9.831250190734863 -3.575000047683716 6.0
endloop
endfacet
facet normal 0.0 0.0 1.0
outer loop
vertex 37.0 -4.425000190734863 6.0
vertex -9.831250190734863 -3.575000047683716 6.0
vertex -12.168750762939453 -4.425000190734863 6.0
endloop
endfacet
facet normal 0.0 0.0 1.0
outer loop
vertex -32.660770416259766 -4.425000190734863 6.0
vertex -12.168750762939453 -4.425000190734863 6.0
vertex -9.831250190734863 -3.575000047683716 6.0
endloop
endfacet
facet normal 0.0 -0.0 1.0
outer loop
vertex -32.660770416259766 -4.425000190734863 6.0
vertex -9.831250190734863 -3.575000047683716 6.0
vertex -33.132659912109375 -3.575000047683716 6.0
endloop
endfacet
facet normal 0.0 0.0 1.0
outer loop
vertex -29.21875 -10.625 6.0
vertex -37.0 -10.625 6.0
vertex -37.0 -11.774999618530273 6.0
endloop
endfacet
facet normal -0.0 0.0 1.0
outer loop
vertex -29.21875 -10.625 6.0
vertex -37.0 -11.774999618530273 6.0
vertex -32.381248474121094 -11.774999618530273 6.0
endloop
endfacet
facet normal 0.0 0.0 1.0
outer loop
vertex -32.381248474121094 -11.774999618530273 6.0
vertex 37.0 -11.774999618530273 6.0
vertex 37.0 -10.625 6.0
endloop
endfacet
facet normal 0.0 -0.0 1.0
outer loop
vertex -32.381248474121094 -11.774999618530273 6.0
vertex 37.0 -10.625 6.0
vertex -29.21875 -10.625 6.0
endloop
endfacet
facet normal 0.0 -1.0 0.0
outer loop
vertex -47.650001525878906 -15.0 4.75
vertex -47.650001525878906 -15.0 1.25
vertex -44.0 -15.0 1.25
endloop
endfacet
facet normal 0.0 -1.0 0.0
outer loop
vertex -47.650001525878906 -15.0 4.75
vertex -44.0 -15.0 1.25
vertex -44.0 -15.0 4.75
endloop
endfacet
facet normal 0.0 0.0 -1.0
outer loop
vertex -47.650001525878906 -15.0 1.25
vertex -47.65000534057617 -14.999998092651367 1.25
vertex -47.65000534057617 -5.000002384185791 1.25
endloop
endfacet
facet normal 0.0 0.0 -1.0
outer loop
vertex -47.65000534057617 -5.000002384185791 1.25
vertex -47.650001525878906 -5.0 1.25
vertex -44.0 -5.0 1.25
endloop
endfacet
facet normal -0.0 -0.0 -1.0
outer loop
vertex -44.0 -5.0 1.25
vertex -44.0 -15.0 1.25
vertex -47.650001525878906 -15.0 1.25
endloop
endfacet
facet normal 0.0 -0.0 -1.0
outer loop
vertex -47.65000534057617 -5.000002384185791 1.25
vertex -44.0 -5.0 1.25
vertex -47.650001525878906 -15.0 1.25
endloop
endfacet
facet normal 0.0 1.0 -0.0
outer loop
vertex -44.0 -5.0 1.25
vertex -47.650001525878906 -5.0 1.25
vertex -47.650001525878906 -5.0 4.75
endloop
endfacet
facet normal 0.0 1.0 -0.0
outer loop
vertex -44.0 -5.0 1.25
vertex -47.650001525878906 -5.0 4.75
vertex -44.0 -5.0 4.75
endloop
endfacet
facet normal 0.0 -0.0 1.0
outer loop
vertex -44.0 -15.0 4.75
vertex -44.0 -5.0 4.75
vertex -47.650001525878906 -5.0 4.75
endloop
endfacet
facet normal 0.0 0.0 1.0
outer loop
vertex -47.650001525878906 -5.0 4.75
vertex -47.65000915527344 -5.000006198883057 4.75
vertex -47.65000534057617 -14.999994277954102 4.75
endloop
endfacet
facet normal -0.0 0.0 1.0
outer loop
vertex -47.65000534057617 -14.999994277954102 4.75
vertex -47.650001525878906 -15.0 4.75
vertex -44.0 -15.0 4.75
endloop
endfacet
facet normal 0.0 0.0 1.0
outer loop
vertex -47.650001525878906 -5.0 4.75
vertex -47.65000534057617 -14.999994277954102 4.75
vertex -44.0 -15.0 4.75
endloop
endfacet
facet normal -0.9999999999999999 0.0 -0.0
outer loop
vertex -48.0 -14.650001525878906 4.4000091552734375
vertex -48.0 -5.349997520446777 4.4000091552734375
vertex -48.0 -5.349998474121094 1.5999946594238281
endloop
endfacet
facet normal -1.0 -0.0 -0.0
outer loop
vertex -48.0 -14.650001525878906 4.4000091552734375
vertex -48.0 -5.349998474121094 1.5999946594238281
vertex -48.0 -14.650001525878906 1.5999946594238281
endloop
endfacet
facet normal -0.7071087079211471 -0.707104854446698 -0.0
outer loop
vertex -48.0 -14.650001525878906 4.4000091552734375
vertex -48.0 -14.650001525878906 1.5999946594238281
vertex -47.65000534057617 -14.999998092651367 1.25
endloop
endfacet
facet normal -0.4472135954999579 -0.8944271909999159 0.0
outer loop
vertex -47.65000534057617 -14.999998092651367 1.25
vertex -47.650001525878906 -15.0 1.25
vertex -47.650001525878906 -15.0 4.75
endloop
endfacet
facet normal -0.8017824773011966 -0.534521651534131 0.2672666517431253
outer loop
vertex -47.650001525878906 -15.0 4.75
vertex -47.65000534057617 -14.999994277954102 4.75
vertex -48.0 -14.650001525878906 4.4000091552734375
endloop
endfacet
facet normal -0.7071069738537338 -0.7071065885192037 3.853429299426836e-07
outer loop
vertex -47.65000534057617 -14.999998092651367 1.25
vertex -47.650001525878906 -15.0 4.75
vertex -48.0 -14.650001525878906 4.4000091552734375
endloop
endfacet
facet normal -0.6240198749288516 0.7680244614508943 -0.1440056328997041
outer loop
vertex -48.0 -5.349997520446777 4.4000091552734375
vertex -47.65000915527344 -5.000006198883057 4.75
vertex -47.650001525878906 -5.0 4.75
endloop
endfacet
facet normal -0.52999894000318 0.847998304005088 0.0
outer loop
vertex -47.650001525878906 -5.0 4.75
vertex -47.650001525878906 -5.0 1.25
vertex -47.65000534057617 -5.000002384185791 1.25
endloop
endfacet
facet normal -0.7071083466571279 0.7071052157124602 -2.408373543142164e-07
outer loop
vertex -47.65000534057617 -5.000002384185791 1.25
vertex -48.0 -5.349998474121094 1.5999946594238281
vertex -48.0 -5.349997520446777 4.4000091552734375
endloop
endfacet
facet normal -0.7071059623237964 0.7071076000482912 2.8900551092269293e-07
outer loop
vertex -47.650001525878906 -5.0 4.75
vertex -47.65000534057617 -5.000002384185791 1.25
vertex -48.0 -5.349997520446777 4.4000091552734375
endloop
endfacet
facet normal -0.707106646316275 -2.697401005760533e-07 0.707106916056743
outer loop
vertex -47.65000534057617 -14.999994277954102 4.75
vertex -47.65000915527344 -5.000006198883057 4.75
vertex -48.0 -5.349997520446777 4.4000091552734375
endloop
endfacet
facet normal -0.7071029276700981 0.0 0.7071106346819966
outer loop
vertex -47.65000534057617 -14.999994277954102 4.75
vertex -48.0 -5.349997520446777 4.4000091552734375
vertex -48.0 -14.650001525878906 4.4000091552734375
endloop
endfacet
facet normal -0.7071067811865476 0.0 -0.7071067811865476
outer loop
vertex -47.65000534057617 -14.999998092651367 1.25
vertex -48.0 -14.650001525878906 1.5999946594238281
vertex -48.0 -5.349998474121094 1.5999946594238281
endloop
endfacet
facet normal -0.7071067811865476 0.0 -0.7071067811865476
outer loop
vertex -47.65000534057617 -14.999998092651367 1.25
vertex -48.0 -5.349998474121094 1.5999946594238281
vertex -47.65000534057617 -5.000002384185791 1.25
endloop
endfacet
facet normal 0.0 -1.0 0.0
outer loop
vertex -47.650001525878906 5.0 4.75
vertex -47.650001525878906 5.0 1.25
vertex -44.0 5.0 1.25
endloop
endfacet
facet normal 0.0 -1.0 0.0
outer loop
vertex -47.650001525878906 5.0 4.75
vertex -44.0 5.0 1.25
vertex -44.0 5.0 4.75
endloop
endfacet
facet normal 0.0 0.0 -1.0
outer loop
vertex -47.650001525878906 5.0 1.25
vertex -47.65000534057617 5.000001907348633 1.25
vertex -47.65000534057617 14.999998092651367 1.25
endloop
endfacet
facet normal 0.0 0.0 -0.9999999999999999
outer loop
vertex -47.65000534057617 14.999998092651367 1.25
vertex -47.650001525878906 15.0 1.25
vertex -44.0 15.0 1.25
endloop
endfacet
facet normal -0.0 -0.0 -1.0
outer loop
vertex -44.0 15.0 1.25
vertex -44.0 5.0 1.25
vertex -47.650001525878906 5.0 1.25
endloop
endfacet
facet normal 0.0 -0.0 -1.0
outer loop
vertex -47.65000534057617 14.999998092651367 1.25
vertex -44.0 15.0 1.25
vertex -47.650001525878906 5.0 1.25
endloop
endfacet
facet normal 0.0 1.0 -0.0
outer loop
vertex -44.0 15.0 1.25
vertex -47.650001525878906 15.0 1.25
vertex -47.650001525878906 15.0 4.75
endloop
endfacet
facet normal 0.0 1.0 -0.0
outer loop
vertex -44.0 15.0 1.25
vertex -47.650001525878906 15.0 4.75
vertex -44.0 15.0 4.75
endloop
endfacet
facet normal 0.0 -0.0 1.0
outer loop
vertex -44.0 5.0 4.75
vertex -44.0 15.0 4.75
vertex -47.650001525878906 15.0 4.75
endloop
endfacet
facet normal 0.0 0.0 1.0
outer loop
vertex -47.650001525878906 15.0 4.75
vertex -47.65000915527344 14.999993324279785 4.75
vertex -47.65000534057617 5.000005722045898 4.75
endloop
endfacet
facet normal -0.0 0.0 1.0
outer loop
vertex -47.65000534057617 5.000005722045898 4.75
vertex -47.650001525878906 5.0 4.75
vertex -44.0 5.0 4.75
endloop
endfacet
facet normal 0.0 0.0 1.0
outer loop
vertex -47.650001525878906 15.0 4.75
vertex -47.65000534057617 5.000005722045898 4.75
vertex -44.0 5.0 4.75
endloop
endfacet
facet normal -1.0 0.0 0.0
outer loop
vertex -48.0 5.349998474121094 4.4000091552734375
vertex -48.0 14.650001525878906 4.4000091552734375
vertex -48.0 14.650001525878906 1.5999946594238281
endloop
endfacet
facet normal -0.9999999999999999 -0.0 -0.0
outer loop
vertex -48.0 5.349998474121094 4.4000091552734375
vertex -48.0 14.650001525878906 1.5999946594238281
vertex -48.0 5.349997520446777 1.5999946594238281
endloop
endfacet
facet normal -0.7071076241373132 -0.707105938234736 2.408376004025629e-07
outer loop
vertex -48.0 5.349998474121094 4.4000091552734375
vertex -48.0 5.349997520446777 1.5999946594238281
vertex -47.65000534057617 5.000001907348633 1.25
endloop
endfacet
facet normal -0.4472135954999579 -0.8944271909999159 0.0
outer loop
vertex -47.65000534057617 5.000001907348633 1.25
vertex -47.650001525878906 5.0 1.25
vertex -47.650001525878906 5.0 4.75
endloop
endfacet
facet normal -0.8017824773011966 -0.534521651534131 0.2672666517431253
outer loop
vertex -47.650001525878906 5.0 4.75
vertex -47.65000534057617 5.000005722045898 4.75
vertex -48.0 5.349998474121094 4.4000091552734375
endloop
endfacet
facet normal -0.7071069738537338 -0.7071065885192037 3.853429299426836e-07
outer loop
vertex -47.65000534057617 5.000001907348633 1.25
vertex -47.650001525878906 5.0 4.75
vertex -48.0 5.349998474121094 4.4000091552734375
endloop
endfacet
facet normal -0.7071077445663161 0.7071058178054662 0.0
outer loop
vertex -48.0 14.650001525878906 1.5999946594238281
vertex -48.0 14.650001525878906 4.4000091552734375
vertex -47.65000915527344 14.999993324279785 4.75
endloop
endfacet
facet normal -0.658504607868518 0.7525766947068778 0.0
outer loop
vertex -47.65000915527344 14.999993324279785 4.75
vertex -47.650001525878906 15.0 4.75
vertex -47.650001525878906 15.0 1.25
endloop
endfacet
facet normal -0.40824754885831804 0.8164950977166361 0.4082519984713804
outer loop
vertex -47.650001525878906 15.0 1.25
vertex -47.65000534057617 14.999998092651367 1.25
vertex -48.0 14.650001525878906 1.5999946594238281
endloop
endfacet
facet normal -0.7071068775213283 0.7071066848517271 -1.926717012156179e-07
outer loop
vertex -47.65000915527344 14.999993324279785 4.75
vertex -47.650001525878906 15.0 1.25
vertex -48.0 14.650001525878906 1.5999946594238281
endloop
endfacet
facet normal -0.7071066463160847 -2.69740113438207e-07 0.7071069160569331
outer loop
vertex -47.65000534057617 5.000005722045898 4.75
vertex -47.65000915527344 14.999993324279785 4.75
vertex -48.0 14.650001525878906 4.4000091552734375
endloop
endfacet
facet normal -0.707102927670098 0.0 0.7071106346819965
outer loop
vertex -47.65000534057617 5.000005722045898 4.75
vertex -48.0 14.650001525878906 4.4000091552734375
vertex -48.0 5.349998474121094 4.4000091552734375
endloop
endfacet
facet normal -0.7071067811865475 0.0 -0.7071067811865475
outer loop
vertex -47.65000534057617 5.000001907348633 1.25
vertex -48.0 5.349997520446777 1.5999946594238281
vertex -48.0 14.650001525878906 1.5999946594238281
endloop
endfacet
facet normal -0.7071067811865476 0.0 -0.7071067811865476
outer loop
vertex -47.65000534057617 5.000001907348633 1.25
vertex -48.0 14.650001525878906 1.5999946594238281
vertex -47.65000534057617 14.999998092651367 1.25
endloop
endfacet
facet normal -0.0 -0.9999999999999999 -0.0
outer loop
vertex 47.65000534057617 -15.0 4.75
vertex 44.0 -15.0 4.75
vertex 44.0 -15.0 1.25
endloop
endfacet
facet normal 0.0 -0.9999999999999999 0.0
outer loop
vertex 44.0 -15.0 1.25
vertex 47.650001525878906 -15.0 1.25
vertex 47.65000534057617 -15.0 1.2500038146972656
endloop
endfacet
facet normal 0.0 -1.0 0.0
outer loop
vertex 44.0 -15.0 1.25
vertex 47.65000534057617 -15.0 1.2500038146972656
vertex 47.65000534057617 -15.0 4.75
endloop
endfacet
facet normal 0.0 -0.0 0.9999999999999999
outer loop
vertex 47.65000534057617 -15.0 4.75
vertex 47.65000534057617 -5.0 4.75
vertex 44.0 -5.0 4.75
endloop
endfacet
facet normal 0.0 0.0 0.9999999999999999
outer loop
vertex 47.65000534057617 -15.0 4.75
vertex 44.0 -5.0 4.75
vertex 44.0 -15.0 4.75
endloop
endfacet
facet normal 0.0 0.9999999999999999 0.0
outer loop
vertex 47.65000534057617 -5.0 1.2500038146972656
vertex 47.650001525878906 -5.0 1.25
vertex 44.0 -5.0 1.25
endloop
endfacet
facet normal 0.0 0.9999999999999999 0.0
outer loop
vertex 44.0 -5.0 1.25
vertex 44.0 -5.0 4.75
vertex 47.65000534057617 -5.0 4.75
endloop
endfacet
facet normal -0.0 1.0 0.0
outer loop
vertex 44.0 -5.0 1.25
vertex 47.65000534057617 -5.0 4.75
vertex 47.65000534057617 -5.0 1.2500038146972656
endloop
endfacet
facet normal -0.0 -0.0 -1.0
outer loop
vertex 47.650001525878906 -5.0 1.25
vertex 47.650001525878906 -15.0 1.25
vertex 44.0 -15.0 1.25
endloop
endfacet
facet normal -0.0 0.0 -1.0
outer loop
vertex 47.650001525878906 -5.0 1.25
vertex 44.0 -15.0 1.25
vertex 44.0 -5.0 1.25
endloop
endfacet
facet normal 0.9999999999999999 -0.0 0.0
outer loop
vertex 48.0 -14.650004386901855 4.400005340576172
vertex 48.0 -14.650004386901855 1.5999984741210938
vertex 48.0 -5.349996089935303 1.5999984741210938
endloop
endfacet
facet normal 0.9999999999999999 -0.0 0.0
outer loop
vertex 48.0 -14.650004386901855 4.400005340576172
vertex 48.0 -5.349996089935303 1.5999984741210938
vertex 48.0 -5.349996089935303 4.400005340576172
endloop
endfacet
facet normal 0.7071077445558159 -0.7071058178159664 0.0
outer loop
vertex 47.65000534057617 -15.0 4.75
vertex 47.65000534057617 -15.0 1.2500038146972656
vertex 48.0 -14.650004386901855 1.5999984741210938
endloop
endfacet
facet normal 0.707107744555816 -0.7071058178159665 0.0
outer loop
vertex 47.65000534057617 -15.0 4.75
vertex 48.0 -14.650004386901855 1.5999984741210938
vertex 48.0 -14.650004386901855 4.400005340576172
endloop
endfacet
facet normal 0.7071082262389737 0.7071053361311682 0.0
outer loop
vertex 48.0 -5.349996089935303 4.400005340576172
vertex 48.0 -5.349996089935303 1.5999984741210938
vertex 47.65000534057617 -5.0 1.2500038146972656
endloop
endfacet
facet normal 0.7071082262389737 0.7071053361311682 -0.0
outer loop
vertex 48.0 -5.349996089935303 4.400005340576172
vertex 47.65000534057617 -5.0 1.2500038146972656
vertex 47.65000534057617 -5.0 4.75
endloop
endfacet
facet normal 0.7071067811865475 0.0 -0.7071067811865475
outer loop
vertex 47.65000534057617 -15.0 1.2500038146972656
vertex 47.650001525878906 -15.0 1.25
vertex 47.650001525878906 -5.0 1.25
endloop
endfacet
facet normal 0.7071067811865475 0.0 -0.7071067811865475
outer loop
vertex 47.650001525878906 -5.0 1.25
vertex 47.65000534057617 -5.0 1.2500038146972656
vertex 48.0 -5.349996089935303 1.5999984741210938
endloop
endfacet
facet normal 0.7071067811865476 0.0 -0.7071067811865476
outer loop
vertex 48.0 -5.349996089935303 1.5999984741210938
vertex 48.0 -14.650004386901855 1.5999984741210938
vertex 47.65000534057617 -15.0 1.2500038146972656
endloop
endfacet
facet normal 0.7071067811865475 0.0 -0.7071067811865475
outer loop
vertex 47.650001525878906 -5.0 1.25
vertex 48.0 -5.349996089935303 1.5999984741210938
vertex 47.65000534057617 -15.0 1.2500038146972656
endloop
endfacet
facet normal 0.7071067811865475 0.0 0.7071067811865475
outer loop
vertex 47.65000534057617 -5.0 4.75
vertex 47.65000534057617 -15.0 4.75
vertex 48.0 -14.650004386901855 4.400005340576172
endloop
endfacet
facet normal 0.7071067811865476 -0.0 0.7071067811865476
outer loop
vertex 47.65000534057617 -5.0 4.75
vertex 48.0 -14.650004386901855 4.400005340576172
vertex 48.0 -5.349996089935303 4.400005340576172
endloop
endfacet
facet normal 0.0 -0.9999999999999999 0.0
outer loop
vertex 44.0 5.0 1.25
vertex 47.650001525878906 5.0 1.25
vertex 47.65000534057617 5.0 1.2500038146972656
endloop
endfacet
facet normal 0.0 -1.0 0.0
outer loop
vertex 47.65000534057617 5.0 1.2500038146972656
vertex 47.65000534057617 5.0 4.75
vertex 44.0 5.0 4.75
endloop
endfacet
facet normal -0.0 -0.9999999999999999 -0.0
outer loop
vertex 47.65000534057617 5.0 1.2500038146972656
vertex 44.0 5.0 4.75
vertex 44.0 5.0 1.25
endloop
endfacet
facet normal 0.0 -0.0 0.9999999999999999
outer loop
vertex 47.65000534057617 5.0 4.75
vertex 47.65000534057617 15.0 4.75
vertex 44.0 15.0 4.75
endloop
endfacet
facet normal 0.0 0.0 0.9999999999999999
outer loop
vertex 47.65000534057617 5.0 4.75
vertex 44.0 15.0 4.75
vertex 44.0 5.0 4.75
endloop
endfacet
facet normal 0.0 0.9999999999999999 0.0
outer loop
vertex 47.65000534057617 15.0 1.2500038146972656
vertex 47.650001525878906 15.0 1.25
vertex 44.0 15.0 1.25
endloop
endfacet
facet normal 0.0 0.9999999999999999 0.0
outer loop
vertex 44.0 15.0 1.25
vertex 44.0 15.0 4.75
vertex 47.65000534057617 15.0 4.75
endloop
endfacet
facet normal -0.0 1.0 0.0
outer loop
vertex 44.0 15.0 1.25
vertex 47.65000534057617 15.0 4.75
vertex 47.65000534057617 15.0 1.2500038146972656
endloop
endfacet
facet normal -0.0 -0.0 -1.0
outer loop
vertex 47.650001525878906 15.0 1.25
vertex 47.650001525878906 5.0 1.25
vertex 44.0 5.0 1.25
endloop
endfacet
facet normal -0.0 0.0 -1.0
outer loop
vertex 47.650001525878906 15.0 1.25
vertex 44.0 5.0 1.25
vertex 44.0 15.0 1.25
endloop
endfacet
facet normal 0.9999999999999999 -0.0 0.0
outer loop
vertex 48.0 5.349996089935303 4.400005340576172
vertex 48.0 5.349996089935303 1.5999984741210938
vertex 48.0 14.650004386901855 1.5999984741210938
endloop
endfacet
facet normal 0.9999999999999999 -0.0 0.0
outer loop
vertex 48.0 5.349996089935303 4.400005340576172
vertex 48.0 14.650004386901855 1.5999984741210938
vertex 48.0 14.650004386901855 4.400005340576172
endloop
endfacet
facet normal 0.7071082262389737 -0.7071053361311682 0.0
outer loop
vertex 47.65000534057617 5.0 4.75
vertex 47.65000534057617 5.0 1.2500038146972656
vertex 48.0 5.349996089935303 1.5999984741210938
endloop
endfacet
facet normal 0.7071082262389737 -0.7071053361311682 0.0
outer loop
vertex 47.65000534057617 5.0 4.75
vertex 48.0 5.349996089935303 1.5999984741210938
vertex 48.0 5.349996089935303 4.400005340576172
endloop
endfacet
facet normal 0.707107744555816 0.7071058178159665 0.0
outer loop
vertex 48.0 14.650004386901855 4.400005340576172
vertex 48.0 14.650004386901855 1.5999984741210938
vertex 47.65000534057617 15.0 1.2500038146972656
endloop
endfacet
facet normal 0.7071077445558159 0.7071058178159664 -0.0
outer loop
vertex 48.0 14.650004386901855 4.400005340576172
vertex 47.65000534057617 15.0 1.2500038146972656
vertex 47.65000534057617 15.0 4.75
endloop
endfacet
facet normal 0.7071067811865475 0.0 -0.7071067811865475
outer loop
vertex 47.65000534057617 5.0 1.2500038146972656
vertex 47.650001525878906 5.0 1.25
vertex 47.650001525878906 15.0 1.25
endloop
endfacet
facet normal 0.7071067811865475 0.0 -0.7071067811865475
outer loop
vertex 47.650001525878906 15.0 1.25
vertex 47.65000534057617 15.0 1.2500038146972656
vertex 48.0 14.650004386901855 1.5999984741210938
endloop
endfacet
facet normal 0.7071067811865476 0.0 -0.7071067811865476
outer loop
vertex 48.0 14.650004386901855 1.5999984741210938
vertex 48.0 5.349996089935303 1.5999984741210938
vertex 47.65000534057617 5.0 1.2500038146972656
endloop
endfacet
facet normal 0.7071067811865476 0.0 -0.7071067811865476
outer loop
vertex 47.650001525878906 15.0 1.25
vertex 48.0 14.650004386901855 1.5999984741210938
vertex 47.65000534057617 5.0 1.2500038146972656
endloop
endfacet
facet normal 0.7071067811865476 -0.0 0.7071067811865476
outer loop
vertex 48.0 5.349996089935303 4.400005340576172
vertex 48.0 14.650004386901855 4.400005340576172
vertex 47.65000534057617 15.0 4.75
endloop
endfacet
facet normal 0.7071067811865475 0.0 0.7071067811865475
outer loop
vertex 48.0 5.349996089935303 4.400005340576172
vertex 47.65000534057617 15.0 4.75
vertex 47.65000534057617 5.0 4.75
endloop
endfacet

endsolid
