solid 
facet normal -1.0 0.0 0.0
outer loop
vertex -44.0 -16.0 0.0
vertex -44.0 -16.0 6.0
vertex -44.0 -15.0 4.75
endloop
endfacet
facet normal -1.0 0.0 0.0
outer loop
vertex -44.0 -16.0 0.0
vertex -44.0 -15.0 4.75
vertex -44.0 -15.0 1.25
endloop
endfacet
facet normal -1.0 0.0 0.0
outer loop
vertex -44.0 15.0 4.75
vertex -44.0 16.0 6.0
vertex -44.0 16.0 0.0
endloop
endfacet
facet normal -1.0 -0.0 -0.0
outer loop
vertex -44.0 15.0 4.75
vertex -44.0 16.0 0.0
vertex -44.0 15.0 1.25
endloop
endfacet
facet normal -1.0 0.0 0.0
outer loop
vertex -44.0 5.0 1.25
vertex -44.0 15.0 1.25
vertex -44.0 16.0 0.0
endloop
endfacet
facet normal -1.0 0.0 0.0
outer loop
vertex -44.0 16.0 0.0
vertex -44.0 -16.0 0.0
vertex -44.0 -15.0 1.25
endloop
endfacet
facet normal -1.0 0.0 0.0
outer loop
vertex -44.0 16.0 0.0
vertex -44.0 -15.0 1.25
vertex -44.0 -5.0 1.25
endloop
endfacet
facet normal -1.0 -0.0 -0.0
outer loop
vertex -44.0 5.0 1.25
vertex -44.0 16.0 0.0
vertex -44.0 -5.0 1.25
endloop
endfacet
facet normal -1.0 0.0 0.0
outer loop
vertex -44.0 -5.0 4.75
vertex -44.0 -15.0 4.75
vertex -44.0 -16.0 6.0
endloop
endfacet
facet normal -1.0 0.0 0.0
outer loop
vertex -44.0 5.0 1.25
vertex -44.0 -5.0 1.25
vertex -44.0 -5.0 4.75
endloop
endfacet
facet normal -1.0 -0.0 0.0
outer loop
vertex -44.0 16.0 6.0
vertex -44.0 15.0 4.75
vertex -44.0 5.0 4.75
endloop
endfacet
facet normal -1.0 -0.0 -0.0
outer loop
vertex -44.0 5.0 4.75
vertex -44.0 5.0 1.25
vertex -44.0 -5.0 4.75
endloop
endfacet
facet normal -1.0 0.0 0.0
outer loop
vertex -44.0 -5.0 4.75
vertex -44.0 -16.0 6.0
vertex -44.0 16.0 6.0
endloop
endfacet
facet normal -1.0 0.0 -0.0
outer loop
vertex -44.0 -5.0 4.75
vertex -44.0 16.0 6.0
vertex -44.0 5.0 4.75
endloop
endfacet
facet normal 0.0 1.0 0.0
outer loop
vertex -44.0 16.0 0.0
vertex -44.0 16.0 6.0
vertex 44.0 16.0 6.0
endloop
endfacet
facet normal -0.0 1.0 0.0
outer loop
vertex -44.0 16.0 0.0
vertex 44.0 16.0 6.0
vertex 44.0 16.0 0.0
endloop
endfacet
facet normal 1.0 0.0 0.0
outer loop
vertex 44.0 -15.0 4.75
vertex 44.0 -16.0 6.0
vertex 44.0 -16.0 0.0
endloop
endfacet
facet normal 1.0 -0.0 0.0
outer loop
vertex 44.0 -15.0 4.75
vertex 44.0 -16.0 0.0
vertex 44.0 -15.0 1.25
endloop
endfacet
facet normal 1.0 0.0 0.0
outer loop
vertex 44.0 5.0 4.75
vertex 44.0 15.0 4.75
vertex 44.0 16.0 6.0
endloop
endfacet
facet normal 1.0 0.0 0.0
outer loop
vertex 44.0 16.0 6.0
vertex 44.0 -16.0 6.0
vertex 44.0 -15.0 4.75
endloop
endfacet
facet normal 1.0 -0.0 0.0
outer loop
vertex 44.0 16.0 6.0
vertex 44.0 -15.0 4.75
vertex 44.0 -5.0 4.75
endloop
endfacet
facet normal 1.0 0.0 -0.0
outer loop
vertex 44.0 5.0 4.75
vertex 44.0 16.0 6.0
vertex 44.0 -5.0 4.75
endloop
endfacet
facet normal 1.0 0.0 0.0
outer loop
vertex 44.0 -5.0 1.25
vertex 44.0 -15.0 1.25
vertex 44.0 -16.0 0.0
endloop
endfacet
facet normal 1.0 0.0 0.0
outer loop
vertex 44.0 5.0 4.75
vertex 44.0 -5.0 4.75
vertex 44.0 -5.0 1.25
endloop
endfacet
facet normal 1.0 0.0 0.0
outer loop
vertex 44.0 16.0 0.0
vertex 44.0 15.0 1.25
vertex 44.0 5.0 1.25
endloop
endfacet
facet normal 1.0 0.0 -0.0
outer loop
vertex 44.0 5.0 1.25
vertex 44.0 5.0 4.75
vertex 44.0 -5.0 1.25
endloop
endfacet
facet normal 1.0 -0.0 0.0
outer loop
vertex 44.0 -5.0 1.25
vertex 44.0 -16.0 0.0
vertex 44.0 16.0 0.0
endloop
endfacet
facet normal 1.0 -0.0 -0.0
outer loop
vertex 44.0 -5.0 1.25
vertex 44.0 16.0 0.0
vertex 44.0 5.0 1.25
endloop
endfacet
facet normal 1.0 -0.0 0.0
outer loop
vertex 44.0 15.0 1.25
vertex 44.0 16.0 0.0
vertex 44.0 16.0 6.0
endloop
endfacet
facet normal 1.0 0.0 -0.0
outer loop
vertex 44.0 15.0 1.25
vertex 44.0 16.0 6.0
vertex 44.0 15.0 4.75
endloop
endfacet
facet normal -0.0 -1.0 -0.0
outer loop
vertex 21.842315673828125 -16.0 2.524993896484375
vertex -37.0 -16.0 2.524993896484375
vertex -37.0 -16.0 1.725006103515625
endloop
endfacet
facet normal 0.0 -1.0 0.0
outer loop
vertex -37.0 -16.0 1.725006103515625
vertex 37.0 -16.0 1.725006103515625
vertex 37.0 -16.0 2.524993896484375
endloop
endfacet
facet normal 0.0 -1.0 -0.0
outer loop
vertex 21.842315673828125 -16.0 2.524993896484375
vertex -37.0 -16.0 1.725006103515625
vertex 37.0 -16.0 2.524993896484375
endloop
endfacet
facet normal -0.0 -1.0 -0.0
outer loop
vertex -11.315916061401367 -16.0 4.2750091552734375
vertex -37.0 -16.0 4.2750091552734375
vertex -37.0 -16.0 3.475006103515625
endloop
endfacet
facet normal 0.0 -0.9999999999999999 0.0
outer loop
vertex 3.842057943344116 -16.0 3.475006103515625
vertex 37.0 -16.0 3.475006103515625
vertex 37.0 -16.0 4.2750091552734375
endloop
endfacet
facet normal 0.0 -1.0 -0.0
outer loop
vertex -11.315916061401367 -16.0 4.2750091552734375
vertex -37.0 -16.0 3.475006103515625
vertex 3.842057943344116 -16.0 3.475006103515625
endloop
endfacet
facet normal 0.0 -1.0 0.0
outer loop
vertex 3.842057943344116 -16.0 3.475006103515625
vertex 37.0 -16.0 4.2750091552734375
vertex 16.565444946289062 -16.0 4.2750091552734375
endloop
endfacet
facet normal 0.0 -1.0 0.0
outer loop
vertex -11.315916061401367 -16.0 4.2750091552734375
vertex 3.842057943344116 -16.0 3.475006103515625
vertex 16.565444946289062 -16.0 4.2750091552734375
endloop
endfacet
facet normal 0.0 -1.0 0.0
outer loop
vertex -44.0 -16.0 6.0
vertex -44.0 -16.0 0.0
vertex -37.0 -16.0 0.975006103515625
endloop
endfacet
facet normal 0.0 -1.0 0.0
outer loop
vertex -44.0 -16.0 6.0
vertex -37.0 -16.0 0.975006103515625
vertex -37.0 -16.0 1.725006103515625
endloop
endfacet
facet normal 0.0 -1.0 0.0
outer loop
vertex 37.0 -16.0 0.975006103515625
vertex 44.0 -16.0 0.0
vertex 44.0 -16.0 6.0
endloop
endfacet
facet normal 0.0 -1.0 0.0
outer loop
vertex 37.0 -16.0 1.725006103515625
vertex 37.0 -16.0 0.975006103515625
vertex 44.0 -16.0 6.0
endloop
endfacet
facet normal 0.0 -1.0 0.0
outer loop
vertex -44.0 -16.0 6.0
vertex -37.0 -16.0 1.725006103515625
vertex -37.0 -16.0 2.524993896484375
endloop
endfacet
facet normal 0.0 -1.0 0.0
outer loop
vertex -44.0 -16.0 6.0
vertex -37.0 -16.0 2.524993896484375
vertex -37.0 -16.0 3.475006103515625
endloop
endfacet
facet normal 0.0 -1.0 0.0
outer loop
vertex 37.0 -16.0 2.524993896484375
vertex 37.0 -16.0 1.725006103515625
vertex 44.0 -16.0 6.0
endloop
endfacet
facet normal 0.0 -1.0 0.0
outer loop
vertex 37.0 -16.0 3.475006103515625
vertex 37.0 -16.0 2.524993896484375
vertex 44.0 -16.0 6.0
endloop
endfacet
facet normal 0.0 -1.0 0.0
outer loop
vertex -44.0 -16.0 6.0
vertex -37.0 -16.0 3.475006103515625
vertex -37.0 -16.0 4.2750091552734375
endloop
endfacet
facet normal 0.0 -1.0 0.0
outer loop
vertex -44.0 -16.0 6.0
vertex -37.0 -16.0 4.2750091552734375
vertex -37.0 -16.0 5.0250091552734375
endloop
endfacet
facet normal 0.0 -1.0 0.0
outer loop
vertex 37.0 -16.0 4.2750091552734375
vertex 37.0 -16.0 3.475006103515625
vertex 44.0 -16.0 6.0
endloop
endfacet
facet normal 0.0 -1.0 0.0
outer loop
vertex 37.0 -16.0 5.0250091552734375
vertex 37.0 -16.0 4.2750091552734375
vertex 44.0 -16.0 6.0
endloop
endfacet
facet normal -0.0 -1.0 -0.0
outer loop
vertex 44.0 -16.0 6.0
vertex -44.0 -16.0 6.0
vertex -37.0 -16.0 5.0250091552734375
endloop
endfacet
facet normal 0.0 -1.0 -0.0
outer loop
vertex 44.0 -16.0 6.0
vertex -37.0 -16.0 5.0250091552734375
vertex -25.52646255493164 -16.0 5.0250091552734375
endloop
endfacet
facet normal 0.0 -1.0 0.0
outer loop
vertex 28.493576049804688 -16.0 5.0250091552734375
vertex 37.0 -16.0 5.0250091552734375
vertex 44.0 -16.0 6.0
endloop
endfacet
facet normal 0.0 -1.0 0.0
outer loop
vertex -25.52646255493164 -16.0 5.0250091552734375
vertex 28.493576049804688 -16.0 5.0250091552734375
vertex 44.0 -16.0 6.0
endloop
endfacet
facet normal -0.0 -1.0 -0.0
outer loop
vertex -25.52646255493164 -16.0 5.0250091552734375
vertex -37.0 -16.0 5.0250091552734375
vertex -37.0 -16.0 4.2750091552734375
endloop
endfacet
facet normal 0.0 -1.0 -0.0
outer loop
vertex -25.52646255493164 -16.0 5.0250091552734375
vertex -37.0 -16.0 4.2750091552734375
vertex -11.315916061401367 -16.0 4.2750091552734375
endloop
endfacet
facet normal 0.0 -1.0 0.0
outer loop
vertex 16.565444946289062 -16.0 4.2750091552734375
vertex 37.0 -16.0 4.2750091552734375
vertex 37.0 -16.0 5.0250091552734375
endloop
endfacet
facet normal 0.0 -1.0 0.0
outer loop
vertex 16.565444946289062 -16.0 4.2750091552734375
vertex 37.0 -16.0 5.0250091552734375
vertex 28.493576049804688 -16.0 5.0250091552734375
endloop
endfacet
facet normal 0.0 -1.0 0.0
outer loop
vertex -11.315916061401367 -16.0 4.2750091552734375
vertex 16.565444946289062 -16.0 4.2750091552734375
vertex 28.493576049804688 -16.0 5.0250091552734375
endloop
endfacet
facet normal 0.0 -1.0 0.0
outer loop
vertex -11.315916061401367 -16.0 4.2750091552734375
vertex 28.493576049804688 -16.0 5.0250091552734375
vertex -25.52646255493164 -16.0 5.0250091552734375
endloop
endfacet
facet normal -0.0 -1.0 -0.0
outer loop
vertex 3.842057943344116 -16.0 3.475006103515625
vertex -37.0 -16.0 3.475006103515625
vertex -37.0 -16.0 2.524993896484375
endloop
endfacet
facet normal 0.0 -1.0 -0.0
outer loop
vertex 3.842057943344116 -16.0 3.475006103515625
vertex -37.0 -16.0 2.524993896484375
vertex 21.842315673828125 -16.0 2.524993896484375
endloop
endfacet
facet normal 0.0 -1.0 0.0
outer loop
vertex 21.842315673828125 -16.0 2.524993896484375
vertex 37.0 -16.0 2.524993896484375
vertex 37.0 -16.0 3.475006103515625
endloop
endfacet
facet normal 0.0 -1.0 0.0
outer loop
vertex 21.842315673828125 -16.0 2.524993896484375
vertex 37.0 -16.0 3.475006103515625
vertex 3.842057943344116 -16.0 3.475006103515625
endloop
endfacet
facet normal -0.0 -1.0 0.0
outer loop
vertex 29.69991111755371 -16.0 0.975006103515625
vertex -37.0 -16.0 0.975006103515625
vertex -44.0 -16.0 0.0
endloop
endfacet
facet normal 0.0 -0.9999999999999999 0.0
outer loop
vertex -44.0 -16.0 0.0
vertex 44.0 -16.0 0.0
vertex 37.0 -16.0 0.975006103515625
endloop
endfacet
facet normal 0.0 -1.0 -0.0
outer loop
vertex 29.69991111755371 -16.0 0.975006103515625
vertex -44.0 -16.0 0.0
vertex 37.0 -16.0 0.975006103515625
endloop
endfacet
facet normal 0.0 -1.0 0.0
outer loop
vertex 29.69991111755371 -16.0 0.975006103515625
vertex 37.0 -16.0 0.975006103515625
vertex 28.425291061401367 -16.0 1.0619049072265625
endloop
endfacet
facet normal 0.0 -1.0 0.0
outer loop
vertex 28.425291061401367 -16.0 1.0619049072265625
vertex 37.0 -16.0 0.975006103515625
vertex 37.0 -16.0 1.725006103515625
endloop
endfacet
facet normal -0.0 -1.0 -0.0
outer loop
vertex 37.0 -16.0 1.725006103515625
vertex -37.0 -16.0 1.725006103515625
vertex -37.0 -16.0 0.975006103515625
endloop
endfacet
facet normal 0.0 -1.0 0.0
outer loop
vertex -37.0 -16.0 0.975006103515625
vertex 29.69991111755371 -16.0 0.975006103515625
vertex 28.425291061401367 -16.0 1.0619049072265625
endloop
endfacet
facet normal -0.0 -1.0 0.0
outer loop
vertex 28.425291061401367 -16.0 1.0619049072265625
vertex 37.0 -16.0 1.725006103515625
vertex -37.0 -16.0 0.975006103515625
endloop
endfacet
facet normal 0.0 0.0 -1.0
outer loop
vertex -44.0 16.0 0.0
vertex 44.0 16.0 0.0
vertex 44.0 -16.0 0.0
endloop
endfacet
facet normal -0.0 -0.0 -1.0
outer loop
vertex -44.0 16.0 0.0
vertex 44.0 -16.0 0.0
vertex -44.0 -16.0 0.0
endloop
endfacet
facet normal 0.0 0.0 1.0
outer loop
vertex -32.381248474121094 -11.774999618530273 6.0
vertex -37.0 -11.774999618530273 6.0
vertex -44.0 -16.0 6.0
endloop
endfacet
facet normal 0.0 -0.0 1.0
outer loop
vertex -44.0 -16.0 6.0
vertex 44.0 -16.0 6.0
vertex 37.0 -11.774999618530273 6.0
endloop
endfacet
facet normal -0.0 0.0 1.0
outer loop
vertex -32.381248474121094 -11.774999618530273 6.0
vertex -44.0 -16.0 6.0
vertex 37.0 -11.774999618530273 6.0
endloop
endfacet
facet normal -0.0 0.0 1.0
outer loop
vertex -44.0 16.0 6.0
vertex -44.0 -16.0 6.0
vertex -37.0 -11.774999618530273 6.0
endloop
endfacet
facet normal -0.0 0.0 1.0
outer loop
vertex -44.0 16.0 6.0
vertex -37.0 -11.774999618530273 6.0
vertex -37.0 -10.625 6.0
endloop
endfacet
facet normal -0.0 0.0 1.0
outer loop
vertex 37.0 -11.774999618530273 6.0
vertex 44.0 -16.0 6.0
vertex 44.0 16.0 6.0
endloop
endfacet
facet normal -0.0 0.0 1.0
outer loop
vertex 37.0 -10.625 6.0
vertex 37.0 -11.774999618530273 6.0
vertex 44.0 16.0 6.0
endloop
endfacet
facet normal -0.0 0.0 1.0
outer loop
vertex -44.0 16.0 6.0
vertex -37.0 -10.625 6.0
vertex -37.0 -4.425000190734863 6.0
endloop
endfacet
facet normal -0.0 0.0 1.0
outer loop
vertex -44.0 16.0 6.0
vertex -37.0 -4.425000190734863 6.0
vertex -37.0 -3.575000047683716 6.0
endloop
endfacet
facet normal -0.0 0.0 1.0
outer loop
vertex 37.0 -4.425000190734863 6.0
vertex 37.0 -10.625 6.0
vertex 44.0 16.0 6.0
endloop
endfacet
facet normal -0.0 0.0 1.0
outer loop
vertex 37.0 -3.575000047683716 6.0
vertex 37.0 -4.425000190734863 6.0
vertex 44.0 16.0 6.0
endloop
endfacet
facet normal -0.0 0.0 1.0
outer loop
vertex -44.0 16.0 6.0
vertex -37.0 -3.575000047683716 6.0
vertex -37.0 3.674999713897705 6.0
endloop
endfacet
facet normal -0.0 0.0 1.0
outer loop
vertex -44.0 16.0 6.0
vertex -37.0 3.674999713897705 6.0
vertex -37.0 4.724999904632568 6.0
endloop
endfacet
facet normal -0.0 0.0 1.0
outer loop
vertex 37.0 3.674999713897705 6.0
vertex 37.0 -3.575000047683716 6.0
vertex 44.0 16.0 6.0
endloop
endfacet
facet normal -0.0 0.0 1.0
outer loop
vertex 37.0 4.724999904632568 6.0
vertex 37.0 3.674999713897705 6.0
vertex 44.0 16.0 6.0
endloop
endfacet
facet normal -0.0 0.0 1.0
outer loop
vertex -44.0 16.0 6.0
vertex -37.0 4.724999904632568 6.0
vertex -37.0 10.65000057220459 6.0
endloop
endfacet
facet normal -0.0 0.0 1.0
outer loop
vertex -44.0 16.0 6.0
vertex -37.0 10.65000057220459 6.0
vertex -37.0 11.550000190734863 6.0
endloop
endfacet
facet normal -0.0 0.0 1.0
outer loop
vertex 37.0 10.65000057220459 6.0
vertex 37.0 4.724999904632568 6.0
vertex 44.0 16.0 6.0
endloop
endfacet
facet normal -0.0 0.0 1.0
outer loop
vertex 37.0 11.550000190734863 6.0
vertex 37.0 10.65000057220459 6.0
vertex 44.0 16.0 6.0
endloop
endfacet
facet normal 0.0 0.0 1.0
outer loop
vertex 44.0 16.0 6.0
vertex -44.0 16.0 6.0
vertex -37.0 11.550000190734863 6.0
endloop
endfacet
facet normal -0.0 0.0 1.0
outer loop
vertex 44.0 16.0 6.0
vertex -37.0 11.550000190734863 6.0
vertex 12.031044006347656 11.550000190734863 6.0
endloop
endfacet
facet normal 0.0 0.0 1.0
outer loop
vertex 31.762500762939453 11.550000190734863 6.0
vertex 37.0 11.550000190734863 6.0
vertex 44.0 16.0 6.0
endloop
endfacet
facet normal -0.0 0.0 0.9999999999999999
outer loop
vertex 44.0 16.0 6.0
vertex 12.031044006347656 11.550000190734863 6.0
vertex 25.58620834350586 11.550000190734863 6.0
endloop
endfacet
facet normal 0.0 0.0 1.0
outer loop
vertex 25.58620834350586 11.550000190734863 6.0
vertex 31.762500762939453 11.550000190734863 6.0
vertex 44.0 16.0 6.0
endloop
endfacet
facet normal 0.0 0.0 0.9999999999999999
outer loop
vertex 5.5654144287109375 10.65000057220459 6.0
vertex -37.0 10.65000057220459 6.0
vertex -37.0 4.724999904632568 6.0
endloop
endfacet
facet normal -0.0 0.0 1.0
outer loop
vertex 5.5654144287109375 10.65000057220459 6.0
vertex -37.0 4.724999904632568 6.0
vertex -2.65517258644104 4.724999904632568 6.0
endloop
endfacet
facet normal 0.0 0.0 1.0
outer loop
vertex 21.862071990966797 10.65000057220459 6.0
vertex 5.5654144287109375 10.65000057220459 6.0
vertex -2.65517258644104 4.724999904632568 6.0
endloop
endfacet
facet normal 0.0 0.0 1.0
outer loop
vertex 12.993749618530273 4.724999904632568 6.0
vertex 37.0 4.724999904632568 6.0
vertex 37.0 10.65000057220459 6.0
endloop
endfacet
facet normal -0.0 0.0 1.0
outer loop
vertex 21.862071990966797 10.65000057220459 6.0
vertex -2.65517258644104 4.724999904632568 6.0
vertex 12.993749618530273 4.724999904632568 6.0
endloop
endfacet
facet normal 0.0 -0.0 1.0
outer loop
vertex 12.993749618530273 4.724999904632568 6.0
vertex 37.0 10.65000057220459 6.0
vertex 29.28750228881836 10.65000057220459 6.0
endloop
endfacet
facet normal 0.0 -0.0 0.9999999999999999
outer loop
vertex 12.993749618530273 4.724999904632568 6.0
vertex 29.28750228881836 10.65000057220459 6.0
vertex 21.862071990966797 10.65000057220459 6.0
endloop
endfacet
facet normal 0.0 -0.0 1.0
outer loop
vertex 37.0 10.65000057220459 6.0
vertex 37.0 11.550000190734863 6.0
vertex 31.762500762939453 11.550000190734863 6.0
endloop
endfacet
facet normal 0.0 0.0 0.9999999999999999
outer loop
vertex 37.0 10.65000057220459 6.0
vertex 31.762500762939453 11.550000190734863 6.0
vertex 29.28750228881836 10.65000057220459 6.0
endloop
endfacet
facet normal -0.0 0.0 1.0
outer loop
vertex -37.0 11.550000190734863 6.0
vertex -37.0 10.65000057220459 6.0
vertex 5.5654144287109375 10.65000057220459 6.0
endloop
endfacet
facet normal -0.0 0.0 1.0
outer loop
vertex -37.0 11.550000190734863 6.0
vertex 5.5654144287109375 10.65000057220459 6.0
vertex 12.031044006347656 11.550000190734863 6.0
endloop
endfacet
facet normal 0.0 0.0 1.0
outer loop
vertex 31.762500762939453 11.550000190734863 6.0
vertex 25.58620834350586 11.550000190734863 6.0
vertex 21.862071990966797 10.65000057220459 6.0
endloop
endfacet
facet normal -0.0 0.0 1.0
outer loop
vertex 31.762500762939453 11.550000190734863 6.0
vertex 21.862071990966797 10.65000057220459 6.0
vertex 29.28750228881836 10.65000057220459 6.0
endloop
endfacet
facet normal 0.0 0.0 1.0
outer loop
vertex 5.5654144287109375 10.65000057220459 6.0
vertex 21.862071990966797 10.65000057220459 6.0
vertex 25.58620834350586 11.550000190734863 6.0
endloop
endfacet
facet normal 0.0 -0.0 1.0
outer loop
vertex 5.5654144287109375 10.65000057220459 6.0
vertex 25.58620834350586 11.550000190734863 6.0
vertex 12.031044006347656 11.550000190734863 6.0
endloop
endfacet
facet normal 0.0 0.0 0.9999999999999999
outer loop
vertex -7.000000953674316 3.674999713897705 6.0
vertex -37.0 3.674999713897705 6.0
vertex -37.0 -3.575000047683716 6.0
endloop
endfacet
facet normal -0.0 0.0 1.0
outer loop
vertex -7.000000953674316 3.674999713897705 6.0
vertex -37.0 -3.575000047683716 6.0
vertex -33.132659912109375 -3.575000047683716 6.0
endloop
endfacet
facet normal 0.0 0.0 1.0
outer loop
vertex -4.565009117126465 3.674999713897705 6.0
vertex -7.000000953674316 3.674999713897705 6.0
vertex -33.132659912109375 -3.575000047683716 6.0
endloop
endfacet
facet normal 0.0 0.0 1.0
outer loop
vertex -9.831250190734863 -3.575000047683716 6.0
vertex 37.0 -3.575000047683716 6.0
vertex 37.0 3.674999713897705 6.0
endloop
endfacet
facet normal -0.0 0.0 1.0
outer loop
vertex -4.565009117126465 3.674999713897705 6.0
vertex -33.132659912109375 -3.575000047683716 6.0
vertex -9.831250190734863 -3.575000047683716 6.0
endloop
endfacet
facet normal 0.0 -0.0 1.0
outer loop
vertex -9.831250190734863 -3.575000047683716 6.0
vertex 37.0 3.674999713897705 6.0
vertex 10.10624885559082 3.674999713897705 6.0
endloop
endfacet
facet normal 0.0 -0.0 1.0
outer loop
vertex -9.831250190734863 -3.575000047683716 6.0
vertex 10.10624885559082 3.674999713897705 6.0
vertex -4.565009117126465 3.674999713897705 6.0
endloop
endfacet
facet normal 0.0 -0.0 1.0
outer loop
vertex 37.0 3.674999713897705 6.0
vertex 37.0 4.724999904632568 6.0
vertex 12.993749618530273 4.724999904632568 6.0
endloop
endfacet
facet normal 0.0 0.0 1.0
outer loop
vertex 37.0 3.674999713897705 6.0
vertex 12.993749618530273 4.724999904632568 6.0
vertex 10.10624885559082 3.674999713897705 6.0
endloop
endfacet
facet normal -0.0 0.0 0.9999999999999999
outer loop
vertex -2.644152879714966 4.162481307983398 6.0
vertex -4.565009117126465 3.674999713897705 6.0
vertex 10.10624885559082 3.674999713897705 6.0
endloop
endfacet
facet normal 0.0 -0.0 1.0
outer loop
vertex 10.10624885559082 3.674999713897705 6.0
vertex 12.993749618530273 4.724999904632568 6.0
vertex -2.65517258644104 4.724999904632568 6.0
endloop
endfacet
facet normal -0.0 -0.0 1.0
outer loop
vertex -2.644152879714966 4.162481307983398 6.0
vertex 10.10624885559082 3.674999713897705 6.0
vertex -2.65517258644104 4.724999904632568 6.0
endloop
endfacet
facet normal 0.0 -0.0 1.0
outer loop
vertex -7.000000953674316 3.674999713897705 6.0
vertex -4.565009117126465 3.674999713897705 6.0
vertex -5.128713607788086 4.127227306365967 6.0
endloop
endfacet
facet normal -0.0 0.0 1.0
outer loop
vertex -5.128713607788086 4.127227306365967 6.0
vertex -4.565009117126465 3.674999713897705 6.0
vertex -2.644152879714966 4.162481307983398 6.0
endloop
endfacet
facet normal 0.0 0.0 1.0
outer loop
vertex -2.644152879714966 4.162481307983398 6.0
vertex -2.65517258644104 4.724999904632568 6.0
vertex -37.0 4.724999904632568 6.0
endloop
endfacet
facet normal -0.0 0.0 1.0
outer loop
vertex -37.0 4.724999904632568 6.0
vertex -37.0 3.674999713897705 6.0
vertex -7.000000953674316 3.674999713897705 6.0
endloop
endfacet
facet normal 0.0 -0.0 1.0
outer loop
vertex -5.128713607788086 4.127227306365967 6.0
vertex -2.644152879714966 4.162481307983398 6.0
vertex -37.0 4.724999904632568 6.0
endloop
endfacet
facet normal -0.0 0.0 1.0
outer loop
vertex -37.0 4.724999904632568 6.0
vertex -7.000000953674316 3.674999713897705 6.0
vertex -5.128713607788086 4.127227306365967 6.0
endloop
endfacet
facet normal 0.0 0.0 1.0
outer loop
vertex -32.660770416259766 -4.425000190734863 6.0
vertex -37.0 -4.425000190734863 6.0
vertex -37.0 -10.625 6.0
endloop
endfacet
facet normal 0.0 0.0 0.9999999999999999
outer loop
vertex -29.21875 -10.625 6.0
vertex 37.0 -10.625 6.0
vertex 37.0 -4.425000190734863 6.0
endloop
endfacet
facet normal -0.0 0.0 1.0
outer loop
vertex -32.660770416259766 -4.425000190734863 6.0
vertex -37.0 -10.625 6.0
vertex -29.21875 -10.625 6.0
endloop
endfacet
facet normal 0.0 -0.0 0.9999999999999999
outer loop
vertex -29.21875 -10.625 6.0
vertex 37.0 -4.425000190734863 6.0
vertex -12.168750762939453 -4.425000190734863 6.0
endloop
endfacet
facet normal -0.0 0.0 1.0
outer loop
vertex -32.660770416259766 -4.425000190734863 6.0
vertex -29.21875 -10.625 6.0
vertex -12.168750762939453 -4.425000190734863 6.0
endloop
endfacet
facet normal -0.0 0.0 1.0
outer loop
vertex -37.0 -3.575000047683716 6.0
vertex -37.0 -4.425000190734863 6.0
vertex -32.660770416259766 -4.425000190734863 6.0
endloop
endfacet
facet normal -0.0 -0.0 1.0
outer loop
vertex -37.0 -3.575000047683716 6.0
vertex -32.660770416259766 -4.425000190734863 6.0
vertex -33.132659912109375 -3.575000047683716 6.0
endloop
endfacet
facet normal 0.0 -0.0 1.0
outer loop
vertex 37.0 -4.425000190734863 6.0
vertex 37.0 -3.575000047683716 6.0
vertex -9.831250190734863 -3.575000047683716 6.0
endloop
endfacet
facet normal 0.0 0.0 1.0
outer loop
vertex 37.0 -4.425000190734863 6.0
vertex -9.831250190734863 -3.575000047683716 6.0
vertex -12.168750762939453 -4.425000190734863 6.0
endloop
endfacet
facet normal 0.0 0.0 1.0
outer loop
vertex -32.660770416259766 -4.425000190734863 6.0
vertex -12.168750762939453 -4.425000190734863 6.0
vertex -9.831250190734863 -3.575000047683716 6.0
endloop
endfacet
facet normal 0.0 -0.0 1.0
outer loop
vertex -32.660770416259766 -4.425000190734863 6.0
vertex -9.831250190734863 -3.575000047683716 6.0
vertex -33.132659912109375 -3.575000047683716 6.0
endloop
endfacet
facet normal 0.0 0.0 1.0
outer loop
vertex -29.21875 -10.625 6.0
vertex -37.0 -10.625 6.0
vertex -37.0 -11.774999618530273 6.0
endloop
endfacet
facet normal -0.0 0.0 1.0
outer loop
vertex -29.21875 -10.625 6.0
vertex -37.0 -11.774999618530273 6.0
vertex -32.381248474121094 -11.774999618530273 6.0
endloop
endfacet
facet normal 0.0 0.0 1.0
outer loop
vertex -32.381248474121094 -11.774999618530273 6.0
vertex 37.0 -11.774999618530273 6.0
vertex 37.0 -10.625 6.0
endloop
endfacet
facet normal 0.0 -0.0 1.0
outer loop
vertex -32.381248474121094 -11.774999618530273 6.0
vertex 37.0 -10.625 6.0
vertex -29.21875 -10.625 6.0
endloop
endfacet
facet normal 0.0 -1.0 0.0
outer loop
vertex -44.0 -15.0 1.25
vertex -44.0 -15.0 4.75
vertex -47.650001525878906 -15.0 4.75
endloop
endfacet
facet normal -0.0 -1.0 -0.0
outer loop
vertex -44.0 -15.0 1.25
vertex -47.650001525878906 -15.0 4.75
vertex -47.650001525878906 -15.0 1.25
endloop
endfacet
facet normal 0.0 0.0 -1.0
outer loop
vertex -44.0 -15.0 1.25
vertex -47.650001525878906 -15.0 1.25
vertex -47.650001525878906 -5.0 1.25
endloop
endfacet
facet normal 0.0 0.0 -1.0
outer loop
vertex -44.0 -15.0 1.25
vertex -47.650001525878906 -5.0 1.25
vertex -44.0 -5.0 1.25
endloop
endfacet
facet normal 0.0 1.0 0.0
outer loop
vertex -44.0 -5.0 4.75
vertex -44.0 -5.0 1.25
vertex -47.650001525878906 -5.0 1.25
endloop
endfacet
facet normal 0.0 1.0 -0.0
outer loop
vertex -44.0 -5.0 4.75
vertex -47.650001525878906 -5.0 1.25
vertex -47.650001525878906 -5.0 4.75
endloop
endfacet
facet normal 0.0 -0.0 1.0
outer loop
vertex -44.0 -15.0 4.75
vertex -44.0 -5.0 4.75
vertex -47.650001525878906 -5.0 4.75
endloop
endfacet
facet normal 0.0 0.0 0.9999999999999999
outer loop
vertex -47.650001525878906 -5.0 4.75
vertex -47.6500129699707 -5.000011444091797 4.75
vertex -47.6500129699707 -14.99998950958252 4.75
endloop
endfacet
facet normal -0.0 0.0 1.0
outer loop
vertex -47.6500129699707 -14.99998950958252 4.75
vertex -47.650001525878906 -15.0 4.75
vertex -44.0 -15.0 4.75
endloop
endfacet
facet normal 0.0 0.0 1.0
outer loop
vertex -47.650001525878906 -5.0 4.75
vertex -47.6500129699707 -14.99998950958252 4.75
vertex -44.0 -15.0 4.75
endloop
endfacet
facet normal -1.0 0.0 -0.0
outer loop
vertex -48.0 -14.650001525878906 4.4000091552734375
vertex -48.0 -5.349997520446777 4.4000091552734375
vertex -48.0 -5.349998474121094 1.600006103515625
endloop
endfacet
facet normal -1.0 -0.0 -0.0
outer loop
vertex -48.0 -14.650001525878906 4.4000091552734375
vertex -48.0 -5.349998474121094 1.600006103515625
vertex -48.0 -14.650001525878906 1.600006103515625
endloop
endfacet
facet normal -0.7071067811865475 -0.7071067811865475 0.0
outer loop
vertex -48.0 -14.650001525878906 1.600006103515625
vertex -47.650001525878906 -15.0 1.25
vertex -47.650001525878906 -15.0 4.75
endloop
endfacet
facet normal -0.6744532181610653 -0.7357671470847985 -0.06131526549627809
outer loop
vertex -47.650001525878906 -15.0 4.75
vertex -47.6500129699707 -14.99998950958252 4.75
vertex -48.0 -14.650001525878906 4.4000091552734375
endloop
endfacet
facet normal -0.7071067811865476 -0.7071067811865476 -0.0
outer loop
vertex -47.650001525878906 -15.0 4.75
vertex -48.0 -14.650001525878906 4.4000091552734375
vertex -48.0 -14.650001525878906 1.600006103515625
endloop
endfacet
facet normal -0.7071067811865476 0.7071067811865476 0.0
outer loop
vertex -47.6500129699707 -5.000011444091797 4.75
vertex -47.650001525878906 -5.0 4.75
vertex -47.650001525878906 -5.0 1.25
endloop
endfacet
facet normal -0.7071069016085572 0.7071066607644764 -2.408388308389588e-07
outer loop
vertex -47.650001525878906 -5.0 1.25
vertex -48.0 -5.349998474121094 1.600006103515625
vertex -48.0 -5.349997520446777 4.4000091552734375
endloop
endfacet
facet normal -0.7071058177954909 0.7071077445762917 6.300073244587866e-12
outer loop
vertex -47.650001525878906 -5.0 1.25
vertex -48.0 -5.349997520446777 4.4000091552734375
vertex -47.6500129699707 -5.000011444091797 4.75
endloop
endfacet
facet normal -0.7071106347239975 0.0 0.7071029276280966
outer loop
vertex -47.6500129699707 -14.99998950958252 4.75
vertex -47.6500129699707 -5.000011444091797 4.75
vertex -48.0 -5.349997520446777 4.4000091552734375
endloop
endfacet
facet normal -0.7071106347239977 0.0 0.7071029276280967
outer loop
vertex -47.6500129699707 -14.99998950958252 4.75
vertex -48.0 -5.349997520446777 4.4000091552734375
vertex -48.0 -14.650001525878906 4.4000091552734375
endloop
endfacet
facet normal -0.7071144879464493 -0.0 -0.7070990743426488
outer loop
vertex -47.650001525878906 -5.0 1.25
vertex -47.650001525878906 -15.0 1.25
vertex -48.0 -14.650001525878906 1.600006103515625
endloop
endfacet
facet normal -0.7071144879464492 0.0 -0.7070990743426487
outer loop
vertex -47.650001525878906 -5.0 1.25
vertex -48.0 -14.650001525878906 1.600006103515625
vertex -48.0 -5.349998474121094 1.600006103515625
endloop
endfacet
facet normal -0.0 -1.0 -0.0
outer loop
vertex -44.0 5.0 4.75
vertex -47.650001525878906 5.0 4.75
vertex -47.650001525878906 5.0 1.25
endloop
endfacet
facet normal 0.0 -1.0 -0.0
outer loop
vertex -44.0 5.0 4.75
vertex -47.650001525878906 5.0 1.25
vertex -44.0 5.0 1.25
endloop
endfacet
facet normal 0.0 0.0 -1.0
outer loop
vertex -44.0 5.0 1.25
vertex -47.650001525878906 5.0 1.25
vertex -47.650001525878906 15.0 1.25
endloop
endfacet
facet normal 0.0 0.0 -1.0
outer loop
vertex -44.0 5.0 1.25
vertex -47.650001525878906 15.0 1.25
vertex -44.0 15.0 1.25
endloop
endfacet
facet normal -0.0 1.0 0.0
outer loop
vertex -47.650001525878906 15.0 4.75
vertex -44.0 15.0 4.75
vertex -44.0 15.0 1.25
endloop
endfacet
facet normal 0.0 1.0 0.0
outer loop
vertex -47.650001525878906 15.0 4.75
vertex -44.0 15.0 1.25
vertex -47.650001525878906 15.0 1.25
endloop
endfacet
facet normal 0.0 -0.0 1.0
outer loop
vertex -44.0 5.0 4.75
vertex -44.0 15.0 4.75
vertex -47.650001525878906 15.0 4.75
endloop
endfacet
facet normal 0.0 0.0 0.9999999999999999
outer loop
vertex -47.650001525878906 15.0 4.75
vertex -47.6500129699707 14.999988555908203 4.75
vertex -47.6500129699707 5.0000104904174805 4.75
endloop
endfacet
facet normal -0.0 0.0 1.0
outer loop
vertex -47.6500129699707 5.0000104904174805 4.75
vertex -47.650001525878906 5.0 4.75
vertex -44.0 5.0 4.75
endloop
endfacet
facet normal 0.0 0.0 1.0
outer loop
vertex -47.650001525878906 15.0 4.75
vertex -47.6500129699707 5.0000104904174805 4.75
vertex -44.0 5.0 4.75
endloop
endfacet
facet normal -1.0 0.0 0.0
outer loop
vertex -48.0 5.349998474121094 4.4000091552734375
vertex -48.0 14.650001525878906 4.4000091552734375
vertex -48.0 14.650001525878906 1.600006103515625
endloop
endfacet
facet normal -1.0 -0.0 -0.0
outer loop
vertex -48.0 5.349998474121094 4.4000091552734375
vertex -48.0 14.650001525878906 1.600006103515625
vertex -48.0 5.349997520446777 1.600006103515625
endloop
endfacet
facet normal -0.7071058178238414 -0.707107744547941 0.0
outer loop
vertex -48.0 5.349997520446777 1.600006103515625
vertex -47.650001525878906 5.0 1.25
vertex -47.650001525878906 5.0 4.75
endloop
endfacet
facet normal -0.6744532181610653 -0.7357671470847985 -0.06131526549627809
outer loop
vertex -47.650001525878906 5.0 4.75
vertex -47.6500129699707 5.0000104904174805 4.75
vertex -48.0 5.349998474121094 4.4000091552734375
endloop
endfacet
facet normal -0.7071069016033072 -0.7071066607697263 2.4083883084074687e-07
outer loop
vertex -47.650001525878906 5.0 4.75
vertex -48.0 5.349998474121094 4.4000091552734375
vertex -48.0 5.349997520446777 1.600006103515625
endloop
endfacet
facet normal -0.7071067811865476 0.7071067811865476 0.0
outer loop
vertex -47.6500129699707 14.999988555908203 4.75
vertex -47.650001525878906 15.0 4.75
vertex -47.650001525878906 15.0 1.25
endloop
endfacet
facet normal -0.7071067811865476 0.7071067811865476 0.0
outer loop
vertex -47.650001525878906 15.0 1.25
vertex -48.0 14.650001525878906 1.600006103515625
vertex -48.0 14.650001525878906 4.4000091552734375
endloop
endfacet
facet normal -0.7071067811865475 0.7071067811865475 0.0
outer loop
vertex -47.650001525878906 15.0 1.25
vertex -48.0 14.650001525878906 4.4000091552734375
vertex -47.6500129699707 14.999988555908203 4.75
endloop
endfacet
facet normal -0.7071106347239975 0.0 0.7071029276280966
outer loop
vertex -47.6500129699707 5.0000104904174805 4.75
vertex -47.6500129699707 14.999988555908203 4.75
vertex -48.0 14.650001525878906 4.4000091552734375
endloop
endfacet
facet normal -0.7071106347239975 0.0 0.7071029276280966
outer loop
vertex -47.6500129699707 5.0000104904174805 4.75
vertex -48.0 14.650001525878906 4.4000091552734375
vertex -48.0 5.349998474121094 4.4000091552734375
endloop
endfacet
facet normal -0.7071144879464493 -0.0 -0.7070990743426488
outer loop
vertex -47.650001525878906 15.0 1.25
vertex -47.650001525878906 5.0 1.25
vertex -48.0 5.349997520446777 1.600006103515625
endloop
endfacet
facet normal -0.7071144879464492 0.0 -0.7070990743426487
outer loop
vertex -47.650001525878906 15.0 1.25
vertex -48.0 5.349997520446777 1.600006103515625
vertex -48.0 14.650001525878906 1.600006103515625
endloop
endfacet
facet normal 0.0 -1.0 0.0
outer loop
vertex 44.0 -15.0 4.75
vertex 44.0 -15.0 1.25
vertex 47.64999771118164 -15.0 1.25
endloop
endfacet
facet normal 0.0 -1.0 0.0
outer loop
vertex 47.64999771118164 -15.0 1.25
vertex 47.65000534057617 -15.0 1.2500152587890625
vertex 47.65000534057617 -15.0 4.75
endloop
endfacet
facet normal 0.0 -0.9999999999999999 0.0
outer loop
vertex 47.64999771118164 -15.0 1.25
vertex 47.65000534057617 -15.0 4.75
vertex 44.0 -15.0 4.75
endloop
endfacet
facet normal -0.0 0.0 0.9999999999999999
outer loop
vertex 44.0 -5.0 4.75
vertex 44.0 -15.0 4.75
vertex 47.65000534057617 -15.0 4.75
endloop
endfacet
facet normal 0.0 0.0 1.0
outer loop
vertex 47.65000534057617 -15.0 4.75
vertex 47.6500129699707 -14.999992370605469 4.75
vertex 47.6500129699707 -5.000007629394531 4.75
endloop
endfacet
facet normal 0.0 0.0 1.0
outer loop
vertex 47.6500129699707 -5.000007629394531 4.75
vertex 47.65000534057617 -5.0 4.75
vertex 44.0 -5.0 4.75
endloop
endfacet
facet normal 0.0 -0.0 1.0
outer loop
vertex 47.65000534057617 -15.0 4.75
vertex 47.6500129699707 -5.000007629394531 4.75
vertex 44.0 -5.0 4.75
endloop
endfacet
facet normal 0.0 1.0 0.0
outer loop
vertex 47.65000534057617 -5.0 4.75
vertex 47.65000534057617 -5.0 1.2500152587890625
vertex 47.64999771118164 -5.0 1.25
endloop
endfacet
facet normal 0.0 1.0 -0.0
outer loop
vertex 47.64999771118164 -5.0 1.25
vertex 44.0 -5.0 1.25
vertex 44.0 -5.0 4.75
endloop
endfacet
facet normal 0.0 0.9999999999999999 -0.0
outer loop
vertex 47.64999771118164 -5.0 1.25
vertex 44.0 -5.0 4.75
vertex 47.65000534057617 -5.0 4.75
endloop
endfacet
facet normal -0.0 -0.0 -1.0
outer loop
vertex 47.64999771118164 -5.0 1.25
vertex 47.64999771118164 -15.0 1.25
vertex 44.0 -15.0 1.25
endloop
endfacet
facet normal -0.0 0.0 -1.0
outer loop
vertex 47.64999771118164 -5.0 1.25
vertex 44.0 -15.0 1.25
vertex 44.0 -5.0 1.25
endloop
endfacet
facet normal 1.0 -0.0 0.0
outer loop
vertex 48.0 -14.650004386901855 4.4000091552734375
vertex 48.0 -14.650004386901855 1.600006103515625
vertex 48.0 -5.349996089935303 1.600006103515625
endloop
endfacet
facet normal 1.0 -0.0 0.0
outer loop
vertex 48.0 -14.650004386901855 4.4000091552734375
vertex 48.0 -5.349996089935303 1.600006103515625
vertex 48.0 -5.349996089935303 4.4000091552734375
endloop
endfacet
facet normal 0.7071077445768166 -0.707105817794966 0.0
outer loop
vertex 48.0 -14.650004386901855 1.600006103515625
vertex 48.0 -14.650004386901855 4.4000091552734375
vertex 47.6500129699707 -14.999992370605469 4.75
endloop
endfacet
facet normal 0.7071067811865475 -0.7071067811865475 0.0
outer loop
vertex 47.6500129699707 -14.999992370605469 4.75
vertex 47.65000534057617 -15.0 4.75
vertex 47.65000534057617 -15.0 1.2500152587890625
endloop
endfacet
facet normal 0.707107744557916 -0.7071058178138665 -4.199987028794952e-12
outer loop
vertex 47.6500129699707 -14.999992370605469 4.75
vertex 47.65000534057617 -15.0 1.2500152587890625
vertex 48.0 -14.650004386901855 1.600006103515625
endloop
endfacet
facet normal 0.7071082262704744 0.7071053360996673 0.0
outer loop
vertex 47.6500129699707 -5.000007629394531 4.75
vertex 48.0 -5.349996089935303 4.4000091552734375
vertex 48.0 -5.349996089935303 1.600006103515625
endloop
endfacet
facet normal 0.7071082262389738 0.7071053361311683 -0.0
outer loop
vertex 48.0 -5.349996089935303 1.600006103515625
vertex 47.65000534057617 -5.0 1.2500152587890625
vertex 47.65000534057617 -5.0 4.75
endloop
endfacet
facet normal 0.707106781186511 0.707106781186511 -3.211194680060619e-07
outer loop
vertex 48.0 -5.349996089935303 1.600006103515625
vertex 47.65000534057617 -5.0 4.75
vertex 47.6500129699707 -5.000007629394531 4.75
endloop
endfacet
facet normal 0.8164954685231974 -0.4082510714638178 -0.4082477342615987
outer loop
vertex 48.0 -14.650004386901855 1.600006103515625
vertex 47.65000534057617 -15.0 1.2500152587890625
vertex 47.64999771118164 -15.0 1.25
endloop
endfacet
facet normal 0.8944271909999159 0.0 -0.4472135954999579
outer loop
vertex 47.64999771118164 -15.0 1.25
vertex 47.64999771118164 -5.0 1.25
vertex 47.65000534057617 -5.0 1.2500152587890625
endloop
endfacet
facet normal 0.7071029276700981 0.0 -0.7071106346819966
outer loop
vertex 47.65000534057617 -5.0 1.2500152587890625
vertex 48.0 -5.349996089935303 1.600006103515625
vertex 48.0 -14.650004386901855 1.600006103515625
endloop
endfacet
facet normal 0.7071103648282 5.394714586066086e-07 -0.707103197526527
outer loop
vertex 47.64999771118164 -15.0 1.25
vertex 47.65000534057617 -5.0 1.2500152587890625
vertex 48.0 -14.650004386901855 1.600006103515625
endloop
endfacet
facet normal 0.7071106347239976 0.0 0.7071029276280966
outer loop
vertex 47.6500129699707 -5.000007629394531 4.75
vertex 47.6500129699707 -14.999992370605469 4.75
vertex 48.0 -14.650004386901855 4.4000091552734375
endloop
endfacet
facet normal 0.7071106347239976 -0.0 0.7071029276280966
outer loop
vertex 47.6500129699707 -5.000007629394531 4.75
vertex 48.0 -14.650004386901855 4.4000091552734375
vertex 48.0 -5.349996089935303 4.4000091552734375
endloop
endfacet
facet normal 0.0 -1.0 0.0
outer loop
vertex 44.0 5.0 1.25
vertex 47.64999771118164 5.0 1.25
vertex 47.65000534057617 5.0 1.2500152587890625
endloop
endfacet
facet normal 0.0 -1.0 0.0
outer loop
vertex 47.65000534057617 5.0 1.2500152587890625
vertex 47.65000534057617 5.0 4.75
vertex 44.0 5.0 4.75
endloop
endfacet
facet normal -0.0 -0.9999999999999999 -0.0
outer loop
vertex 47.65000534057617 5.0 1.2500152587890625
vertex 44.0 5.0 4.75
vertex 44.0 5.0 1.25
endloop
endfacet
facet normal 0.0 0.0 1.0
outer loop
vertex 44.0 5.0 4.75
vertex 47.65000534057617 5.0 4.75
vertex 47.6500129699707 5.000007629394531 4.75
endloop
endfacet
facet normal 0.0 -0.0 1.0
outer loop
vertex 47.6500129699707 5.000007629394531 4.75
vertex 47.6500129699707 14.999992370605469 4.75
vertex 47.65000534057617 15.0 4.75
endloop
endfacet
facet normal 0.0 0.0 0.9999999999999999
outer loop
vertex 47.65000534057617 15.0 4.75
vertex 44.0 15.0 4.75
vertex 44.0 5.0 4.75
endloop
endfacet
facet normal 0.0 0.0 1.0
outer loop
vertex 47.6500129699707 5.000007629394531 4.75
vertex 47.65000534057617 15.0 4.75
vertex 44.0 5.0 4.75
endloop
endfacet
facet normal -0.0 1.0 0.0
outer loop
vertex 44.0 15.0 4.75
vertex 47.65000534057617 15.0 4.75
vertex 47.65000534057617 15.0 1.2500152587890625
endloop
endfacet
facet normal 0.0 1.0 0.0
outer loop
vertex 47.65000534057617 15.0 1.2500152587890625
vertex 47.64999771118164 15.0 1.25
vertex 44.0 15.0 1.25
endloop
endfacet
facet normal 0.0 0.9999999999999999 -0.0
outer loop
vertex 47.65000534057617 15.0 1.2500152587890625
vertex 44.0 15.0 1.25
vertex 44.0 15.0 4.75
endloop
endfacet
facet normal -0.0 -0.0 -1.0
outer loop
vertex 47.64999771118164 15.0 1.25
vertex 47.64999771118164 5.0 1.25
vertex 44.0 5.0 1.25
endloop
endfacet
facet normal -0.0 0.0 -1.0
outer loop
vertex 47.64999771118164 15.0 1.25
vertex 44.0 5.0 1.25
vertex 44.0 15.0 1.25
endloop
endfacet
facet normal 1.0 -0.0 0.0
outer loop
vertex 48.0 5.349996089935303 4.4000091552734375
vertex 48.0 5.349996089935303 1.600006103515625
vertex 48.0 14.650004386901855 1.600006103515625
endloop
endfacet
facet normal 1.0 -0.0 0.0
outer loop
vertex 48.0 5.349996089935303 4.4000091552734375
vertex 48.0 14.650004386901855 1.600006103515625
vertex 48.0 14.650004386901855 4.4000091552734375
endloop
endfacet
facet normal 0.7071082262704744 -0.7071053360996673 0.0
outer loop
vertex 48.0 5.349996089935303 1.600006103515625
vertex 48.0 5.349996089935303 4.4000091552734375
vertex 47.6500129699707 5.000007629394531 4.75
endloop
endfacet
facet normal 0.7071067811865475 -0.7071067811865475 0.0
outer loop
vertex 47.6500129699707 5.000007629394531 4.75
vertex 47.65000534057617 5.0 4.75
vertex 47.65000534057617 5.0 1.2500152587890625
endloop
endfacet
facet normal 0.7071082262421237 -0.7071053361280182 -6.29997625159788e-12
outer loop
vertex 47.6500129699707 5.000007629394531 4.75
vertex 47.65000534057617 5.0 1.2500152587890625
vertex 48.0 5.349996089935303 1.600006103515625
endloop
endfacet
facet normal 0.7071067811852351 0.7071067811852351 -1.9267634749129e-06
outer loop
vertex 47.65000534057617 15.0 4.75
vertex 47.6500129699707 14.999992370605469 4.75
vertex 48.0 14.650004386901855 4.4000091552734375
endloop
endfacet
facet normal 0.707107744555816 0.7071058178159665 0.0
outer loop
vertex 48.0 14.650004386901855 4.4000091552734375
vertex 48.0 14.650004386901855 1.600006103515625
vertex 47.65000534057617 15.0 1.2500152587890625
endloop
endfacet
facet normal 0.707107744555816 0.7071058178159665 -0.0
outer loop
vertex 48.0 14.650004386901855 4.4000091552734375
vertex 47.65000534057617 15.0 1.2500152587890625
vertex 47.65000534057617 15.0 4.75
endloop
endfacet
facet normal 0.7071029276700981 0.0 -0.7071106346819966
outer loop
vertex 48.0 14.650004386901855 1.600006103515625
vertex 48.0 5.349996089935303 1.600006103515625
vertex 47.65000534057617 5.0 1.2500152587890625
endloop
endfacet
facet normal 0.8944271909999159 0.0 -0.4472135954999579
outer loop
vertex 47.65000534057617 5.0 1.2500152587890625
vertex 47.64999771118164 5.0 1.25
vertex 47.64999771118164 15.0 1.25
endloop
endfacet
facet normal 0.8164954685231974 0.4082510714638178 -0.4082477342615987
outer loop
vertex 47.64999771118164 15.0 1.25
vertex 47.65000534057617 15.0 1.2500152587890625
vertex 48.0 14.650004386901855 1.600006103515625
endloop
endfacet
facet normal 0.7071103648282 -5.394714586066086e-07 -0.707103197526527
outer loop
vertex 47.65000534057617 5.0 1.2500152587890625
vertex 47.64999771118164 15.0 1.25
vertex 48.0 14.650004386901855 1.600006103515625
endloop
endfacet
facet normal 0.7071106347239976 0.0 0.7071029276280966
outer loop
vertex 47.6500129699707 14.999992370605469 4.75
vertex 47.6500129699707 5.000007629394531 4.75
vertex 48.0 5.349996089935303 4.4000091552734375
endloop
endfacet
facet normal 0.7071106347239976 -0.0 0.7071029276280966
outer loop
vertex 47.6500129699707 14.999992370605469 4.75
vertex 48.0 5.349996089935303 4.4000091552734375
vertex 48.0 14.650004386901855 4.4000091552734375
endloop
endfacet

endsolid
