solid 
facet normal -1.0 0.0 0.0
outer loop
vertex -44.0 -16.0 0.0
vertex -44.0 -16.0 6.0
vertex -44.0 -15.0 4.75
endloop
endfacet
facet normal -1.0 0.0 0.0
outer loop
vertex -44.0 -16.0 0.0
vertex -44.0 -15.0 4.75
vertex -44.0 -15.0 1.25
endloop
endfacet
facet normal -1.0 0.0 0.0
outer loop
vertex -44.0 15.0 4.75
vertex -44.0 16.0 6.0
vertex -44.0 16.0 0.0
endloop
endfacet
facet normal -1.0 -0.0 -0.0
outer loop
vertex -44.0 15.0 4.75
vertex -44.0 16.0 0.0
vertex -44.0 15.0 1.25
endloop
endfacet
facet normal -1.0 0.0 0.0
outer loop
vertex -44.0 5.0 1.25
vertex -44.0 15.0 1.25
vertex -44.0 16.0 0.0
endloop
endfacet
facet normal -1.0 0.0 0.0
outer loop
vertex -44.0 16.0 0.0
vertex -44.0 -16.0 0.0
vertex -44.0 -15.0 1.25
endloop
endfacet
facet normal -1.0 0.0 0.0
outer loop
vertex -44.0 16.0 0.0
vertex -44.0 -15.0 1.25
vertex -44.0 -5.0 1.25
endloop
endfacet
facet normal -1.0 -0.0 -0.0
outer loop
vertex -44.0 5.0 1.25
vertex -44.0 16.0 0.0
vertex -44.0 -5.0 1.25
endloop
endfacet
facet normal -1.0 0.0 0.0
outer loop
vertex -44.0 -5.0 4.75
vertex -44.0 -15.0 4.75
vertex -44.0 -16.0 6.0
endloop
endfacet
facet normal -1.0 0.0 0.0
outer loop
vertex -44.0 5.0 1.25
vertex -44.0 -5.0 1.25
vertex -44.0 -5.0 4.75
endloop
endfacet
facet normal -1.0 -0.0 0.0
outer loop
vertex -44.0 16.0 6.0
vertex -44.0 15.0 4.75
vertex -44.0 5.0 4.75
endloop
endfacet
facet normal -1.0 -0.0 -0.0
outer loop
vertex -44.0 5.0 4.75
vertex -44.0 5.0 1.25
vertex -44.0 -5.0 4.75
endloop
endfacet
facet normal -1.0 0.0 0.0
outer loop
vertex -44.0 -5.0 4.75
vertex -44.0 -16.0 6.0
vertex -44.0 16.0 6.0
endloop
endfacet
facet normal -1.0 0.0 -0.0
outer loop
vertex -44.0 -5.0 4.75
vertex -44.0 16.0 6.0
vertex -44.0 5.0 4.75
endloop
endfacet
facet normal 0.0 1.0 0.0
outer loop
vertex -44.0 16.0 0.0
vertex -44.0 16.0 6.0
vertex 44.0 16.0 6.0
endloop
endfacet
facet normal -0.0 1.0 0.0
outer loop
vertex -44.0 16.0 0.0
vertex 44.0 16.0 6.0
vertex 44.0 16.0 0.0
endloop
endfacet
facet normal 1.0 0.0 0.0
outer loop
vertex 44.0 -15.0 4.75
vertex 44.0 -16.0 6.0
vertex 44.0 -16.0 0.0
endloop
endfacet
facet normal 1.0 -0.0 0.0
outer loop
vertex 44.0 -15.0 4.75
vertex 44.0 -16.0 0.0
vertex 44.0 -15.0 1.25
endloop
endfacet
facet normal 1.0 -0.0 0.0
outer loop
vertex 44.0 15.0 1.25
vertex 44.0 16.0 0.0
vertex 44.0 16.0 6.0
endloop
endfacet
facet normal 1.0 0.0 -0.0
outer loop
vertex 44.0 15.0 1.25
vertex 44.0 16.0 6.0
vertex 44.0 15.0 4.75
endloop
endfacet
facet normal 1.0 0.0 0.0
outer loop
vertex 44.0 5.0 4.75
vertex 44.0 15.0 4.75
vertex 44.0 16.0 6.0
endloop
endfacet
facet normal 1.0 0.0 0.0
outer loop
vertex 44.0 16.0 6.0
vertex 44.0 -16.0 6.0
vertex 44.0 -15.0 4.75
endloop
endfacet
facet normal 1.0 -0.0 0.0
outer loop
vertex 44.0 16.0 6.0
vertex 44.0 -15.0 4.75
vertex 44.0 -5.0 4.75
endloop
endfacet
facet normal 1.0 0.0 -0.0
outer loop
vertex 44.0 5.0 4.75
vertex 44.0 16.0 6.0
vertex 44.0 -5.0 4.75
endloop
endfacet
facet normal 1.0 0.0 0.0
outer loop
vertex 44.0 -5.0 1.25
vertex 44.0 -15.0 1.25
vertex 44.0 -16.0 0.0
endloop
endfacet
facet normal 1.0 0.0 0.0
outer loop
vertex 44.0 5.0 4.75
vertex 44.0 -5.0 4.75
vertex 44.0 -5.0 1.25
endloop
endfacet
facet normal 1.0 0.0 0.0
outer loop
vertex 44.0 16.0 0.0
vertex 44.0 15.0 1.25
vertex 44.0 5.0 1.25
endloop
endfacet
facet normal 1.0 0.0 -0.0
outer loop
vertex 44.0 5.0 1.25
vertex 44.0 5.0 4.75
vertex 44.0 -5.0 1.25
endloop
endfacet
facet normal 1.0 -0.0 0.0
outer loop
vertex 44.0 -5.0 1.25
vertex 44.0 -16.0 0.0
vertex 44.0 16.0 0.0
endloop
endfacet
facet normal 1.0 -0.0 -0.0
outer loop
vertex 44.0 -5.0 1.25
vertex 44.0 16.0 0.0
vertex 44.0 5.0 1.25
endloop
endfacet
facet normal -0.0 -0.9999999999999999 -0.0
outer loop
vertex 21.842052459716797 -16.0 2.5250015258789062
vertex -37.0 -16.0 2.5250015258789062
vertex -37.0 -16.0 1.7249984741210938
endloop
endfacet
facet normal 0.0 -1.0 0.0
outer loop
vertex -37.0 -16.0 1.7249984741210938
vertex 37.0 -16.0 1.7249984741210938
vertex 37.0 -16.0 2.5250015258789062
endloop
endfacet
facet normal 0.0 -1.0 -0.0
outer loop
vertex 21.842052459716797 -16.0 2.5250015258789062
vertex -37.0 -16.0 1.7249984741210938
vertex 37.0 -16.0 2.5250015258789062
endloop
endfacet
facet normal -0.0 -1.0 -0.0
outer loop
vertex -11.31583023071289 -16.0 4.275001525878906
vertex -37.0 -16.0 4.275001525878906
vertex -37.0 -16.0 3.4749984741210938
endloop
endfacet
facet normal 0.0 -1.0 0.0
outer loop
vertex 3.8421170711517334 -16.0 3.4749984741210938
vertex 37.0 -16.0 3.4749984741210938
vertex 37.0 -16.0 4.275001525878906
endloop
endfacet
facet normal 0.0 -1.0 -0.0
outer loop
vertex -11.31583023071289 -16.0 4.275001525878906
vertex -37.0 -16.0 3.4749984741210938
vertex 3.8421170711517334 -16.0 3.4749984741210938
endloop
endfacet
facet normal 0.0 -1.0 0.0
outer loop
vertex 3.8421170711517334 -16.0 3.4749984741210938
vertex 37.0 -16.0 4.275001525878906
vertex 16.565446853637695 -16.0 4.275001525878906
endloop
endfacet
facet normal 0.0 -1.0 0.0
outer loop
vertex -11.31583023071289 -16.0 4.275001525878906
vertex 3.8421170711517334 -16.0 3.4749984741210938
vertex 16.565446853637695 -16.0 4.275001525878906
endloop
endfacet
facet normal 0.0 -1.0 0.0
outer loop
vertex -44.0 -16.0 6.0
vertex -44.0 -16.0 0.0
vertex -37.0 -16.0 0.9749984741210938
endloop
endfacet
facet normal 0.0 -1.0 0.0
outer loop
vertex -44.0 -16.0 6.0
vertex -37.0 -16.0 0.9749984741210938
vertex -37.0 -16.0 1.7249984741210938
endloop
endfacet
facet normal 0.0 -1.0 0.0
outer loop
vertex 37.0 -16.0 0.9749984741210938
vertex 44.0 -16.0 0.0
vertex 44.0 -16.0 6.0
endloop
endfacet
facet normal 0.0 -1.0 0.0
outer loop
vertex 37.0 -16.0 1.7249984741210938
vertex 37.0 -16.0 0.9749984741210938
vertex 44.0 -16.0 6.0
endloop
endfacet
facet normal 0.0 -1.0 0.0
outer loop
vertex -44.0 -16.0 6.0
vertex -37.0 -16.0 1.7249984741210938
vertex -37.0 -16.0 2.5250015258789062
endloop
endfacet
facet normal 0.0 -1.0 0.0
outer loop
vertex -44.0 -16.0 6.0
vertex -37.0 -16.0 2.5250015258789062
vertex -37.0 -16.0 3.4749984741210938
endloop
endfacet
facet normal 0.0 -1.0 0.0
outer loop
vertex 37.0 -16.0 2.5250015258789062
vertex 37.0 -16.0 1.7249984741210938
vertex 44.0 -16.0 6.0
endloop
endfacet
facet normal 0.0 -1.0 0.0
outer loop
vertex 37.0 -16.0 3.4749984741210938
vertex 37.0 -16.0 2.5250015258789062
vertex 44.0 -16.0 6.0
endloop
endfacet
facet normal 0.0 -1.0 0.0
outer loop
vertex -44.0 -16.0 6.0
vertex -37.0 -16.0 3.4749984741210938
vertex -37.0 -16.0 4.275001525878906
endloop
endfacet
facet normal 0.0 -1.0 0.0
outer loop
vertex -44.0 -16.0 6.0
vertex -37.0 -16.0 4.275001525878906
vertex -37.0 -16.0 5.025001525878906
endloop
endfacet
facet normal 0.0 -1.0 0.0
outer loop
vertex 37.0 -16.0 4.275001525878906
vertex 37.0 -16.0 3.4749984741210938
vertex 44.0 -16.0 6.0
endloop
endfacet
facet normal 0.0 -1.0 0.0
outer loop
vertex 37.0 -16.0 5.025001525878906
vertex 37.0 -16.0 4.275001525878906
vertex 44.0 -16.0 6.0
endloop
endfacet
facet normal -0.0 -1.0 -0.0
outer loop
vertex 44.0 -16.0 6.0
vertex -44.0 -16.0 6.0
vertex -37.0 -16.0 5.025001525878906
endloop
endfacet
facet normal 0.0 -1.0 -0.0
outer loop
vertex 44.0 -16.0 6.0
vertex -37.0 -16.0 5.025001525878906
vertex -25.526351928710938 -16.0 5.025001525878906
endloop
endfacet
facet normal 0.0 -0.9999999999999999 0.0
outer loop
vertex 28.4935245513916 -16.0 5.025001525878906
vertex 37.0 -16.0 5.025001525878906
vertex 44.0 -16.0 6.0
endloop
endfacet
facet normal 0.0 -1.0 0.0
outer loop
vertex -25.526351928710938 -16.0 5.025001525878906
vertex 28.4935245513916 -16.0 5.025001525878906
vertex 44.0 -16.0 6.0
endloop
endfacet
facet normal -0.0 -1.0 -0.0
outer loop
vertex -25.526351928710938 -16.0 5.025001525878906
vertex -37.0 -16.0 5.025001525878906
vertex -37.0 -16.0 4.275001525878906
endloop
endfacet
facet normal 0.0 -1.0 -0.0
outer loop
vertex -25.526351928710938 -16.0 5.025001525878906
vertex -37.0 -16.0 4.275001525878906
vertex -11.31583023071289 -16.0 4.275001525878906
endloop
endfacet
facet normal 0.0 -1.0 0.0
outer loop
vertex 16.565446853637695 -16.0 4.275001525878906
vertex 37.0 -16.0 4.275001525878906
vertex 37.0 -16.0 5.025001525878906
endloop
endfacet
facet normal 0.0 -1.0 0.0
outer loop
vertex 16.565446853637695 -16.0 4.275001525878906
vertex 37.0 -16.0 5.025001525878906
vertex 28.4935245513916 -16.0 5.025001525878906
endloop
endfacet
facet normal 0.0 -1.0 0.0
outer loop
vertex -11.31583023071289 -16.0 4.275001525878906
vertex 16.565446853637695 -16.0 4.275001525878906
vertex 28.4935245513916 -16.0 5.025001525878906
endloop
endfacet
facet normal 0.0 -1.0 0.0
outer loop
vertex -11.31583023071289 -16.0 4.275001525878906
vertex 28.4935245513916 -16.0 5.025001525878906
vertex -25.526351928710938 -16.0 5.025001525878906
endloop
endfacet
facet normal -0.0 -0.9999999999999999 -0.0
outer loop
vertex 3.8421170711517334 -16.0 3.4749984741210938
vertex -37.0 -16.0 3.4749984741210938
vertex -37.0 -16.0 2.5250015258789062
endloop
endfacet
facet normal 0.0 -0.9999999999999999 -0.0
outer loop
vertex 3.8421170711517334 -16.0 3.4749984741210938
vertex -37.0 -16.0 2.5250015258789062
vertex 21.842052459716797 -16.0 2.5250015258789062
endloop
endfacet
facet normal 0.0 -1.0 0.0
outer loop
vertex 21.842052459716797 -16.0 2.5250015258789062
vertex 37.0 -16.0 2.5250015258789062
vertex 37.0 -16.0 3.4749984741210938
endloop
endfacet
facet normal 0.0 -1.0 0.0
outer loop
vertex 21.842052459716797 -16.0 2.5250015258789062
vertex 37.0 -16.0 3.4749984741210938
vertex 3.8421170711517334 -16.0 3.4749984741210938
endloop
endfacet
facet normal -0.0 -1.0 0.0
outer loop
vertex 29.700021743774414 -16.0 0.9749984741210938
vertex -37.0 -16.0 0.9749984741210938
vertex -44.0 -16.0 0.0
endloop
endfacet
facet normal 0.0 -1.0 0.0
outer loop
vertex -44.0 -16.0 0.0
vertex 44.0 -16.0 0.0
vertex 37.0 -16.0 0.9749984741210938
endloop
endfacet
facet normal 0.0 -1.0 -0.0
outer loop
vertex 29.700021743774414 -16.0 0.9749984741210938
vertex -44.0 -16.0 0.0
vertex 37.0 -16.0 0.9749984741210938
endloop
endfacet
facet normal 0.0 -1.0 0.0
outer loop
vertex 29.700021743774414 -16.0 0.9749984741210938
vertex 37.0 -16.0 0.9749984741210938
vertex 28.42542266845703 -16.0 1.0619049072265625
endloop
endfacet
facet normal 0.0 -1.0 0.0
outer loop
vertex 28.42542266845703 -16.0 1.0619049072265625
vertex 37.0 -16.0 0.9749984741210938
vertex 37.0 -16.0 1.7249984741210938
endloop
endfacet
facet normal -0.0 -1.0 -0.0
outer loop
vertex 37.0 -16.0 1.7249984741210938
vertex -37.0 -16.0 1.7249984741210938
vertex -37.0 -16.0 0.9749984741210938
endloop
endfacet
facet normal 0.0 -1.0 0.0
outer loop
vertex -37.0 -16.0 0.9749984741210938
vertex 29.700021743774414 -16.0 0.9749984741210938
vertex 28.42542266845703 -16.0 1.0619049072265625
endloop
endfacet
facet normal -0.0 -1.0 0.0
outer loop
vertex 28.42542266845703 -16.0 1.0619049072265625
vertex 37.0 -16.0 1.7249984741210938
vertex -37.0 -16.0 0.9749984741210938
endloop
endfacet
facet normal 0.0 0.0 -1.0
outer loop
vertex -44.0 16.0 0.0
vertex 44.0 16.0 0.0
vertex 44.0 -16.0 0.0
endloop
endfacet
facet normal -0.0 -0.0 -1.0
outer loop
vertex -44.0 16.0 0.0
vertex 44.0 -16.0 0.0
vertex -44.0 -16.0 0.0
endloop
endfacet
facet normal -0.0 0.0 1.0
outer loop
vertex -37.0 -11.774999618530273 6.0
vertex -44.0 -16.0 6.0
vertex 44.0 -16.0 6.0
endloop
endfacet
facet normal -0.0 -0.0 1.0
outer loop
vertex -37.0 -11.774999618530273 6.0
vertex 44.0 -16.0 6.0
vertex 37.0 -11.774999618530273 6.0
endloop
endfacet
facet normal 0.0 0.0 1.0
outer loop
vertex 37.0 -10.625 6.0
vertex 37.0 -11.774999618530273 6.0
vertex 44.0 -16.0 6.0
endloop
endfacet
facet normal -0.0 0.0 1.0
outer loop
vertex -44.0 16.0 6.0
vertex -44.0 -16.0 6.0
vertex -37.0 -11.774999618530273 6.0
endloop
endfacet
facet normal -0.0 0.0 1.0
outer loop
vertex -44.0 16.0 6.0
vertex -37.0 -11.774999618530273 6.0
vertex -37.0 -10.625 6.0
endloop
endfacet
facet normal -0.0 0.0 1.0
outer loop
vertex 37.0 -10.625 6.0
vertex 44.0 -16.0 6.0
vertex 44.0 16.0 6.0
endloop
endfacet
facet normal -0.0 0.0 1.0
outer loop
vertex 37.0 -4.425000190734863 6.0
vertex 37.0 -10.625 6.0
vertex 44.0 16.0 6.0
endloop
endfacet
facet normal -0.0 0.0 1.0
outer loop
vertex -44.0 16.0 6.0
vertex -37.0 -10.625 6.0
vertex -37.0 -4.425000190734863 6.0
endloop
endfacet
facet normal -0.0 0.0 1.0
outer loop
vertex -44.0 16.0 6.0
vertex -37.0 -4.425000190734863 6.0
vertex -37.0 -3.575000047683716 6.0
endloop
endfacet
facet normal -0.0 0.0 1.0
outer loop
vertex 37.0 -3.575000047683716 6.0
vertex 37.0 -4.425000190734863 6.0
vertex 44.0 16.0 6.0
endloop
endfacet
facet normal -0.0 0.0 1.0
outer loop
vertex 37.0 3.674999713897705 6.0
vertex 37.0 -3.575000047683716 6.0
vertex 44.0 16.0 6.0
endloop
endfacet
facet normal -0.0 0.0 1.0
outer loop
vertex -44.0 16.0 6.0
vertex -37.0 -3.575000047683716 6.0
vertex -37.0 3.674999713897705 6.0
endloop
endfacet
facet normal -0.0 0.0 1.0
outer loop
vertex -44.0 16.0 6.0
vertex -37.0 3.674999713897705 6.0
vertex -37.0 4.724999904632568 6.0
endloop
endfacet
facet normal -0.0 0.0 1.0
outer loop
vertex 37.0 4.724999904632568 6.0
vertex 37.0 3.674999713897705 6.0
vertex 44.0 16.0 6.0
endloop
endfacet
facet normal -0.0 0.0 1.0
outer loop
vertex 37.0 10.65000057220459 6.0
vertex 37.0 4.724999904632568 6.0
vertex 44.0 16.0 6.0
endloop
endfacet
facet normal -0.0 0.0 1.0
outer loop
vertex -44.0 16.0 6.0
vertex -37.0 4.724999904632568 6.0
vertex -37.0 10.65000057220459 6.0
endloop
endfacet
facet normal -0.0 0.0 1.0
outer loop
vertex -44.0 16.0 6.0
vertex -37.0 10.65000057220459 6.0
vertex -37.0 11.550000190734863 6.0
endloop
endfacet
facet normal -0.0 0.0 1.0
outer loop
vertex 37.0 11.550000190734863 6.0
vertex 37.0 10.65000057220459 6.0
vertex 44.0 16.0 6.0
endloop
endfacet
facet normal -0.0 0.0 1.0
outer loop
vertex -44.0 16.0 6.0
vertex -37.0 11.550000190734863 6.0
vertex 37.0 11.550000190734863 6.0
endloop
endfacet
facet normal 0.0 0.0 1.0
outer loop
vertex 44.0 16.0 6.0
vertex -44.0 16.0 6.0
vertex 37.0 11.550000190734863 6.0
endloop
endfacet
facet normal -0.0 0.0 1.0
outer loop
vertex -37.0 10.65000057220459 6.0
vertex -37.0 4.724999904632568 6.0
vertex 37.0 4.724999904632568 6.0
endloop
endfacet
facet normal -0.0 0.0 1.0
outer loop
vertex -37.0 10.65000057220459 6.0
vertex 37.0 4.724999904632568 6.0
vertex 37.0 10.65000057220459 6.0
endloop
endfacet
facet normal -0.0 0.0 1.0
outer loop
vertex -37.0 3.674999713897705 6.0
vertex -37.0 -3.575000047683716 6.0
vertex 37.0 -3.575000047683716 6.0
endloop
endfacet
facet normal -0.0 0.0 1.0
outer loop
vertex -37.0 3.674999713897705 6.0
vertex 37.0 -3.575000047683716 6.0
vertex 37.0 3.674999713897705 6.0
endloop
endfacet
facet normal -0.0 0.0 1.0
outer loop
vertex -37.0 -4.425000190734863 6.0
vertex -37.0 -10.625 6.0
vertex 37.0 -10.625 6.0
endloop
endfacet
facet normal -0.0 0.0 1.0
outer loop
vertex -37.0 -4.425000190734863 6.0
vertex 37.0 -10.625 6.0
vertex 37.0 -4.425000190734863 6.0
endloop
endfacet
facet normal -1.0 0.0 0.0
outer loop
vertex -37.0 -11.774999618530273 6.0
vertex -37.0 -11.774999618530273 6.000007629394531
vertex -37.0 -10.625 6.000007629394531
endloop
endfacet
facet normal -1.0 0.0 0.0
outer loop
vertex -37.0 -11.774999618530273 6.0
vertex -37.0 -10.625 6.000007629394531
vertex -37.0 -10.625 6.0
endloop
endfacet
facet normal -0.0 1.0 0.0
outer loop
vertex -37.0 -10.625 6.000007629394531
vertex 37.0 -10.625 6.000007629394531
vertex 37.0 -10.625 6.0
endloop
endfacet
facet normal 0.0 1.0 0.0
outer loop
vertex -37.0 -10.625 6.000007629394531
vertex 37.0 -10.625 6.0
vertex -37.0 -10.625 6.0
endloop
endfacet
facet normal 1.0 0.0 -0.0
outer loop
vertex 37.0 -10.625 6.0
vertex 37.0 -10.625 6.000007629394531
vertex 37.0 -11.774999618530273 6.000007629394531
endloop
endfacet
facet normal 1.0 0.0 0.0
outer loop
vertex 37.0 -10.625 6.0
vertex 37.0 -11.774999618530273 6.000007629394531
vertex 37.0 -11.774999618530273 6.0
endloop
endfacet
facet normal 0.0 -1.0 0.0
outer loop
vertex 37.0 -11.774999618530273 6.0
vertex 37.0 -11.774999618530273 6.000007629394531
vertex -37.0 -11.774999618530273 6.000007629394531
endloop
endfacet
facet normal -0.0 -1.0 -0.0
outer loop
vertex 37.0 -11.774999618530273 6.0
vertex -37.0 -11.774999618530273 6.000007629394531
vertex -37.0 -11.774999618530273 6.0
endloop
endfacet
facet normal 0.0 0.0 1.0
outer loop
vertex 37.0 -10.625 6.000007629394531
vertex -37.0 -10.625 6.000007629394531
vertex -37.0 -11.774999618530273 6.000007629394531
endloop
endfacet
facet normal -0.0 0.0 1.0
outer loop
vertex 37.0 -10.625 6.000007629394531
vertex -37.0 -11.774999618530273 6.000007629394531
vertex 37.0 -11.774999618530273 6.000007629394531
endloop
endfacet
facet normal -1.0 0.0 0.0
outer loop
vertex -37.0 -4.425000190734863 6.0
vertex -37.0 -4.425000190734863 6.000007629394531
vertex -37.0 -3.575000047683716 6.000007629394531
endloop
endfacet
facet normal -1.0 0.0 0.0
outer loop
vertex -37.0 -4.425000190734863 6.0
vertex -37.0 -3.575000047683716 6.000007629394531
vertex -37.0 -3.575000047683716 6.0
endloop
endfacet
facet normal -0.0 1.0 0.0
outer loop
vertex -37.0 -3.575000047683716 6.000007629394531
vertex 37.0 -3.575000047683716 6.000007629394531
vertex 37.0 -3.575000047683716 6.0
endloop
endfacet
facet normal 0.0 1.0 0.0
outer loop
vertex -37.0 -3.575000047683716 6.000007629394531
vertex 37.0 -3.575000047683716 6.0
vertex -37.0 -3.575000047683716 6.0
endloop
endfacet
facet normal 1.0 0.0 -0.0
outer loop
vertex 37.0 -3.575000047683716 6.0
vertex 37.0 -3.575000047683716 6.000007629394531
vertex 37.0 -4.425000190734863 6.000007629394531
endloop
endfacet
facet normal 1.0 0.0 0.0
outer loop
vertex 37.0 -3.575000047683716 6.0
vertex 37.0 -4.425000190734863 6.000007629394531
vertex 37.0 -4.425000190734863 6.0
endloop
endfacet
facet normal 0.0 -1.0 0.0
outer loop
vertex 37.0 -4.425000190734863 6.0
vertex 37.0 -4.425000190734863 6.000007629394531
vertex -37.0 -4.425000190734863 6.000007629394531
endloop
endfacet
facet normal -0.0 -1.0 -0.0
outer loop
vertex 37.0 -4.425000190734863 6.0
vertex -37.0 -4.425000190734863 6.000007629394531
vertex -37.0 -4.425000190734863 6.0
endloop
endfacet
facet normal 0.0 0.0 1.0
outer loop
vertex 37.0 -3.575000047683716 6.000007629394531
vertex -37.0 -3.575000047683716 6.000007629394531
vertex -37.0 -4.425000190734863 6.000007629394531
endloop
endfacet
facet normal -0.0 0.0 1.0
outer loop
vertex 37.0 -3.575000047683716 6.000007629394531
vertex -37.0 -4.425000190734863 6.000007629394531
vertex 37.0 -4.425000190734863 6.000007629394531
endloop
endfacet
facet normal -1.0 0.0 0.0
outer loop
vertex -37.0 3.674999713897705 6.0
vertex -37.0 3.674999713897705 6.000007629394531
vertex -37.0 4.724999904632568 6.000007629394531
endloop
endfacet
facet normal -1.0 0.0 0.0
outer loop
vertex -37.0 3.674999713897705 6.0
vertex -37.0 4.724999904632568 6.000007629394531
vertex -37.0 4.724999904632568 6.0
endloop
endfacet
facet normal -0.0 1.0 0.0
outer loop
vertex -37.0 4.724999904632568 6.000007629394531
vertex 37.0 4.724999904632568 6.000007629394531
vertex 37.0 4.724999904632568 6.0
endloop
endfacet
facet normal 0.0 1.0 0.0
outer loop
vertex -37.0 4.724999904632568 6.000007629394531
vertex 37.0 4.724999904632568 6.0
vertex -37.0 4.724999904632568 6.0
endloop
endfacet
facet normal 1.0 0.0 -0.0
outer loop
vertex 37.0 4.724999904632568 6.0
vertex 37.0 4.724999904632568 6.000007629394531
vertex 37.0 3.674999713897705 6.000007629394531
endloop
endfacet
facet normal 1.0 0.0 0.0
outer loop
vertex 37.0 4.724999904632568 6.0
vertex 37.0 3.674999713897705 6.000007629394531
vertex 37.0 3.674999713897705 6.0
endloop
endfacet
facet normal 0.0 -1.0 0.0
outer loop
vertex 37.0 3.674999713897705 6.0
vertex 37.0 3.674999713897705 6.000007629394531
vertex -37.0 3.674999713897705 6.000007629394531
endloop
endfacet
facet normal -0.0 -1.0 -0.0
outer loop
vertex 37.0 3.674999713897705 6.0
vertex -37.0 3.674999713897705 6.000007629394531
vertex -37.0 3.674999713897705 6.0
endloop
endfacet
facet normal 0.0 0.0 1.0
outer loop
vertex 37.0 4.724999904632568 6.000007629394531
vertex -37.0 4.724999904632568 6.000007629394531
vertex -37.0 3.674999713897705 6.000007629394531
endloop
endfacet
facet normal -0.0 0.0 1.0
outer loop
vertex 37.0 4.724999904632568 6.000007629394531
vertex -37.0 3.674999713897705 6.000007629394531
vertex 37.0 3.674999713897705 6.000007629394531
endloop
endfacet
facet normal -1.0 0.0 0.0
outer loop
vertex -37.0 10.65000057220459 6.0
vertex -37.0 10.65000057220459 6.000007629394531
vertex -37.0 11.550000190734863 6.000007629394531
endloop
endfacet
facet normal -1.0 0.0 0.0
outer loop
vertex -37.0 10.65000057220459 6.0
vertex -37.0 11.550000190734863 6.000007629394531
vertex -37.0 11.550000190734863 6.0
endloop
endfacet
facet normal -0.0 1.0 0.0
outer loop
vertex -37.0 11.550000190734863 6.000007629394531
vertex 37.0 11.550000190734863 6.000007629394531
vertex 37.0 11.550000190734863 6.0
endloop
endfacet
facet normal 0.0 1.0 0.0
outer loop
vertex -37.0 11.550000190734863 6.000007629394531
vertex 37.0 11.550000190734863 6.0
vertex -37.0 11.550000190734863 6.0
endloop
endfacet
facet normal 1.0 0.0 -0.0
outer loop
vertex 37.0 11.550000190734863 6.0
vertex 37.0 11.550000190734863 6.000007629394531
vertex 37.0 10.65000057220459 6.000007629394531
endloop
endfacet
facet normal 1.0 0.0 0.0
outer loop
vertex 37.0 11.550000190734863 6.0
vertex 37.0 10.65000057220459 6.000007629394531
vertex 37.0 10.65000057220459 6.0
endloop
endfacet
facet normal 0.0 -1.0 0.0
outer loop
vertex 37.0 10.65000057220459 6.0
vertex 37.0 10.65000057220459 6.000007629394531
vertex -37.0 10.65000057220459 6.000007629394531
endloop
endfacet
facet normal -0.0 -1.0 -0.0
outer loop
vertex 37.0 10.65000057220459 6.0
vertex -37.0 10.65000057220459 6.000007629394531
vertex -37.0 10.65000057220459 6.0
endloop
endfacet
facet normal 0.0 0.0 1.0
outer loop
vertex 37.0 11.550000190734863 6.000007629394531
vertex -37.0 11.550000190734863 6.000007629394531
vertex -37.0 10.65000057220459 6.000007629394531
endloop
endfacet
facet normal -0.0 0.0 1.0
outer loop
vertex 37.0 11.550000190734863 6.000007629394531
vertex -37.0 10.65000057220459 6.000007629394531
vertex 37.0 10.65000057220459 6.000007629394531
endloop
endfacet
facet normal 0.0 -1.0 0.0
outer loop
vertex -47.650001525878906 -15.0 4.75
vertex -47.650001525878906 -15.0 1.25
vertex -44.0 -15.0 1.25
endloop
endfacet
facet normal 0.0 -1.0 0.0
outer loop
vertex -47.650001525878906 -15.0 4.75
vertex -44.0 -15.0 1.25
vertex -44.0 -15.0 4.75
endloop
endfacet
facet normal 0.0 0.0 -1.0
outer loop
vertex -47.650001525878906 -15.0 1.25
vertex -47.65000915527344 -14.999993324279785 1.25
vertex -47.65000915527344 -5.000006675720215 1.25
endloop
endfacet
facet normal 0.0 0.0 -1.0
outer loop
vertex -47.65000915527344 -5.000006675720215 1.25
vertex -47.650001525878906 -5.0 1.25
vertex -44.0 -5.0 1.25
endloop
endfacet
facet normal -0.0 -0.0 -1.0
outer loop
vertex -44.0 -5.0 1.25
vertex -44.0 -15.0 1.25
vertex -47.650001525878906 -15.0 1.25
endloop
endfacet
facet normal 0.0 -0.0 -1.0
outer loop
vertex -47.65000915527344 -5.000006675720215 1.25
vertex -44.0 -5.0 1.25
vertex -47.650001525878906 -15.0 1.25
endloop
endfacet
facet normal 0.0 1.0 -0.0
outer loop
vertex -44.0 -5.0 1.25
vertex -47.650001525878906 -5.0 1.25
vertex -47.650001525878906 -5.0 4.75
endloop
endfacet
facet normal 0.0 1.0 -0.0
outer loop
vertex -44.0 -5.0 1.25
vertex -47.650001525878906 -5.0 4.75
vertex -44.0 -5.0 4.75
endloop
endfacet
facet normal 0.0 -0.0 1.0
outer loop
vertex -44.0 -15.0 4.75
vertex -44.0 -5.0 4.75
vertex -47.650001525878906 -5.0 4.75
endloop
endfacet
facet normal 0.0 0.0 1.0
outer loop
vertex -47.650001525878906 -5.0 4.75
vertex -47.65000915527344 -5.000006675720215 4.75
vertex -47.65000915527344 -14.999993324279785 4.75
endloop
endfacet
facet normal -0.0 0.0 1.0
outer loop
vertex -47.65000915527344 -14.999993324279785 4.75
vertex -47.650001525878906 -15.0 4.75
vertex -44.0 -15.0 4.75
endloop
endfacet
facet normal 0.0 0.0 1.0
outer loop
vertex -47.650001525878906 -5.0 4.75
vertex -47.65000915527344 -14.999993324279785 4.75
vertex -44.0 -15.0 4.75
endloop
endfacet
facet normal -1.0 0.0 -0.0
outer loop
vertex -48.0 -14.650001525878906 4.4000091552734375
vertex -48.0 -5.349997520446777 4.4000091552734375
vertex -48.0 -5.349998474121094 1.5999908447265625
endloop
endfacet
facet normal -1.0 -0.0 -0.0
outer loop
vertex -48.0 -14.650001525878906 4.4000091552734375
vertex -48.0 -5.349998474121094 1.5999908447265625
vertex -48.0 -14.650001525878906 1.5999908447265625
endloop
endfacet
facet normal -0.7071077445663162 -0.7071058178054663 -0.0
outer loop
vertex -48.0 -14.650001525878906 4.4000091552734375
vertex -48.0 -14.650001525878906 1.5999908447265625
vertex -47.65000915527344 -14.999993324279785 1.25
endloop
endfacet
facet normal -0.658504607868518 -0.7525766947068778 0.0
outer loop
vertex -47.65000915527344 -14.999993324279785 1.25
vertex -47.650001525878906 -15.0 1.25
vertex -47.650001525878906 -15.0 4.75
endloop
endfacet
facet normal -0.6556099427414767 -0.7492685059902591 -0.09366060489684552
outer loop
vertex -47.650001525878906 -15.0 4.75
vertex -47.65000915527344 -14.999993324279785 4.75
vertex -48.0 -14.650001525878906 4.4000091552734375
endloop
endfacet
facet normal -0.7071068775202785 -0.7071066848527772 1.9267170121132643e-07
outer loop
vertex -47.65000915527344 -14.999993324279785 1.25
vertex -47.650001525878906 -15.0 4.75
vertex -48.0 -14.650001525878906 4.4000091552734375
endloop
endfacet
facet normal -0.658504607868518 0.7525766947068778 0.0
outer loop
vertex -47.65000915527344 -5.000006675720215 4.75
vertex -47.650001525878906 -5.0 4.75
vertex -47.650001525878906 -5.0 1.25
endloop
endfacet
facet normal -0.6556099427414767 0.7492685059902591 0.09366060489684552
outer loop
vertex -47.650001525878906 -5.0 1.25
vertex -47.65000915527344 -5.000006675720215 1.25
vertex -48.0 -5.349998474121094 1.5999908447265625
endloop
endfacet
facet normal -0.7071066607677166 0.707106901605317 -2.4083760040943593e-07
outer loop
vertex -48.0 -5.349998474121094 1.5999908447265625
vertex -48.0 -5.349997520446777 4.4000091552734375
vertex -47.65000915527344 -5.000006675720215 4.75
endloop
endfacet
facet normal -0.7071068775202785 0.7071066848527772 -1.9267170121132643e-07
outer loop
vertex -47.650001525878906 -5.0 1.25
vertex -48.0 -5.349998474121094 1.5999908447265625
vertex -47.65000915527344 -5.000006675720215 4.75
endloop
endfacet
facet normal -0.7071067811865476 0.0 0.7071067811865476
outer loop
vertex -47.65000915527344 -14.999993324279785 4.75
vertex -47.65000915527344 -5.000006675720215 4.75
vertex -48.0 -5.349997520446777 4.4000091552734375
endloop
endfacet
facet normal -0.7071067811865476 0.0 0.7071067811865476
outer loop
vertex -47.65000915527344 -14.999993324279785 4.75
vertex -48.0 -5.349997520446777 4.4000091552734375
vertex -48.0 -14.650001525878906 4.4000091552734375
endloop
endfacet
facet normal -0.7071067811865476 0.0 -0.7071067811865476
outer loop
vertex -47.65000915527344 -14.999993324279785 1.25
vertex -48.0 -14.650001525878906 1.5999908447265625
vertex -48.0 -5.349998474121094 1.5999908447265625
endloop
endfacet
facet normal -0.7071067811865476 0.0 -0.7071067811865476
outer loop
vertex -47.65000915527344 -14.999993324279785 1.25
vertex -48.0 -5.349998474121094 1.5999908447265625
vertex -47.65000915527344 -5.000006675720215 1.25
endloop
endfacet
facet normal 0.0 -1.0 0.0
outer loop
vertex -47.650001525878906 5.0 4.75
vertex -47.650001525878906 5.0 1.25
vertex -44.0 5.0 1.25
endloop
endfacet
facet normal 0.0 -1.0 0.0
outer loop
vertex -47.650001525878906 5.0 4.75
vertex -44.0 5.0 1.25
vertex -44.0 5.0 4.75
endloop
endfacet
facet normal 0.0 0.0 -1.0
outer loop
vertex -47.650001525878906 5.0 1.25
vertex -47.65000915527344 5.000006675720215 1.25
vertex -47.65000915527344 14.999993324279785 1.25
endloop
endfacet
facet normal 0.0 0.0 -1.0
outer loop
vertex -47.65000915527344 14.999993324279785 1.25
vertex -47.650001525878906 15.0 1.25
vertex -44.0 15.0 1.25
endloop
endfacet
facet normal -0.0 -0.0 -1.0
outer loop
vertex -44.0 15.0 1.25
vertex -44.0 5.0 1.25
vertex -47.650001525878906 5.0 1.25
endloop
endfacet
facet normal 0.0 -0.0 -1.0
outer loop
vertex -47.65000915527344 14.999993324279785 1.25
vertex -44.0 15.0 1.25
vertex -47.650001525878906 5.0 1.25
endloop
endfacet
facet normal 0.0 1.0 -0.0
outer loop
vertex -44.0 15.0 1.25
vertex -47.650001525878906 15.0 1.25
vertex -47.650001525878906 15.0 4.75
endloop
endfacet
facet normal 0.0 1.0 -0.0
outer loop
vertex -44.0 15.0 1.25
vertex -47.650001525878906 15.0 4.75
vertex -44.0 15.0 4.75
endloop
endfacet
facet normal 0.0 -0.0 1.0
outer loop
vertex -44.0 5.0 4.75
vertex -44.0 15.0 4.75
vertex -47.650001525878906 15.0 4.75
endloop
endfacet
facet normal 0.0 0.0 1.0
outer loop
vertex -47.650001525878906 15.0 4.75
vertex -47.65000915527344 14.999993324279785 4.75
vertex -47.65000915527344 5.000006675720215 4.75
endloop
endfacet
facet normal -0.0 0.0 1.0
outer loop
vertex -47.65000915527344 5.000006675720215 4.75
vertex -47.650001525878906 5.0 4.75
vertex -44.0 5.0 4.75
endloop
endfacet
facet normal 0.0 0.0 1.0
outer loop
vertex -47.650001525878906 15.0 4.75
vertex -47.65000915527344 5.000006675720215 4.75
vertex -44.0 5.0 4.75
endloop
endfacet
facet normal -1.0 0.0 0.0
outer loop
vertex -48.0 5.349998474121094 4.4000091552734375
vertex -48.0 14.650001525878906 4.4000091552734375
vertex -48.0 14.650001525878906 1.5999908447265625
endloop
endfacet
facet normal -1.0 -0.0 -0.0
outer loop
vertex -48.0 5.349998474121094 4.4000091552734375
vertex -48.0 14.650001525878906 1.5999908447265625
vertex -48.0 5.349997520446777 1.5999908447265625
endloop
endfacet
facet normal -0.7071066607677166 -0.707106901605317 2.4083760040943593e-07
outer loop
vertex -48.0 5.349998474121094 4.4000091552734375
vertex -48.0 5.349997520446777 1.5999908447265625
vertex -47.65000915527344 5.000006675720215 1.25
endloop
endfacet
facet normal -0.658504607868518 -0.7525766947068778 0.0
outer loop
vertex -47.65000915527344 5.000006675720215 1.25
vertex -47.650001525878906 5.0 1.25
vertex -47.650001525878906 5.0 4.75
endloop
endfacet
facet normal -0.6556099427414767 -0.7492685059902591 -0.09366060489684552
outer loop
vertex -47.650001525878906 5.0 4.75
vertex -47.65000915527344 5.000006675720215 4.75
vertex -48.0 5.349998474121094 4.4000091552734375
endloop
endfacet
facet normal -0.7071068775202785 -0.7071066848527772 1.9267170121132643e-07
outer loop
vertex -47.65000915527344 5.000006675720215 1.25
vertex -47.650001525878906 5.0 4.75
vertex -48.0 5.349998474121094 4.4000091552734375
endloop
endfacet
facet normal -0.658504607868518 0.7525766947068778 0.0
outer loop
vertex -47.65000915527344 14.999993324279785 4.75
vertex -47.650001525878906 15.0 4.75
vertex -47.650001525878906 15.0 1.25
endloop
endfacet
facet normal -0.6556099427414767 0.7492685059902591 0.09366060489684552
outer loop
vertex -47.650001525878906 15.0 1.25
vertex -47.65000915527344 14.999993324279785 1.25
vertex -48.0 14.650001525878906 1.5999908447265625
endloop
endfacet
facet normal -0.7071077445663162 0.7071058178054663 0.0
outer loop
vertex -48.0 14.650001525878906 1.5999908447265625
vertex -48.0 14.650001525878906 4.4000091552734375
vertex -47.65000915527344 14.999993324279785 4.75
endloop
endfacet
facet normal -0.7071068775202785 0.7071066848527772 -1.9267170121132643e-07
outer loop
vertex -47.650001525878906 15.0 1.25
vertex -48.0 14.650001525878906 1.5999908447265625
vertex -47.65000915527344 14.999993324279785 4.75
endloop
endfacet
facet normal -0.7071067811865476 0.0 0.7071067811865476
outer loop
vertex -47.65000915527344 5.000006675720215 4.75
vertex -47.65000915527344 14.999993324279785 4.75
vertex -48.0 14.650001525878906 4.4000091552734375
endloop
endfacet
facet normal -0.7071067811865476 0.0 0.7071067811865476
outer loop
vertex -47.65000915527344 5.000006675720215 4.75
vertex -48.0 14.650001525878906 4.4000091552734375
vertex -48.0 5.349998474121094 4.4000091552734375
endloop
endfacet
facet normal -0.7071067811865476 0.0 -0.7071067811865476
outer loop
vertex -47.65000915527344 5.000006675720215 1.25
vertex -48.0 5.349997520446777 1.5999908447265625
vertex -48.0 14.650001525878906 1.5999908447265625
endloop
endfacet
facet normal -0.7071067811865476 0.0 -0.7071067811865476
outer loop
vertex -47.65000915527344 5.000006675720215 1.25
vertex -48.0 14.650001525878906 1.5999908447265625
vertex -47.65000915527344 14.999993324279785 1.25
endloop
endfacet
facet normal 0.0 -0.9999999999999999 0.0
outer loop
vertex 47.65000534057617 -15.0 1.25
vertex 47.65000534057617 -15.0 4.75
vertex 44.0 -15.0 4.75
endloop
endfacet
facet normal -0.0 -0.9999999999999999 -0.0
outer loop
vertex 47.65000534057617 -15.0 1.25
vertex 44.0 -15.0 4.75
vertex 44.0 -15.0 1.25
endloop
endfacet
facet normal 0.0 -0.0 0.9999999999999999
outer loop
vertex 47.65000534057617 -15.0 4.75
vertex 47.65000534057617 -5.0 4.75
vertex 44.0 -5.0 4.75
endloop
endfacet
facet normal 0.0 0.0 0.9999999999999999
outer loop
vertex 47.65000534057617 -15.0 4.75
vertex 44.0 -5.0 4.75
vertex 44.0 -15.0 4.75
endloop
endfacet
facet normal 0.0 0.9999999999999999 0.0
outer loop
vertex 47.65000534057617 -5.0 4.75
vertex 47.65000534057617 -5.0 1.25
vertex 44.0 -5.0 1.25
endloop
endfacet
facet normal 0.0 0.9999999999999999 -0.0
outer loop
vertex 47.65000534057617 -5.0 4.75
vertex 44.0 -5.0 1.25
vertex 44.0 -5.0 4.75
endloop
endfacet
facet normal -0.0 -0.0 -0.9999999999999999
outer loop
vertex 47.65000534057617 -5.0 1.25
vertex 47.65000534057617 -15.0 1.25
vertex 44.0 -15.0 1.25
endloop
endfacet
facet normal -0.0 0.0 -0.9999999999999999
outer loop
vertex 47.65000534057617 -5.0 1.25
vertex 44.0 -15.0 1.25
vertex 44.0 -5.0 1.25
endloop
endfacet
facet normal 1.0 -0.0 0.0
outer loop
vertex 48.0 -14.650004386901855 4.400001525878906
vertex 48.0 -14.650004386901855 1.5999984741210938
vertex 48.0 -5.349996089935303 1.5999984741210938
endloop
endfacet
facet normal 1.0 -0.0 0.0
outer loop
vertex 48.0 -14.650004386901855 4.400001525878906
vertex 48.0 -5.349996089935303 1.5999984741210938
vertex 48.0 -5.349996089935303 4.400001525878906
endloop
endfacet
facet normal 0.707107744555816 -0.7071058178159665 0.0
outer loop
vertex 47.65000534057617 -15.0 4.75
vertex 47.65000534057617 -15.0 1.25
vertex 48.0 -14.650004386901855 1.5999984741210938
endloop
endfacet
facet normal 0.707107744555816 -0.7071058178159665 0.0
outer loop
vertex 47.65000534057617 -15.0 4.75
vertex 48.0 -14.650004386901855 1.5999984741210938
vertex 48.0 -14.650004386901855 4.400001525878906
endloop
endfacet
facet normal 0.7071082262389737 0.7071053361311682 0.0
outer loop
vertex 48.0 -5.349996089935303 4.400001525878906
vertex 48.0 -5.349996089935303 1.5999984741210938
vertex 47.65000534057617 -5.0 1.25
endloop
endfacet
facet normal 0.7071082262389737 0.7071053361311682 -0.0
outer loop
vertex 48.0 -5.349996089935303 4.400001525878906
vertex 47.65000534057617 -5.0 1.25
vertex 47.65000534057617 -5.0 4.75
endloop
endfacet
facet normal 0.7071106346399966 0.0 -0.7071029277120986
outer loop
vertex 48.0 -14.650004386901855 1.5999984741210938
vertex 47.65000534057617 -15.0 1.25
vertex 47.65000534057617 -5.0 1.25
endloop
endfacet
facet normal 0.7071106346399965 0.0 -0.7071029277120985
outer loop
vertex 48.0 -14.650004386901855 1.5999984741210938
vertex 47.65000534057617 -5.0 1.25
vertex 48.0 -5.349996089935303 1.5999984741210938
endloop
endfacet
facet normal 0.7071106346399966 0.0 0.7071029277120986
outer loop
vertex 47.65000534057617 -5.0 4.75
vertex 47.65000534057617 -15.0 4.75
vertex 48.0 -14.650004386901855 4.400001525878906
endloop
endfacet
facet normal 0.7071106346399965 -0.0 0.7071029277120985
outer loop
vertex 47.65000534057617 -5.0 4.75
vertex 48.0 -14.650004386901855 4.400001525878906
vertex 48.0 -5.349996089935303 4.400001525878906
endloop
endfacet
facet normal 0.0 -0.9999999999999999 0.0
outer loop
vertex 47.65000534057617 5.0 1.25
vertex 47.65000534057617 5.0 4.75
vertex 44.0 5.0 4.75
endloop
endfacet
facet normal -0.0 -0.9999999999999999 -0.0
outer loop
vertex 47.65000534057617 5.0 1.25
vertex 44.0 5.0 4.75
vertex 44.0 5.0 1.25
endloop
endfacet
facet normal 0.0 -0.0 0.9999999999999999
outer loop
vertex 47.65000534057617 5.0 4.75
vertex 47.65000534057617 15.0 4.75
vertex 44.0 15.0 4.75
endloop
endfacet
facet normal 0.0 0.0 0.9999999999999999
outer loop
vertex 47.65000534057617 5.0 4.75
vertex 44.0 15.0 4.75
vertex 44.0 5.0 4.75
endloop
endfacet
facet normal 0.0 0.9999999999999999 0.0
outer loop
vertex 47.65000534057617 15.0 4.75
vertex 47.65000534057617 15.0 1.25
vertex 44.0 15.0 1.25
endloop
endfacet
facet normal 0.0 0.9999999999999999 -0.0
outer loop
vertex 47.65000534057617 15.0 4.75
vertex 44.0 15.0 1.25
vertex 44.0 15.0 4.75
endloop
endfacet
facet normal -0.0 -0.0 -0.9999999999999999
outer loop
vertex 47.65000534057617 15.0 1.25
vertex 47.65000534057617 5.0 1.25
vertex 44.0 5.0 1.25
endloop
endfacet
facet normal -0.0 0.0 -0.9999999999999999
outer loop
vertex 47.65000534057617 15.0 1.25
vertex 44.0 5.0 1.25
vertex 44.0 15.0 1.25
endloop
endfacet
facet normal 1.0 -0.0 0.0
outer loop
vertex 48.0 5.349996089935303 4.400001525878906
vertex 48.0 5.349996089935303 1.5999984741210938
vertex 48.0 14.650004386901855 1.5999984741210938
endloop
endfacet
facet normal 1.0 -0.0 0.0
outer loop
vertex 48.0 5.349996089935303 4.400001525878906
vertex 48.0 14.650004386901855 1.5999984741210938
vertex 48.0 14.650004386901855 4.400001525878906
endloop
endfacet
facet normal 0.7071082262389737 -0.7071053361311682 0.0
outer loop
vertex 47.65000534057617 5.0 4.75
vertex 47.65000534057617 5.0 1.25
vertex 48.0 5.349996089935303 1.5999984741210938
endloop
endfacet
facet normal 0.7071082262389737 -0.7071053361311682 0.0
outer loop
vertex 47.65000534057617 5.0 4.75
vertex 48.0 5.349996089935303 1.5999984741210938
vertex 48.0 5.349996089935303 4.400001525878906
endloop
endfacet
facet normal 0.707107744555816 0.7071058178159665 0.0
outer loop
vertex 48.0 14.650004386901855 4.400001525878906
vertex 48.0 14.650004386901855 1.5999984741210938
vertex 47.65000534057617 15.0 1.25
endloop
endfacet
facet normal 0.707107744555816 0.7071058178159665 -0.0
outer loop
vertex 48.0 14.650004386901855 4.400001525878906
vertex 47.65000534057617 15.0 1.25
vertex 47.65000534057617 15.0 4.75
endloop
endfacet
facet normal 0.7071106346399966 0.0 -0.7071029277120986
outer loop
vertex 48.0 5.349996089935303 1.5999984741210938
vertex 47.65000534057617 5.0 1.25
vertex 47.65000534057617 15.0 1.25
endloop
endfacet
facet normal 0.7071106346399965 0.0 -0.7071029277120985
outer loop
vertex 48.0 5.349996089935303 1.5999984741210938
vertex 47.65000534057617 15.0 1.25
vertex 48.0 14.650004386901855 1.5999984741210938
endloop
endfacet
facet normal 0.7071106346399966 0.0 0.7071029277120986
outer loop
vertex 47.65000534057617 15.0 4.75
vertex 47.65000534057617 5.0 4.75
vertex 48.0 5.349996089935303 4.400001525878906
endloop
endfacet
facet normal 0.7071106346399965 -0.0 0.7071029277120985
outer loop
vertex 47.65000534057617 15.0 4.75
vertex 48.0 5.349996089935303 4.400001525878906
vertex 48.0 14.650004386901855 4.400001525878906
endloop
endfacet

endsolid
