solid 
facet normal -1.0 0.0 0.0
outer loop
vertex -44.0 -16.0 0.0
vertex -44.0 -16.0 6.0
vertex -44.0 -15.0 4.75
endloop
endfacet
facet normal -1.0 0.0 0.0
outer loop
vertex -44.0 -16.0 0.0
vertex -44.0 -15.0 4.75
vertex -44.0 -15.0 1.25
endloop
endfacet
facet normal -1.0 0.0 0.0
outer loop
vertex -44.0 15.0 4.75
vertex -44.0 16.0 6.0
vertex -44.0 16.0 0.0
endloop
endfacet
facet normal -1.0 -0.0 -0.0
outer loop
vertex -44.0 15.0 4.75
vertex -44.0 16.0 0.0
vertex -44.0 15.0 1.25
endloop
endfacet
facet normal -1.0 0.0 0.0
outer loop
vertex -44.0 5.0 1.25
vertex -44.0 15.0 1.25
vertex -44.0 16.0 0.0
endloop
endfacet
facet normal -1.0 0.0 0.0
outer loop
vertex -44.0 16.0 0.0
vertex -44.0 -16.0 0.0
vertex -44.0 -15.0 1.25
endloop
endfacet
facet normal -1.0 0.0 0.0
outer loop
vertex -44.0 16.0 0.0
vertex -44.0 -15.0 1.25
vertex -44.0 -5.0 1.25
endloop
endfacet
facet normal -1.0 -0.0 -0.0
outer loop
vertex -44.0 5.0 1.25
vertex -44.0 16.0 0.0
vertex -44.0 -5.0 1.25
endloop
endfacet
facet normal -1.0 0.0 0.0
outer loop
vertex -44.0 -5.0 4.75
vertex -44.0 -15.0 4.75
vertex -44.0 -16.0 6.0
endloop
endfacet
facet normal -1.0 0.0 0.0
outer loop
vertex -44.0 5.0 1.25
vertex -44.0 -5.0 1.25
vertex -44.0 -5.0 4.75
endloop
endfacet
facet normal -1.0 -0.0 0.0
outer loop
vertex -44.0 16.0 6.0
vertex -44.0 15.0 4.75
vertex -44.0 5.0 4.75
endloop
endfacet
facet normal -1.0 -0.0 -0.0
outer loop
vertex -44.0 5.0 4.75
vertex -44.0 5.0 1.25
vertex -44.0 -5.0 4.75
endloop
endfacet
facet normal -1.0 0.0 0.0
outer loop
vertex -44.0 -5.0 4.75
vertex -44.0 -16.0 6.0
vertex -44.0 16.0 6.0
endloop
endfacet
facet normal -1.0 0.0 -0.0
outer loop
vertex -44.0 -5.0 4.75
vertex -44.0 16.0 6.0
vertex -44.0 5.0 4.75
endloop
endfacet
facet normal 0.0 1.0 0.0
outer loop
vertex -44.0 16.0 0.0
vertex -44.0 16.0 6.0
vertex 44.0 16.0 6.0
endloop
endfacet
facet normal -0.0 1.0 0.0
outer loop
vertex -44.0 16.0 0.0
vertex 44.0 16.0 6.0
vertex 44.0 16.0 0.0
endloop
endfacet
facet normal 1.0 0.0 0.0
outer loop
vertex 44.0 -15.0 4.75
vertex 44.0 -16.0 6.0
vertex 44.0 -16.0 0.0
endloop
endfacet
facet normal 1.0 -0.0 0.0
outer loop
vertex 44.0 -15.0 4.75
vertex 44.0 -16.0 0.0
vertex 44.0 -15.0 1.25
endloop
endfacet
facet normal 1.0 -0.0 0.0
outer loop
vertex 44.0 15.0 1.25
vertex 44.0 16.0 0.0
vertex 44.0 16.0 6.0
endloop
endfacet
facet normal 1.0 0.0 -0.0
outer loop
vertex 44.0 15.0 1.25
vertex 44.0 16.0 6.0
vertex 44.0 15.0 4.75
endloop
endfacet
facet normal 1.0 0.0 0.0
outer loop
vertex 44.0 5.0 4.75
vertex 44.0 15.0 4.75
vertex 44.0 16.0 6.0
endloop
endfacet
facet normal 1.0 0.0 0.0
outer loop
vertex 44.0 16.0 6.0
vertex 44.0 -16.0 6.0
vertex 44.0 -15.0 4.75
endloop
endfacet
facet normal 1.0 -0.0 0.0
outer loop
vertex 44.0 16.0 6.0
vertex 44.0 -15.0 4.75
vertex 44.0 -5.0 4.75
endloop
endfacet
facet normal 1.0 0.0 -0.0
outer loop
vertex 44.0 5.0 4.75
vertex 44.0 16.0 6.0
vertex 44.0 -5.0 4.75
endloop
endfacet
facet normal 1.0 0.0 0.0
outer loop
vertex 44.0 -5.0 1.25
vertex 44.0 -15.0 1.25
vertex 44.0 -16.0 0.0
endloop
endfacet
facet normal 1.0 0.0 0.0
outer loop
vertex 44.0 5.0 4.75
vertex 44.0 -5.0 4.75
vertex 44.0 -5.0 1.25
endloop
endfacet
facet normal 1.0 0.0 0.0
outer loop
vertex 44.0 16.0 0.0
vertex 44.0 15.0 1.25
vertex 44.0 5.0 1.25
endloop
endfacet
facet normal 1.0 0.0 -0.0
outer loop
vertex 44.0 5.0 1.25
vertex 44.0 5.0 4.75
vertex 44.0 -5.0 1.25
endloop
endfacet
facet normal 1.0 -0.0 0.0
outer loop
vertex 44.0 -5.0 1.25
vertex 44.0 -16.0 0.0
vertex 44.0 16.0 0.0
endloop
endfacet
facet normal 1.0 -0.0 -0.0
outer loop
vertex 44.0 -5.0 1.25
vertex 44.0 16.0 0.0
vertex 44.0 5.0 1.25
endloop
endfacet
facet normal -0.0 -0.9999999999999999 -0.0
outer loop
vertex 21.842052459716797 -16.0 2.5250015258789062
vertex -37.0 -16.0 2.5250015258789062
vertex -37.0 -16.0 1.7249984741210938
endloop
endfacet
facet normal 0.0 -1.0 0.0
outer loop
vertex -37.0 -16.0 1.7249984741210938
vertex 37.0 -16.0 1.7249984741210938
vertex 37.0 -16.0 2.5250015258789062
endloop
endfacet
facet normal 0.0 -1.0 -0.0
outer loop
vertex 21.842052459716797 -16.0 2.5250015258789062
vertex -37.0 -16.0 1.7249984741210938
vertex 37.0 -16.0 2.5250015258789062
endloop
endfacet
facet normal -0.0 -1.0 -0.0
outer loop
vertex -11.31583023071289 -16.0 4.275001525878906
vertex -37.0 -16.0 4.275001525878906
vertex -37.0 -16.0 3.4749984741210938
endloop
endfacet
facet normal 0.0 -1.0 0.0
outer loop
vertex 3.8421170711517334 -16.0 3.4749984741210938
vertex 37.0 -16.0 3.4749984741210938
vertex 37.0 -16.0 4.275001525878906
endloop
endfacet
facet normal 0.0 -1.0 -0.0
outer loop
vertex -11.31583023071289 -16.0 4.275001525878906
vertex -37.0 -16.0 3.4749984741210938
vertex 3.8421170711517334 -16.0 3.4749984741210938
endloop
endfacet
facet normal 0.0 -1.0 0.0
outer loop
vertex 3.8421170711517334 -16.0 3.4749984741210938
vertex 37.0 -16.0 4.275001525878906
vertex 16.565446853637695 -16.0 4.275001525878906
endloop
endfacet
facet normal 0.0 -1.0 0.0
outer loop
vertex -11.31583023071289 -16.0 4.275001525878906
vertex 3.8421170711517334 -16.0 3.4749984741210938
vertex 16.565446853637695 -16.0 4.275001525878906
endloop
endfacet
facet normal 0.0 -1.0 0.0
outer loop
vertex -44.0 -16.0 6.0
vertex -44.0 -16.0 0.0
vertex -37.0 -16.0 0.9749984741210938
endloop
endfacet
facet normal 0.0 -1.0 0.0
outer loop
vertex -44.0 -16.0 6.0
vertex -37.0 -16.0 0.9749984741210938
vertex -37.0 -16.0 1.7249984741210938
endloop
endfacet
facet normal 0.0 -1.0 0.0
outer loop
vertex 37.0 -16.0 0.9749984741210938
vertex 44.0 -16.0 0.0
vertex 44.0 -16.0 6.0
endloop
endfacet
facet normal 0.0 -1.0 0.0
outer loop
vertex 37.0 -16.0 1.7249984741210938
vertex 37.0 -16.0 0.9749984741210938
vertex 44.0 -16.0 6.0
endloop
endfacet
facet normal 0.0 -1.0 0.0
outer loop
vertex -44.0 -16.0 6.0
vertex -37.0 -16.0 1.7249984741210938
vertex -37.0 -16.0 2.5250015258789062
endloop
endfacet
facet normal 0.0 -1.0 0.0
outer loop
vertex -44.0 -16.0 6.0
vertex -37.0 -16.0 2.5250015258789062
vertex -37.0 -16.0 3.4749984741210938
endloop
endfacet
facet normal 0.0 -1.0 0.0
outer loop
vertex 37.0 -16.0 2.5250015258789062
vertex 37.0 -16.0 1.7249984741210938
vertex 44.0 -16.0 6.0
endloop
endfacet
facet normal 0.0 -1.0 0.0
outer loop
vertex 37.0 -16.0 3.4749984741210938
vertex 37.0 -16.0 2.5250015258789062
vertex 44.0 -16.0 6.0
endloop
endfacet
facet normal 0.0 -1.0 0.0
outer loop
vertex -44.0 -16.0 6.0
vertex -37.0 -16.0 3.4749984741210938
vertex -37.0 -16.0 4.275001525878906
endloop
endfacet
facet normal 0.0 -1.0 0.0
outer loop
vertex -44.0 -16.0 6.0
vertex -37.0 -16.0 4.275001525878906
vertex -37.0 -16.0 5.025001525878906
endloop
endfacet
facet normal 0.0 -1.0 0.0
outer loop
vertex 37.0 -16.0 4.275001525878906
vertex 37.0 -16.0 3.4749984741210938
vertex 44.0 -16.0 6.0
endloop
endfacet
facet normal 0.0 -1.0 0.0
outer loop
vertex 37.0 -16.0 5.025001525878906
vertex 37.0 -16.0 4.275001525878906
vertex 44.0 -16.0 6.0
endloop
endfacet
facet normal -0.0 -1.0 -0.0
outer loop
vertex 44.0 -16.0 6.0
vertex -44.0 -16.0 6.0
vertex -37.0 -16.0 5.025001525878906
endloop
endfacet
facet normal 0.0 -1.0 -0.0
outer loop
vertex 44.0 -16.0 6.0
vertex -37.0 -16.0 5.025001525878906
vertex -25.526351928710938 -16.0 5.025001525878906
endloop
endfacet
facet normal 0.0 -0.9999999999999999 0.0
outer loop
vertex 28.4935245513916 -16.0 5.025001525878906
vertex 37.0 -16.0 5.025001525878906
vertex 44.0 -16.0 6.0
endloop
endfacet
facet normal 0.0 -1.0 0.0
outer loop
vertex -25.526351928710938 -16.0 5.025001525878906
vertex 28.4935245513916 -16.0 5.025001525878906
vertex 44.0 -16.0 6.0
endloop
endfacet
facet normal -0.0 -1.0 -0.0
outer loop
vertex -25.526351928710938 -16.0 5.025001525878906
vertex -37.0 -16.0 5.025001525878906
vertex -37.0 -16.0 4.275001525878906
endloop
endfacet
facet normal 0.0 -1.0 -0.0
outer loop
vertex -25.526351928710938 -16.0 5.025001525878906
vertex -37.0 -16.0 4.275001525878906
vertex -11.31583023071289 -16.0 4.275001525878906
endloop
endfacet
facet normal 0.0 -1.0 0.0
outer loop
vertex 16.565446853637695 -16.0 4.275001525878906
vertex 37.0 -16.0 4.275001525878906
vertex 37.0 -16.0 5.025001525878906
endloop
endfacet
facet normal 0.0 -1.0 0.0
outer loop
vertex 16.565446853637695 -16.0 4.275001525878906
vertex 37.0 -16.0 5.025001525878906
vertex 28.4935245513916 -16.0 5.025001525878906
endloop
endfacet
facet normal 0.0 -1.0 0.0
outer loop
vertex -11.31583023071289 -16.0 4.275001525878906
vertex 16.565446853637695 -16.0 4.275001525878906
vertex 28.4935245513916 -16.0 5.025001525878906
endloop
endfacet
facet normal 0.0 -1.0 0.0
outer loop
vertex -11.31583023071289 -16.0 4.275001525878906
vertex 28.4935245513916 -16.0 5.025001525878906
vertex -25.526351928710938 -16.0 5.025001525878906
endloop
endfacet
facet normal -0.0 -0.9999999999999999 -0.0
outer loop
vertex 3.8421170711517334 -16.0 3.4749984741210938
vertex -37.0 -16.0 3.4749984741210938
vertex -37.0 -16.0 2.5250015258789062
endloop
endfacet
facet normal 0.0 -0.9999999999999999 -0.0
outer loop
vertex 3.8421170711517334 -16.0 3.4749984741210938
vertex -37.0 -16.0 2.5250015258789062
vertex 21.842052459716797 -16.0 2.5250015258789062
endloop
endfacet
facet normal 0.0 -1.0 0.0
outer loop
vertex 21.842052459716797 -16.0 2.5250015258789062
vertex 37.0 -16.0 2.5250015258789062
vertex 37.0 -16.0 3.4749984741210938
endloop
endfacet
facet normal 0.0 -1.0 0.0
outer loop
vertex 21.842052459716797 -16.0 2.5250015258789062
vertex 37.0 -16.0 3.4749984741210938
vertex 3.8421170711517334 -16.0 3.4749984741210938
endloop
endfacet
facet normal -0.0 -1.0 0.0
outer loop
vertex 29.700021743774414 -16.0 0.9749984741210938
vertex -37.0 -16.0 0.9749984741210938
vertex -44.0 -16.0 0.0
endloop
endfacet
facet normal 0.0 -1.0 0.0
outer loop
vertex -44.0 -16.0 0.0
vertex 44.0 -16.0 0.0
vertex 37.0 -16.0 0.9749984741210938
endloop
endfacet
facet normal 0.0 -1.0 -0.0
outer loop
vertex 29.700021743774414 -16.0 0.9749984741210938
vertex -44.0 -16.0 0.0
vertex 37.0 -16.0 0.9749984741210938
endloop
endfacet
facet normal 0.0 -1.0 0.0
outer loop
vertex 29.700021743774414 -16.0 0.9749984741210938
vertex 37.0 -16.0 0.9749984741210938
vertex 28.42542266845703 -16.0 1.0619049072265625
endloop
endfacet
facet normal 0.0 -1.0 0.0
outer loop
vertex 28.42542266845703 -16.0 1.0619049072265625
vertex 37.0 -16.0 0.9749984741210938
vertex 37.0 -16.0 1.7249984741210938
endloop
endfacet
facet normal -0.0 -1.0 -0.0
outer loop
vertex 37.0 -16.0 1.7249984741210938
vertex -37.0 -16.0 1.7249984741210938
vertex -37.0 -16.0 0.9749984741210938
endloop
endfacet
facet normal 0.0 -1.0 0.0
outer loop
vertex -37.0 -16.0 0.9749984741210938
vertex 29.700021743774414 -16.0 0.9749984741210938
vertex 28.42542266845703 -16.0 1.0619049072265625
endloop
endfacet
facet normal -0.0 -1.0 0.0
outer loop
vertex 28.42542266845703 -16.0 1.0619049072265625
vertex 37.0 -16.0 1.7249984741210938
vertex -37.0 -16.0 0.9749984741210938
endloop
endfacet
facet normal 0.0 0.0 -1.0
outer loop
vertex -44.0 16.0 0.0
vertex 44.0 16.0 0.0
vertex 44.0 -16.0 0.0
endloop
endfacet
facet normal -0.0 -0.0 -1.0
outer loop
vertex -44.0 16.0 0.0
vertex 44.0 -16.0 0.0
vertex -44.0 -16.0 0.0
endloop
endfacet
facet normal 0.0 0.0 1.0
outer loop
vertex -32.381248474121094 -11.774999618530273 6.0
vertex -37.0 -11.774999618530273 6.0
vertex -44.0 -16.0 6.0
endloop
endfacet
facet normal 0.0 -0.0 1.0
outer loop
vertex -44.0 -16.0 6.0
vertex 44.0 -16.0 6.0
vertex 37.0 -11.774999618530273 6.0
endloop
endfacet
facet normal -0.0 0.0 1.0
outer loop
vertex -32.381248474121094 -11.774999618530273 6.0
vertex -44.0 -16.0 6.0
vertex 37.0 -11.774999618530273 6.0
endloop
endfacet
facet normal -0.0 0.0 1.0
outer loop
vertex -44.0 16.0 6.0
vertex -44.0 -16.0 6.0
vertex -37.0 -11.774999618530273 6.0
endloop
endfacet
facet normal -0.0 0.0 1.0
outer loop
vertex -44.0 16.0 6.0
vertex -37.0 -11.774999618530273 6.0
vertex -37.0 -10.625 6.0
endloop
endfacet
facet normal -0.0 0.0 1.0
outer loop
vertex 37.0 -11.774999618530273 6.0
vertex 44.0 -16.0 6.0
vertex 44.0 16.0 6.0
endloop
endfacet
facet normal -0.0 0.0 1.0
outer loop
vertex 37.0 -10.625 6.0
vertex 37.0 -11.774999618530273 6.0
vertex 44.0 16.0 6.0
endloop
endfacet
facet normal -0.0 0.0 1.0
outer loop
vertex -44.0 16.0 6.0
vertex -37.0 -10.625 6.0
vertex -37.0 -4.425000190734863 6.0
endloop
endfacet
facet normal -0.0 0.0 1.0
outer loop
vertex -44.0 16.0 6.0
vertex -37.0 -4.425000190734863 6.0
vertex -37.0 -3.575000047683716 6.0
endloop
endfacet
facet normal -0.0 0.0 1.0
outer loop
vertex 37.0 -4.425000190734863 6.0
vertex 37.0 -10.625 6.0
vertex 44.0 16.0 6.0
endloop
endfacet
facet normal -0.0 0.0 1.0
outer loop
vertex 37.0 -3.575000047683716 6.0
vertex 37.0 -4.425000190734863 6.0
vertex 44.0 16.0 6.0
endloop
endfacet
facet normal -0.0 0.0 1.0
outer loop
vertex -44.0 16.0 6.0
vertex -37.0 -3.575000047683716 6.0
vertex -37.0 3.674999713897705 6.0
endloop
endfacet
facet normal -0.0 0.0 1.0
outer loop
vertex -44.0 16.0 6.0
vertex -37.0 3.674999713897705 6.0
vertex -37.0 4.724999904632568 6.0
endloop
endfacet
facet normal -0.0 0.0 1.0
outer loop
vertex 37.0 3.674999713897705 6.0
vertex 37.0 -3.575000047683716 6.0
vertex 44.0 16.0 6.0
endloop
endfacet
facet normal -0.0 0.0 1.0
outer loop
vertex 37.0 4.724999904632568 6.0
vertex 37.0 3.674999713897705 6.0
vertex 44.0 16.0 6.0
endloop
endfacet
facet normal -0.0 0.0 1.0
outer loop
vertex -44.0 16.0 6.0
vertex -37.0 4.724999904632568 6.0
vertex -37.0 10.65000057220459 6.0
endloop
endfacet
facet normal -0.0 0.0 1.0
outer loop
vertex -44.0 16.0 6.0
vertex -37.0 10.65000057220459 6.0
vertex -37.0 11.550000190734863 6.0
endloop
endfacet
facet normal -0.0 0.0 1.0
outer loop
vertex 37.0 10.65000057220459 6.0
vertex 37.0 4.724999904632568 6.0
vertex 44.0 16.0 6.0
endloop
endfacet
facet normal -0.0 0.0 1.0
outer loop
vertex 37.0 11.550000190734863 6.0
vertex 37.0 10.65000057220459 6.0
vertex 44.0 16.0 6.0
endloop
endfacet
facet normal 0.0 0.0 1.0
outer loop
vertex 44.0 16.0 6.0
vertex -44.0 16.0 6.0
vertex -37.0 11.550000190734863 6.0
endloop
endfacet
facet normal -0.0 0.0 1.0
outer loop
vertex 44.0 16.0 6.0
vertex -37.0 11.550000190734863 6.0
vertex 12.031044006347656 11.550000190734863 6.0
endloop
endfacet
facet normal 0.0 0.0 1.0
outer loop
vertex 31.762500762939453 11.550000190734863 6.0
vertex 37.0 11.550000190734863 6.0
vertex 44.0 16.0 6.0
endloop
endfacet
facet normal -0.0 0.0 0.9999999999999999
outer loop
vertex 44.0 16.0 6.0
vertex 12.031044006347656 11.550000190734863 6.0
vertex 25.58620834350586 11.550000190734863 6.0
endloop
endfacet
facet normal 0.0 0.0 1.0
outer loop
vertex 25.58620834350586 11.550000190734863 6.0
vertex 31.762500762939453 11.550000190734863 6.0
vertex 44.0 16.0 6.0
endloop
endfacet
facet normal 0.0 0.0 0.9999999999999999
outer loop
vertex 5.5654144287109375 10.65000057220459 6.0
vertex -37.0 10.65000057220459 6.0
vertex -37.0 4.724999904632568 6.0
endloop
endfacet
facet normal -0.0 0.0 1.0
outer loop
vertex 5.5654144287109375 10.65000057220459 6.0
vertex -37.0 4.724999904632568 6.0
vertex -2.65517258644104 4.724999904632568 6.0
endloop
endfacet
facet normal 0.0 0.0 1.0
outer loop
vertex 21.862071990966797 10.65000057220459 6.0
vertex 5.5654144287109375 10.65000057220459 6.0
vertex -2.65517258644104 4.724999904632568 6.0
endloop
endfacet
facet normal 0.0 0.0 1.0
outer loop
vertex 12.993749618530273 4.724999904632568 6.0
vertex 37.0 4.724999904632568 6.0
vertex 37.0 10.65000057220459 6.0
endloop
endfacet
facet normal -0.0 0.0 1.0
outer loop
vertex 21.862071990966797 10.65000057220459 6.0
vertex -2.65517258644104 4.724999904632568 6.0
vertex 12.993749618530273 4.724999904632568 6.0
endloop
endfacet
facet normal 0.0 -0.0 1.0
outer loop
vertex 12.993749618530273 4.724999904632568 6.0
vertex 37.0 10.65000057220459 6.0
vertex 29.28750228881836 10.65000057220459 6.0
endloop
endfacet
facet normal 0.0 -0.0 0.9999999999999999
outer loop
vertex 12.993749618530273 4.724999904632568 6.0
vertex 29.28750228881836 10.65000057220459 6.0
vertex 21.862071990966797 10.65000057220459 6.0
endloop
endfacet
facet normal 0.0 -0.0 1.0
outer loop
vertex 37.0 10.65000057220459 6.0
vertex 37.0 11.550000190734863 6.0
vertex 31.762500762939453 11.550000190734863 6.0
endloop
endfacet
facet normal 0.0 0.0 0.9999999999999999
outer loop
vertex 37.0 10.65000057220459 6.0
vertex 31.762500762939453 11.550000190734863 6.0
vertex 29.28750228881836 10.65000057220459 6.0
endloop
endfacet
facet normal -0.0 0.0 1.0
outer loop
vertex -37.0 11.550000190734863 6.0
vertex -37.0 10.65000057220459 6.0
vertex 5.5654144287109375 10.65000057220459 6.0
endloop
endfacet
facet normal -0.0 0.0 1.0
outer loop
vertex -37.0 11.550000190734863 6.0
vertex 5.5654144287109375 10.65000057220459 6.0
vertex 12.031044006347656 11.550000190734863 6.0
endloop
endfacet
facet normal 0.0 0.0 1.0
outer loop
vertex 31.762500762939453 11.550000190734863 6.0
vertex 25.58620834350586 11.550000190734863 6.0
vertex 21.862071990966797 10.65000057220459 6.0
endloop
endfacet
facet normal -0.0 0.0 1.0
outer loop
vertex 31.762500762939453 11.550000190734863 6.0
vertex 21.862071990966797 10.65000057220459 6.0
vertex 29.28750228881836 10.65000057220459 6.0
endloop
endfacet
facet normal 0.0 0.0 1.0
outer loop
vertex 5.5654144287109375 10.65000057220459 6.0
vertex 21.862071990966797 10.65000057220459 6.0
vertex 25.58620834350586 11.550000190734863 6.0
endloop
endfacet
facet normal 0.0 -0.0 1.0
outer loop
vertex 5.5654144287109375 10.65000057220459 6.0
vertex 25.58620834350586 11.550000190734863 6.0
vertex 12.031044006347656 11.550000190734863 6.0
endloop
endfacet
facet normal 0.0 0.0 0.9999999999999999
outer loop
vertex -7.000000953674316 3.674999713897705 6.0
vertex -37.0 3.674999713897705 6.0
vertex -37.0 -3.575000047683716 6.0
endloop
endfacet
facet normal -0.0 0.0 1.0
outer loop
vertex -7.000000953674316 3.674999713897705 6.0
vertex -37.0 -3.575000047683716 6.0
vertex -33.132659912109375 -3.575000047683716 6.0
endloop
endfacet
facet normal 0.0 0.0 1.0
outer loop
vertex -4.565009117126465 3.674999713897705 6.0
vertex -7.000000953674316 3.674999713897705 6.0
vertex -33.132659912109375 -3.575000047683716 6.0
endloop
endfacet
facet normal 0.0 0.0 1.0
outer loop
vertex -9.831250190734863 -3.575000047683716 6.0
vertex 37.0 -3.575000047683716 6.0
vertex 37.0 3.674999713897705 6.0
endloop
endfacet
facet normal -0.0 0.0 1.0
outer loop
vertex -4.565009117126465 3.674999713897705 6.0
vertex -33.132659912109375 -3.575000047683716 6.0
vertex -9.831250190734863 -3.575000047683716 6.0
endloop
endfacet
facet normal 0.0 -0.0 1.0
outer loop
vertex -9.831250190734863 -3.575000047683716 6.0
vertex 37.0 3.674999713897705 6.0
vertex 10.10624885559082 3.674999713897705 6.0
endloop
endfacet
facet normal 0.0 -0.0 1.0
outer loop
vertex -9.831250190734863 -3.575000047683716 6.0
vertex 10.10624885559082 3.674999713897705 6.0
vertex -4.565009117126465 3.674999713897705 6.0
endloop
endfacet
facet normal 0.0 -0.0 1.0
outer loop
vertex 37.0 3.674999713897705 6.0
vertex 37.0 4.724999904632568 6.0
vertex 12.993749618530273 4.724999904632568 6.0
endloop
endfacet
facet normal 0.0 0.0 1.0
outer loop
vertex 37.0 3.674999713897705 6.0
vertex 12.993749618530273 4.724999904632568 6.0
vertex 10.10624885559082 3.674999713897705 6.0
endloop
endfacet
facet normal -0.0 0.0 0.9999999999999999
outer loop
vertex -2.644152879714966 4.162481307983398 6.0
vertex -4.565009117126465 3.674999713897705 6.0
vertex 10.10624885559082 3.674999713897705 6.0
endloop
endfacet
facet normal 0.0 -0.0 1.0
outer loop
vertex 10.10624885559082 3.674999713897705 6.0
vertex 12.993749618530273 4.724999904632568 6.0
vertex -2.65517258644104 4.724999904632568 6.0
endloop
endfacet
facet normal -0.0 -0.0 1.0
outer loop
vertex -2.644152879714966 4.162481307983398 6.0
vertex 10.10624885559082 3.674999713897705 6.0
vertex -2.65517258644104 4.724999904632568 6.0
endloop
endfacet
facet normal 0.0 -0.0 1.0
outer loop
vertex -7.000000953674316 3.674999713897705 6.0
vertex -4.565009117126465 3.674999713897705 6.0
vertex -5.128713607788086 4.127227306365967 6.0
endloop
endfacet
facet normal -0.0 0.0 1.0
outer loop
vertex -5.128713607788086 4.127227306365967 6.0
vertex -4.565009117126465 3.674999713897705 6.0
vertex -2.644152879714966 4.162481307983398 6.0
endloop
endfacet
facet normal 0.0 0.0 1.0
outer loop
vertex -2.644152879714966 4.162481307983398 6.0
vertex -2.65517258644104 4.724999904632568 6.0
vertex -37.0 4.724999904632568 6.0
endloop
endfacet
facet normal -0.0 0.0 1.0
outer loop
vertex -37.0 4.724999904632568 6.0
vertex -37.0 3.674999713897705 6.0
vertex -7.000000953674316 3.674999713897705 6.0
endloop
endfacet
facet normal 0.0 -0.0 1.0
outer loop
vertex -5.128713607788086 4.127227306365967 6.0
vertex -2.644152879714966 4.162481307983398 6.0
vertex -37.0 4.724999904632568 6.0
endloop
endfacet
facet normal -0.0 0.0 1.0
outer loop
vertex -37.0 4.724999904632568 6.0
vertex -7.000000953674316 3.674999713897705 6.0
vertex -5.128713607788086 4.127227306365967 6.0
endloop
endfacet
facet normal 0.0 0.0 1.0
outer loop
vertex -32.660770416259766 -4.425000190734863 6.0
vertex -37.0 -4.425000190734863 6.0
vertex -37.0 -10.625 6.0
endloop
endfacet
facet normal 0.0 0.0 0.9999999999999999
outer loop
vertex -29.21875 -10.625 6.0
vertex 37.0 -10.625 6.0
vertex 37.0 -4.425000190734863 6.0
endloop
endfacet
facet normal -0.0 0.0 1.0
outer loop
vertex -32.660770416259766 -4.425000190734863 6.0
vertex -37.0 -10.625 6.0
vertex -29.21875 -10.625 6.0
endloop
endfacet
facet normal 0.0 -0.0 0.9999999999999999
outer loop
vertex -29.21875 -10.625 6.0
vertex 37.0 -4.425000190734863 6.0
vertex -12.168750762939453 -4.425000190734863 6.0
endloop
endfacet
facet normal -0.0 0.0 1.0
outer loop
vertex -32.660770416259766 -4.425000190734863 6.0
vertex -29.21875 -10.625 6.0
vertex -12.168750762939453 -4.425000190734863 6.0
endloop
endfacet
facet normal -0.0 0.0 1.0
outer loop
vertex -37.0 -3.575000047683716 6.0
vertex -37.0 -4.425000190734863 6.0
vertex -32.660770416259766 -4.425000190734863 6.0
endloop
endfacet
facet normal -0.0 -0.0 1.0
outer loop
vertex -37.0 -3.575000047683716 6.0
vertex -32.660770416259766 -4.425000190734863 6.0
vertex -33.132659912109375 -3.575000047683716 6.0
endloop
endfacet
facet normal 0.0 -0.0 1.0
outer loop
vertex 37.0 -4.425000190734863 6.0
vertex 37.0 -3.575000047683716 6.0
vertex -9.831250190734863 -3.575000047683716 6.0
endloop
endfacet
facet normal 0.0 0.0 1.0
outer loop
vertex 37.0 -4.425000190734863 6.0
vertex -9.831250190734863 -3.575000047683716 6.0
vertex -12.168750762939453 -4.425000190734863 6.0
endloop
endfacet
facet normal 0.0 0.0 1.0
outer loop
vertex -32.660770416259766 -4.425000190734863 6.0
vertex -12.168750762939453 -4.425000190734863 6.0
vertex -9.831250190734863 -3.575000047683716 6.0
endloop
endfacet
facet normal 0.0 -0.0 1.0
outer loop
vertex -32.660770416259766 -4.425000190734863 6.0
vertex -9.831250190734863 -3.575000047683716 6.0
vertex -33.132659912109375 -3.575000047683716 6.0
endloop
endfacet
facet normal 0.0 0.0 1.0
outer loop
vertex -29.21875 -10.625 6.0
vertex -37.0 -10.625 6.0
vertex -37.0 -11.774999618530273 6.0
endloop
endfacet
facet normal -0.0 0.0 1.0
outer loop
vertex -29.21875 -10.625 6.0
vertex -37.0 -11.774999618530273 6.0
vertex -32.381248474121094 -11.774999618530273 6.0
endloop
endfacet
facet normal 0.0 0.0 1.0
outer loop
vertex -32.381248474121094 -11.774999618530273 6.0
vertex 37.0 -11.774999618530273 6.0
vertex 37.0 -10.625 6.0
endloop
endfacet
facet normal 0.0 -0.0 1.0
outer loop
vertex -32.381248474121094 -11.774999618530273 6.0
vertex 37.0 -10.625 6.0
vertex -29.21875 -10.625 6.0
endloop
endfacet
facet normal 0.0 -1.0 0.0
outer loop
vertex -47.650001525878906 -15.0 4.75
vertex -47.650001525878906 -15.0 1.25
vertex -44.0 -15.0 1.25
endloop
endfacet
facet normal 0.0 -1.0 0.0
outer loop
vertex -47.650001525878906 -15.0 4.75
vertex -44.0 -15.0 1.25
vertex -44.0 -15.0 4.75
endloop
endfacet
facet normal 0.0 0.0 -1.0
outer loop
vertex -47.650001525878906 -15.0 1.25
vertex -47.65000534057617 -14.999996185302734 1.25
vertex -47.65000534057617 -5.000002861022949 1.25
endloop
endfacet
facet normal 0.0 0.0 -1.0
outer loop
vertex -47.65000534057617 -5.000002861022949 1.25
vertex -47.650001525878906 -5.0 1.25
vertex -44.0 -5.0 1.25
endloop
endfacet
facet normal -0.0 -0.0 -1.0
outer loop
vertex -44.0 -5.0 1.25
vertex -44.0 -15.0 1.25
vertex -47.650001525878906 -15.0 1.25
endloop
endfacet
facet normal 0.0 -0.0 -1.0
outer loop
vertex -47.65000534057617 -5.000002861022949 1.25
vertex -44.0 -5.0 1.25
vertex -47.650001525878906 -15.0 1.25
endloop
endfacet
facet normal 0.0 1.0 -0.0
outer loop
vertex -44.0 -5.0 1.25
vertex -47.650001525878906 -5.0 1.25
vertex -47.650001525878906 -5.0 4.75
endloop
endfacet
facet normal 0.0 1.0 -0.0
outer loop
vertex -44.0 -5.0 1.25
vertex -47.650001525878906 -5.0 4.75
vertex -44.0 -5.0 4.75
endloop
endfacet
facet normal 0.0 -0.0 1.0
outer loop
vertex -44.0 -15.0 4.75
vertex -44.0 -5.0 4.75
vertex -47.650001525878906 -5.0 4.75
endloop
endfacet
facet normal 0.0 0.0 1.0
outer loop
vertex -47.650001525878906 -5.0 4.75
vertex -47.65000915527344 -5.000006675720215 4.75
vertex -47.65000915527344 -14.999993324279785 4.75
endloop
endfacet
facet normal -0.0 0.0 1.0
outer loop
vertex -47.65000915527344 -14.999993324279785 4.75
vertex -47.650001525878906 -15.0 4.75
vertex -44.0 -15.0 4.75
endloop
endfacet
facet normal 0.0 0.0 1.0
outer loop
vertex -47.650001525878906 -5.0 4.75
vertex -47.65000915527344 -14.999993324279785 4.75
vertex -44.0 -15.0 4.75
endloop
endfacet
facet normal -1.0 0.0 -0.0
outer loop
vertex -48.0 -14.650001525878906 4.4000091552734375
vertex -48.0 -5.349997520446777 4.4000091552734375
vertex -48.0 -5.349998474121094 1.5999984741210938
endloop
endfacet
facet normal -1.0 0.0 -0.0
outer loop
vertex -48.0 -14.650001525878906 4.4000091552734375
vertex -48.0 -5.349998474121094 1.5999984741210938
vertex -48.0 -14.650001525878906 1.5999908447265625
endloop
endfacet
facet normal -0.7071067811865476 -0.7071067811865476 0.0
outer loop
vertex -48.0 -14.650001525878906 1.5999908447265625
vertex -47.65000534057617 -14.999996185302734 1.25
vertex -47.650001525878906 -15.0 1.25
endloop
endfacet
facet normal -0.658504607868518 -0.7525766947068778 0.0
outer loop
vertex -47.650001525878906 -15.0 1.25
vertex -47.650001525878906 -15.0 4.75
vertex -47.65000915527344 -14.999993324279785 4.75
endloop
endfacet
facet normal -0.7071077445663162 -0.7071058178054663 -0.0
outer loop
vertex -47.65000915527344 -14.999993324279785 4.75
vertex -48.0 -14.650001525878906 4.4000091552734375
vertex -48.0 -14.650001525878906 1.5999908447265625
endloop
endfacet
facet normal -0.7071068775202785 -0.7071066848527772 -1.9267170121132643e-07
outer loop
vertex -47.650001525878906 -15.0 1.25
vertex -47.65000915527344 -14.999993324279785 4.75
vertex -48.0 -14.650001525878906 1.5999908447265625
endloop
endfacet
facet normal -0.6556100681071857 0.7492686492653551 -0.09365858115816939
outer loop
vertex -48.0 -5.349997520446777 4.4000091552734375
vertex -47.65000915527344 -5.000006675720215 4.75
vertex -47.650001525878906 -5.0 4.75
endloop
endfacet
facet normal -0.7071056974068151 0.7071078649645777 -2.4083858475427233e-07
outer loop
vertex -48.0 -5.349998474121094 1.5999984741210938
vertex -48.0 -5.349997520446777 4.4000091552734375
vertex -47.650001525878906 -5.0 4.75
endloop
endfacet
facet normal -0.6 0.7999999999999999 0.0
outer loop
vertex -47.650001525878906 -5.0 4.75
vertex -47.650001525878906 -5.0 1.25
vertex -47.65000534057617 -5.000002861022949 1.25
endloop
endfacet
facet normal -0.7071076482185281 0.7071059141534773 1.9267296121152621e-07
outer loop
vertex -47.650001525878906 -5.0 4.75
vertex -47.65000534057617 -5.000002861022949 1.25
vertex -48.0 -5.349998474121094 1.5999984741210938
endloop
endfacet
facet normal -0.7071067811865476 0.0 0.7071067811865476
outer loop
vertex -47.65000915527344 -14.999993324279785 4.75
vertex -47.65000915527344 -5.000006675720215 4.75
vertex -48.0 -5.349997520446777 4.4000091552734375
endloop
endfacet
facet normal -0.7071067811865476 0.0 0.7071067811865476
outer loop
vertex -47.65000915527344 -14.999993324279785 4.75
vertex -48.0 -5.349997520446777 4.4000091552734375
vertex -48.0 -14.650001525878906 4.4000091552734375
endloop
endfacet
facet normal -0.7071026376223254 5.80088865785254e-07 -0.707110924726251
outer loop
vertex -47.65000534057617 -14.999996185302734 1.25
vertex -48.0 -14.650001525878906 1.5999908447265625
vertex -48.0 -5.349998474121094 1.5999984741210938
endloop
endfacet
facet normal -0.7071106346399966 0.0 -0.7071029277120985
outer loop
vertex -47.65000534057617 -14.999996185302734 1.25
vertex -48.0 -5.349998474121094 1.5999984741210938
vertex -47.65000534057617 -5.000002861022949 1.25
endloop
endfacet
facet normal 0.0 -1.0 0.0
outer loop
vertex -47.650001525878906 5.0 4.75
vertex -47.650001525878906 5.0 1.25
vertex -44.0 5.0 1.25
endloop
endfacet
facet normal 0.0 -1.0 0.0
outer loop
vertex -47.650001525878906 5.0 4.75
vertex -44.0 5.0 1.25
vertex -44.0 5.0 4.75
endloop
endfacet
facet normal 0.0 0.0 -1.0
outer loop
vertex -47.650001525878906 5.0 1.25
vertex -47.65000534057617 5.000003814697266 1.25
vertex -47.65000534057617 14.99999713897705 1.25
endloop
endfacet
facet normal 0.0 0.0 -1.0
outer loop
vertex -47.65000534057617 14.99999713897705 1.25
vertex -47.650001525878906 15.0 1.25
vertex -44.0 15.0 1.25
endloop
endfacet
facet normal -0.0 -0.0 -1.0
outer loop
vertex -44.0 15.0 1.25
vertex -44.0 5.0 1.25
vertex -47.650001525878906 5.0 1.25
endloop
endfacet
facet normal 0.0 -0.0 -1.0
outer loop
vertex -47.65000534057617 14.99999713897705 1.25
vertex -44.0 15.0 1.25
vertex -47.650001525878906 5.0 1.25
endloop
endfacet
facet normal 0.0 1.0 -0.0
outer loop
vertex -44.0 15.0 1.25
vertex -47.650001525878906 15.0 1.25
vertex -47.650001525878906 15.0 4.75
endloop
endfacet
facet normal 0.0 1.0 -0.0
outer loop
vertex -44.0 15.0 1.25
vertex -47.650001525878906 15.0 4.75
vertex -44.0 15.0 4.75
endloop
endfacet
facet normal 0.0 -0.0 1.0
outer loop
vertex -44.0 5.0 4.75
vertex -44.0 15.0 4.75
vertex -47.650001525878906 15.0 4.75
endloop
endfacet
facet normal 0.0 0.0 1.0
outer loop
vertex -47.650001525878906 15.0 4.75
vertex -47.65000915527344 14.999993324279785 4.75
vertex -47.65000915527344 5.000006675720215 4.75
endloop
endfacet
facet normal -0.0 0.0 1.0
outer loop
vertex -47.65000915527344 5.000006675720215 4.75
vertex -47.650001525878906 5.0 4.75
vertex -44.0 5.0 4.75
endloop
endfacet
facet normal 0.0 0.0 1.0
outer loop
vertex -47.650001525878906 15.0 4.75
vertex -47.65000915527344 5.000006675720215 4.75
vertex -44.0 5.0 4.75
endloop
endfacet
facet normal -1.0 0.0 0.0
outer loop
vertex -48.0 5.349998474121094 4.4000091552734375
vertex -48.0 14.650001525878906 4.4000091552734375
vertex -48.0 14.650001525878906 1.5999984741210938
endloop
endfacet
facet normal -1.0 0.0 -0.0
outer loop
vertex -48.0 5.349998474121094 4.4000091552734375
vertex -48.0 14.650001525878906 1.5999984741210938
vertex -48.0 5.349997520446777 1.5999908447265625
endloop
endfacet
facet normal -0.6556099427414767 -0.7492685059902591 -0.09366060489684552
outer loop
vertex -47.650001525878906 5.0 4.75
vertex -47.65000915527344 5.000006675720215 4.75
vertex -48.0 5.349998474121094 4.4000091552734375
endloop
endfacet
facet normal -0.707106901602651 -0.7071066607703824 2.408375183820825e-07
outer loop
vertex -47.650001525878906 5.0 4.75
vertex -48.0 5.349998474121094 4.4000091552734375
vertex -48.0 5.349997520446777 1.5999908447265625
endloop
endfacet
facet normal -0.7071067811865475 -0.7071067811865475 0.0
outer loop
vertex -47.65000534057617 5.000003814697266 1.25
vertex -47.650001525878906 5.0 1.25
vertex -47.650001525878906 5.0 4.75
endloop
endfacet
facet normal -0.7071058178143915 -0.7071077445573911 -2.09998321489354e-12
outer loop
vertex -48.0 5.349997520446777 1.5999908447265625
vertex -47.65000534057617 5.000003814697266 1.25
vertex -47.650001525878906 5.0 4.75
endloop
endfacet
facet normal -0.7071077445663162 0.7071058178054664 0.0
outer loop
vertex -48.0 14.650001525878906 1.5999984741210938
vertex -48.0 14.650001525878906 4.4000091552734375
vertex -47.65000915527344 14.999993324279785 4.75
endloop
endfacet
facet normal -0.658504607868518 0.7525766947068778 0.0
outer loop
vertex -47.65000915527344 14.999993324279785 4.75
vertex -47.650001525878906 15.0 4.75
vertex -47.650001525878906 15.0 1.25
endloop
endfacet
facet normal -0.588348405414552 0.7844645405527361 0.19611613513818402
outer loop
vertex -47.650001525878906 15.0 1.25
vertex -47.65000534057617 14.99999713897705 1.25
vertex -48.0 14.650001525878906 1.5999984741210938
endloop
endfacet
facet normal -0.7071068775223786 0.7071066848506773 -1.9267170121990941e-07
outer loop
vertex -47.65000915527344 14.999993324279785 4.75
vertex -47.650001525878906 15.0 1.25
vertex -48.0 14.650001525878906 1.5999984741210938
endloop
endfacet
facet normal -0.7071067811865476 0.0 0.7071067811865476
outer loop
vertex -47.65000915527344 5.000006675720215 4.75
vertex -47.65000915527344 14.999993324279785 4.75
vertex -48.0 14.650001525878906 4.4000091552734375
endloop
endfacet
facet normal -0.7071067811865476 0.0 0.7071067811865476
outer loop
vertex -47.65000915527344 5.000006675720215 4.75
vertex -48.0 14.650001525878906 4.4000091552734375
vertex -48.0 5.349998474121094 4.4000091552734375
endloop
endfacet
facet normal -0.7071026376231454 5.800888062990312e-07 -0.7071109247254309
outer loop
vertex -47.65000534057617 5.000003814697266 1.25
vertex -48.0 5.349997520446777 1.5999908447265625
vertex -48.0 14.650001525878906 1.5999984741210938
endloop
endfacet
facet normal -0.7071106346399966 0.0 -0.7071029277120985
outer loop
vertex -47.65000534057617 5.000003814697266 1.25
vertex -48.0 14.650001525878906 1.5999984741210938
vertex -47.65000534057617 14.99999713897705 1.25
endloop
endfacet
facet normal 0.0 -0.9999999999999999 0.0
outer loop
vertex 47.65000534057617 -15.0 1.25
vertex 47.65000534057617 -15.0 4.75
vertex 44.0 -15.0 4.75
endloop
endfacet
facet normal -0.0 -0.9999999999999999 -0.0
outer loop
vertex 47.65000534057617 -15.0 1.25
vertex 44.0 -15.0 4.75
vertex 44.0 -15.0 1.25
endloop
endfacet
facet normal 0.0 -0.0 0.9999999999999999
outer loop
vertex 47.65000534057617 -15.0 4.75
vertex 47.65000534057617 -5.0 4.75
vertex 44.0 -5.0 4.75
endloop
endfacet
facet normal 0.0 0.0 0.9999999999999999
outer loop
vertex 47.65000534057617 -15.0 4.75
vertex 44.0 -5.0 4.75
vertex 44.0 -15.0 4.75
endloop
endfacet
facet normal 0.0 0.9999999999999999 0.0
outer loop
vertex 47.65000534057617 -5.0 4.75
vertex 47.65000534057617 -5.0 1.25
vertex 44.0 -5.0 1.25
endloop
endfacet
facet normal 0.0 0.9999999999999999 -0.0
outer loop
vertex 47.65000534057617 -5.0 4.75
vertex 44.0 -5.0 1.25
vertex 44.0 -5.0 4.75
endloop
endfacet
facet normal -0.0 -0.0 -0.9999999999999999
outer loop
vertex 47.65000534057617 -5.0 1.25
vertex 47.65000534057617 -15.0 1.25
vertex 44.0 -15.0 1.25
endloop
endfacet
facet normal -0.0 0.0 -0.9999999999999999
outer loop
vertex 47.65000534057617 -5.0 1.25
vertex 44.0 -15.0 1.25
vertex 44.0 -5.0 1.25
endloop
endfacet
facet normal 1.0 -0.0 0.0
outer loop
vertex 48.0 -14.650004386901855 4.400001525878906
vertex 48.0 -14.650004386901855 1.5999984741210938
vertex 48.0 -5.349996089935303 1.5999984741210938
endloop
endfacet
facet normal 1.0 -0.0 0.0
outer loop
vertex 48.0 -14.650004386901855 4.400001525878906
vertex 48.0 -5.349996089935303 1.5999984741210938
vertex 48.0 -5.349996089935303 4.400001525878906
endloop
endfacet
facet normal 0.707107744555816 -0.7071058178159665 0.0
outer loop
vertex 47.65000534057617 -15.0 4.75
vertex 47.65000534057617 -15.0 1.25
vertex 48.0 -14.650004386901855 1.5999984741210938
endloop
endfacet
facet normal 0.707107744555816 -0.7071058178159665 0.0
outer loop
vertex 47.65000534057617 -15.0 4.75
vertex 48.0 -14.650004386901855 1.5999984741210938
vertex 48.0 -14.650004386901855 4.400001525878906
endloop
endfacet
facet normal 0.7071082262389737 0.7071053361311682 0.0
outer loop
vertex 48.0 -5.349996089935303 4.400001525878906
vertex 48.0 -5.349996089935303 1.5999984741210938
vertex 47.65000534057617 -5.0 1.25
endloop
endfacet
facet normal 0.7071082262389737 0.7071053361311682 -0.0
outer loop
vertex 48.0 -5.349996089935303 4.400001525878906
vertex 47.65000534057617 -5.0 1.25
vertex 47.65000534057617 -5.0 4.75
endloop
endfacet
facet normal 0.7071106346399966 0.0 -0.7071029277120986
outer loop
vertex 48.0 -14.650004386901855 1.5999984741210938
vertex 47.65000534057617 -15.0 1.25
vertex 47.65000534057617 -5.0 1.25
endloop
endfacet
facet normal 0.7071106346399965 0.0 -0.7071029277120985
outer loop
vertex 48.0 -14.650004386901855 1.5999984741210938
vertex 47.65000534057617 -5.0 1.25
vertex 48.0 -5.349996089935303 1.5999984741210938
endloop
endfacet
facet normal 0.7071106346399966 0.0 0.7071029277120986
outer loop
vertex 47.65000534057617 -5.0 4.75
vertex 47.65000534057617 -15.0 4.75
vertex 48.0 -14.650004386901855 4.400001525878906
endloop
endfacet
facet normal 0.7071106346399965 -0.0 0.7071029277120985
outer loop
vertex 47.65000534057617 -5.0 4.75
vertex 48.0 -14.650004386901855 4.400001525878906
vertex 48.0 -5.349996089935303 4.400001525878906
endloop
endfacet
facet normal 0.0 -0.9999999999999999 0.0
outer loop
vertex 47.65000534057617 5.0 1.25
vertex 47.65000534057617 5.0 4.75
vertex 44.0 5.0 4.75
endloop
endfacet
facet normal -0.0 -0.9999999999999999 -0.0
outer loop
vertex 47.65000534057617 5.0 1.25
vertex 44.0 5.0 4.75
vertex 44.0 5.0 1.25
endloop
endfacet
facet normal 0.0 -0.0 0.9999999999999999
outer loop
vertex 47.65000534057617 5.0 4.75
vertex 47.65000534057617 15.0 4.75
vertex 44.0 15.0 4.75
endloop
endfacet
facet normal 0.0 0.0 0.9999999999999999
outer loop
vertex 47.65000534057617 5.0 4.75
vertex 44.0 15.0 4.75
vertex 44.0 5.0 4.75
endloop
endfacet
facet normal 0.0 0.9999999999999999 0.0
outer loop
vertex 47.65000534057617 15.0 4.75
vertex 47.65000534057617 15.0 1.25
vertex 44.0 15.0 1.25
endloop
endfacet
facet normal 0.0 0.9999999999999999 -0.0
outer loop
vertex 47.65000534057617 15.0 4.75
vertex 44.0 15.0 1.25
vertex 44.0 15.0 4.75
endloop
endfacet
facet normal -0.0 -0.0 -0.9999999999999999
outer loop
vertex 47.65000534057617 15.0 1.25
vertex 47.65000534057617 5.0 1.25
vertex 44.0 5.0 1.25
endloop
endfacet
facet normal -0.0 0.0 -0.9999999999999999
outer loop
vertex 47.65000534057617 15.0 1.25
vertex 44.0 5.0 1.25
vertex 44.0 15.0 1.25
endloop
endfacet
facet normal 1.0 -0.0 0.0
outer loop
vertex 48.0 5.349996089935303 4.400001525878906
vertex 48.0 5.349996089935303 1.5999984741210938
vertex 48.0 14.650004386901855 1.5999984741210938
endloop
endfacet
facet normal 1.0 -0.0 0.0
outer loop
vertex 48.0 5.349996089935303 4.400001525878906
vertex 48.0 14.650004386901855 1.5999984741210938
vertex 48.0 14.650004386901855 4.400001525878906
endloop
endfacet
facet normal 0.7071082262389737 -0.7071053361311682 0.0
outer loop
vertex 47.65000534057617 5.0 4.75
vertex 47.65000534057617 5.0 1.25
vertex 48.0 5.349996089935303 1.5999984741210938
endloop
endfacet
facet normal 0.7071082262389737 -0.7071053361311682 0.0
outer loop
vertex 47.65000534057617 5.0 4.75
vertex 48.0 5.349996089935303 1.5999984741210938
vertex 48.0 5.349996089935303 4.400001525878906
endloop
endfacet
facet normal 0.707107744555816 0.7071058178159665 0.0
outer loop
vertex 48.0 14.650004386901855 4.400001525878906
vertex 48.0 14.650004386901855 1.5999984741210938
vertex 47.65000534057617 15.0 1.25
endloop
endfacet
facet normal 0.707107744555816 0.7071058178159665 -0.0
outer loop
vertex 48.0 14.650004386901855 4.400001525878906
vertex 47.65000534057617 15.0 1.25
vertex 47.65000534057617 15.0 4.75
endloop
endfacet
facet normal 0.7071106346399966 0.0 -0.7071029277120986
outer loop
vertex 48.0 5.349996089935303 1.5999984741210938
vertex 47.65000534057617 5.0 1.25
vertex 47.65000534057617 15.0 1.25
endloop
endfacet
facet normal 0.7071106346399965 0.0 -0.7071029277120985
outer loop
vertex 48.0 5.349996089935303 1.5999984741210938
vertex 47.65000534057617 15.0 1.25
vertex 48.0 14.650004386901855 1.5999984741210938
endloop
endfacet
facet normal 0.7071106346399966 0.0 0.7071029277120986
outer loop
vertex 47.65000534057617 15.0 4.75
vertex 47.65000534057617 5.0 4.75
vertex 48.0 5.349996089935303 4.400001525878906
endloop
endfacet
facet normal 0.7071106346399965 -0.0 0.7071029277120985
outer loop
vertex 47.65000534057617 15.0 4.75
vertex 48.0 5.349996089935303 4.400001525878906
vertex 48.0 14.650004386901855 4.400001525878906
endloop
endfacet

endsolid
