solid 
facet normal -1.0 0.0 0.0
outer loop
vertex 44.0 4.800000190734863 195.0500030517578
vertex 44.0 -4.800000190734863 195.0500030517578
vertex 44.0 -4.800000190734863 198.9499969482422
endloop
endfacet
facet normal -1.0 -0.0 0.0
outer loop
vertex 44.0 16.0 200.0
vertex 44.0 15.199999809265137 198.9499969482422
vertex 44.0 4.800000190734863 198.9499969482422
endloop
endfacet
facet normal -1.0 -0.0 -0.0
outer loop
vertex 44.0 4.800000190734863 198.9499969482422
vertex 44.0 4.800000190734863 195.0500030517578
vertex 44.0 -4.800000190734863 198.9499969482422
endloop
endfacet
facet normal -1.0 0.0 -0.0
outer loop
vertex 44.0 -4.800000190734863 198.9499969482422
vertex 44.0 16.0 200.0
vertex 44.0 4.800000190734863 198.9499969482422
endloop
endfacet
facet normal -0.9999999999999999 0.0 0.0
outer loop
vertex 44.0 15.199999809265137 195.0500030517578
vertex 44.0 15.199999809265137 198.9499969482422
vertex 44.0 16.0 200.0
endloop
endfacet
facet normal -1.0 0.0 0.0
outer loop
vertex 44.0 4.800000190734863 156.25
vertex 44.0 15.199999809265137 156.25
vertex 44.0 15.199999809265137 121.3499984741211
endloop
endfacet
facet normal -1.0 -0.0 -0.0
outer loop
vertex 44.0 4.800000190734863 156.25
vertex 44.0 15.199999809265137 121.3499984741211
vertex 44.0 4.800000190734863 121.3499984741211
endloop
endfacet
facet normal -1.0 -0.0 -0.0
outer loop
vertex 44.0 4.800000190734863 78.6500015258789
vertex 44.0 4.800000190734863 43.75
vertex 44.0 -4.800000190734863 43.75
endloop
endfacet
facet normal -1.0 -0.0 0.0
outer loop
vertex 44.0 4.800000190734863 78.6500015258789
vertex 44.0 -4.800000190734863 43.75
vertex 44.0 -4.800000190734863 78.6500015258789
endloop
endfacet
facet normal -1.0 -0.0 -0.0
outer loop
vertex 44.0 4.800000190734863 82.54999542236328
vertex 44.0 4.800000190734863 78.6500015258789
vertex 44.0 -4.800000190734863 78.6500015258789
endloop
endfacet
facet normal -1.0 -0.0 0.0
outer loop
vertex 44.0 4.800000190734863 82.54999542236328
vertex 44.0 -4.800000190734863 78.6500015258789
vertex 44.0 -4.800000190734863 82.54999542236328
endloop
endfacet
facet normal -1.0 -0.0 -0.0
outer loop
vertex 44.0 4.800000190734863 117.45000457763672
vertex 44.0 4.800000190734863 82.54999542236328
vertex 44.0 -4.800000190734863 82.54999542236328
endloop
endfacet
facet normal -1.0 -0.0 0.0
outer loop
vertex 44.0 4.800000190734863 117.45000457763672
vertex 44.0 -4.800000190734863 82.54999542236328
vertex 44.0 -4.800000190734863 117.45000457763672
endloop
endfacet
facet normal -1.0 -0.0 -0.0
outer loop
vertex 44.0 4.800000190734863 121.3499984741211
vertex 44.0 4.800000190734863 117.45000457763672
vertex 44.0 -4.800000190734863 117.45000457763672
endloop
endfacet
facet normal -1.0 -0.0 0.0
outer loop
vertex 44.0 4.800000190734863 121.3499984741211
vertex 44.0 -4.800000190734863 117.45000457763672
vertex 44.0 -4.800000190734863 121.3499984741211
endloop
endfacet
facet normal -1.0 -0.0 -0.0
outer loop
vertex 44.0 4.800000190734863 156.25
vertex 44.0 4.800000190734863 121.3499984741211
vertex 44.0 -4.800000190734863 121.3499984741211
endloop
endfacet
facet normal -1.0 -0.0 0.0
outer loop
vertex 44.0 4.800000190734863 156.25
vertex 44.0 -4.800000190734863 121.3499984741211
vertex 44.0 -4.800000190734863 156.25
endloop
endfacet
facet normal -1.0 -0.0 -0.0
outer loop
vertex 44.0 4.800000190734863 160.14999389648438
vertex 44.0 4.800000190734863 156.25
vertex 44.0 -4.800000190734863 156.25
endloop
endfacet
facet normal -1.0 -0.0 0.0
outer loop
vertex 44.0 4.800000190734863 160.14999389648438
vertex 44.0 -4.800000190734863 156.25
vertex 44.0 -4.800000190734863 160.14999389648438
endloop
endfacet
facet normal -1.0 0.0 -0.0
outer loop
vertex 44.0 15.199999809265137 195.0500030517578
vertex 44.0 16.0 200.0
vertex 44.0 15.199999809265137 160.14999389648438
endloop
endfacet
facet normal -1.0 0.0 0.0
outer loop
vertex 44.0 4.800000190734863 195.0500030517578
vertex 44.0 15.199999809265137 195.0500030517578
vertex 44.0 15.199999809265137 160.14999389648438
endloop
endfacet
facet normal -1.0 -0.0 -0.0
outer loop
vertex 44.0 4.800000190734863 195.0500030517578
vertex 44.0 15.199999809265137 160.14999389648438
vertex 44.0 4.800000190734863 160.14999389648438
endloop
endfacet
facet normal -1.0 0.0 0.0
outer loop
vertex 44.0 -4.800000190734863 195.0500030517578
vertex 44.0 4.800000190734863 195.0500030517578
vertex 44.0 4.800000190734863 160.14999389648438
endloop
endfacet
facet normal -1.0 -0.0 -0.0
outer loop
vertex 44.0 -4.800000190734863 195.0500030517578
vertex 44.0 4.800000190734863 160.14999389648438
vertex 44.0 -4.800000190734863 160.14999389648438
endloop
endfacet
facet normal -0.9999999999999999 0.0 0.0
outer loop
vertex 44.0 -16.0 200.0
vertex 44.0 -15.199999809265137 198.9499969482422
vertex 44.0 -15.199999809265137 195.0500030517578
endloop
endfacet
facet normal -1.0 0.0 0.0
outer loop
vertex 44.0 -15.199999809265137 195.0500030517578
vertex 44.0 -4.800000190734863 195.0500030517578
vertex 44.0 -4.800000190734863 160.14999389648438
endloop
endfacet
facet normal -1.0 -0.0 -0.0
outer loop
vertex 44.0 -15.199999809265137 195.0500030517578
vertex 44.0 -4.800000190734863 160.14999389648438
vertex 44.0 -15.199999809265137 160.14999389648438
endloop
endfacet
facet normal -1.0 0.0 0.0
outer loop
vertex 44.0 -16.0 0.0
vertex 44.0 -16.0 200.0
vertex 44.0 -15.199999809265137 195.0500030517578
endloop
endfacet
facet normal -1.0 0.0 -0.0
outer loop
vertex 44.0 -15.199999809265137 4.949999809265137
vertex 44.0 -15.199999809265137 1.049999713897705
vertex 44.0 -16.0 0.0
endloop
endfacet
facet normal -1.0 0.0 -0.0
outer loop
vertex 44.0 -15.199999809265137 39.849998474121094
vertex 44.0 -15.199999809265137 4.949999809265137
vertex 44.0 -16.0 0.0
endloop
endfacet
facet normal -1.0 0.0 0.0
outer loop
vertex 44.0 -16.0 0.0
vertex 44.0 -15.199999809265137 195.0500030517578
vertex 44.0 -15.199999809265137 160.14999389648438
endloop
endfacet
facet normal -0.9999999999999999 0.0 0.0
outer loop
vertex 44.0 -16.0 0.0
vertex 44.0 -15.199999809265137 160.14999389648438
vertex 44.0 -15.199999809265137 156.25
endloop
endfacet
facet normal -1.0 0.0 -0.0
outer loop
vertex 44.0 -15.199999809265137 43.75
vertex 44.0 -15.199999809265137 39.849998474121094
vertex 44.0 -16.0 0.0
endloop
endfacet
facet normal -1.0 0.0 -0.0
outer loop
vertex 44.0 -15.199999809265137 78.6500015258789
vertex 44.0 -15.199999809265137 43.75
vertex 44.0 -16.0 0.0
endloop
endfacet
facet normal -1.0 0.0 0.0
outer loop
vertex 44.0 -16.0 0.0
vertex 44.0 -15.199999809265137 156.25
vertex 44.0 -15.199999809265137 121.3499984741211
endloop
endfacet
facet normal -0.9999999999999999 0.0 0.0
outer loop
vertex 44.0 -16.0 0.0
vertex 44.0 -15.199999809265137 121.3499984741211
vertex 44.0 -15.199999809265137 117.45000457763672
endloop
endfacet
facet normal -0.9999999999999999 0.0 -0.0
outer loop
vertex 44.0 -15.199999809265137 82.54999542236328
vertex 44.0 -15.199999809265137 78.6500015258789
vertex 44.0 -16.0 0.0
endloop
endfacet
facet normal -1.0 0.0 -0.0
outer loop
vertex 44.0 -15.199999809265137 117.45000457763672
vertex 44.0 -15.199999809265137 82.54999542236328
vertex 44.0 -16.0 0.0
endloop
endfacet
facet normal -1.0 0.0 0.0
outer loop
vertex 44.0 -15.199999809265137 198.9499969482422
vertex 44.0 -16.0 200.0
vertex 44.0 16.0 200.0
endloop
endfacet
facet normal -1.0 0.0 -0.0
outer loop
vertex 44.0 -15.199999809265137 198.9499969482422
vertex 44.0 16.0 200.0
vertex 44.0 -4.800000190734863 198.9499969482422
endloop
endfacet
facet normal -0.9999999999999999 0.0 0.0
outer loop
vertex 44.0 15.199999809265137 156.25
vertex 44.0 15.199999809265137 160.14999389648438
vertex 44.0 16.0 200.0
endloop
endfacet
facet normal -1.0 -0.0 -0.0
outer loop
vertex 44.0 16.0 200.0
vertex 44.0 16.0 0.0
vertex 44.0 15.199999809265137 1.049999713897705
endloop
endfacet
facet normal -1.0 -0.0 0.0
outer loop
vertex 44.0 16.0 200.0
vertex 44.0 15.199999809265137 1.049999713897705
vertex 44.0 15.199999809265137 4.949999809265137
endloop
endfacet
facet normal -1.0 0.0 0.0
outer loop
vertex 44.0 15.199999809265137 121.3499984741211
vertex 44.0 15.199999809265137 156.25
vertex 44.0 16.0 200.0
endloop
endfacet
facet normal -0.9999999999999999 0.0 0.0
outer loop
vertex 44.0 15.199999809265137 117.45000457763672
vertex 44.0 15.199999809265137 121.3499984741211
vertex 44.0 16.0 200.0
endloop
endfacet
facet normal -1.0 -0.0 0.0
outer loop
vertex 44.0 16.0 200.0
vertex 44.0 15.199999809265137 4.949999809265137
vertex 44.0 15.199999809265137 39.849998474121094
endloop
endfacet
facet normal -1.0 -0.0 0.0
outer loop
vertex 44.0 16.0 200.0
vertex 44.0 15.199999809265137 39.849998474121094
vertex 44.0 15.199999809265137 43.75
endloop
endfacet
facet normal -1.0 0.0 0.0
outer loop
vertex 44.0 15.199999809265137 82.54999542236328
vertex 44.0 15.199999809265137 117.45000457763672
vertex 44.0 16.0 200.0
endloop
endfacet
facet normal -1.0 -0.0 0.0
outer loop
vertex 44.0 16.0 200.0
vertex 44.0 15.199999809265137 43.75
vertex 44.0 15.199999809265137 78.6500015258789
endloop
endfacet
facet normal -0.9999999999999999 -0.0 0.0
outer loop
vertex 44.0 16.0 200.0
vertex 44.0 15.199999809265137 78.6500015258789
vertex 44.0 15.199999809265137 82.54999542236328
endloop
endfacet
facet normal -1.0 0.0 0.0
outer loop
vertex 44.0 -4.800000190734863 121.3499984741211
vertex 44.0 -15.199999809265137 121.3499984741211
vertex 44.0 -15.199999809265137 156.25
endloop
endfacet
facet normal -1.0 0.0 0.0
outer loop
vertex 44.0 -4.800000190734863 121.3499984741211
vertex 44.0 -15.199999809265137 156.25
vertex 44.0 -4.800000190734863 156.25
endloop
endfacet
facet normal -1.0 0.0 0.0
outer loop
vertex 44.0 15.199999809265137 82.54999542236328
vertex 44.0 4.800000190734863 82.54999542236328
vertex 44.0 4.800000190734863 117.45000457763672
endloop
endfacet
facet normal -1.0 0.0 0.0
outer loop
vertex 44.0 15.199999809265137 82.54999542236328
vertex 44.0 4.800000190734863 117.45000457763672
vertex 44.0 15.199999809265137 117.45000457763672
endloop
endfacet
facet normal -1.0 0.0 0.0
outer loop
vertex 44.0 -4.800000190734863 82.54999542236328
vertex 44.0 -15.199999809265137 82.54999542236328
vertex 44.0 -15.199999809265137 117.45000457763672
endloop
endfacet
facet normal -1.0 0.0 0.0
outer loop
vertex 44.0 -4.800000190734863 82.54999542236328
vertex 44.0 -15.199999809265137 117.45000457763672
vertex 44.0 -4.800000190734863 117.45000457763672
endloop
endfacet
facet normal -1.0 0.0 0.0
outer loop
vertex 44.0 15.199999809265137 43.75
vertex 44.0 4.800000190734863 43.75
vertex 44.0 4.800000190734863 78.6500015258789
endloop
endfacet
facet normal -1.0 0.0 0.0
outer loop
vertex 44.0 15.199999809265137 43.75
vertex 44.0 4.800000190734863 78.6500015258789
vertex 44.0 15.199999809265137 78.6500015258789
endloop
endfacet
facet normal -1.0 0.0 0.0
outer loop
vertex 44.0 -4.800000190734863 43.75
vertex 44.0 -15.199999809265137 43.75
vertex 44.0 -15.199999809265137 78.6500015258789
endloop
endfacet
facet normal -1.0 0.0 0.0
outer loop
vertex 44.0 -4.800000190734863 43.75
vertex 44.0 -15.199999809265137 78.6500015258789
vertex 44.0 -4.800000190734863 78.6500015258789
endloop
endfacet
facet normal -1.0 -0.0 -0.0
outer loop
vertex 44.0 4.800000190734863 4.949999809265137
vertex 44.0 4.800000190734863 1.049999713897705
vertex 44.0 -4.800000190734863 1.049999713897705
endloop
endfacet
facet normal -1.0 -0.0 0.0
outer loop
vertex 44.0 4.800000190734863 4.949999809265137
vertex 44.0 -4.800000190734863 1.049999713897705
vertex 44.0 -4.800000190734863 4.949999809265137
endloop
endfacet
facet normal -0.9999999999999999 -0.0 -0.0
outer loop
vertex 44.0 15.199999809265137 39.849998474121094
vertex 44.0 15.199999809265137 4.949999809265137
vertex 44.0 4.800000190734863 4.949999809265137
endloop
endfacet
facet normal -1.0 0.0 0.0
outer loop
vertex 44.0 -4.800000190734863 43.75
vertex 44.0 4.800000190734863 43.75
vertex 44.0 4.800000190734863 39.849998474121094
endloop
endfacet
facet normal -0.9999999999999999 0.0 -0.0
outer loop
vertex 44.0 4.800000190734863 39.849998474121094
vertex 44.0 15.199999809265137 39.849998474121094
vertex 44.0 4.800000190734863 4.949999809265137
endloop
endfacet
facet normal -1.0 0.0 0.0
outer loop
vertex 44.0 4.800000190734863 4.949999809265137
vertex 44.0 -4.800000190734863 4.949999809265137
vertex 44.0 -4.800000190734863 39.849998474121094
endloop
endfacet
facet normal -1.0 0.0 0.0
outer loop
vertex 44.0 -4.800000190734863 39.849998474121094
vertex 44.0 -4.800000190734863 43.75
vertex 44.0 4.800000190734863 39.849998474121094
endloop
endfacet
facet normal -1.0 0.0 0.0
outer loop
vertex 44.0 4.800000190734863 4.949999809265137
vertex 44.0 -4.800000190734863 39.849998474121094
vertex 44.0 4.800000190734863 39.849998474121094
endloop
endfacet
facet normal -0.9999999999999999 0.0 0.0
outer loop
vertex 44.0 -4.800000190734863 4.949999809265137
vertex 44.0 -15.199999809265137 4.949999809265137
vertex 44.0 -15.199999809265137 39.849998474121094
endloop
endfacet
facet normal -0.9999999999999999 0.0 0.0
outer loop
vertex 44.0 -4.800000190734863 4.949999809265137
vertex 44.0 -15.199999809265137 39.849998474121094
vertex 44.0 -4.800000190734863 39.849998474121094
endloop
endfacet
facet normal -1.0 0.0 0.0
outer loop
vertex 44.0 16.0 0.0
vertex 44.0 4.800000190734863 1.049999713897705
vertex 44.0 15.199999809265137 1.049999713897705
endloop
endfacet
facet normal -1.0 0.0 0.0
outer loop
vertex 44.0 16.0 0.0
vertex 44.0 -16.0 0.0
vertex 44.0 -15.199999809265137 1.049999713897705
endloop
endfacet
facet normal -1.0 0.0 0.0
outer loop
vertex 44.0 16.0 0.0
vertex 44.0 -15.199999809265137 1.049999713897705
vertex 44.0 -4.800000190734863 1.049999713897705
endloop
endfacet
facet normal 0.0 1.0 0.0
outer loop
vertex 44.0 16.0 0.0
vertex 44.0 16.0 200.0
vertex 50.0 16.0 200.0
endloop
endfacet
facet normal -0.0 1.0 0.0
outer loop
vertex 44.0 16.0 0.0
vertex 50.0 16.0 200.0
vertex 50.0 16.0 0.0
endloop
endfacet
facet normal 1.0 0.0 -0.0
outer loop
vertex 50.0 16.0 0.0
vertex 50.0 16.0 200.0
vertex 50.0 -16.0 200.0
endloop
endfacet
facet normal 1.0 0.0 0.0
outer loop
vertex 50.0 16.0 0.0
vertex 50.0 -16.0 200.0
vertex 50.0 -16.0 0.0
endloop
endfacet
facet normal 0.0 -1.0 0.0
outer loop
vertex 50.0 -16.0 0.0
vertex 50.0 -16.0 200.0
vertex 44.0 -16.0 200.0
endloop
endfacet
facet normal -0.0 -1.0 -0.0
outer loop
vertex 50.0 -16.0 0.0
vertex 44.0 -16.0 200.0
vertex 44.0 -16.0 0.0
endloop
endfacet
facet normal 0.0 0.0 -1.0
outer loop
vertex 44.0 16.0 0.0
vertex 50.0 16.0 0.0
vertex 50.0 -16.0 0.0
endloop
endfacet
facet normal -0.0 -0.0 -1.0
outer loop
vertex 44.0 16.0 0.0
vertex 50.0 -16.0 0.0
vertex 44.0 -16.0 0.0
endloop
endfacet
facet normal 0.0 0.0 1.0
outer loop
vertex 50.0 16.0 200.0
vertex 44.0 16.0 200.0
vertex 44.0 -16.0 200.0
endloop
endfacet
facet normal -0.0 0.0 1.0
outer loop
vertex 50.0 16.0 200.0
vertex 44.0 -16.0 200.0
vertex 50.0 -16.0 200.0
endloop
endfacet
facet normal -0.0 1.0 0.0
outer loop
vertex 44.0 -15.199999809265137 4.949999809265137
vertex 48.5 -15.199999809265137 4.950000286102295
vertex 48.5 -15.199999809265137 1.0500001907348633
endloop
endfacet
facet normal 0.0 1.0 0.0
outer loop
vertex 44.0 -15.199999809265137 4.949999809265137
vertex 48.5 -15.199999809265137 1.0500001907348633
vertex 44.0 -15.199999809265137 1.049999713897705
endloop
endfacet
facet normal 1.0596381293402719e-07 0.0 -0.9999999999999943
outer loop
vertex 44.0 -4.800000190734863 4.949999809265137
vertex 48.5 -4.800000190734863 4.950000286102295
vertex 48.5 -15.199999809265137 4.950000286102295
endloop
endfacet
facet normal 1.0596381293402719e-07 0.0 -0.9999999999999943
outer loop
vertex 44.0 -4.800000190734863 4.949999809265137
vertex 48.5 -15.199999809265137 4.950000286102295
vertex 44.0 -15.199999809265137 4.949999809265137
endloop
endfacet
facet normal 0.0 -1.0 0.0
outer loop
vertex 44.0 -4.800000190734863 1.049999713897705
vertex 48.5 -4.800000190734863 1.0500001907348633
vertex 48.5 -4.800000190734863 4.950000286102295
endloop
endfacet
facet normal -0.0 -1.0 0.0
outer loop
vertex 44.0 -4.800000190734863 1.049999713897705
vertex 48.5 -4.800000190734863 4.950000286102295
vertex 44.0 -4.800000190734863 4.949999809265137
endloop
endfacet
facet normal -1.0596381293402719e-07 0.0 0.9999999999999943
outer loop
vertex 44.0 -15.199999809265137 1.049999713897705
vertex 48.5 -15.199999809265137 1.0500001907348633
vertex 48.5 -4.800000190734863 1.0500001907348633
endloop
endfacet
facet normal -1.0596381293402719e-07 0.0 0.9999999999999943
outer loop
vertex 44.0 -15.199999809265137 1.049999713897705
vertex 48.5 -4.800000190734863 1.0500001907348633
vertex 44.0 -4.800000190734863 1.049999713897705
endloop
endfacet
facet normal -0.9999999999999999 -0.0 -0.0
outer loop
vertex 48.5 -4.800000190734863 4.950000286102295
vertex 48.5 -4.800000190734863 1.0500001907348633
vertex 48.5 -15.199999809265137 1.0500001907348633
endloop
endfacet
facet normal -0.9999999999999999 -0.0 0.0
outer loop
vertex 48.5 -4.800000190734863 4.950000286102295
vertex 48.5 -15.199999809265137 1.0500001907348633
vertex 48.5 -15.199999809265137 4.950000286102295
endloop
endfacet
facet normal -0.0 1.0 0.0
outer loop
vertex 44.0 4.800000190734863 4.949999809265137
vertex 48.5 4.800000190734863 4.950000286102295
vertex 48.5 4.800000190734863 1.0500001907348633
endloop
endfacet
facet normal 0.0 1.0 0.0
outer loop
vertex 44.0 4.800000190734863 4.949999809265137
vertex 48.5 4.800000190734863 1.0500001907348633
vertex 44.0 4.800000190734863 1.049999713897705
endloop
endfacet
facet normal 1.0596381293402719e-07 0.0 -0.9999999999999943
outer loop
vertex 44.0 15.199999809265137 4.949999809265137
vertex 48.5 15.199999809265137 4.950000286102295
vertex 48.5 4.800000190734863 4.950000286102295
endloop
endfacet
facet normal 1.0596381293402719e-07 0.0 -0.9999999999999943
outer loop
vertex 44.0 15.199999809265137 4.949999809265137
vertex 48.5 4.800000190734863 4.950000286102295
vertex 44.0 4.800000190734863 4.949999809265137
endloop
endfacet
facet normal 0.0 -1.0 0.0
outer loop
vertex 44.0 15.199999809265137 1.049999713897705
vertex 48.5 15.199999809265137 1.0500001907348633
vertex 48.5 15.199999809265137 4.950000286102295
endloop
endfacet
facet normal -0.0 -1.0 0.0
outer loop
vertex 44.0 15.199999809265137 1.049999713897705
vertex 48.5 15.199999809265137 4.950000286102295
vertex 44.0 15.199999809265137 4.949999809265137
endloop
endfacet
facet normal -1.0596381293402719e-07 0.0 0.9999999999999943
outer loop
vertex 48.5 4.800000190734863 1.0500001907348633
vertex 48.5 15.199999809265137 1.0500001907348633
vertex 44.0 15.199999809265137 1.049999713897705
endloop
endfacet
facet normal -1.0596381293402719e-07 0.0 0.9999999999999943
outer loop
vertex 48.5 4.800000190734863 1.0500001907348633
vertex 44.0 15.199999809265137 1.049999713897705
vertex 44.0 4.800000190734863 1.049999713897705
endloop
endfacet
facet normal -0.9999999999999999 -0.0 -0.0
outer loop
vertex 48.5 15.199999809265137 4.950000286102295
vertex 48.5 15.199999809265137 1.0500001907348633
vertex 48.5 4.800000190734863 1.0500001907348633
endloop
endfacet
facet normal -0.9999999999999999 -0.0 0.0
outer loop
vertex 48.5 15.199999809265137 4.950000286102295
vertex 48.5 4.800000190734863 1.0500001907348633
vertex 48.5 4.800000190734863 4.950000286102295
endloop
endfacet
facet normal -0.0 0.9999999999999999 0.0
outer loop
vertex 44.0 -15.199999809265137 43.75
vertex 48.5 -15.199999809265137 43.75
vertex 48.5 -15.199999809265137 39.849998474121094
endloop
endfacet
facet normal 0.0 0.9999999999999999 0.0
outer loop
vertex 44.0 -15.199999809265137 43.75
vertex 48.5 -15.199999809265137 39.849998474121094
vertex 44.0 -15.199999809265137 39.849998474121094
endloop
endfacet
facet normal 0.0 0.0 -1.0
outer loop
vertex 44.0 -4.800000190734863 43.75
vertex 48.5 -4.800000190734863 43.75
vertex 48.5 -15.199999809265137 43.75
endloop
endfacet
facet normal -0.0 -0.0 -1.0
outer loop
vertex 44.0 -4.800000190734863 43.75
vertex 48.5 -15.199999809265137 43.75
vertex 44.0 -15.199999809265137 43.75
endloop
endfacet
facet normal 0.0 -0.9999999999999999 0.0
outer loop
vertex 44.0 -4.800000190734863 39.849998474121094
vertex 48.5 -4.800000190734863 39.849998474121094
vertex 48.5 -4.800000190734863 43.75
endloop
endfacet
facet normal 0.0 -0.9999999999999999 0.0
outer loop
vertex 44.0 -4.800000190734863 39.849998474121094
vertex 48.5 -4.800000190734863 43.75
vertex 44.0 -4.800000190734863 43.75
endloop
endfacet
facet normal 0.0 -0.0 1.0
outer loop
vertex 48.5 -15.199999809265137 39.849998474121094
vertex 48.5 -4.800000190734863 39.849998474121094
vertex 44.0 -4.800000190734863 39.849998474121094
endloop
endfacet
facet normal 0.0 0.0 1.0
outer loop
vertex 48.5 -15.199999809265137 39.849998474121094
vertex 44.0 -4.800000190734863 39.849998474121094
vertex 44.0 -15.199999809265137 39.849998474121094
endloop
endfacet
facet normal -1.0 -0.0 -0.0
outer loop
vertex 48.5 -4.800000190734863 43.75
vertex 48.5 -4.800000190734863 39.849998474121094
vertex 48.5 -15.199999809265137 39.849998474121094
endloop
endfacet
facet normal -1.0 -0.0 0.0
outer loop
vertex 48.5 -4.800000190734863 43.75
vertex 48.5 -15.199999809265137 39.849998474121094
vertex 48.5 -15.199999809265137 43.75
endloop
endfacet
facet normal -0.0 0.9999999999999999 0.0
outer loop
vertex 44.0 4.800000190734863 43.75
vertex 48.5 4.800000190734863 43.75
vertex 48.5 4.800000190734863 39.849998474121094
endloop
endfacet
facet normal 0.0 0.9999999999999999 0.0
outer loop
vertex 44.0 4.800000190734863 43.75
vertex 48.5 4.800000190734863 39.849998474121094
vertex 44.0 4.800000190734863 39.849998474121094
endloop
endfacet
facet normal 0.0 0.0 -1.0
outer loop
vertex 44.0 15.199999809265137 43.75
vertex 48.5 15.199999809265137 43.75
vertex 48.5 4.800000190734863 43.75
endloop
endfacet
facet normal -0.0 -0.0 -1.0
outer loop
vertex 44.0 15.199999809265137 43.75
vertex 48.5 4.800000190734863 43.75
vertex 44.0 4.800000190734863 43.75
endloop
endfacet
facet normal 0.0 -0.9999999999999999 0.0
outer loop
vertex 44.0 15.199999809265137 39.849998474121094
vertex 48.5 15.199999809265137 39.849998474121094
vertex 48.5 15.199999809265137 43.75
endloop
endfacet
facet normal 0.0 -0.9999999999999999 0.0
outer loop
vertex 44.0 15.199999809265137 39.849998474121094
vertex 48.5 15.199999809265137 43.75
vertex 44.0 15.199999809265137 43.75
endloop
endfacet
facet normal 0.0 0.0 1.0
outer loop
vertex 44.0 4.800000190734863 39.849998474121094
vertex 48.5 4.800000190734863 39.849998474121094
vertex 48.5 15.199999809265137 39.849998474121094
endloop
endfacet
facet normal 0.0 -0.0 1.0
outer loop
vertex 44.0 4.800000190734863 39.849998474121094
vertex 48.5 15.199999809265137 39.849998474121094
vertex 44.0 15.199999809265137 39.849998474121094
endloop
endfacet
facet normal -1.0 -0.0 -0.0
outer loop
vertex 48.5 15.199999809265137 43.75
vertex 48.5 15.199999809265137 39.849998474121094
vertex 48.5 4.800000190734863 39.849998474121094
endloop
endfacet
facet normal -1.0 -0.0 0.0
outer loop
vertex 48.5 15.199999809265137 43.75
vertex 48.5 4.800000190734863 39.849998474121094
vertex 48.5 4.800000190734863 43.75
endloop
endfacet
facet normal -0.0 1.0 0.0
outer loop
vertex 44.0 -15.199999809265137 82.54999542236328
vertex 48.5 -15.199999809265137 82.54999542236328
vertex 48.5 -15.199999809265137 78.6500015258789
endloop
endfacet
facet normal 0.0 1.0 0.0
outer loop
vertex 44.0 -15.199999809265137 82.54999542236328
vertex 48.5 -15.199999809265137 78.6500015258789
vertex 44.0 -15.199999809265137 78.6500015258789
endloop
endfacet
facet normal 0.0 0.0 -1.0
outer loop
vertex 44.0 -4.800000190734863 82.54999542236328
vertex 48.5 -4.800000190734863 82.54999542236328
vertex 48.5 -15.199999809265137 82.54999542236328
endloop
endfacet
facet normal -0.0 -0.0 -1.0
outer loop
vertex 44.0 -4.800000190734863 82.54999542236328
vertex 48.5 -15.199999809265137 82.54999542236328
vertex 44.0 -15.199999809265137 82.54999542236328
endloop
endfacet
facet normal 0.0 -1.0 0.0
outer loop
vertex 44.0 -4.800000190734863 78.6500015258789
vertex 48.5 -4.800000190734863 78.6500015258789
vertex 48.5 -4.800000190734863 82.54999542236328
endloop
endfacet
facet normal 0.0 -1.0 0.0
outer loop
vertex 44.0 -4.800000190734863 78.6500015258789
vertex 48.5 -4.800000190734863 82.54999542236328
vertex 44.0 -4.800000190734863 82.54999542236328
endloop
endfacet
facet normal 0.0 -0.0 1.0
outer loop
vertex 48.5 -15.199999809265137 78.6500015258789
vertex 48.5 -4.800000190734863 78.6500015258789
vertex 44.0 -4.800000190734863 78.6500015258789
endloop
endfacet
facet normal 0.0 0.0 1.0
outer loop
vertex 48.5 -15.199999809265137 78.6500015258789
vertex 44.0 -4.800000190734863 78.6500015258789
vertex 44.0 -15.199999809265137 78.6500015258789
endloop
endfacet
facet normal -1.0 -0.0 -0.0
outer loop
vertex 48.5 -4.800000190734863 82.54999542236328
vertex 48.5 -4.800000190734863 78.6500015258789
vertex 48.5 -15.199999809265137 78.6500015258789
endloop
endfacet
facet normal -1.0 -0.0 0.0
outer loop
vertex 48.5 -4.800000190734863 82.54999542236328
vertex 48.5 -15.199999809265137 78.6500015258789
vertex 48.5 -15.199999809265137 82.54999542236328
endloop
endfacet
facet normal -0.0 1.0 0.0
outer loop
vertex 44.0 4.800000190734863 82.54999542236328
vertex 48.5 4.800000190734863 82.54999542236328
vertex 48.5 4.800000190734863 78.6500015258789
endloop
endfacet
facet normal 0.0 1.0 0.0
outer loop
vertex 44.0 4.800000190734863 82.54999542236328
vertex 48.5 4.800000190734863 78.6500015258789
vertex 44.0 4.800000190734863 78.6500015258789
endloop
endfacet
facet normal 0.0 0.0 -1.0
outer loop
vertex 44.0 15.199999809265137 82.54999542236328
vertex 48.5 15.199999809265137 82.54999542236328
vertex 48.5 4.800000190734863 82.54999542236328
endloop
endfacet
facet normal -0.0 -0.0 -1.0
outer loop
vertex 44.0 15.199999809265137 82.54999542236328
vertex 48.5 4.800000190734863 82.54999542236328
vertex 44.0 4.800000190734863 82.54999542236328
endloop
endfacet
facet normal 0.0 -1.0 0.0
outer loop
vertex 44.0 15.199999809265137 78.6500015258789
vertex 48.5 15.199999809265137 78.6500015258789
vertex 48.5 15.199999809265137 82.54999542236328
endloop
endfacet
facet normal 0.0 -1.0 0.0
outer loop
vertex 44.0 15.199999809265137 78.6500015258789
vertex 48.5 15.199999809265137 82.54999542236328
vertex 44.0 15.199999809265137 82.54999542236328
endloop
endfacet
facet normal 0.0 -0.0 1.0
outer loop
vertex 48.5 4.800000190734863 78.6500015258789
vertex 48.5 15.199999809265137 78.6500015258789
vertex 44.0 15.199999809265137 78.6500015258789
endloop
endfacet
facet normal 0.0 0.0 1.0
outer loop
vertex 48.5 4.800000190734863 78.6500015258789
vertex 44.0 15.199999809265137 78.6500015258789
vertex 44.0 4.800000190734863 78.6500015258789
endloop
endfacet
facet normal -1.0 -0.0 -0.0
outer loop
vertex 48.5 15.199999809265137 82.54999542236328
vertex 48.5 15.199999809265137 78.6500015258789
vertex 48.5 4.800000190734863 78.6500015258789
endloop
endfacet
facet normal -1.0 -0.0 0.0
outer loop
vertex 48.5 15.199999809265137 82.54999542236328
vertex 48.5 4.800000190734863 78.6500015258789
vertex 48.5 4.800000190734863 82.54999542236328
endloop
endfacet
facet normal -0.0 1.0 0.0
outer loop
vertex 44.0 -15.199999809265137 121.3499984741211
vertex 48.5 -15.199999809265137 121.3499984741211
vertex 48.5 -15.199999809265137 117.45000457763672
endloop
endfacet
facet normal 0.0 1.0 0.0
outer loop
vertex 44.0 -15.199999809265137 121.3499984741211
vertex 48.5 -15.199999809265137 117.45000457763672
vertex 44.0 -15.199999809265137 117.45000457763672
endloop
endfacet
facet normal 0.0 0.0 -1.0
outer loop
vertex 44.0 -4.800000190734863 121.3499984741211
vertex 48.5 -4.800000190734863 121.3499984741211
vertex 48.5 -15.199999809265137 121.3499984741211
endloop
endfacet
facet normal -0.0 -0.0 -1.0
outer loop
vertex 44.0 -4.800000190734863 121.3499984741211
vertex 48.5 -15.199999809265137 121.3499984741211
vertex 44.0 -15.199999809265137 121.3499984741211
endloop
endfacet
facet normal 0.0 -1.0 0.0
outer loop
vertex 44.0 -4.800000190734863 117.45000457763672
vertex 48.5 -4.800000190734863 117.45000457763672
vertex 48.5 -4.800000190734863 121.3499984741211
endloop
endfacet
facet normal 0.0 -1.0 0.0
outer loop
vertex 44.0 -4.800000190734863 117.45000457763672
vertex 48.5 -4.800000190734863 121.3499984741211
vertex 44.0 -4.800000190734863 121.3499984741211
endloop
endfacet
facet normal 0.0 -0.0 1.0
outer loop
vertex 48.5 -15.199999809265137 117.45000457763672
vertex 48.5 -4.800000190734863 117.45000457763672
vertex 44.0 -4.800000190734863 117.45000457763672
endloop
endfacet
facet normal 0.0 0.0 1.0
outer loop
vertex 48.5 -15.199999809265137 117.45000457763672
vertex 44.0 -4.800000190734863 117.45000457763672
vertex 44.0 -15.199999809265137 117.45000457763672
endloop
endfacet
facet normal -1.0 -0.0 -0.0
outer loop
vertex 48.5 -4.800000190734863 121.3499984741211
vertex 48.5 -4.800000190734863 117.45000457763672
vertex 48.5 -15.199999809265137 117.45000457763672
endloop
endfacet
facet normal -1.0 -0.0 0.0
outer loop
vertex 48.5 -4.800000190734863 121.3499984741211
vertex 48.5 -15.199999809265137 117.45000457763672
vertex 48.5 -15.199999809265137 121.3499984741211
endloop
endfacet
facet normal -0.0 1.0 0.0
outer loop
vertex 44.0 4.800000190734863 121.3499984741211
vertex 48.5 4.800000190734863 121.3499984741211
vertex 48.5 4.800000190734863 117.45000457763672
endloop
endfacet
facet normal 0.0 1.0 0.0
outer loop
vertex 44.0 4.800000190734863 121.3499984741211
vertex 48.5 4.800000190734863 117.45000457763672
vertex 44.0 4.800000190734863 117.45000457763672
endloop
endfacet
facet normal 0.0 0.0 -1.0
outer loop
vertex 44.0 15.199999809265137 121.3499984741211
vertex 48.5 15.199999809265137 121.3499984741211
vertex 48.5 4.800000190734863 121.3499984741211
endloop
endfacet
facet normal -0.0 -0.0 -1.0
outer loop
vertex 44.0 15.199999809265137 121.3499984741211
vertex 48.5 4.800000190734863 121.3499984741211
vertex 44.0 4.800000190734863 121.3499984741211
endloop
endfacet
facet normal 0.0 -1.0 0.0
outer loop
vertex 44.0 15.199999809265137 117.45000457763672
vertex 48.5 15.199999809265137 117.45000457763672
vertex 48.5 15.199999809265137 121.3499984741211
endloop
endfacet
facet normal 0.0 -1.0 0.0
outer loop
vertex 44.0 15.199999809265137 117.45000457763672
vertex 48.5 15.199999809265137 121.3499984741211
vertex 44.0 15.199999809265137 121.3499984741211
endloop
endfacet
facet normal 0.0 -0.0 1.0
outer loop
vertex 48.5 4.800000190734863 117.45000457763672
vertex 48.5 15.199999809265137 117.45000457763672
vertex 44.0 15.199999809265137 117.45000457763672
endloop
endfacet
facet normal 0.0 0.0 1.0
outer loop
vertex 48.5 4.800000190734863 117.45000457763672
vertex 44.0 15.199999809265137 117.45000457763672
vertex 44.0 4.800000190734863 117.45000457763672
endloop
endfacet
facet normal -1.0 -0.0 -0.0
outer loop
vertex 48.5 15.199999809265137 121.3499984741211
vertex 48.5 15.199999809265137 117.45000457763672
vertex 48.5 4.800000190734863 117.45000457763672
endloop
endfacet
facet normal -1.0 -0.0 0.0
outer loop
vertex 48.5 15.199999809265137 121.3499984741211
vertex 48.5 4.800000190734863 117.45000457763672
vertex 48.5 4.800000190734863 121.3499984741211
endloop
endfacet
facet normal -0.0 1.0 0.0
outer loop
vertex 44.0 -15.199999809265137 160.14999389648438
vertex 48.5 -15.199999809265137 160.14999389648438
vertex 48.5 -15.199999809265137 156.25
endloop
endfacet
facet normal 0.0 1.0 0.0
outer loop
vertex 44.0 -15.199999809265137 160.14999389648438
vertex 48.5 -15.199999809265137 156.25
vertex 44.0 -15.199999809265137 156.25
endloop
endfacet
facet normal -0.0 -0.0 -1.0
outer loop
vertex 48.5 -4.800000190734863 160.14999389648438
vertex 48.5 -15.199999809265137 160.14999389648438
vertex 44.0 -15.199999809265137 160.14999389648438
endloop
endfacet
facet normal -0.0 0.0 -1.0
outer loop
vertex 48.5 -4.800000190734863 160.14999389648438
vertex 44.0 -15.199999809265137 160.14999389648438
vertex 44.0 -4.800000190734863 160.14999389648438
endloop
endfacet
facet normal 0.0 -1.0 0.0
outer loop
vertex 48.5 -4.800000190734863 156.25
vertex 48.5 -4.800000190734863 160.14999389648438
vertex 44.0 -4.800000190734863 160.14999389648438
endloop
endfacet
facet normal -0.0 -1.0 -0.0
outer loop
vertex 48.5 -4.800000190734863 156.25
vertex 44.0 -4.800000190734863 160.14999389648438
vertex 44.0 -4.800000190734863 156.25
endloop
endfacet
facet normal 0.0 -0.0 1.0
outer loop
vertex 48.5 -15.199999809265137 156.25
vertex 48.5 -4.800000190734863 156.25
vertex 44.0 -4.800000190734863 156.25
endloop
endfacet
facet normal 0.0 0.0 1.0
outer loop
vertex 48.5 -15.199999809265137 156.25
vertex 44.0 -4.800000190734863 156.25
vertex 44.0 -15.199999809265137 156.25
endloop
endfacet
facet normal -1.0 -0.0 -0.0
outer loop
vertex 48.5 -4.800000190734863 160.14999389648438
vertex 48.5 -4.800000190734863 156.25
vertex 48.5 -15.199999809265137 156.25
endloop
endfacet
facet normal -1.0 -0.0 0.0
outer loop
vertex 48.5 -4.800000190734863 160.14999389648438
vertex 48.5 -15.199999809265137 156.25
vertex 48.5 -15.199999809265137 160.14999389648438
endloop
endfacet
facet normal -0.0 1.0 0.0
outer loop
vertex 44.0 4.800000190734863 160.14999389648438
vertex 48.5 4.800000190734863 160.14999389648438
vertex 48.5 4.800000190734863 156.25
endloop
endfacet
facet normal 0.0 1.0 0.0
outer loop
vertex 44.0 4.800000190734863 160.14999389648438
vertex 48.5 4.800000190734863 156.25
vertex 44.0 4.800000190734863 156.25
endloop
endfacet
facet normal 0.0 0.0 -1.0
outer loop
vertex 44.0 15.199999809265137 160.14999389648438
vertex 48.5 15.199999809265137 160.14999389648438
vertex 48.5 4.800000190734863 160.14999389648438
endloop
endfacet
facet normal -0.0 -0.0 -1.0
outer loop
vertex 44.0 15.199999809265137 160.14999389648438
vertex 48.5 4.800000190734863 160.14999389648438
vertex 44.0 4.800000190734863 160.14999389648438
endloop
endfacet
facet normal 0.0 -1.0 0.0
outer loop
vertex 44.0 15.199999809265137 156.25
vertex 48.5 15.199999809265137 156.25
vertex 48.5 15.199999809265137 160.14999389648438
endloop
endfacet
facet normal 0.0 -1.0 0.0
outer loop
vertex 44.0 15.199999809265137 156.25
vertex 48.5 15.199999809265137 160.14999389648438
vertex 44.0 15.199999809265137 160.14999389648438
endloop
endfacet
facet normal 0.0 0.0 1.0
outer loop
vertex 44.0 4.800000190734863 156.25
vertex 48.5 4.800000190734863 156.25
vertex 48.5 15.199999809265137 156.25
endloop
endfacet
facet normal 0.0 -0.0 1.0
outer loop
vertex 44.0 4.800000190734863 156.25
vertex 48.5 15.199999809265137 156.25
vertex 44.0 15.199999809265137 156.25
endloop
endfacet
facet normal -1.0 -0.0 -0.0
outer loop
vertex 48.5 15.199999809265137 160.14999389648438
vertex 48.5 15.199999809265137 156.25
vertex 48.5 4.800000190734863 156.25
endloop
endfacet
facet normal -1.0 -0.0 0.0
outer loop
vertex 48.5 15.199999809265137 160.14999389648438
vertex 48.5 4.800000190734863 156.25
vertex 48.5 4.800000190734863 160.14999389648438
endloop
endfacet
facet normal 0.0 1.0 0.0
outer loop
vertex 48.5 -15.199999809265137 198.9499969482422
vertex 48.5 -15.199999809265137 195.0500030517578
vertex 44.0 -15.199999809265137 195.0500030517578
endloop
endfacet
facet normal 0.0 1.0 -0.0
outer loop
vertex 48.5 -15.199999809265137 198.9499969482422
vertex 44.0 -15.199999809265137 195.0500030517578
vertex 44.0 -15.199999809265137 198.9499969482422
endloop
endfacet
facet normal 0.0 0.0 -1.0
outer loop
vertex 44.0 -4.800000190734863 198.9499969482422
vertex 48.5 -4.800000190734863 198.9499969482422
vertex 48.5 -15.199999809265137 198.9499969482422
endloop
endfacet
facet normal -0.0 -0.0 -1.0
outer loop
vertex 44.0 -4.800000190734863 198.9499969482422
vertex 48.5 -15.199999809265137 198.9499969482422
vertex 44.0 -15.199999809265137 198.9499969482422
endloop
endfacet
facet normal 0.0 -1.0 0.0
outer loop
vertex 44.0 -4.800000190734863 195.0500030517578
vertex 48.5 -4.800000190734863 195.0500030517578
vertex 48.5 -4.800000190734863 198.9499969482422
endloop
endfacet
facet normal 0.0 -1.0 0.0
outer loop
vertex 44.0 -4.800000190734863 195.0500030517578
vertex 48.5 -4.800000190734863 198.9499969482422
vertex 44.0 -4.800000190734863 198.9499969482422
endloop
endfacet
facet normal 0.0 0.0 1.0
outer loop
vertex 44.0 -15.199999809265137 195.0500030517578
vertex 48.5 -15.199999809265137 195.0500030517578
vertex 48.5 -4.800000190734863 195.0500030517578
endloop
endfacet
facet normal 0.0 -0.0 1.0
outer loop
vertex 44.0 -15.199999809265137 195.0500030517578
vertex 48.5 -4.800000190734863 195.0500030517578
vertex 44.0 -4.800000190734863 195.0500030517578
endloop
endfacet
facet normal -1.0 -0.0 -0.0
outer loop
vertex 48.5 -4.800000190734863 198.9499969482422
vertex 48.5 -4.800000190734863 195.0500030517578
vertex 48.5 -15.199999809265137 195.0500030517578
endloop
endfacet
facet normal -1.0 -0.0 0.0
outer loop
vertex 48.5 -4.800000190734863 198.9499969482422
vertex 48.5 -15.199999809265137 195.0500030517578
vertex 48.5 -15.199999809265137 198.9499969482422
endloop
endfacet
facet normal -0.0 1.0 0.0
outer loop
vertex 44.0 4.800000190734863 198.9499969482422
vertex 48.5 4.800000190734863 198.9499969482422
vertex 48.5 4.800000190734863 195.0500030517578
endloop
endfacet
facet normal 0.0 1.0 0.0
outer loop
vertex 44.0 4.800000190734863 198.9499969482422
vertex 48.5 4.800000190734863 195.0500030517578
vertex 44.0 4.800000190734863 195.0500030517578
endloop
endfacet
facet normal 0.0 0.0 -1.0
outer loop
vertex 44.0 15.199999809265137 198.9499969482422
vertex 48.5 15.199999809265137 198.9499969482422
vertex 48.5 4.800000190734863 198.9499969482422
endloop
endfacet
facet normal -0.0 -0.0 -1.0
outer loop
vertex 44.0 15.199999809265137 198.9499969482422
vertex 48.5 4.800000190734863 198.9499969482422
vertex 44.0 4.800000190734863 198.9499969482422
endloop
endfacet
facet normal 0.0 -1.0 0.0
outer loop
vertex 48.5 15.199999809265137 195.0500030517578
vertex 48.5 15.199999809265137 198.9499969482422
vertex 44.0 15.199999809265137 198.9499969482422
endloop
endfacet
facet normal -0.0 -1.0 -0.0
outer loop
vertex 48.5 15.199999809265137 195.0500030517578
vertex 44.0 15.199999809265137 198.9499969482422
vertex 44.0 15.199999809265137 195.0500030517578
endloop
endfacet
facet normal 0.0 0.0 1.0
outer loop
vertex 44.0 4.800000190734863 195.0500030517578
vertex 48.5 4.800000190734863 195.0500030517578
vertex 48.5 15.199999809265137 195.0500030517578
endloop
endfacet
facet normal 0.0 -0.0 1.0
outer loop
vertex 44.0 4.800000190734863 195.0500030517578
vertex 48.5 15.199999809265137 195.0500030517578
vertex 44.0 15.199999809265137 195.0500030517578
endloop
endfacet
facet normal -1.0 -0.0 -0.0
outer loop
vertex 48.5 15.199999809265137 198.9499969482422
vertex 48.5 15.199999809265137 195.0500030517578
vertex 48.5 4.800000190734863 195.0500030517578
endloop
endfacet
facet normal -1.0 -0.0 0.0
outer loop
vertex 48.5 15.199999809265137 198.9499969482422
vertex 48.5 4.800000190734863 195.0500030517578
vertex 48.5 4.800000190734863 198.9499969482422
endloop
endfacet
facet normal -1.0 0.0 0.0
outer loop
vertex 44.0 16.0 0.0
vertex 44.0 -4.800000190734863 1.049999713897705
vertex 44.0 4.800000190734863 1.049999713897705
endloop
endfacet
facet normal -1.0 0.0 0.0
outer loop
vertex 49.900001525878906 -12.375 5.0
vertex 49.900001525878906 -12.375 195.0
vertex 49.900001525878906 -11.225000381469727 195.0
endloop
endfacet
facet normal -1.0 0.0 0.0
outer loop
vertex 49.900001525878906 -12.375 5.0
vertex 49.900001525878906 -11.225000381469727 195.0
vertex 49.900001525878906 -11.225000381469727 5.0
endloop
endfacet
facet normal 0.0 1.0 0.0
outer loop
vertex 49.900001525878906 -11.225000381469727 5.0
vertex 49.900001525878906 -11.225000381469727 195.0
vertex 50.0 -11.225000381469727 195.0
endloop
endfacet
facet normal -0.0 1.0 0.0
outer loop
vertex 49.900001525878906 -11.225000381469727 5.0
vertex 50.0 -11.225000381469727 195.0
vertex 50.0 -11.225000381469727 5.0
endloop
endfacet
facet normal 1.0 0.0 -0.0
outer loop
vertex 50.0 -11.225000381469727 5.0
vertex 50.0 -11.225000381469727 195.0
vertex 50.0 -12.375 195.0
endloop
endfacet
facet normal 1.0 0.0 0.0
outer loop
vertex 50.0 -11.225000381469727 5.0
vertex 50.0 -12.375 195.0
vertex 50.0 -12.375 5.0
endloop
endfacet
facet normal 0.0 -1.0 0.0
outer loop
vertex 50.0 -12.375 5.0
vertex 50.0 -12.375 195.0
vertex 49.900001525878906 -12.375 195.0
endloop
endfacet
facet normal -0.0 -1.0 -0.0
outer loop
vertex 50.0 -12.375 5.0
vertex 49.900001525878906 -12.375 195.0
vertex 49.900001525878906 -12.375 5.0
endloop
endfacet
facet normal 0.0 0.0 -1.0
outer loop
vertex 49.900001525878906 -11.225000381469727 5.0
vertex 50.0 -11.225000381469727 5.0
vertex 50.0 -12.375 5.0
endloop
endfacet
facet normal -0.0 -0.0 -1.0
outer loop
vertex 49.900001525878906 -11.225000381469727 5.0
vertex 50.0 -12.375 5.0
vertex 49.900001525878906 -12.375 5.0
endloop
endfacet
facet normal 0.0 0.0 1.0
outer loop
vertex 50.0 -11.225000381469727 195.0
vertex 49.900001525878906 -11.225000381469727 195.0
vertex 49.900001525878906 -12.375 195.0
endloop
endfacet
facet normal -0.0 0.0 1.0
outer loop
vertex 50.0 -11.225000381469727 195.0
vertex 49.900001525878906 -12.375 195.0
vertex 50.0 -12.375 195.0
endloop
endfacet
facet normal -1.0 0.0 0.0
outer loop
vertex 49.900001525878906 -4.525000095367432 5.0
vertex 49.900001525878906 -4.525000095367432 195.0
vertex 49.900001525878906 -3.674999952316284 195.0
endloop
endfacet
facet normal -1.0 0.0 0.0
outer loop
vertex 49.900001525878906 -4.525000095367432 5.0
vertex 49.900001525878906 -3.674999952316284 195.0
vertex 49.900001525878906 -3.674999952316284 5.0
endloop
endfacet
facet normal 0.0 1.0 0.0
outer loop
vertex 49.900001525878906 -3.674999952316284 5.0
vertex 49.900001525878906 -3.674999952316284 195.0
vertex 50.0 -3.674999952316284 195.0
endloop
endfacet
facet normal -0.0 1.0 0.0
outer loop
vertex 49.900001525878906 -3.674999952316284 5.0
vertex 50.0 -3.674999952316284 195.0
vertex 50.0 -3.674999952316284 5.0
endloop
endfacet
facet normal 1.0 0.0 -0.0
outer loop
vertex 50.0 -3.674999952316284 5.0
vertex 50.0 -3.674999952316284 195.0
vertex 50.0 -4.525000095367432 195.0
endloop
endfacet
facet normal 1.0 0.0 0.0
outer loop
vertex 50.0 -3.674999952316284 5.0
vertex 50.0 -4.525000095367432 195.0
vertex 50.0 -4.525000095367432 5.0
endloop
endfacet
facet normal 0.0 -1.0 0.0
outer loop
vertex 50.0 -4.525000095367432 5.0
vertex 50.0 -4.525000095367432 195.0
vertex 49.900001525878906 -4.525000095367432 195.0
endloop
endfacet
facet normal -0.0 -1.0 -0.0
outer loop
vertex 50.0 -4.525000095367432 5.0
vertex 49.900001525878906 -4.525000095367432 195.0
vertex 49.900001525878906 -4.525000095367432 5.0
endloop
endfacet
facet normal 0.0 0.0 -1.0
outer loop
vertex 49.900001525878906 -3.674999952316284 5.0
vertex 50.0 -3.674999952316284 5.0
vertex 50.0 -4.525000095367432 5.0
endloop
endfacet
facet normal -0.0 -0.0 -1.0
outer loop
vertex 49.900001525878906 -3.674999952316284 5.0
vertex 50.0 -4.525000095367432 5.0
vertex 49.900001525878906 -4.525000095367432 5.0
endloop
endfacet
facet normal 0.0 0.0 1.0
outer loop
vertex 50.0 -3.674999952316284 195.0
vertex 49.900001525878906 -3.674999952316284 195.0
vertex 49.900001525878906 -4.525000095367432 195.0
endloop
endfacet
facet normal -0.0 0.0 1.0
outer loop
vertex 50.0 -3.674999952316284 195.0
vertex 49.900001525878906 -4.525000095367432 195.0
vertex 50.0 -4.525000095367432 195.0
endloop
endfacet
facet normal -1.0 0.0 0.0
outer loop
vertex 49.900001525878906 3.7750000953674316 5.0
vertex 49.900001525878906 3.7750000953674316 195.0
vertex 49.900001525878906 4.825000286102295 195.0
endloop
endfacet
facet normal -1.0 0.0 0.0
outer loop
vertex 49.900001525878906 3.7750000953674316 5.0
vertex 49.900001525878906 4.825000286102295 195.0
vertex 49.900001525878906 4.825000286102295 5.0
endloop
endfacet
facet normal 0.0 1.0 0.0
outer loop
vertex 49.900001525878906 4.825000286102295 5.0
vertex 49.900001525878906 4.825000286102295 195.0
vertex 50.0 4.825000286102295 195.0
endloop
endfacet
facet normal -0.0 1.0 0.0
outer loop
vertex 49.900001525878906 4.825000286102295 5.0
vertex 50.0 4.825000286102295 195.0
vertex 50.0 4.825000286102295 5.0
endloop
endfacet
facet normal 1.0 0.0 -0.0
outer loop
vertex 50.0 4.825000286102295 5.0
vertex 50.0 4.825000286102295 195.0
vertex 50.0 3.7750000953674316 195.0
endloop
endfacet
facet normal 1.0 0.0 0.0
outer loop
vertex 50.0 4.825000286102295 5.0
vertex 50.0 3.7750000953674316 195.0
vertex 50.0 3.7750000953674316 5.0
endloop
endfacet
facet normal 0.0 -1.0 0.0
outer loop
vertex 50.0 3.7750000953674316 5.0
vertex 50.0 3.7750000953674316 195.0
vertex 49.900001525878906 3.7750000953674316 195.0
endloop
endfacet
facet normal -0.0 -1.0 -0.0
outer loop
vertex 50.0 3.7750000953674316 5.0
vertex 49.900001525878906 3.7750000953674316 195.0
vertex 49.900001525878906 3.7750000953674316 5.0
endloop
endfacet
facet normal 0.0 0.0 -0.9999999999999999
outer loop
vertex 49.900001525878906 4.825000286102295 5.0
vertex 50.0 4.825000286102295 5.0
vertex 50.0 3.7750000953674316 5.0
endloop
endfacet
facet normal -0.0 -0.0 -0.9999999999999999
outer loop
vertex 49.900001525878906 4.825000286102295 5.0
vertex 50.0 3.7750000953674316 5.0
vertex 49.900001525878906 3.7750000953674316 5.0
endloop
endfacet
facet normal 0.0 0.0 0.9999999999999999
outer loop
vertex 50.0 4.825000286102295 195.0
vertex 49.900001525878906 4.825000286102295 195.0
vertex 49.900001525878906 3.7750000953674316 195.0
endloop
endfacet
facet normal -0.0 0.0 0.9999999999999999
outer loop
vertex 50.0 4.825000286102295 195.0
vertex 49.900001525878906 3.7750000953674316 195.0
vertex 50.0 3.7750000953674316 195.0
endloop
endfacet
facet normal -1.0 0.0 0.0
outer loop
vertex 49.900001525878906 11.25 5.0
vertex 49.900001525878906 11.25 195.0
vertex 49.900001525878906 12.149999618530273 195.0
endloop
endfacet
facet normal -1.0 0.0 0.0
outer loop
vertex 49.900001525878906 11.25 5.0
vertex 49.900001525878906 12.149999618530273 195.0
vertex 49.900001525878906 12.149999618530273 5.0
endloop
endfacet
facet normal 0.0 1.0 0.0
outer loop
vertex 49.900001525878906 12.149999618530273 5.0
vertex 49.900001525878906 12.149999618530273 195.0
vertex 50.0 12.149999618530273 195.0
endloop
endfacet
facet normal -0.0 1.0 0.0
outer loop
vertex 49.900001525878906 12.149999618530273 5.0
vertex 50.0 12.149999618530273 195.0
vertex 50.0 12.149999618530273 5.0
endloop
endfacet
facet normal 1.0 0.0 -0.0
outer loop
vertex 50.0 12.149999618530273 5.0
vertex 50.0 12.149999618530273 195.0
vertex 50.0 11.25 195.0
endloop
endfacet
facet normal 1.0 0.0 0.0
outer loop
vertex 50.0 12.149999618530273 5.0
vertex 50.0 11.25 195.0
vertex 50.0 11.25 5.0
endloop
endfacet
facet normal 0.0 -1.0 0.0
outer loop
vertex 50.0 11.25 5.0
vertex 50.0 11.25 195.0
vertex 49.900001525878906 11.25 195.0
endloop
endfacet
facet normal -0.0 -1.0 -0.0
outer loop
vertex 50.0 11.25 5.0
vertex 49.900001525878906 11.25 195.0
vertex 49.900001525878906 11.25 5.0
endloop
endfacet
facet normal 0.0 0.0 -1.0
outer loop
vertex 49.900001525878906 12.149999618530273 5.0
vertex 50.0 12.149999618530273 5.0
vertex 50.0 11.25 5.0
endloop
endfacet
facet normal -0.0 -0.0 -1.0
outer loop
vertex 49.900001525878906 12.149999618530273 5.0
vertex 50.0 11.25 5.0
vertex 49.900001525878906 11.25 5.0
endloop
endfacet
facet normal 0.0 0.0 1.0
outer loop
vertex 50.0 12.149999618530273 195.0
vertex 49.900001525878906 12.149999618530273 195.0
vertex 49.900001525878906 11.25 195.0
endloop
endfacet
facet normal -0.0 0.0 1.0
outer loop
vertex 50.0 12.149999618530273 195.0
vertex 49.900001525878906 11.25 195.0
vertex 50.0 11.25 195.0
endloop
endfacet
facet normal -1.0 0.0 0.0
outer loop
vertex 44.64999771118164 -16.0 5.0
vertex 44.64999771118164 -16.0 195.0
vertex 44.64999771118164 -15.899999618530273 195.0
endloop
endfacet
facet normal -1.0 0.0 0.0
outer loop
vertex 44.64999771118164 -16.0 5.0
vertex 44.64999771118164 -15.899999618530273 195.0
vertex 44.64999771118164 -15.899999618530273 5.0
endloop
endfacet
facet normal 0.0 1.0 0.0
outer loop
vertex 44.64999771118164 -15.899999618530273 5.0
vertex 44.64999771118164 -15.899999618530273 195.0
vertex 45.45000076293945 -15.899999618530273 195.0
endloop
endfacet
facet normal -0.0 1.0 0.0
outer loop
vertex 44.64999771118164 -15.899999618530273 5.0
vertex 45.45000076293945 -15.899999618530273 195.0
vertex 45.45000076293945 -15.899999618530273 5.0
endloop
endfacet
facet normal 1.0 0.0 -0.0
outer loop
vertex 45.45000076293945 -15.899999618530273 5.0
vertex 45.45000076293945 -15.899999618530273 195.0
vertex 45.45000076293945 -16.0 195.0
endloop
endfacet
facet normal 1.0 0.0 0.0
outer loop
vertex 45.45000076293945 -15.899999618530273 5.0
vertex 45.45000076293945 -16.0 195.0
vertex 45.45000076293945 -16.0 5.0
endloop
endfacet
facet normal 0.0 -1.0 0.0
outer loop
vertex 45.45000076293945 -16.0 5.0
vertex 45.45000076293945 -16.0 195.0
vertex 44.64999771118164 -16.0 195.0
endloop
endfacet
facet normal -0.0 -1.0 -0.0
outer loop
vertex 45.45000076293945 -16.0 5.0
vertex 44.64999771118164 -16.0 195.0
vertex 44.64999771118164 -16.0 5.0
endloop
endfacet
facet normal 0.0 0.0 -0.9999999999999999
outer loop
vertex 44.64999771118164 -15.899999618530273 5.0
vertex 45.45000076293945 -15.899999618530273 5.0
vertex 45.45000076293945 -16.0 5.0
endloop
endfacet
facet normal -0.0 -0.0 -0.9999999999999999
outer loop
vertex 44.64999771118164 -15.899999618530273 5.0
vertex 45.45000076293945 -16.0 5.0
vertex 44.64999771118164 -16.0 5.0
endloop
endfacet
facet normal 0.0 0.0 0.9999999999999999
outer loop
vertex 45.45000076293945 -15.899999618530273 195.0
vertex 44.64999771118164 -15.899999618530273 195.0
vertex 44.64999771118164 -16.0 195.0
endloop
endfacet
facet normal -0.0 0.0 0.9999999999999999
outer loop
vertex 45.45000076293945 -15.899999618530273 195.0
vertex 44.64999771118164 -16.0 195.0
vertex 45.45000076293945 -16.0 195.0
endloop
endfacet
facet normal -1.0 0.0 0.0
outer loop
vertex 45.875 -16.0 5.0
vertex 45.875 -16.0 195.0
vertex 45.875 -15.899999618530273 195.0
endloop
endfacet
facet normal -1.0 0.0 0.0
outer loop
vertex 45.875 -16.0 5.0
vertex 45.875 -15.899999618530273 195.0
vertex 45.875 -15.899999618530273 5.0
endloop
endfacet
facet normal 0.0 1.0 0.0
outer loop
vertex 45.875 -15.899999618530273 5.0
vertex 45.875 -15.899999618530273 195.0
vertex 46.82499694824219 -15.899999618530273 195.0
endloop
endfacet
facet normal -0.0 1.0 0.0
outer loop
vertex 45.875 -15.899999618530273 5.0
vertex 46.82499694824219 -15.899999618530273 195.0
vertex 46.82499694824219 -15.899999618530273 5.0
endloop
endfacet
facet normal 1.0 0.0 -0.0
outer loop
vertex 46.82499694824219 -15.899999618530273 5.0
vertex 46.82499694824219 -15.899999618530273 195.0
vertex 46.82499694824219 -16.0 195.0
endloop
endfacet
facet normal 1.0 0.0 0.0
outer loop
vertex 46.82499694824219 -15.899999618530273 5.0
vertex 46.82499694824219 -16.0 195.0
vertex 46.82499694824219 -16.0 5.0
endloop
endfacet
facet normal 0.0 -1.0 0.0
outer loop
vertex 46.82499694824219 -16.0 5.0
vertex 46.82499694824219 -16.0 195.0
vertex 45.875 -16.0 195.0
endloop
endfacet
facet normal -0.0 -1.0 -0.0
outer loop
vertex 46.82499694824219 -16.0 5.0
vertex 45.875 -16.0 195.0
vertex 45.875 -16.0 5.0
endloop
endfacet
facet normal 0.0 0.0 -1.0
outer loop
vertex 45.875 -15.899999618530273 5.0
vertex 46.82499694824219 -15.899999618530273 5.0
vertex 46.82499694824219 -16.0 5.0
endloop
endfacet
facet normal -0.0 -0.0 -1.0
outer loop
vertex 45.875 -15.899999618530273 5.0
vertex 46.82499694824219 -16.0 5.0
vertex 45.875 -16.0 5.0
endloop
endfacet
facet normal 0.0 0.0 1.0
outer loop
vertex 46.82499694824219 -15.899999618530273 195.0
vertex 45.875 -15.899999618530273 195.0
vertex 45.875 -16.0 195.0
endloop
endfacet
facet normal -0.0 0.0 1.0
outer loop
vertex 46.82499694824219 -15.899999618530273 195.0
vertex 45.875 -16.0 195.0
vertex 46.82499694824219 -16.0 195.0
endloop
endfacet
facet normal -1.0 0.0 0.0
outer loop
vertex 47.32500076293945 -16.0 5.0
vertex 47.32500076293945 -16.0 195.0
vertex 47.32500076293945 -15.899999618530273 195.0
endloop
endfacet
facet normal -1.0 0.0 0.0
outer loop
vertex 47.32500076293945 -16.0 5.0
vertex 47.32500076293945 -15.899999618530273 195.0
vertex 47.32500076293945 -15.899999618530273 5.0
endloop
endfacet
facet normal 0.0 1.0 0.0
outer loop
vertex 47.32500076293945 -15.899999618530273 5.0
vertex 47.32500076293945 -15.899999618530273 195.0
vertex 48.17499923706055 -15.899999618530273 195.0
endloop
endfacet
facet normal -0.0 1.0 0.0
outer loop
vertex 47.32500076293945 -15.899999618530273 5.0
vertex 48.17499923706055 -15.899999618530273 195.0
vertex 48.17499923706055 -15.899999618530273 5.0
endloop
endfacet
facet normal 1.0 0.0 -0.0
outer loop
vertex 48.17499923706055 -15.899999618530273 5.0
vertex 48.17499923706055 -15.899999618530273 195.0
vertex 48.17499923706055 -16.0 195.0
endloop
endfacet
facet normal 1.0 0.0 0.0
outer loop
vertex 48.17499923706055 -15.899999618530273 5.0
vertex 48.17499923706055 -16.0 195.0
vertex 48.17499923706055 -16.0 5.0
endloop
endfacet
facet normal 0.0 -1.0 0.0
outer loop
vertex 48.17499923706055 -16.0 5.0
vertex 48.17499923706055 -16.0 195.0
vertex 47.32500076293945 -16.0 195.0
endloop
endfacet
facet normal -0.0 -1.0 -0.0
outer loop
vertex 48.17499923706055 -16.0 5.0
vertex 47.32500076293945 -16.0 195.0
vertex 47.32500076293945 -16.0 5.0
endloop
endfacet
facet normal 0.0 0.0 -0.9999999999999999
outer loop
vertex 47.32500076293945 -15.899999618530273 5.0
vertex 48.17499923706055 -15.899999618530273 5.0
vertex 48.17499923706055 -16.0 5.0
endloop
endfacet
facet normal -0.0 -0.0 -0.9999999999999999
outer loop
vertex 47.32500076293945 -15.899999618530273 5.0
vertex 48.17499923706055 -16.0 5.0
vertex 47.32500076293945 -16.0 5.0
endloop
endfacet
facet normal 0.0 0.0 0.9999999999999999
outer loop
vertex 48.17499923706055 -15.899999618530273 195.0
vertex 47.32500076293945 -15.899999618530273 195.0
vertex 47.32500076293945 -16.0 195.0
endloop
endfacet
facet normal -0.0 0.0 0.9999999999999999
outer loop
vertex 48.17499923706055 -15.899999618530273 195.0
vertex 47.32500076293945 -16.0 195.0
vertex 48.17499923706055 -16.0 195.0
endloop
endfacet
facet normal -1.0 0.0 0.0
outer loop
vertex 48.625 -16.0 5.0
vertex 48.625 -16.0 195.0
vertex 48.625 -15.899999618530273 195.0
endloop
endfacet
facet normal -1.0 0.0 0.0
outer loop
vertex 48.625 -16.0 5.0
vertex 48.625 -15.899999618530273 195.0
vertex 48.625 -15.899999618530273 5.0
endloop
endfacet
facet normal 0.0 1.0 0.0
outer loop
vertex 48.625 -15.899999618530273 5.0
vertex 48.625 -15.899999618530273 195.0
vertex 49.375 -15.899999618530273 195.0
endloop
endfacet
facet normal -0.0 1.0 0.0
outer loop
vertex 48.625 -15.899999618530273 5.0
vertex 49.375 -15.899999618530273 195.0
vertex 49.375 -15.899999618530273 5.0
endloop
endfacet
facet normal 1.0 0.0 -0.0
outer loop
vertex 49.375 -15.899999618530273 5.0
vertex 49.375 -15.899999618530273 195.0
vertex 49.375 -16.0 195.0
endloop
endfacet
facet normal 1.0 0.0 0.0
outer loop
vertex 49.375 -15.899999618530273 5.0
vertex 49.375 -16.0 195.0
vertex 49.375 -16.0 5.0
endloop
endfacet
facet normal 0.0 -1.0 0.0
outer loop
vertex 49.375 -16.0 5.0
vertex 49.375 -16.0 195.0
vertex 48.625 -16.0 195.0
endloop
endfacet
facet normal -0.0 -1.0 -0.0
outer loop
vertex 49.375 -16.0 5.0
vertex 48.625 -16.0 195.0
vertex 48.625 -16.0 5.0
endloop
endfacet
facet normal 0.0 0.0 -1.0
outer loop
vertex 48.625 -15.899999618530273 5.0
vertex 49.375 -15.899999618530273 5.0
vertex 49.375 -16.0 5.0
endloop
endfacet
facet normal -0.0 -0.0 -1.0
outer loop
vertex 48.625 -15.899999618530273 5.0
vertex 49.375 -16.0 5.0
vertex 48.625 -16.0 5.0
endloop
endfacet
facet normal 0.0 0.0 1.0
outer loop
vertex 49.375 -15.899999618530273 195.0
vertex 48.625 -15.899999618530273 195.0
vertex 48.625 -16.0 195.0
endloop
endfacet
facet normal -0.0 0.0 1.0
outer loop
vertex 49.375 -15.899999618530273 195.0
vertex 48.625 -16.0 195.0
vertex 49.375 -16.0 195.0
endloop
endfacet

endsolid
