solid 
facet normal -1.0 0.0 0.0
outer loop
vertex -475.0 -250.0 45.0
vertex -475.0 -250.0 695.0
vertex -475.0 250.0 695.0
endloop
endfacet
facet normal -1.0 0.0 0.0
outer loop
vertex -475.0 -250.0 45.0
vertex -475.0 250.0 695.0
vertex -475.0 250.0 45.0
endloop
endfacet
facet normal 0.0 1.0 0.0
outer loop
vertex -475.0 250.0 45.0
vertex -475.0 250.0 695.0
vertex -385.0 250.0 695.0
endloop
endfacet
facet normal -0.0 1.0 0.0
outer loop
vertex -475.0 250.0 45.0
vertex -385.0 250.0 695.0
vertex -385.0 250.0 45.0
endloop
endfacet
facet normal 1.0 0.0 -0.0
outer loop
vertex -385.0 -25.200002670288086 567.2999877929688
vertex -385.0 -25.200002670288086 622.7000122070312
vertex -385.0 -250.0 695.0
endloop
endfacet
facet normal 1.0 -0.0 0.0
outer loop
vertex -385.0 -250.0 695.0
vertex -385.0 -250.0 45.0
vertex -385.0 -45.0 210.0
endloop
endfacet
facet normal 1.0 -0.0 0.0
outer loop
vertex -385.0 -250.0 695.0
vertex -385.0 -45.0 210.0
vertex -385.0 -45.0 290.0
endloop
endfacet
facet normal 1.0 0.0 0.0
outer loop
vertex -385.0 -25.200002670288086 567.2999877929688
vertex -385.0 -250.0 695.0
vertex -385.0 -45.0 290.0
endloop
endfacet
facet normal 1.0 0.0 0.0
outer loop
vertex -385.0 45.0 290.0
vertex -385.0 45.0 210.0
vertex -385.0 250.0 45.0
endloop
endfacet
facet normal 1.0 -0.0 0.0
outer loop
vertex -385.0 -25.200002670288086 567.2999877929688
vertex -385.0 -45.0 290.0
vertex -385.0 45.0 290.0
endloop
endfacet
facet normal 1.0 0.0 0.0
outer loop
vertex -385.0 250.0 695.0
vertex -385.0 25.19999885559082 622.7000122070312
vertex -385.0 25.19999885559082 567.2999877929688
endloop
endfacet
facet normal 0.9999999999999999 0.0 0.0
outer loop
vertex -385.0 25.19999885559082 567.2999877929688
vertex -385.0 -25.200002670288086 567.2999877929688
vertex -385.0 45.0 290.0
endloop
endfacet
facet normal 1.0 -0.0 0.0
outer loop
vertex -385.0 45.0 290.0
vertex -385.0 250.0 45.0
vertex -385.0 250.0 695.0
endloop
endfacet
facet normal 1.0 0.0 -0.0
outer loop
vertex -385.0 45.0 290.0
vertex -385.0 250.0 695.0
vertex -385.0 25.19999885559082 567.2999877929688
endloop
endfacet
facet normal 1.0 0.0 -0.0
outer loop
vertex -385.0 25.19999885559082 622.7000122070312
vertex -385.0 250.0 695.0
vertex -385.0 -250.0 695.0
endloop
endfacet
facet normal 0.9999999999999999 0.0 0.0
outer loop
vertex -385.0 25.19999885559082 622.7000122070312
vertex -385.0 -250.0 695.0
vertex -385.0 -25.200002670288086 622.7000122070312
endloop
endfacet
facet normal 1.0 -0.0 0.0
outer loop
vertex -385.0 -45.0 210.0
vertex -385.0 -250.0 45.0
vertex -385.0 250.0 45.0
endloop
endfacet
facet normal 0.9999999999999999 -0.0 -0.0
outer loop
vertex -385.0 -45.0 210.0
vertex -385.0 250.0 45.0
vertex -385.0 45.0 210.0
endloop
endfacet
facet normal 0.0 -1.0 0.0
outer loop
vertex -385.0 -250.0 45.0
vertex -385.0 -250.0 695.0
vertex -475.0 -250.0 695.0
endloop
endfacet
facet normal -0.0 -1.0 -0.0
outer loop
vertex -385.0 -250.0 45.0
vertex -475.0 -250.0 695.0
vertex -475.0 -250.0 45.0
endloop
endfacet
facet normal 0.0 -0.0 1.0
outer loop
vertex -448.0 125.0 695.0
vertex -448.0 175.0 695.0
vertex -475.0 250.0 695.0
endloop
endfacet
facet normal -0.0 0.0 1.0
outer loop
vertex -475.0 250.0 695.0
vertex -475.0 -250.0 695.0
vertex -448.0 -175.0 695.0
endloop
endfacet
facet normal -0.0 0.0 1.0
outer loop
vertex -475.0 250.0 695.0
vertex -448.0 -175.0 695.0
vertex -448.0 -125.0 695.0
endloop
endfacet
facet normal 0.0 0.0 1.0
outer loop
vertex -448.0 125.0 695.0
vertex -475.0 250.0 695.0
vertex -448.0 -125.0 695.0
endloop
endfacet
facet normal 0.0 0.0 1.0
outer loop
vertex -412.0 -125.0 695.0
vertex -412.0 -175.0 695.0
vertex -385.0 -250.0 695.0
endloop
endfacet
facet normal -0.0 0.0 1.0
outer loop
vertex -448.0 125.0 695.0
vertex -448.0 -125.0 695.0
vertex -412.0 -125.0 695.0
endloop
endfacet
facet normal 0.0 0.0 1.0
outer loop
vertex -385.0 250.0 695.0
vertex -412.0 175.0 695.0
vertex -412.0 125.0 695.0
endloop
endfacet
facet normal 0.0 0.0 1.0
outer loop
vertex -412.0 125.0 695.0
vertex -448.0 125.0 695.0
vertex -412.0 -125.0 695.0
endloop
endfacet
facet normal -0.0 0.0 1.0
outer loop
vertex -412.0 -125.0 695.0
vertex -385.0 -250.0 695.0
vertex -385.0 250.0 695.0
endloop
endfacet
facet normal 0.0 -0.0 1.0
outer loop
vertex -412.0 -125.0 695.0
vertex -385.0 250.0 695.0
vertex -412.0 125.0 695.0
endloop
endfacet
facet normal 0.0 -0.0 1.0
outer loop
vertex -412.0 175.0 695.0
vertex -385.0 250.0 695.0
vertex -475.0 250.0 695.0
endloop
endfacet
facet normal 0.0 0.0 1.0
outer loop
vertex -412.0 175.0 695.0
vertex -475.0 250.0 695.0
vertex -448.0 175.0 695.0
endloop
endfacet
facet normal -0.0 0.0 1.0
outer loop
vertex -448.0 -175.0 695.0
vertex -475.0 -250.0 695.0
vertex -385.0 -250.0 695.0
endloop
endfacet
facet normal -0.0 -0.0 1.0
outer loop
vertex -448.0 -175.0 695.0
vertex -385.0 -250.0 695.0
vertex -412.0 -175.0 695.0
endloop
endfacet
facet normal -1.0 0.0 0.0
outer loop
vertex -590.0 -300.0 0.0
vertex -590.0 -300.0 45.0
vertex -590.0 300.0 45.0
endloop
endfacet
facet normal -1.0 0.0 0.0
outer loop
vertex -590.0 -300.0 0.0
vertex -590.0 300.0 45.0
vertex -590.0 300.0 0.0
endloop
endfacet
facet normal 0.0 1.0 0.0
outer loop
vertex -590.0 300.0 0.0
vertex -590.0 300.0 45.0
vertex -270.0 300.0 45.0
endloop
endfacet
facet normal -0.0 1.0 0.0
outer loop
vertex -590.0 300.0 0.0
vertex -270.0 300.0 45.0
vertex -270.0 300.0 0.0
endloop
endfacet
facet normal 1.0 0.0 -0.0
outer loop
vertex -270.0 300.0 0.0
vertex -270.0 300.0 45.0
vertex -270.0 -300.0 45.0
endloop
endfacet
facet normal 1.0 0.0 0.0
outer loop
vertex -270.0 300.0 0.0
vertex -270.0 -300.0 45.0
vertex -270.0 -300.0 0.0
endloop
endfacet
facet normal 0.0 -1.0 0.0
outer loop
vertex -270.0 -300.0 0.0
vertex -270.0 -300.0 45.0
vertex -590.0 -300.0 45.0
endloop
endfacet
facet normal -0.0 -1.0 -0.0
outer loop
vertex -270.0 -300.0 0.0
vertex -590.0 -300.0 45.0
vertex -590.0 -300.0 0.0
endloop
endfacet
facet normal 0.0 0.0 -1.0
outer loop
vertex -590.0 300.0 0.0
vertex -270.0 300.0 0.0
vertex -270.0 -300.0 0.0
endloop
endfacet
facet normal -0.0 -0.0 -1.0
outer loop
vertex -590.0 300.0 0.0
vertex -270.0 -300.0 0.0
vertex -590.0 -300.0 0.0
endloop
endfacet
facet normal -0.0 0.0 1.0
outer loop
vertex -590.0 300.0 45.0
vertex -590.0 -300.0 45.0
vertex -475.0 -250.0 45.0
endloop
endfacet
facet normal -0.0 0.0 0.9999999999999999
outer loop
vertex -590.0 300.0 45.0
vertex -475.0 -250.0 45.0
vertex -475.0 250.0 45.0
endloop
endfacet
facet normal -0.0 0.0 1.0
outer loop
vertex -385.0 -250.0 45.0
vertex -270.0 -300.0 45.0
vertex -270.0 300.0 45.0
endloop
endfacet
facet normal -0.0 0.0 1.0
outer loop
vertex -590.0 300.0 45.0
vertex -475.0 250.0 45.0
vertex -385.0 250.0 45.0
endloop
endfacet
facet normal -0.0 0.0 0.9999999999999999
outer loop
vertex -385.0 250.0 45.0
vertex -385.0 -250.0 45.0
vertex -270.0 300.0 45.0
endloop
endfacet
facet normal -0.0 0.0 1.0
outer loop
vertex -590.0 300.0 45.0
vertex -385.0 250.0 45.0
vertex -270.0 300.0 45.0
endloop
endfacet
facet normal 0.0 0.0 1.0
outer loop
vertex -270.0 -300.0 45.0
vertex -385.0 -250.0 45.0
vertex -475.0 -250.0 45.0
endloop
endfacet
facet normal 0.0 0.0 1.0
outer loop
vertex -270.0 -300.0 45.0
vertex -475.0 -250.0 45.0
vertex -590.0 -300.0 45.0
endloop
endfacet
facet normal 0.0 1.0 0.0
outer loop
vertex -385.0 45.0 210.0
vertex -385.0 45.0 290.0
vertex 385.0 45.0 290.0
endloop
endfacet
facet normal -0.0 1.0 0.0
outer loop
vertex -385.0 45.0 210.0
vertex 385.0 45.0 290.0
vertex 385.0 45.0 210.0
endloop
endfacet
facet normal 1.0 0.0 0.0
outer loop
vertex 385.0 -24.999998092651367 277.5
vertex 385.0 25.000001907348633 277.5
vertex 385.0 45.0 290.0
endloop
endfacet
facet normal 1.0 0.0 -0.0
outer loop
vertex 385.0 -45.0 210.0
vertex 385.0 45.0 210.0
vertex 385.0 25.000001907348633 222.5
endloop
endfacet
facet normal 1.0 0.0 -0.0
outer loop
vertex 385.0 -45.0 210.0
vertex 385.0 25.000001907348633 222.5
vertex 385.0 -24.999998092651367 222.5
endloop
endfacet
facet normal 1.0 0.0 -0.0
outer loop
vertex 385.0 -24.999998092651367 277.5
vertex 385.0 45.0 290.0
vertex 385.0 -45.0 290.0
endloop
endfacet
facet normal 1.0 0.0 0.0
outer loop
vertex 385.0 -45.0 210.0
vertex 385.0 -24.999998092651367 222.5
vertex 385.0 -24.999998092651367 277.5
endloop
endfacet
facet normal 0.9999999999999999 -0.0 0.0
outer loop
vertex 385.0 -45.0 290.0
vertex 385.0 -45.0 210.0
vertex 385.0 -24.999998092651367 277.5
endloop
endfacet
facet normal 1.0 -0.0 0.0
outer loop
vertex 385.0 25.000001907348633 222.5
vertex 385.0 45.0 210.0
vertex 385.0 45.0 290.0
endloop
endfacet
facet normal 0.9999999999999999 0.0 -0.0
outer loop
vertex 385.0 25.000001907348633 222.5
vertex 385.0 45.0 290.0
vertex 385.0 25.000001907348633 277.5
endloop
endfacet
facet normal 0.0 -1.0 0.0
outer loop
vertex 385.0 -45.0 210.0
vertex 385.0 -45.0 290.0
vertex -385.0 -45.0 290.0
endloop
endfacet
facet normal -0.0 -1.0 -0.0
outer loop
vertex 385.0 -45.0 210.0
vertex -385.0 -45.0 290.0
vertex -385.0 -45.0 210.0
endloop
endfacet
facet normal 0.0 0.0 -1.0
outer loop
vertex -385.0 45.0 210.0
vertex 385.0 45.0 210.0
vertex 385.0 -45.0 210.0
endloop
endfacet
facet normal -0.0 -0.0 -1.0
outer loop
vertex -385.0 45.0 210.0
vertex 385.0 -45.0 210.0
vertex -385.0 -45.0 210.0
endloop
endfacet
facet normal 0.0 0.0 1.0
outer loop
vertex 385.0 45.0 290.0
vertex -385.0 45.0 290.0
vertex -385.0 -45.0 290.0
endloop
endfacet
facet normal -0.0 0.0 1.0
outer loop
vertex 385.0 45.0 290.0
vertex -385.0 -45.0 290.0
vertex 385.0 -45.0 290.0
endloop
endfacet
facet normal -1.0 0.0 0.0
outer loop
vertex -448.0 -175.0 695.0
vertex -448.0 -175.0 715.0
vertex -448.0 -125.0 715.0
endloop
endfacet
facet normal -1.0 0.0 0.0
outer loop
vertex -448.0 -175.0 695.0
vertex -448.0 -125.0 715.0
vertex -448.0 -125.0 695.0
endloop
endfacet
facet normal 0.0 1.0 0.0
outer loop
vertex -448.0 -125.0 695.0
vertex -448.0 -125.0 715.0
vertex -412.0 -125.0 715.0
endloop
endfacet
facet normal -0.0 1.0 0.0
outer loop
vertex -448.0 -125.0 695.0
vertex -412.0 -125.0 715.0
vertex -412.0 -125.0 695.0
endloop
endfacet
facet normal 1.0 0.0 -0.0
outer loop
vertex -412.0 -125.0 695.0
vertex -412.0 -125.0 715.0
vertex -412.0 -175.0 715.0
endloop
endfacet
facet normal 1.0 0.0 0.0
outer loop
vertex -412.0 -125.0 695.0
vertex -412.0 -175.0 715.0
vertex -412.0 -175.0 695.0
endloop
endfacet
facet normal 0.0 -1.0 0.0
outer loop
vertex -412.0 -175.0 695.0
vertex -412.0 -175.0 715.0
vertex -448.0 -175.0 715.0
endloop
endfacet
facet normal -0.0 -1.0 -0.0
outer loop
vertex -412.0 -175.0 695.0
vertex -448.0 -175.0 715.0
vertex -448.0 -175.0 695.0
endloop
endfacet
facet normal 0.0 0.0 1.0
outer loop
vertex -412.0 -125.0 715.0
vertex -448.0 -125.0 715.0
vertex -448.0 -175.0 715.0
endloop
endfacet
facet normal -0.0 0.0 1.0
outer loop
vertex -412.0 -125.0 715.0
vertex -448.0 -175.0 715.0
vertex -412.0 -175.0 715.0
endloop
endfacet
facet normal -1.0 0.0 0.0
outer loop
vertex -448.0 125.0 695.0
vertex -448.0 125.0 715.0
vertex -448.0 175.0 715.0
endloop
endfacet
facet normal -1.0 0.0 0.0
outer loop
vertex -448.0 125.0 695.0
vertex -448.0 175.0 715.0
vertex -448.0 175.0 695.0
endloop
endfacet
facet normal 0.0 1.0 0.0
outer loop
vertex -448.0 175.0 695.0
vertex -448.0 175.0 715.0
vertex -412.0 175.0 715.0
endloop
endfacet
facet normal -0.0 1.0 0.0
outer loop
vertex -448.0 175.0 695.0
vertex -412.0 175.0 715.0
vertex -412.0 175.0 695.0
endloop
endfacet
facet normal 1.0 0.0 -0.0
outer loop
vertex -412.0 175.0 695.0
vertex -412.0 175.0 715.0
vertex -412.0 125.0 715.0
endloop
endfacet
facet normal 1.0 0.0 0.0
outer loop
vertex -412.0 175.0 695.0
vertex -412.0 125.0 715.0
vertex -412.0 125.0 695.0
endloop
endfacet
facet normal 0.0 -1.0 0.0
outer loop
vertex -412.0 125.0 695.0
vertex -412.0 125.0 715.0
vertex -448.0 125.0 715.0
endloop
endfacet
facet normal -0.0 -1.0 -0.0
outer loop
vertex -412.0 125.0 695.0
vertex -448.0 125.0 715.0
vertex -448.0 125.0 695.0
endloop
endfacet
facet normal 0.0 0.0 1.0
outer loop
vertex -412.0 175.0 715.0
vertex -448.0 175.0 715.0
vertex -448.0 125.0 715.0
endloop
endfacet
facet normal -0.0 0.0 1.0
outer loop
vertex -412.0 175.0 715.0
vertex -448.0 125.0 715.0
vertex -412.0 125.0 715.0
endloop
endfacet
facet normal 1.5258789062499823e-07 0.9999999999999883 -0.0
outer loop
vertex -410.0 -25.19999885559082 567.2999877929688
vertex -410.0 -25.19999885559082 622.7000122070312
vertex -385.0 -25.200002670288086 622.7000122070312
endloop
endfacet
facet normal 1.5258789062499823e-07 0.9999999999999883 0.0
outer loop
vertex -410.0 -25.19999885559082 567.2999877929688
vertex -385.0 -25.200002670288086 622.7000122070312
vertex -385.0 -25.200002670288086 567.2999877929688
endloop
endfacet
facet normal 0.0 0.0 1.0
outer loop
vertex -410.0 25.200002670288086 567.2999877929688
vertex -410.0 -25.19999885559082 567.2999877929688
vertex -385.0 -25.200002670288086 567.2999877929688
endloop
endfacet
facet normal -0.0 0.0 1.0
outer loop
vertex -410.0 25.200002670288086 567.2999877929688
vertex -385.0 -25.200002670288086 567.2999877929688
vertex -385.0 25.19999885559082 567.2999877929688
endloop
endfacet
facet normal -1.5258789062499823e-07 -0.9999999999999883 -0.0
outer loop
vertex -410.0 25.200002670288086 622.7000122070312
vertex -410.0 25.200002670288086 567.2999877929688
vertex -385.0 25.19999885559082 567.2999877929688
endloop
endfacet
facet normal -1.5258789062499823e-07 -0.9999999999999883 0.0
outer loop
vertex -410.0 25.200002670288086 622.7000122070312
vertex -385.0 25.19999885559082 567.2999877929688
vertex -385.0 25.19999885559082 622.7000122070312
endloop
endfacet
facet normal 0.0 0.0 -1.0
outer loop
vertex -410.0 -25.19999885559082 622.7000122070312
vertex -410.0 25.200002670288086 622.7000122070312
vertex -385.0 25.19999885559082 622.7000122070312
endloop
endfacet
facet normal 0.0 0.0 -1.0
outer loop
vertex -410.0 -25.19999885559082 622.7000122070312
vertex -385.0 25.19999885559082 622.7000122070312
vertex -385.0 -25.200002670288086 622.7000122070312
endloop
endfacet
facet normal 1.0 0.0 -0.0
outer loop
vertex -410.0 25.200002670288086 567.2999877929688
vertex -410.0 25.200002670288086 622.7000122070312
vertex -410.0 -25.19999885559082 622.7000122070312
endloop
endfacet
facet normal 1.0 0.0 0.0
outer loop
vertex -410.0 25.200002670288086 567.2999877929688
vertex -410.0 -25.19999885559082 622.7000122070312
vertex -410.0 -25.19999885559082 567.2999877929688
endloop
endfacet
facet normal -1.5258789062499823e-07 -0.9999999999999885 0.0
outer loop
vertex 410.0 -25.000001907348633 222.5
vertex 410.0 -25.000001907348633 277.5
vertex 385.0 -24.999998092651367 277.5
endloop
endfacet
facet normal -1.5258789062499823e-07 -0.9999999999999885 -0.0
outer loop
vertex 410.0 -25.000001907348633 222.5
vertex 385.0 -24.999998092651367 277.5
vertex 385.0 -24.999998092651367 222.5
endloop
endfacet
facet normal 0.0 -0.0 1.0
outer loop
vertex 410.0 -25.000001907348633 277.5
vertex 410.0 24.999998092651367 277.5
vertex 385.0 25.000001907348633 277.5
endloop
endfacet
facet normal 0.0 0.0 1.0
outer loop
vertex 410.0 -25.000001907348633 277.5
vertex 385.0 25.000001907348633 277.5
vertex 385.0 -24.999998092651367 277.5
endloop
endfacet
facet normal 1.5258789062499823e-07 0.9999999999999885 0.0
outer loop
vertex 410.0 24.999998092651367 277.5
vertex 410.0 24.999998092651367 222.5
vertex 385.0 25.000001907348633 222.5
endloop
endfacet
facet normal 1.5258789062499823e-07 0.9999999999999885 -0.0
outer loop
vertex 410.0 24.999998092651367 277.5
vertex 385.0 25.000001907348633 222.5
vertex 385.0 25.000001907348633 277.5
endloop
endfacet
facet normal -0.0 -0.0 -1.0
outer loop
vertex 410.0 24.999998092651367 222.5
vertex 410.0 -25.000001907348633 222.5
vertex 385.0 -24.999998092651367 222.5
endloop
endfacet
facet normal -0.0 0.0 -1.0
outer loop
vertex 410.0 24.999998092651367 222.5
vertex 385.0 -24.999998092651367 222.5
vertex 385.0 25.000001907348633 222.5
endloop
endfacet
facet normal 0.9999999999999999 0.0 0.0
outer loop
vertex 410.0 24.999998092651367 277.5
vertex 410.0 -25.000001907348633 277.5
vertex 410.0 -25.000001907348633 222.5
endloop
endfacet
facet normal 0.9999999999999999 -0.0 0.0
outer loop
vertex 410.0 24.999998092651367 277.5
vertex 410.0 -25.000001907348633 222.5
vertex 410.0 24.999998092651367 222.5
endloop
endfacet

endsolid
