solid 
facet normal -1.0 0.0 0.0
outer loop
vertex -385.0 24.999998092651367 62.5
vertex -385.0 -25.000001907348633 62.5
vertex -385.0 -35.0 70.0
endloop
endfacet
facet normal -1.0 0.0 0.0
outer loop
vertex -385.0 35.0 0.0
vertex -385.0 -35.0 0.0
vertex -385.0 -25.000001907348633 7.5
endloop
endfacet
facet normal -1.0 0.0 0.0
outer loop
vertex -385.0 35.0 0.0
vertex -385.0 -25.000001907348633 7.5
vertex -385.0 24.999998092651367 7.5
endloop
endfacet
facet normal -1.0 0.0 0.0
outer loop
vertex -385.0 24.999998092651367 62.5
vertex -385.0 -35.0 70.0
vertex -385.0 35.0 70.0
endloop
endfacet
facet normal -1.0 0.0 0.0
outer loop
vertex -385.0 35.0 0.0
vertex -385.0 24.999998092651367 7.5
vertex -385.0 24.999998092651367 62.5
endloop
endfacet
facet normal -1.0 0.0 0.0
outer loop
vertex -385.0 24.999998092651367 62.5
vertex -385.0 35.0 70.0
vertex -385.0 35.0 0.0
endloop
endfacet
facet normal -1.0 0.0 0.0
outer loop
vertex -385.0 -35.0 0.0
vertex -385.0 -35.0 70.0
vertex -385.0 -25.000001907348633 62.5
endloop
endfacet
facet normal -1.0 0.0 0.0
outer loop
vertex -385.0 -35.0 0.0
vertex -385.0 -25.000001907348633 62.5
vertex -385.0 -25.000001907348633 7.5
endloop
endfacet
facet normal 0.0 0.9999999999999999 0.0
outer loop
vertex -385.0 35.0 0.0
vertex -385.0 35.0 70.0
vertex 385.0 35.0 70.0
endloop
endfacet
facet normal -0.0 0.9999999999999999 0.0
outer loop
vertex -385.0 35.0 0.0
vertex 385.0 35.0 70.0
vertex 385.0 35.0 0.0
endloop
endfacet
facet normal 1.0 0.0 0.0
outer loop
vertex 385.0 -24.999998092651367 62.5
vertex 385.0 25.000001907348633 62.5
vertex 385.0 35.0 70.0
endloop
endfacet
facet normal 1.0 0.0 -0.0
outer loop
vertex 385.0 -35.0 0.0
vertex 385.0 35.0 0.0
vertex 385.0 25.000001907348633 7.5
endloop
endfacet
facet normal 1.0 0.0 -0.0
outer loop
vertex 385.0 -35.0 0.0
vertex 385.0 25.000001907348633 7.5
vertex 385.0 -24.999998092651367 7.5
endloop
endfacet
facet normal 1.0 0.0 -0.0
outer loop
vertex 385.0 -24.999998092651367 62.5
vertex 385.0 35.0 70.0
vertex 385.0 -35.0 70.0
endloop
endfacet
facet normal 1.0 0.0 0.0
outer loop
vertex 385.0 -35.0 0.0
vertex 385.0 -24.999998092651367 7.5
vertex 385.0 -24.999998092651367 62.5
endloop
endfacet
facet normal 1.0 -0.0 0.0
outer loop
vertex 385.0 -35.0 70.0
vertex 385.0 -35.0 0.0
vertex 385.0 -24.999998092651367 62.5
endloop
endfacet
facet normal 1.0 -0.0 0.0
outer loop
vertex 385.0 25.000001907348633 7.5
vertex 385.0 35.0 0.0
vertex 385.0 35.0 70.0
endloop
endfacet
facet normal 1.0 0.0 -0.0
outer loop
vertex 385.0 25.000001907348633 7.5
vertex 385.0 35.0 70.0
vertex 385.0 25.000001907348633 62.5
endloop
endfacet
facet normal 0.0 -0.9999999999999999 0.0
outer loop
vertex 385.0 -35.0 0.0
vertex 385.0 -35.0 70.0
vertex -385.0 -35.0 70.0
endloop
endfacet
facet normal -0.0 -0.9999999999999999 -0.0
outer loop
vertex 385.0 -35.0 0.0
vertex -385.0 -35.0 70.0
vertex -385.0 -35.0 0.0
endloop
endfacet
facet normal 0.0 0.0 -0.9999999999999999
outer loop
vertex -385.0 35.0 0.0
vertex 385.0 35.0 0.0
vertex 385.0 -35.0 0.0
endloop
endfacet
facet normal -0.0 -0.0 -0.9999999999999999
outer loop
vertex -385.0 35.0 0.0
vertex 385.0 -35.0 0.0
vertex -385.0 -35.0 0.0
endloop
endfacet
facet normal 0.0 0.0 0.9999999999999999
outer loop
vertex 385.0 35.0 70.0
vertex -385.0 35.0 70.0
vertex -385.0 -35.0 70.0
endloop
endfacet
facet normal -0.0 0.0 0.9999999999999999
outer loop
vertex 385.0 35.0 70.0
vertex -385.0 -35.0 70.0
vertex 385.0 -35.0 70.0
endloop
endfacet
facet normal -1.5258789062499823e-07 -0.9999999999999885 -0.0
outer loop
vertex -385.0 -25.000001907348633 62.5
vertex -410.0 -24.999998092651367 62.5
vertex -410.0 -24.999998092651367 7.5
endloop
endfacet
facet normal -1.5258789062499823e-07 -0.9999999999999885 0.0
outer loop
vertex -385.0 -25.000001907348633 62.5
vertex -410.0 -24.999998092651367 7.5
vertex -385.0 -25.000001907348633 7.5
endloop
endfacet
facet normal 0.0 0.0 -1.0
outer loop
vertex -385.0 -25.000001907348633 7.5
vertex -410.0 -24.999998092651367 7.5
vertex -410.0 25.000001907348633 7.5
endloop
endfacet
facet normal 0.0 0.0 -1.0
outer loop
vertex -385.0 -25.000001907348633 7.5
vertex -410.0 25.000001907348633 7.5
vertex -385.0 24.999998092651367 7.5
endloop
endfacet
facet normal 1.5258789062499823e-07 0.9999999999999885 -0.0
outer loop
vertex -385.0 24.999998092651367 7.5
vertex -410.0 25.000001907348633 7.5
vertex -410.0 25.000001907348633 62.5
endloop
endfacet
facet normal 1.5258789062499823e-07 0.9999999999999885 0.0
outer loop
vertex -385.0 24.999998092651367 7.5
vertex -410.0 25.000001907348633 62.5
vertex -385.0 24.999998092651367 62.5
endloop
endfacet
facet normal 0.0 0.0 1.0
outer loop
vertex -385.0 24.999998092651367 62.5
vertex -410.0 25.000001907348633 62.5
vertex -410.0 -24.999998092651367 62.5
endloop
endfacet
facet normal 0.0 0.0 1.0
outer loop
vertex -385.0 24.999998092651367 62.5
vertex -410.0 -24.999998092651367 62.5
vertex -385.0 -25.000001907348633 62.5
endloop
endfacet
facet normal -0.9999999999999999 0.0 0.0
outer loop
vertex -410.0 25.000001907348633 7.5
vertex -410.0 -24.999998092651367 7.5
vertex -410.0 -24.999998092651367 62.5
endloop
endfacet
facet normal -0.9999999999999999 0.0 0.0
outer loop
vertex -410.0 25.000001907348633 7.5
vertex -410.0 -24.999998092651367 62.5
vertex -410.0 25.000001907348633 62.5
endloop
endfacet
facet normal -1.5258789062499823e-07 -0.9999999999999885 0.0
outer loop
vertex 410.0 -25.000001907348633 7.5
vertex 410.0 -25.000001907348633 62.5
vertex 385.0 -24.999998092651367 62.5
endloop
endfacet
facet normal -1.5258789062499823e-07 -0.9999999999999885 -0.0
outer loop
vertex 410.0 -25.000001907348633 7.5
vertex 385.0 -24.999998092651367 62.5
vertex 385.0 -24.999998092651367 7.5
endloop
endfacet
facet normal 0.0 -0.0 1.0
outer loop
vertex 410.0 -25.000001907348633 62.5
vertex 410.0 24.999998092651367 62.5
vertex 385.0 25.000001907348633 62.5
endloop
endfacet
facet normal 0.0 0.0 1.0
outer loop
vertex 410.0 -25.000001907348633 62.5
vertex 385.0 25.000001907348633 62.5
vertex 385.0 -24.999998092651367 62.5
endloop
endfacet
facet normal 1.5258789062499823e-07 0.9999999999999885 0.0
outer loop
vertex 410.0 24.999998092651367 62.5
vertex 410.0 24.999998092651367 7.5
vertex 385.0 25.000001907348633 7.5
endloop
endfacet
facet normal 1.5258789062499823e-07 0.9999999999999885 -0.0
outer loop
vertex 410.0 24.999998092651367 62.5
vertex 385.0 25.000001907348633 7.5
vertex 385.0 25.000001907348633 62.5
endloop
endfacet
facet normal -0.0 -0.0 -1.0
outer loop
vertex 410.0 24.999998092651367 7.5
vertex 410.0 -25.000001907348633 7.5
vertex 385.0 -24.999998092651367 7.5
endloop
endfacet
facet normal -0.0 0.0 -1.0
outer loop
vertex 410.0 24.999998092651367 7.5
vertex 385.0 -24.999998092651367 7.5
vertex 385.0 25.000001907348633 7.5
endloop
endfacet
facet normal 0.9999999999999999 0.0 0.0
outer loop
vertex 410.0 24.999998092651367 62.5
vertex 410.0 -25.000001907348633 62.5
vertex 410.0 -25.000001907348633 7.5
endloop
endfacet
facet normal 0.9999999999999999 -0.0 0.0
outer loop
vertex 410.0 24.999998092651367 62.5
vertex 410.0 -25.000001907348633 7.5
vertex 410.0 24.999998092651367 7.5
endloop
endfacet

endsolid
