solid 
facet normal -1.0 0.0 0.0
outer loop
vertex -35.0 35.0 0.0
vertex -35.0 -35.0 0.0
vertex -35.0 -35.0 276.0
endloop
endfacet
facet normal -1.0 0.0 0.0
outer loop
vertex -35.0 35.0 0.0
vertex -35.0 -35.0 276.0
vertex -35.0 35.0 276.0
endloop
endfacet
facet normal 0.0 1.0 -0.0
outer loop
vertex 35.0 35.0 0.0
vertex -35.0 35.0 0.0
vertex -35.0 35.0 276.0
endloop
endfacet
facet normal 0.0 1.0 -0.0
outer loop
vertex 35.0 35.0 0.0
vertex -35.0 35.0 276.0
vertex 35.0 35.0 276.0
endloop
endfacet
facet normal 1.0 -0.0 0.0
outer loop
vertex 35.0 -35.0 276.0
vertex 35.0 -35.0 0.0
vertex 35.0 35.0 0.0
endloop
endfacet
facet normal 1.0 -0.0 0.0
outer loop
vertex 35.0 -35.0 276.0
vertex 35.0 35.0 0.0
vertex 35.0 35.0 276.0
endloop
endfacet
facet normal 0.0 -1.0 0.0
outer loop
vertex -35.0 -35.0 276.0
vertex -35.0 -35.0 0.0
vertex 35.0 -35.0 0.0
endloop
endfacet
facet normal 0.0 -1.0 0.0
outer loop
vertex -35.0 -35.0 276.0
vertex 35.0 -35.0 0.0
vertex 35.0 -35.0 276.0
endloop
endfacet
facet normal 0.0 0.0 -1.0
outer loop
vertex -35.0 35.0 0.0
vertex 35.0 35.0 0.0
vertex 35.0 -35.0 0.0
endloop
endfacet
facet normal -0.0 -0.0 -1.0
outer loop
vertex -35.0 35.0 0.0
vertex 35.0 -35.0 0.0
vertex -35.0 -35.0 0.0
endloop
endfacet
facet normal 0.0 0.0 1.0
outer loop
vertex -19.0 19.0 300.0
vertex 19.0 19.0 300.0
vertex 35.0 35.0 300.0
endloop
endfacet
facet normal -0.0 0.0 1.0
outer loop
vertex -35.0 35.0 300.0
vertex -35.0 -35.0 300.0
vertex -19.0 -19.0 300.0
endloop
endfacet
facet normal 0.0 -0.0 1.0
outer loop
vertex -19.0 19.0 300.0
vertex 35.0 35.0 300.0
vertex -35.0 35.0 300.0
endloop
endfacet
facet normal -0.0 0.0 1.0
outer loop
vertex -35.0 35.0 300.0
vertex -19.0 -19.0 300.0
vertex -19.0 19.0 300.0
endloop
endfacet
facet normal 0.0 0.0 1.0
outer loop
vertex 19.0 -19.0 300.0
vertex -19.0 -19.0 300.0
vertex -35.0 -35.0 300.0
endloop
endfacet
facet normal 0.0 -0.0 1.0
outer loop
vertex 35.0 -35.0 300.0
vertex 35.0 35.0 300.0
vertex 19.0 19.0 300.0
endloop
endfacet
facet normal -0.0 0.0 1.0
outer loop
vertex 19.0 -19.0 300.0
vertex -35.0 -35.0 300.0
vertex 35.0 -35.0 300.0
endloop
endfacet
facet normal 0.0 0.0 1.0
outer loop
vertex 35.0 -35.0 300.0
vertex 19.0 19.0 300.0
vertex 19.0 -19.0 300.0
endloop
endfacet
facet normal -1.0 0.0 0.0
outer loop
vertex -39.0 -39.0 276.0
vertex -39.0 -39.0 300.0
vertex -39.0 39.0 300.0
endloop
endfacet
facet normal -1.0 0.0 0.0
outer loop
vertex -39.0 -39.0 276.0
vertex -39.0 39.0 300.0
vertex -39.0 39.0 276.0
endloop
endfacet
facet normal 0.0 1.0 0.0
outer loop
vertex -39.0 39.0 276.0
vertex -39.0 39.0 300.0
vertex 39.0 39.0 300.0
endloop
endfacet
facet normal -0.0 1.0 0.0
outer loop
vertex -39.0 39.0 276.0
vertex 39.0 39.0 300.0
vertex 39.0 39.0 276.0
endloop
endfacet
facet normal 1.0 0.0 -0.0
outer loop
vertex 39.0 39.0 276.0
vertex 39.0 39.0 300.0
vertex 39.0 -39.0 300.0
endloop
endfacet
facet normal 1.0 0.0 0.0
outer loop
vertex 39.0 39.0 276.0
vertex 39.0 -39.0 300.0
vertex 39.0 -39.0 276.0
endloop
endfacet
facet normal 0.0 -1.0 0.0
outer loop
vertex 39.0 -39.0 276.0
vertex 39.0 -39.0 300.0
vertex -39.0 -39.0 300.0
endloop
endfacet
facet normal -0.0 -1.0 -0.0
outer loop
vertex 39.0 -39.0 276.0
vertex -39.0 -39.0 300.0
vertex -39.0 -39.0 276.0
endloop
endfacet
facet normal 0.0 -0.0 -1.0
outer loop
vertex -35.0 35.0 276.0
vertex -35.0 -35.0 276.0
vertex -39.0 -39.0 276.0
endloop
endfacet
facet normal -0.0 -0.0 -1.0
outer loop
vertex 39.0 39.0 276.0
vertex 39.0 -39.0 276.0
vertex 35.0 -35.0 276.0
endloop
endfacet
facet normal -0.0 0.0 -1.0
outer loop
vertex 39.0 39.0 276.0
vertex 35.0 -35.0 276.0
vertex 35.0 35.0 276.0
endloop
endfacet
facet normal -0.0 0.0 -1.0
outer loop
vertex -35.0 35.0 276.0
vertex -39.0 -39.0 276.0
vertex -39.0 39.0 276.0
endloop
endfacet
facet normal -0.0 0.0 -1.0
outer loop
vertex 39.0 39.0 276.0
vertex 35.0 35.0 276.0
vertex -35.0 35.0 276.0
endloop
endfacet
facet normal 0.0 0.0 -1.0
outer loop
vertex -35.0 35.0 276.0
vertex -39.0 39.0 276.0
vertex 39.0 39.0 276.0
endloop
endfacet
facet normal 0.0 0.0 -1.0
outer loop
vertex 39.0 -39.0 276.0
vertex -39.0 -39.0 276.0
vertex -35.0 -35.0 276.0
endloop
endfacet
facet normal 0.0 0.0 -1.0
outer loop
vertex 39.0 -39.0 276.0
vertex -35.0 -35.0 276.0
vertex 35.0 -35.0 276.0
endloop
endfacet
facet normal 0.0 -0.0 1.0
outer loop
vertex 39.0 -39.0 300.0
vertex 39.0 39.0 300.0
vertex 35.0 35.0 300.0
endloop
endfacet
facet normal 0.0 0.0 1.0
outer loop
vertex 39.0 -39.0 300.0
vertex 35.0 35.0 300.0
vertex 35.0 -35.0 300.0
endloop
endfacet
facet normal 0.0 -0.0 1.0
outer loop
vertex -39.0 -39.0 300.0
vertex 39.0 -39.0 300.0
vertex 35.0 -35.0 300.0
endloop
endfacet
facet normal 0.0 -0.0 1.0
outer loop
vertex -39.0 -39.0 300.0
vertex 35.0 -35.0 300.0
vertex -35.0 -35.0 300.0
endloop
endfacet
facet normal 0.0 -0.0 1.0
outer loop
vertex 35.0 35.0 300.0
vertex 39.0 39.0 300.0
vertex -39.0 39.0 300.0
endloop
endfacet
facet normal 0.0 0.0 1.0
outer loop
vertex -39.0 -39.0 300.0
vertex -35.0 -35.0 300.0
vertex -35.0 35.0 300.0
endloop
endfacet
facet normal 0.0 -0.0 1.0
outer loop
vertex -35.0 35.0 300.0
vertex 35.0 35.0 300.0
vertex -39.0 39.0 300.0
endloop
endfacet
facet normal 0.0 -0.0 1.0
outer loop
vertex -39.0 -39.0 300.0
vertex -35.0 35.0 300.0
vertex -39.0 39.0 300.0
endloop
endfacet
facet normal -1.0 0.0 0.0
outer loop
vertex -19.0 -19.0 300.0
vertex -19.0 -19.0 327.0
vertex -19.0 19.0 327.0
endloop
endfacet
facet normal -1.0 0.0 0.0
outer loop
vertex -19.0 -19.0 300.0
vertex -19.0 19.0 327.0
vertex -19.0 19.0 300.0
endloop
endfacet
facet normal 0.0 1.0 -0.0
outer loop
vertex 19.0 19.0 300.0
vertex -19.0 19.0 300.0
vertex -19.0 19.0 327.0
endloop
endfacet
facet normal 0.0 1.0 -0.0
outer loop
vertex 19.0 19.0 300.0
vertex -19.0 19.0 327.0
vertex -18.999998092651367 19.0 327.0
endloop
endfacet
facet normal -0.0 1.0 0.0
outer loop
vertex 18.9999942779541 19.0 327.0
vertex 19.0 19.0 327.0
vertex 19.0 19.0 300.0
endloop
endfacet
facet normal -0.0 1.0 0.0
outer loop
vertex -18.999998092651367 19.0 327.0
vertex 18.9999942779541 19.0 327.0
vertex 19.0 19.0 300.0
endloop
endfacet
facet normal 1.0 0.0 -0.0
outer loop
vertex 19.0 19.0 300.0
vertex 19.0 19.0 327.0
vertex 19.0 -19.0 327.0
endloop
endfacet
facet normal 1.0 0.0 0.0
outer loop
vertex 19.0 19.0 300.0
vertex 19.0 -19.0 327.0
vertex 19.0 -19.0 300.0
endloop
endfacet
facet normal 0.0 -1.0 0.0
outer loop
vertex -19.0 -19.0 300.0
vertex 19.0 -19.0 300.0
vertex 19.0 -19.0 327.0
endloop
endfacet
facet normal 0.0 -1.0 0.0
outer loop
vertex -19.0 -19.0 300.0
vertex 19.0 -19.0 327.0
vertex 18.9999942779541 -19.0 327.0
endloop
endfacet
facet normal -0.0 -1.0 -0.0
outer loop
vertex -18.999998092651367 -19.0 327.0
vertex -19.0 -19.0 327.0
vertex -19.0 -19.0 300.0
endloop
endfacet
facet normal -0.0 -1.0 0.0
outer loop
vertex 18.9999942779541 -19.0 327.0
vertex -18.999998092651367 -19.0 327.0
vertex -19.0 -19.0 300.0
endloop
endfacet
facet normal -0.0 0.0 1.0
outer loop
vertex -16.000001907348633 -16.000001907348633 330.0
vertex 16.00000762939453 -16.0000057220459 330.0
vertex 16.00000762939453 16.0000057220459 330.0
endloop
endfacet
facet normal 0.0 -0.0 1.0
outer loop
vertex -16.000001907348633 -16.000001907348633 330.0
vertex 16.00000762939453 16.0000057220459 330.0
vertex -16.0000057220459 16.000001907348633 330.0
endloop
endfacet
facet normal -0.7071072662453108 0.0 0.7071062961274515
outer loop
vertex -16.21951675415039 16.219514846801758 329.7804870605469
vertex -19.0 19.0 327.0
vertex -19.0 -19.0 327.0
endloop
endfacet
facet normal -0.707106963822944 -8.429370874515e-08 0.7071065985500989
outer loop
vertex -19.0 -19.0 327.0
vertex -16.000001907348633 -16.000001907348633 330.0
vertex -16.0000057220459 16.000001907348633 330.0
endloop
endfacet
facet normal -0.7071096639286372 3.7858209785193735e-07 0.7071038984326041
outer loop
vertex -19.0 -19.0 327.0
vertex -16.0000057220459 16.000001907348633 330.0
vertex -16.21951675415039 16.219514846801758 329.7804870605469
endloop
endfacet
facet normal 0.7071083014324993 -1.0647647778849842e-07 0.7071052609373193
outer loop
vertex 16.00000762939453 -16.0000057220459 330.0
vertex 18.9999942779541 -19.0 327.0
vertex 19.0 19.0 327.0
endloop
endfacet
facet normal 0.7071076803198875 0.0 0.7071058820520644
outer loop
vertex 16.00000762939453 -16.0000057220459 330.0
vertex 19.0 19.0 327.0
vertex 16.00000762939453 16.0000057220459 330.0
endloop
endfacet
facet normal 0.0 -0.7071074555364453 0.7071061068360067
outer loop
vertex -18.999998092651367 -19.0 327.0
vertex 18.9999942779541 -19.0 327.0
vertex 16.00000762939453 -16.0000057220459 330.0
endloop
endfacet
facet normal -8.429369367226889e-08 -0.7071069638229783 0.7071065985500646
outer loop
vertex -18.999998092651367 -19.0 327.0
vertex 16.00000762939453 -16.0000057220459 330.0
vertex -16.000001907348633 -16.000001907348633 330.0
endloop
endfacet
facet normal -8.42937472647443e-08 0.7071074976831275 0.7071060646892365
outer loop
vertex -16.0000057220459 16.000001907348633 330.0
vertex 16.00000762939453 16.0000057220459 330.0
vertex 18.9999942779541 19.0 327.0
endloop
endfacet
facet normal 0.0 0.7071070237158875 0.7071065386571243
outer loop
vertex 18.9999942779541 19.0 327.0
vertex -18.999998092651367 19.0 327.0
vertex -16.21951675415039 16.219514846801758 329.7804870605469
endloop
endfacet
facet normal 3.549210819393027e-08 0.7071067989324467 0.7071067634406468
outer loop
vertex 18.9999942779541 19.0 327.0
vertex -16.21951675415039 16.219514846801758 329.7804870605469
vertex -16.0000057220459 16.000001907348633 330.0
endloop
endfacet

endsolid
