solid 
facet normal -1.0 0.0 0.0
outer loop
vertex 4.0 74.0 0.0
vertex 4.0 4.0 0.0
vertex 4.0 4.0 276.0
endloop
endfacet
facet normal 0.0 -1.0 0.0
outer loop
vertex 4.0 4.0 276.0
vertex 4.0 4.0 0.0
vertex 74.0 4.0 0.0
endloop
endfacet
facet normal -0.0 -0.0 -1.0
outer loop
vertex 4.0 74.0 0.0
vertex 74.0 4.0 0.0
vertex 4.0 4.0 0.0
endloop
endfacet
facet normal 0.0 -0.0 -1.0
outer loop
vertex 4.0 74.0 276.0
vertex 4.0 4.0 276.0
vertex 0.0 0.0 276.0
endloop
endfacet
facet normal -1.0 0.0 0.0
outer loop
vertex 0.0 0.0 276.0
vertex 0.0 0.0 300.0
vertex 0.0 78.0 300.0
endloop
endfacet
facet normal 0.0 0.0 1.0
outer loop
vertex 0.0 0.0 300.0
vertex 4.0 4.0 300.0
vertex 4.0 74.0 300.0
endloop
endfacet
facet normal 0.0 -0.0 1.0
outer loop
vertex 20.0 20.0 300.0
vertex 20.0 58.0 300.0
vertex 4.0 4.0 300.0
endloop
endfacet
facet normal -0.0 -1.0 -0.0
outer loop
vertex 78.0 0.0 276.0
vertex 0.0 0.0 300.0
vertex 0.0 0.0 276.0
endloop
endfacet
facet normal 0.0 0.0 -1.0
outer loop
vertex 78.0 0.0 276.0
vertex 0.0 0.0 276.0
vertex 4.0 4.0 276.0
endloop
endfacet
facet normal 0.0 -0.0 1.0
outer loop
vertex 0.0 0.0 300.0
vertex 74.0 4.0 300.0
vertex 4.0 4.0 300.0
endloop
endfacet
facet normal 0.0 -0.0 1.0
outer loop
vertex 4.0 4.0 300.0
vertex 58.0 20.0 300.0
vertex 20.0 20.0 300.0
endloop
endfacet
facet normal -1.0 0.0 0.0
outer loop
vertex 20.0 20.0 300.0
vertex 20.0 20.0 330.0
vertex 20.0 58.0 330.0
endloop
endfacet
facet normal -0.0 -1.0 -0.0
outer loop
vertex 58.0 20.0 300.0
vertex 20.0 20.0 330.0
vertex 20.0 20.0 300.0
endloop
endfacet
facet normal 0.0 1.0 -0.0
outer loop
vertex 74.0 74.0 0.0
vertex 4.0 74.0 0.0
vertex 4.0 74.0 276.0
endloop
endfacet
facet normal -1.0 0.0 0.0
outer loop
vertex 4.0 74.0 0.0
vertex 4.0 4.0 276.0
vertex 4.0 74.0 276.0
endloop
endfacet
facet normal 0.0 0.0 1.0
outer loop
vertex 20.0 58.0 300.0
vertex 4.0 74.0 300.0
vertex 4.0 4.0 300.0
endloop
endfacet
facet normal -0.0 0.0 -1.0
outer loop
vertex 4.0 74.0 276.0
vertex 0.0 0.0 276.0
vertex 0.0 78.0 276.0
endloop
endfacet
facet normal -1.0 0.0 0.0
outer loop
vertex 0.0 0.0 276.0
vertex 0.0 78.0 300.0
vertex 0.0 78.0 276.0
endloop
endfacet
facet normal 0.0 -0.0 1.0
outer loop
vertex 0.0 0.0 300.0
vertex 4.0 74.0 300.0
vertex 0.0 78.0 300.0
endloop
endfacet
facet normal -1.0 0.0 0.0
outer loop
vertex 20.0 20.0 300.0
vertex 20.0 58.0 330.0
vertex 20.0 58.0 300.0
endloop
endfacet
facet normal 0.0 0.0 1.0
outer loop
vertex 58.0 58.0 330.0
vertex 20.0 58.0 330.0
vertex 20.0 20.0 330.0
endloop
endfacet
facet normal 0.0 1.0 0.0
outer loop
vertex 20.0 58.0 300.0
vertex 20.0 58.0 330.0
vertex 58.0 58.0 330.0
endloop
endfacet
facet normal 0.0 0.0 -1.0
outer loop
vertex 4.0 74.0 276.0
vertex 0.0 78.0 276.0
vertex 78.0 78.0 276.0
endloop
endfacet
facet normal 0.0 -0.0 1.0
outer loop
vertex 4.0 74.0 300.0
vertex 74.0 74.0 300.0
vertex 0.0 78.0 300.0
endloop
endfacet
facet normal 0.0 1.0 0.0
outer loop
vertex 0.0 78.0 276.0
vertex 0.0 78.0 300.0
vertex 78.0 78.0 300.0
endloop
endfacet
facet normal 0.0 0.0 1.0
outer loop
vertex 74.0 74.0 300.0
vertex 4.0 74.0 300.0
vertex 20.0 58.0 300.0
endloop
endfacet
facet normal 1.0 -0.0 0.0
outer loop
vertex 74.0 4.0 276.0
vertex 74.0 4.0 0.0
vertex 74.0 74.0 0.0
endloop
endfacet
facet normal 0.0 -1.0 0.0
outer loop
vertex 4.0 4.0 276.0
vertex 74.0 4.0 0.0
vertex 74.0 4.0 276.0
endloop
endfacet
facet normal 0.0 -0.0 1.0
outer loop
vertex 4.0 4.0 300.0
vertex 74.0 4.0 300.0
vertex 58.0 20.0 300.0
endloop
endfacet
facet normal 0.0 0.0 -1.0
outer loop
vertex 78.0 0.0 276.0
vertex 4.0 4.0 276.0
vertex 74.0 4.0 276.0
endloop
endfacet
facet normal 0.0 -0.0 1.0
outer loop
vertex 0.0 0.0 300.0
vertex 78.0 0.0 300.0
vertex 74.0 4.0 300.0
endloop
endfacet
facet normal 0.0 -1.0 0.0
outer loop
vertex 78.0 0.0 276.0
vertex 78.0 0.0 300.0
vertex 0.0 0.0 300.0
endloop
endfacet
facet normal 0.0 -1.0 0.0
outer loop
vertex 58.0 20.0 300.0
vertex 58.0 20.0 330.0
vertex 20.0 20.0 330.0
endloop
endfacet
facet normal -0.0 0.0 1.0
outer loop
vertex 58.0 58.0 330.0
vertex 20.0 20.0 330.0
vertex 58.0 20.0 330.0
endloop
endfacet
facet normal 1.0 0.0 0.0
outer loop
vertex 58.0 58.0 300.0
vertex 58.0 20.0 330.0
vertex 58.0 20.0 300.0
endloop
endfacet
facet normal 1.0 0.0 0.0
outer loop
vertex 78.0 78.0 276.0
vertex 78.0 0.0 300.0
vertex 78.0 0.0 276.0
endloop
endfacet
facet normal -0.0 -0.0 -1.0
outer loop
vertex 78.0 78.0 276.0
vertex 78.0 0.0 276.0
vertex 74.0 4.0 276.0
endloop
endfacet
facet normal 0.0 0.0 1.0
outer loop
vertex 78.0 0.0 300.0
vertex 74.0 74.0 300.0
vertex 74.0 4.0 300.0
endloop
endfacet
facet normal -0.0 0.0 1.0
outer loop
vertex 58.0 20.0 300.0
vertex 74.0 4.0 300.0
vertex 74.0 74.0 300.0
endloop
endfacet
facet normal 0.0 0.0 -1.0
outer loop
vertex 4.0 74.0 0.0
vertex 74.0 74.0 0.0
vertex 74.0 4.0 0.0
endloop
endfacet
facet normal -0.0 1.0 0.0
outer loop
vertex 20.0 58.0 300.0
vertex 58.0 58.0 330.0
vertex 58.0 58.0 300.0
endloop
endfacet
facet normal 1.0 0.0 -0.0
outer loop
vertex 58.0 58.0 300.0
vertex 58.0 58.0 330.0
vertex 58.0 20.0 330.0
endloop
endfacet
facet normal 0.0 1.0 -0.0
outer loop
vertex 74.0 74.0 0.0
vertex 4.0 74.0 276.0
vertex 74.0 74.0 276.0
endloop
endfacet
facet normal -0.0 0.0 1.0
outer loop
vertex 74.0 74.0 300.0
vertex 20.0 58.0 300.0
vertex 58.0 58.0 300.0
endloop
endfacet
facet normal -0.0 0.0 -1.0
outer loop
vertex 78.0 78.0 276.0
vertex 74.0 74.0 276.0
vertex 4.0 74.0 276.0
endloop
endfacet
facet normal -0.0 1.0 0.0
outer loop
vertex 0.0 78.0 276.0
vertex 78.0 78.0 300.0
vertex 78.0 78.0 276.0
endloop
endfacet
facet normal 0.0 -0.0 1.0
outer loop
vertex 74.0 74.0 300.0
vertex 78.0 78.0 300.0
vertex 0.0 78.0 300.0
endloop
endfacet
facet normal 1.0 -0.0 0.0
outer loop
vertex 74.0 4.0 276.0
vertex 74.0 74.0 0.0
vertex 74.0 74.0 276.0
endloop
endfacet
facet normal -0.0 0.0 1.0
outer loop
vertex 58.0 58.0 300.0
vertex 58.0 20.0 300.0
vertex 74.0 74.0 300.0
endloop
endfacet
facet normal -0.0 0.0 -1.0
outer loop
vertex 78.0 78.0 276.0
vertex 74.0 4.0 276.0
vertex 74.0 74.0 276.0
endloop
endfacet
facet normal 0.0 -0.0 1.0
outer loop
vertex 78.0 0.0 300.0
vertex 78.0 78.0 300.0
vertex 74.0 74.0 300.0
endloop
endfacet
facet normal 1.0 0.0 -0.0
outer loop
vertex 78.0 78.0 276.0
vertex 78.0 78.0 300.0
vertex 78.0 0.0 300.0
endloop
endfacet

endsolid
