solid 
facet normal -6.315935428978668e-17 0.0 1.0
outer loop
vertex -3.444319122601931e-14 -225.0 40.0
vertex 1800.0 -225.0 40.000000000000114
vertex 1800.0 225.0 40.000000000000114
endloop
endfacet
facet normal -6.315935428978668e-17 0.0 1.0
outer loop
vertex -3.444319122601931e-14 -225.0 40.0
vertex 1800.0 225.0 40.000000000000114
vertex -3.444319122601931e-14 225.0 40.0
endloop
endfacet
facet normal -0.0 1.0 0.0
outer loop
vertex -3.444319122601931e-14 225.0 40.0
vertex 1800.0 225.0 40.000000000000114
vertex 1800.0 225.0 1.1368683772161603e-13
endloop
endfacet
facet normal 0.0 1.0 0.0
outer loop
vertex -3.444319122601931e-14 225.0 40.0
vertex 1800.0 225.0 1.1368683772161603e-13
vertex -3.19938976277246e-14 225.0 0.0
endloop
endfacet
facet normal 0.0 0.0 -1.0
outer loop
vertex 1640.800048828125 -60.20000076293945 1.1368683772161603e-13
vertex 1659.199951171875 -60.20000076293945 1.1368683772161603e-13
vertex 1800.0 -225.0 1.1368683772161603e-13
endloop
endfacet
facet normal 6.315935428978668e-17 0.0 -1.0
outer loop
vertex 1800.0 -225.0 1.1368683772161603e-13
vertex -3.19938976277246e-14 -225.0 0.0
vertex -3.19938976277246e-14 225.0 0.0
endloop
endfacet
facet normal 6.315935428978668e-17 -5.3961409035947205e-17 -1.0
outer loop
vertex -3.19938976277246e-14 225.0 0.0
vertex 1800.0 225.0 1.1368683772161603e-13
vertex 1659.199951171875 60.20000076293945 1.1368683772161603e-13
endloop
endfacet
facet normal -0.0 -6.898473194655811e-16 -1.0
outer loop
vertex -3.19938976277246e-14 225.0 0.0
vertex 1659.199951171875 60.20000076293945 1.1368683772161603e-13
vertex 1640.800048828125 60.20000076293945 1.1368683772161603e-13
endloop
endfacet
facet normal 8.326928468662995e-17 8.043972158737309e-17 -1.0
outer loop
vertex 1640.800048828125 -60.20000076293945 1.1368683772161603e-13
vertex 1800.0 -225.0 1.1368683772161603e-13
vertex -3.19938976277246e-14 225.0 0.0
endloop
endfacet
facet normal 6.928744169822048e-17 0.0 -0.9999999999999999
outer loop
vertex -3.19938976277246e-14 225.0 0.0
vertex 1640.800048828125 60.20000076293945 1.1368683772161603e-13
vertex 1640.800048828125 -60.20000076293945 1.1368683772161603e-13
endloop
endfacet
facet normal 0.0 0.0 -1.0
outer loop
vertex 1659.199951171875 60.20000076293945 1.1368683772161603e-13
vertex 1800.0 225.0 1.1368683772161603e-13
vertex 1800.0 -225.0 1.1368683772161603e-13
endloop
endfacet
facet normal -0.0 -0.0 -1.0
outer loop
vertex 1659.199951171875 60.20000076293945 1.1368683772161603e-13
vertex 1800.0 -225.0 1.1368683772161603e-13
vertex 1659.199951171875 -60.20000076293945 1.1368683772161603e-13
endloop
endfacet
facet normal 0.0 -1.0 0.0
outer loop
vertex -3.19938976277246e-14 -225.0 0.0
vertex 1800.0 -225.0 1.1368683772161603e-13
vertex 1800.0 -225.0 40.000000000000114
endloop
endfacet
facet normal -0.0 -1.0 0.0
outer loop
vertex -3.19938976277246e-14 -225.0 0.0
vertex 1800.0 -225.0 40.000000000000114
vertex -3.444319122601931e-14 -225.0 40.0
endloop
endfacet
facet normal -1.0 -0.0 -6.123233995736773e-17
outer loop
vertex -3.444319122601931e-14 225.0 40.0
vertex -3.19938976277246e-14 225.0 0.0
vertex -3.19938976277246e-14 -225.0 0.0
endloop
endfacet
facet normal -1.0 0.0 -6.123233995736773e-17
outer loop
vertex -3.444319122601931e-14 225.0 40.0
vertex -3.19938976277246e-14 -225.0 0.0
vertex -3.444319122601931e-14 -225.0 40.0
endloop
endfacet
facet normal 1.0 0.0 -0.0
outer loop
vertex 1800.0 225.0 1.1368683772161603e-13
vertex 1800.0 225.0 40.000000000000114
vertex 1800.0 -225.0 40.000000000000114
endloop
endfacet
facet normal 1.0 0.0 0.0
outer loop
vertex 1800.0 225.0 1.1368683772161603e-13
vertex 1800.0 -225.0 40.000000000000114
vertex 1800.0 -225.0 1.1368683772161603e-13
endloop
endfacet
facet normal -0.0 1.0 0.0
outer loop
vertex 1640.800048828125 -60.20000076293945 20.000000000000114
vertex 1659.199951171875 -60.20000076293945 20.000000000000114
vertex 1659.199951171875 -60.20000076293945 1.1368683772161603e-13
endloop
endfacet
facet normal 0.0 1.0 0.0
outer loop
vertex 1640.800048828125 -60.20000076293945 20.000000000000114
vertex 1659.199951171875 -60.20000076293945 1.1368683772161603e-13
vertex 1640.800048828125 -60.20000076293945 1.1368683772161603e-13
endloop
endfacet
facet normal 1.0 0.0 0.0
outer loop
vertex 1640.800048828125 60.20000076293945 20.000000000000114
vertex 1640.800048828125 -60.20000076293945 20.000000000000114
vertex 1640.800048828125 -60.20000076293945 1.1368683772161603e-13
endloop
endfacet
facet normal 1.0 -0.0 0.0
outer loop
vertex 1640.800048828125 60.20000076293945 20.000000000000114
vertex 1640.800048828125 -60.20000076293945 1.1368683772161603e-13
vertex 1640.800048828125 60.20000076293945 1.1368683772161603e-13
endloop
endfacet
facet normal -0.0 -1.0 -0.0
outer loop
vertex 1659.199951171875 60.20000076293945 20.000000000000114
vertex 1640.800048828125 60.20000076293945 20.000000000000114
vertex 1640.800048828125 60.20000076293945 1.1368683772161603e-13
endloop
endfacet
facet normal 0.0 -1.0 -0.0
outer loop
vertex 1659.199951171875 60.20000076293945 20.000000000000114
vertex 1640.800048828125 60.20000076293945 1.1368683772161603e-13
vertex 1659.199951171875 60.20000076293945 1.1368683772161603e-13
endloop
endfacet
facet normal -1.0 0.0 0.0
outer loop
vertex 1659.199951171875 -60.20000076293945 20.000000000000114
vertex 1659.199951171875 60.20000076293945 20.000000000000114
vertex 1659.199951171875 60.20000076293945 1.1368683772161603e-13
endloop
endfacet
facet normal -1.0 -0.0 -0.0
outer loop
vertex 1659.199951171875 -60.20000076293945 20.000000000000114
vertex 1659.199951171875 60.20000076293945 1.1368683772161603e-13
vertex 1659.199951171875 -60.20000076293945 1.1368683772161603e-13
endloop
endfacet
facet normal 0.0 0.0 -1.0
outer loop
vertex 1640.800048828125 60.20000076293945 20.000000000000114
vertex 1659.199951171875 60.20000076293945 20.000000000000114
vertex 1659.199951171875 -60.20000076293945 20.000000000000114
endloop
endfacet
facet normal -0.0 -0.0 -1.0
outer loop
vertex 1640.800048828125 60.20000076293945 20.000000000000114
vertex 1659.199951171875 -60.20000076293945 20.000000000000114
vertex 1640.800048828125 -60.20000076293945 20.000000000000114
endloop
endfacet

endsolid
