solid 
facet normal -1.0 0.0 0.0
outer loop
vertex -522.5 -205.0 0.0
vertex -522.5 -205.0 36.0
vertex -522.5 205.0 36.0
endloop
endfacet
facet normal -1.0 0.0 0.0
outer loop
vertex -522.5 -205.0 0.0
vertex -522.5 205.0 36.0
vertex -522.5 205.0 0.0
endloop
endfacet
facet normal 0.0 1.0 0.0
outer loop
vertex -522.5 205.0 0.0
vertex -522.5 205.0 36.0
vertex 522.5 205.0 36.0
endloop
endfacet
facet normal -0.0 1.0 0.0
outer loop
vertex -522.5 205.0 0.0
vertex 522.5 205.0 36.0
vertex 522.5 205.0 0.0
endloop
endfacet
facet normal 1.0 -0.0 0.0
outer loop
vertex 522.5 60.0 9.0
vertex 522.5 205.0 0.0
vertex 522.5 205.0 36.0
endloop
endfacet
facet normal 1.0 -0.0 0.0
outer loop
vertex 522.5 -205.0 36.0
vertex 522.5 -205.0 0.0
vertex 522.5 -60.0 9.0
endloop
endfacet
facet normal 1.0 -0.0 0.0
outer loop
vertex 522.5 -205.0 36.0
vertex 522.5 -60.0 9.0
vertex 522.5 -60.0 27.0
endloop
endfacet
facet normal 1.0 -0.0 0.0
outer loop
vertex 522.5 60.0 27.0
vertex 522.5 60.0 9.0
vertex 522.5 205.0 36.0
endloop
endfacet
facet normal 1.0 -0.0 0.0
outer loop
vertex 522.5 -205.0 36.0
vertex 522.5 -60.0 27.0
vertex 522.5 60.0 27.0
endloop
endfacet
facet normal 1.0 0.0 0.0
outer loop
vertex 522.5 205.0 36.0
vertex 522.5 -205.0 36.0
vertex 522.5 60.0 27.0
endloop
endfacet
facet normal 1.0 -0.0 0.0
outer loop
vertex 522.5 -60.0 9.0
vertex 522.5 -205.0 0.0
vertex 522.5 205.0 0.0
endloop
endfacet
facet normal 1.0 -0.0 -0.0
outer loop
vertex 522.5 -60.0 9.0
vertex 522.5 205.0 0.0
vertex 522.5 60.0 9.0
endloop
endfacet
facet normal 0.0 -1.0 0.0
outer loop
vertex 522.5 -205.0 0.0
vertex 522.5 -205.0 36.0
vertex -522.5 -205.0 36.0
endloop
endfacet
facet normal -0.0 -1.0 -0.0
outer loop
vertex 522.5 -205.0 0.0
vertex -522.5 -205.0 36.0
vertex -522.5 -205.0 0.0
endloop
endfacet
facet normal 0.0 0.0 -0.9999999999999999
outer loop
vertex -522.5 205.0 0.0
vertex 522.5 205.0 0.0
vertex 522.5 -205.0 0.0
endloop
endfacet
facet normal -0.0 -0.0 -0.9999999999999999
outer loop
vertex -522.5 205.0 0.0
vertex 522.5 -205.0 0.0
vertex -522.5 -205.0 0.0
endloop
endfacet
facet normal 0.0 0.0 0.9999999999999999
outer loop
vertex 522.5 205.0 36.0
vertex -522.5 205.0 36.0
vertex -522.5 -205.0 36.0
endloop
endfacet
facet normal -0.0 0.0 0.9999999999999999
outer loop
vertex 522.5 205.0 36.0
vertex -522.5 -205.0 36.0
vertex 522.5 -205.0 36.0
endloop
endfacet
facet normal 0.0 -0.9999999999999999 0.0
outer loop
vertex 522.5 -60.0 9.0
vertex 540.5000610351562 -60.0 9.000000953674316
vertex 540.5000610351562 -60.0 9.000016212463379
endloop
endfacet
facet normal -0.0 -0.9999999999999999 0.0
outer loop
vertex 540.5000610351562 -60.0 26.999977111816406
vertex 540.5000610351562 -60.0 27.000000953674316
vertex 522.5 -60.0 27.0
endloop
endfacet
facet normal 0.0 -1.0 0.0
outer loop
vertex 522.5 -60.0 9.0
vertex 540.5000610351562 -60.0 9.000016212463379
vertex 540.5000610351562 -60.0 26.999977111816406
endloop
endfacet
facet normal -0.0 -1.0 -0.0
outer loop
vertex 540.5000610351562 -60.0 26.999977111816406
vertex 522.5 -60.0 27.0
vertex 522.5 -60.0 9.0
endloop
endfacet
facet normal -5.298172681434856e-08 0.0 0.9999999999999986
outer loop
vertex 540.5000610351562 -60.0 27.000000953674316
vertex 540.5000610351562 60.0 27.000000953674316
vertex 522.5 60.0 27.0
endloop
endfacet
facet normal -5.298172681434856e-08 0.0 0.9999999999999986
outer loop
vertex 540.5000610351562 -60.0 27.000000953674316
vertex 522.5 60.0 27.0
vertex 522.5 -60.0 27.0
endloop
endfacet
facet normal -0.0 1.0 0.0
outer loop
vertex 522.5 60.0 27.0
vertex 540.5000610351562 60.0 27.000000953674316
vertex 540.5000610351562 60.0 26.99998378753662
endloop
endfacet
facet normal 0.0 0.9999999999999999 0.0
outer loop
vertex 540.5000610351562 60.0 9.000022888183594
vertex 540.5000610351562 60.0 9.000000953674316
vertex 522.5 60.0 9.0
endloop
endfacet
facet normal 0.0 1.0 0.0
outer loop
vertex 522.5 60.0 27.0
vertex 540.5000610351562 60.0 26.99998378753662
vertex 540.5000610351562 60.0 9.000022888183594
endloop
endfacet
facet normal 0.0 1.0 -0.0
outer loop
vertex 540.5000610351562 60.0 9.000022888183594
vertex 522.5 60.0 9.0
vertex 522.5 60.0 27.0
endloop
endfacet
facet normal 5.298172681434856e-08 0.0 -0.9999999999999986
outer loop
vertex 540.5000610351562 60.0 9.000000953674316
vertex 540.5000610351562 -60.0 9.000000953674316
vertex 522.5 -60.0 9.0
endloop
endfacet
facet normal 5.298172681434856e-08 0.0 -0.9999999999999986
outer loop
vertex 540.5000610351562 60.0 9.000000953674316
vertex 522.5 -60.0 9.0
vertex 522.5 60.0 9.0
endloop
endfacet
facet normal 0.9999999999999999 -0.0 0.0
outer loop
vertex 542.5 -58.00004577636719 25.000038623809814
vertex 542.5 -58.00004577636719 10.999954223632812
vertex 542.5 58.00004577636719 10.999961376190186
endloop
endfacet
facet normal 0.9999999999999999 -0.0 0.0
outer loop
vertex 542.5 -58.00004577636719 25.000038623809814
vertex 542.5 58.00004577636719 10.999961376190186
vertex 542.5 58.00004577636719 25.000045776367188
endloop
endfacet
facet normal 0.7071094786517373 -0.7071040837110675 0.0
outer loop
vertex 540.5000610351562 -60.0 26.999977111816406
vertex 540.5000610351562 -60.0 9.000016212463379
vertex 542.5 -58.00004577636719 10.999954223632812
endloop
endfacet
facet normal 0.7071094786517372 -0.7071040837110675 0.0
outer loop
vertex 540.5000610351562 -60.0 26.999977111816406
vertex 542.5 -58.00004577636719 10.999954223632812
vertex 542.5 -58.00004577636719 25.000038623809814
endloop
endfacet
facet normal 0.7071094786517372 0.7071040837110675 0.0
outer loop
vertex 542.5 58.00004577636719 25.000045776367188
vertex 542.5 58.00004577636719 10.999961376190186
vertex 540.5000610351562 60.0 9.000022888183594
endloop
endfacet
facet normal 0.7071094786517373 0.7071040837110675 -0.0
outer loop
vertex 542.5 58.00004577636719 25.000045776367188
vertex 540.5000610351562 60.0 9.000022888183594
vertex 540.5000610351562 60.0 26.99998378753662
endloop
endfacet
facet normal 0.7071094786517372 -0.7071040837110675 0.0
outer loop
vertex 542.5 -58.00004577636719 10.999954223632812
vertex 540.5000610351562 -60.0 9.000016212463379
vertex 540.5000610351562 -60.0 9.000000953674316
endloop
endfacet
facet normal 0.7071092882610563 4.359999911681288e-08 -0.7071042741031484
outer loop
vertex 542.5 58.00004577636719 10.999961376190186
vertex 542.5 -58.00004577636719 10.999954223632812
vertex 540.5000610351562 -60.0 9.000000953674316
endloop
endfacet
facet normal 1.0 0.0 0.0
outer loop
vertex 540.5000610351562 -60.0 9.000000953674316
vertex 540.5000610351562 60.0 9.000000953674316
vertex 540.5000610351562 60.0 9.000022888183594
endloop
endfacet
facet normal 0.707106761515932 1.2925033902895024e-07 -0.7071068008571506
outer loop
vertex 540.5000610351562 -60.0 9.000000953674316
vertex 540.5000610351562 60.0 9.000022888183594
vertex 542.5 58.00004577636719 10.999961376190186
endloop
endfacet
facet normal 0.7071094786517372 0.7071040837110674 -0.0
outer loop
vertex 542.5 58.00004577636719 25.000045776367188
vertex 540.5000610351562 60.0 26.99998378753662
vertex 540.5000610351562 60.0 27.000000953674316
endloop
endfacet
facet normal 0.7071096254423068 -4.3599978326083676e-08 0.707103936919346
outer loop
vertex 542.5 -58.00004577636719 25.000038623809814
vertex 542.5 58.00004577636719 25.000045776367188
vertex 540.5000610351562 60.0 27.000000953674316
endloop
endfacet
facet normal 1.0 0.0 0.0
outer loop
vertex 540.5000610351562 60.0 27.000000953674316
vertex 540.5000610351562 -60.0 27.000000953674316
vertex 540.5000610351562 -60.0 26.999977111816406
endloop
endfacet
facet normal 0.7071067671355541 -1.404894978279922e-07 0.7071067952375267
outer loop
vertex 540.5000610351562 60.0 27.000000953674316
vertex 540.5000610351562 -60.0 26.999977111816406
vertex 542.5 -58.00004577636719 25.000038623809814
endloop
endfacet

endsolid
