solid 
facet normal -1.007862036539149e-16 0.0 0.9999999999999999
outer loop
vertex 759.0 -60.0 40.0000000000001
vertex 900.0 -225.0 40.000000000000114
vertex 900.0 225.0 40.000000000000114
endloop
endfacet
facet normal -1.0078620365391492e-16 0.0 1.0
outer loop
vertex 759.0 -60.0 40.0000000000001
vertex 900.0 225.0 40.000000000000114
vertex 759.0 60.0 40.0000000000001
endloop
endfacet
facet normal -7.054675964856182e-17 -2.0674068098836667e-17 0.9999999999999999
outer loop
vertex 819.5814208984375 196.9640655517578 40.00000000000011
vertex 722.3602905273438 185.0268096923828 40.0000000000001
vertex 759.0 60.0 40.0000000000001
endloop
endfacet
facet normal -8.472869179608168e-17 -1.0403304186787502e-17 1.0
outer loop
vertex 900.0 225.0 40.000000000000114
vertex 818.0702514648438 209.27163696289062 40.00000000000011
vertex 819.5814208984375 196.9640655517578 40.00000000000011
endloop
endfacet
facet normal -8.30808311404665e-17 -1.5130045602401384e-17 1.0
outer loop
vertex 759.0 60.0 40.0000000000001
vertex 900.0 225.0 40.000000000000114
vertex 819.5814208984375 196.9640655517578 40.00000000000011
endloop
endfacet
facet normal -6.315935428978668e-17 -1.2275895072109086e-16 1.0
outer loop
vertex 818.0702514648438 209.27163696289062 40.00000000000011
vertex 900.0 225.0 40.000000000000114
vertex -900.0 225.0 40.0
endloop
endfacet
facet normal -0.0 1.7246182986639527e-16 1.0
outer loop
vertex -900.0 225.0 40.0
vertex -459.20001220703125 60.20000076293945 40.00000000000003
vertex -440.79998779296875 60.20000076293945 40.00000000000003
endloop
endfacet
facet normal 0.0 -1.7246182986639527e-16 1.0
outer loop
vertex -440.79998779296875 -60.20000076293945 40.00000000000003
vertex -459.20001220703125 -60.20000076293945 40.00000000000003
vertex -900.0 -225.0 40.0
endloop
endfacet
facet normal -6.203924267023172e-17 -4.0480316377553713e-19 1.0
outer loop
vertex 818.0702514648438 209.27163696289062 40.00000000000011
vertex -900.0 225.0 40.0
vertex -440.79998779296875 60.20000076293945 40.00000000000003
endloop
endfacet
facet normal -6.315935428978668e-17 3.525890977817296e-18 1.0
outer loop
vertex -440.79998779296875 -60.20000076293945 40.00000000000003
vertex -900.0 -225.0 40.0
vertex 900.0 -225.0 40.000000000000114
endloop
endfacet
facet normal 1.8776992894337496e-16 -2.1099766818557462e-15 1.0
outer loop
vertex 718.4185791015625 197.03594970703125 40.0000000000001
vertex 818.0702514648438 209.27163696289062 40.00000000000011
vertex -440.79998779296875 60.20000076293945 40.00000000000003
endloop
endfacet
facet normal 0.0 0.0 1.0
outer loop
vertex 759.0 60.0 40.0000000000001
vertex 722.3602905273438 185.0268096923828 40.0000000000001
vertex 719.9297485351562 184.72837829589844 40.0000000000001
endloop
endfacet
facet normal -6.04192837002346e-17 -7.41850456742707e-18 1.0
outer loop
vertex 719.9297485351562 184.72837829589844 40.0000000000001
vertex 718.4185791015625 197.03594970703125 40.0000000000001
vertex -440.79998779296875 60.20000076293945 40.00000000000003
endloop
endfacet
facet normal -6.359272752646959e-17 0.0 1.0
outer loop
vertex -440.79998779296875 60.20000076293945 40.00000000000003
vertex -440.79998779296875 -60.20000076293945 40.00000000000003
vertex 900.0 -225.0 40.000000000000114
endloop
endfacet
facet normal 0.0 8.612639221334548e-17 1.0
outer loop
vertex 900.0 -225.0 40.000000000000114
vertex 759.0 -60.0 40.0000000000001
vertex 741.0 -60.0 40.0000000000001
endloop
endfacet
facet normal -4.885133943162866e-17 0.0 1.0
outer loop
vertex 741.0 -60.0 40.0000000000001
vertex 159.1999969482422 -39.79999923706055 40.00000000000007
vertex 159.1999969482422 -60.20000076293945 40.00000000000007
endloop
endfacet
facet normal -4.8864759397896306e-17 3.903853315719085e-17 1.0
outer loop
vertex 900.0 -225.0 40.000000000000114
vertex 741.0 -60.0 40.0000000000001
vertex 159.1999969482422 -60.20000076293945 40.00000000000007
endloop
endfacet
facet normal 0.0 -0.0 1.0
outer loop
vertex 741.0 60.0 40.0000000000001
vertex 759.0 60.0 40.0000000000001
vertex 719.9297485351562 184.72837829589844 40.0000000000001
endloop
endfacet
facet normal -4.885417646257406e-17 -8.252891581194686e-18 1.0
outer loop
vertex 159.1999969482422 60.20000076293945 40.00000000000007
vertex 741.0 60.0 40.0000000000001
vertex 719.9297485351562 184.72837829589844 40.0000000000001
endloop
endfacet
facet normal -3.8616465840016454e-16 -1.4771736474679064e-15 0.9999999999999999
outer loop
vertex 900.0 -225.0 40.000000000000114
vertex 159.1999969482422 -60.20000076293945 40.00000000000007
vertex 140.8000030517578 -60.20000076293945 40.000000000000064
endloop
endfacet
facet normal -3.861646584001646e-16 1.5105978835721846e-15 1.0
outer loop
vertex 140.8000030517578 60.20000076293945 40.000000000000064
vertex 159.1999969482422 60.20000076293945 40.00000000000007
vertex 719.9297485351562 184.72837829589844 40.0000000000001
endloop
endfacet
facet normal 3.008608555499806e-17 4.4040866444630606e-16 1.0
outer loop
vertex -440.79998779296875 60.20000076293945 40.00000000000003
vertex 900.0 -225.0 40.000000000000114
vertex 140.8000030517578 -60.20000076293945 40.000000000000064
endloop
endfacet
facet normal -6.108517425594306e-17 -1.2117347976506479e-18 0.9999999999999999
outer loop
vertex 140.8000030517578 60.20000076293945 40.000000000000064
vertex 719.9297485351562 184.72837829589844 40.0000000000001
vertex -440.79998779296875 60.20000076293945 40.00000000000003
endloop
endfacet
facet normal -6.108517425594306e-17 0.0 1.0
outer loop
vertex -440.79998779296875 60.20000076293945 40.00000000000003
vertex 140.8000030517578 -60.20000076293945 40.000000000000064
vertex 140.8000030517578 60.20000076293945 40.000000000000064
endloop
endfacet
facet normal -6.447756401425509e-17 0.0 1.0
outer loop
vertex -459.20001220703125 60.20000076293945 40.00000000000003
vertex -900.0 225.0 40.0
vertex -900.0 -225.0 40.0
endloop
endfacet
facet normal -6.44775640142551e-17 0.0 1.0
outer loop
vertex -459.20001220703125 60.20000076293945 40.00000000000003
vertex -900.0 -225.0 40.0
vertex -459.20001220703125 -60.20000076293945 40.00000000000003
endloop
endfacet
facet normal -4.885133943162865e-17 0.0 1.0
outer loop
vertex 741.0 -60.0 40.0000000000001
vertex 741.0 60.0 40.0000000000001
vertex 159.1999969482422 60.20000076293945 40.00000000000007
endloop
endfacet
facet normal -4.885133943162865e-17 0.0 1.0
outer loop
vertex 741.0 -60.0 40.0000000000001
vertex 159.1999969482422 60.20000076293945 40.00000000000007
vertex 159.1999969482422 -39.79999923706055 40.00000000000007
endloop
endfacet
facet normal -0.0 1.0 0.0
outer loop
vertex -900.0 225.0 40.0
vertex 900.0 225.0 40.000000000000114
vertex 900.0 225.0 1.1368683772161603e-13
endloop
endfacet
facet normal 0.0 1.0 0.0
outer loop
vertex -900.0 225.0 40.0
vertex 900.0 225.0 1.1368683772161603e-13
vertex -900.0 225.0 0.0
endloop
endfacet
facet normal 6.315935428978668e-17 0.0 -1.0
outer loop
vertex -900.0 225.0 0.0
vertex 900.0 225.0 1.1368683772161603e-13
vertex 900.0 -225.0 1.1368683772161603e-13
endloop
endfacet
facet normal 6.315935428978668e-17 0.0 -1.0
outer loop
vertex -900.0 225.0 0.0
vertex 900.0 -225.0 1.1368683772161603e-13
vertex -900.0 -225.0 0.0
endloop
endfacet
facet normal 0.0 -1.0 0.0
outer loop
vertex -900.0 -225.0 0.0
vertex 900.0 -225.0 1.1368683772161603e-13
vertex 900.0 -225.0 40.000000000000114
endloop
endfacet
facet normal -0.0 -1.0 0.0
outer loop
vertex -900.0 -225.0 0.0
vertex 900.0 -225.0 40.000000000000114
vertex -900.0 -225.0 40.0
endloop
endfacet
facet normal -1.0 -0.0 -0.0
outer loop
vertex -900.0 225.0 40.0
vertex -900.0 225.0 0.0
vertex -900.0 -225.0 0.0
endloop
endfacet
facet normal -1.0 -0.0 0.0
outer loop
vertex -900.0 225.0 40.0
vertex -900.0 -225.0 0.0
vertex -900.0 -225.0 40.0
endloop
endfacet
facet normal 1.0 0.0 -0.0
outer loop
vertex 900.0 225.0 1.1368683772161603e-13
vertex 900.0 225.0 40.000000000000114
vertex 900.0 -225.0 40.000000000000114
endloop
endfacet
facet normal 1.0 0.0 0.0
outer loop
vertex 900.0 225.0 1.1368683772161603e-13
vertex 900.0 -225.0 40.000000000000114
vertex 900.0 -225.0 1.1368683772161603e-13
endloop
endfacet
facet normal 0.0 -1.0 -0.0
outer loop
vertex 759.0 -60.0 58.00000000000011
vertex 741.0 -60.0 58.0000000000001
vertex 741.0 -60.0 40.0000000000001
endloop
endfacet
facet normal 0.0 -1.0 -0.0
outer loop
vertex 759.0 -60.0 58.00000000000011
vertex 741.0 -60.0 40.0000000000001
vertex 759.0 -60.0 40.0000000000001
endloop
endfacet
facet normal -1.0 0.0 0.0
outer loop
vertex 741.0 -60.0 58.0000000000001
vertex 741.0 -59.99995803833008 58.00004196167002
vertex 741.0 59.999961853027344 58.000038146972756
endloop
endfacet
facet normal -1.0 0.0 0.0
outer loop
vertex 741.0 59.999961853027344 58.000038146972756
vertex 741.0 60.0 58.0000000000001
vertex 741.0 60.0 40.0000000000001
endloop
endfacet
facet normal -1.0 0.0 0.0
outer loop
vertex 741.0 60.0 40.0000000000001
vertex 741.0 -60.0 40.0000000000001
vertex 741.0 -60.0 58.0000000000001
endloop
endfacet
facet normal -1.0 -0.0 -0.0
outer loop
vertex 741.0 59.999961853027344 58.000038146972756
vertex 741.0 60.0 40.0000000000001
vertex 741.0 -60.0 58.0000000000001
endloop
endfacet
facet normal 0.0 1.0 0.0
outer loop
vertex 741.0 60.0 40.0000000000001
vertex 741.0 60.0 58.0000000000001
vertex 759.0 60.0 58.00000000000011
endloop
endfacet
facet normal -0.0 1.0 0.0
outer loop
vertex 741.0 60.0 40.0000000000001
vertex 759.0 60.0 58.00000000000011
vertex 759.0 60.0 40.0000000000001
endloop
endfacet
facet normal 1.0 0.0 0.0
outer loop
vertex 759.0 -60.0 40.0000000000001
vertex 759.0 60.0 40.0000000000001
vertex 759.0 60.0 58.00000000000011
endloop
endfacet
facet normal 1.0 0.0 0.0
outer loop
vertex 759.0 60.0 58.00000000000011
vertex 759.0 59.99995803833008 58.00004196167003
vertex 759.0 -59.999961853027344 58.00003814697276
endloop
endfacet
facet normal 1.0 0.0 0.0
outer loop
vertex 759.0 -59.999961853027344 58.00003814697276
vertex 759.0 -60.0 58.00000000000011
vertex 759.0 -60.0 40.0000000000001
endloop
endfacet
facet normal 1.0 0.0 0.0
outer loop
vertex 759.0 60.0 58.00000000000011
vertex 759.0 -59.999961853027344 58.00003814697276
vertex 759.0 -60.0 40.0000000000001
endloop
endfacet
facet normal -5.075261002665232e-16 6.577064251077572e-08 0.9999999999999977
outer loop
vertex 757.0000610351562 -57.999996185302734 60.00000381469737
vertex 757.0000610351562 58.000003814697266 59.99999618530284
vertex 742.9999389648438 58.000003814697266 59.999996185302834
endloop
endfacet
facet normal -5.075261002665232e-16 6.577064251077572e-08 0.9999999999999977
outer loop
vertex 757.0000610351562 -57.999996185302734 60.00000381469737
vertex 742.9999389648438 58.000003814697266 59.999996185302834
vertex 742.9999389648438 -57.999996185302734 60.000003814697365
endloop
endfacet
facet normal -3.588751471276231e-16 -0.7071067811865474 0.7071067811865477
outer loop
vertex 757.0000610351562 -57.999996185302734 60.00000381469737
vertex 742.9999389648438 -57.999996185302734 60.000003814697365
vertex 741.0 -59.99995803833008 58.00004196167002
endloop
endfacet
facet normal -2.7912754821044893e-16 -0.7071067811865476 0.7071067811865476
outer loop
vertex 741.0 -59.99995803833008 58.00004196167002
vertex 741.0 -60.0 58.0000000000001
vertex 759.0 -60.0 58.00000000000011
endloop
endfacet
facet normal 0.0 -0.7071067811865476 0.7071067811865476
outer loop
vertex 759.0 -60.0 58.00000000000011
vertex 759.0 -59.999961853027344 58.00003814697276
vertex 757.0000610351562 -57.999996185302734 60.00000381469737
endloop
endfacet
facet normal -2.791281988940914e-16 -0.7071067811865477 0.7071067811865475
outer loop
vertex 741.0 -59.99995803833008 58.00004196167002
vertex 759.0 -60.0 58.00000000000011
vertex 757.0000610351562 -57.999996185302734 60.00000381469737
endloop
endfacet
facet normal 0.0 0.7071067811865476 0.7071067811865476
outer loop
vertex 757.0000610351562 58.000003814697266 59.99999618530284
vertex 759.0 59.99995803833008 58.00004196167003
vertex 759.0 60.0 58.00000000000011
endloop
endfacet
facet normal -2.7912754821044893e-16 0.7071067811865476 0.7071067811865476
outer loop
vertex 759.0 60.0 58.00000000000011
vertex 741.0 60.0 58.0000000000001
vertex 741.0 59.999961853027344 58.000038146972756
endloop
endfacet
facet normal -3.588751471276231e-16 0.7071067811865474 0.7071067811865478
outer loop
vertex 741.0 59.999961853027344 58.000038146972756
vertex 742.9999389648438 58.000003814697266 59.999996185302834
vertex 757.0000610351562 58.000003814697266 59.99999618530284
endloop
endfacet
facet normal -2.791281397431641e-16 0.7071067811865476 0.7071067811865474
outer loop
vertex 759.0 60.0 58.00000000000011
vertex 741.0 59.999961853027344 58.000038146972756
vertex 757.0000610351562 58.000003814697266 59.99999618530284
endloop
endfacet
facet normal 0.7071114904912781 -2.247818450585452e-08 0.7071020718504526
outer loop
vertex 757.0000610351562 -57.999996185302734 60.00000381469737
vertex 759.0 -59.999961853027344 58.00003814697276
vertex 759.0 59.99995803833008 58.00004196167003
endloop
endfacet
facet normal 0.7071094553983904 4.650669143706943e-08 0.7071041069645894
outer loop
vertex 757.0000610351562 -57.999996185302734 60.00000381469737
vertex 759.0 59.99995803833008 58.00004196167003
vertex 757.0000610351562 58.000003814697266 59.99999618530284
endloop
endfacet
facet normal -0.7071108506260542 4.650659967117436e-08 0.7071027117236192
outer loop
vertex 741.0 -59.99995803833008 58.00004196167002
vertex 742.9999389648438 -57.999996185302734 60.000003814697365
vertex 742.9999389648438 58.000003814697266 59.999996185302834
endloop
endfacet
facet normal -0.7071101417740973 2.2478227380936972e-08 0.707103420583026
outer loop
vertex 741.0 -59.99995803833008 58.00004196167002
vertex 742.9999389648438 58.000003814697266 59.999996185302834
vertex 741.0 59.999961853027344 58.000038146972756
endloop
endfacet
facet normal 0.0 1.0 0.0
outer loop
vertex 159.1999969482422 -60.20000076293945 40.00000000000007
vertex 159.1999969482422 -60.20000076293945 20.00000476837165
vertex 140.8000030517578 -60.20000076293945 20.00000381469733
endloop
endfacet
facet normal 0.0 1.0 -0.0
outer loop
vertex 159.1999969482422 -60.20000076293945 40.00000000000007
vertex 140.8000030517578 -60.20000076293945 20.00000381469733
vertex 140.8000030517578 -60.20000076293945 40.000000000000064
endloop
endfacet
facet normal -0.9999999999999999 0.0 0.0
outer loop
vertex 159.1999969482422 -39.79999923706055 40.00000000000007
vertex 159.1999969482422 60.20000076293945 40.00000000000007
vertex 159.1999969482422 60.20000076293945 19.999996185302802
endloop
endfacet
facet normal -0.9999999999999999 0.0 0.0
outer loop
vertex 159.1999969482422 60.20000076293945 19.999996185302802
vertex 159.1999969482422 -60.20000076293945 20.00000476837165
vertex 159.1999969482422 -60.20000076293945 40.00000000000007
endloop
endfacet
facet normal -1.0 -0.0 -0.0
outer loop
vertex 159.1999969482422 -39.79999923706055 40.00000000000007
vertex 159.1999969482422 60.20000076293945 19.999996185302802
vertex 159.1999969482422 -60.20000076293945 40.00000000000007
endloop
endfacet
facet normal 0.0 -1.0 0.0
outer loop
vertex 140.8000030517578 60.20000076293945 40.000000000000064
vertex 140.8000030517578 60.20000076293945 19.999995231628482
vertex 159.1999969482422 60.20000076293945 19.999996185302802
endloop
endfacet
facet normal 0.0 -1.0 0.0
outer loop
vertex 140.8000030517578 60.20000076293945 40.000000000000064
vertex 159.1999969482422 60.20000076293945 19.999996185302802
vertex 159.1999969482422 60.20000076293945 40.00000000000007
endloop
endfacet
facet normal 1.0 -0.0 0.0
outer loop
vertex 140.8000030517578 -60.20000076293945 20.00000381469733
vertex 140.8000030517578 60.20000076293945 19.999995231628482
vertex 140.8000030517578 60.20000076293945 40.000000000000064
endloop
endfacet
facet normal 1.0 0.0 -0.0
outer loop
vertex 140.8000030517578 -60.20000076293945 20.00000381469733
vertex 140.8000030517578 60.20000076293945 40.000000000000064
vertex 140.8000030517578 -60.20000076293945 40.000000000000064
endloop
endfacet
facet normal -5.1830143277448326e-08 7.1287946336208e-08 0.999999999999996
outer loop
vertex 159.1999969482422 60.20000076293945 19.999996185302802
vertex 140.8000030517578 60.20000076293945 19.999995231628482
vertex 140.8000030517578 -60.20000076293945 20.00000381469733
endloop
endfacet
facet normal -5.1830143277448326e-08 7.1287946336208e-08 0.999999999999996
outer loop
vertex 159.1999969482422 60.20000076293945 19.999996185302802
vertex 140.8000030517578 -60.20000076293945 20.00000381469733
vertex 159.1999969482422 -60.20000076293945 20.00000476837165
endloop
endfacet
facet normal 0.0 1.0 0.0
outer loop
vertex -440.79998779296875 -60.20000076293945 40.00000000000003
vertex -440.79998779296875 -60.20000076293945 20.00000476837161
vertex -459.20001220703125 -60.20000076293945 20.000003814697294
endloop
endfacet
facet normal 0.0 1.0 -0.0
outer loop
vertex -440.79998779296875 -60.20000076293945 40.00000000000003
vertex -459.20001220703125 -60.20000076293945 20.000003814697294
vertex -459.20001220703125 -60.20000076293945 40.00000000000003
endloop
endfacet
facet normal -1.0 -0.0 -0.0
outer loop
vertex -440.79998779296875 60.20000076293945 40.00000000000003
vertex -440.79998779296875 60.20000076293945 19.999996185302763
vertex -440.79998779296875 -60.20000076293945 20.00000476837161
endloop
endfacet
facet normal -1.0 -0.0 0.0
outer loop
vertex -440.79998779296875 60.20000076293945 40.00000000000003
vertex -440.79998779296875 -60.20000076293945 20.00000476837161
vertex -440.79998779296875 -60.20000076293945 40.00000000000003
endloop
endfacet
facet normal 0.0 -1.0 0.0
outer loop
vertex -459.20001220703125 60.20000076293945 40.00000000000003
vertex -459.20001220703125 60.20000076293945 19.999995231628446
vertex -440.79998779296875 60.20000076293945 19.999996185302763
endloop
endfacet
facet normal 0.0 -1.0 0.0
outer loop
vertex -459.20001220703125 60.20000076293945 40.00000000000003
vertex -440.79998779296875 60.20000076293945 19.999996185302763
vertex -440.79998779296875 60.20000076293945 40.00000000000003
endloop
endfacet
facet normal 1.0 0.0 0.0
outer loop
vertex -459.20001220703125 -60.20000076293945 40.00000000000003
vertex -459.20001220703125 -60.20000076293945 20.000003814697294
vertex -459.20001220703125 60.20000076293945 19.999995231628446
endloop
endfacet
facet normal 1.0 -0.0 0.0
outer loop
vertex -459.20001220703125 -60.20000076293945 40.00000000000003
vertex -459.20001220703125 60.20000076293945 19.999995231628446
vertex -459.20001220703125 60.20000076293945 40.00000000000003
endloop
endfacet
facet normal -5.183005712086915e-08 7.1287946336208e-08 0.999999999999996
outer loop
vertex -440.79998779296875 60.20000076293945 19.999996185302763
vertex -459.20001220703125 60.20000076293945 19.999995231628446
vertex -459.20001220703125 -60.20000076293945 20.000003814697294
endloop
endfacet
facet normal -5.183005712086915e-08 7.1287946336208e-08 0.999999999999996
outer loop
vertex -440.79998779296875 60.20000076293945 19.999996185302763
vertex -459.20001220703125 -60.20000076293945 20.000003814697294
vertex -440.79998779296875 -60.20000076293945 20.00000476837161
endloop
endfacet
facet normal 0.9925462522912769 0.12186852367421423 -9.297831810581123e-08
outer loop
vertex 719.9297485351562 184.72837829589844 40.0000000000001
vertex 719.9297485351562 184.72836303710938 20.00000286102305
vertex 718.4185791015625 197.0359344482422 19.999993324279885
endloop
endfacet
facet normal 0.992546252291268 0.12186852367428519 -9.297827377036318e-08
outer loop
vertex 719.9297485351562 184.72837829589844 40.0000000000001
vertex 718.4185791015625 197.0359344482422 19.999993324279885
vertex 718.4185791015625 197.03594970703125 40.0000000000001
endloop
endfacet
facet normal -0.12186936408617818 0.9925461491017218 -7.572528689574066e-07
outer loop
vertex 722.3602905273438 185.0268096923828 40.0000000000001
vertex 819.5814208984375 196.9640655517578 40.00000000000011
vertex 819.5814208984375 196.96405029296875 20.00000667572032
endloop
endfacet
facet normal -0.12186934754087612 0.9925461511332296 -7.572527260727813e-07
outer loop
vertex 819.5814208984375 196.96405029296875 20.00000667572032
vertex 719.9297485351562 184.72836303710938 20.00000286102305
vertex 719.9297485351562 184.72837829589844 40.0000000000001
endloop
endfacet
facet normal -0.12186868573324613 0.9925462323896773 2.5899716088255028e-06
outer loop
vertex 819.5814208984375 196.96405029296875 20.00000667572032
vertex 719.9297485351562 184.72837829589844 40.0000000000001
vertex 722.3602905273438 185.0268096923828 40.0000000000001
endloop
endfacet
facet normal -0.9925462522912767 -0.12186852367421422 9.297829150450482e-08
outer loop
vertex 818.0702514648438 209.27163696289062 40.00000000000011
vertex 818.0702514648438 209.27162170410156 19.999997138977157
vertex 819.5814208984375 196.96405029296875 20.00000667572032
endloop
endfacet
facet normal -0.992546252291268 -0.1218685236742852 9.297833584007808e-08
outer loop
vertex 818.0702514648438 209.27163696289062 40.00000000000011
vertex 819.5814208984375 196.96405029296875 20.00000667572032
vertex 819.5814208984375 196.9640655517578 40.00000000000011
endloop
endfacet
facet normal 0.12186934754087611 -0.9925461511332295 7.572523649866637e-07
outer loop
vertex 718.4185791015625 197.03594970703125 40.0000000000001
vertex 718.4185791015625 197.0359344482422 19.999993324279885
vertex 818.0702514648438 209.27162170410156 19.999997138977157
endloop
endfacet
facet normal 0.12186934754090467 -0.9925461511332261 7.572525094210668e-07
outer loop
vertex 718.4185791015625 197.03594970703125 40.0000000000001
vertex 818.0702514648438 209.27162170410156 19.999997138977157
vertex 818.0702514648438 209.27163696289062 40.00000000000011
endloop
endfacet
facet normal -1.3144055258433588e-07 7.58729233146091e-07 0.9999999999997036
outer loop
vertex 819.5814208984375 196.96405029296875 20.00000667572032
vertex 818.0702514648438 209.27162170410156 19.999997138977157
vertex 718.4185791015625 197.0359344482422 19.999993324279885
endloop
endfacet
facet normal -1.3144055258433588e-07 7.58729233146091e-07 0.9999999999997036
outer loop
vertex 819.5814208984375 196.96405029296875 20.00000667572032
vertex 718.4185791015625 197.0359344482422 19.999993324279885
vertex 719.9297485351562 184.72836303710938 20.00000286102305
endloop
endfacet

endsolid
