solid 
facet normal -1.0 0.0 0.0
outer loop
vertex -522.5 -12.000001419895957 1.3262512368328316e-06
vertex -522.5 -11.999999930461238 260.0000138934479
vertex -522.5 12.000001419895957 260.0000125671967
endloop
endfacet
facet normal -1.0 0.0 -0.0
outer loop
vertex -522.5 -12.000001419895957 1.3262512368328316e-06
vertex -522.5 12.000001419895957 260.0000125671967
vertex -522.5 11.999999930461238 0.0
endloop
endfacet
facet normal 0.0 1.0 -5.728594798334365e-09
outer loop
vertex -522.5 11.999999930461238 0.0
vertex -522.5 12.000001419895957 260.0000125671967
vertex 522.5 12.000001419895957 260.0000125671967
endloop
endfacet
facet normal 0.0 1.0 -5.728594798334365e-09
outer loop
vertex -522.5 11.999999930461238 0.0
vertex 522.5 12.000001419895957 260.0000125671967
vertex 522.5 11.999999930461238 0.0
endloop
endfacet
facet normal 1.0 -0.0 0.0
outer loop
vertex 522.5 -5.999996612998369 180.000008047715
vertex 522.5 2.307704348058204 180.00000711552462
vertex 522.5 2.307705294623977 180.00000723174827
endloop
endfacet
facet normal 1.0 0.0 0.0
outer loop
vertex 522.5 2.307705294623977 180.00000723174827
vertex 522.5 6.0000039142793264 180.00000736642943
vertex 522.5 12.000001419895957 260.0000125671967
endloop
endfacet
facet normal 1.0 0.0 0.0
outer loop
vertex 522.5 12.000001419895957 260.0000125671967
vertex 522.5 -11.999999930461238 260.0000138934479
vertex 522.5 -5.999996612998369 180.000008047715
endloop
endfacet
facet normal 0.9999999999999999 0.0 -0.0
outer loop
vertex 522.5 2.307705294623977 180.00000723174827
vertex 522.5 12.000001419895957 260.0000125671967
vertex 522.5 -5.999996612998369 180.000008047715
endloop
endfacet
facet normal 1.0 0.0 0.0
outer loop
vertex 522.5 -5.9999944486216 80.00000768925509
vertex 522.5 -5.999996612998369 180.000008047715
vertex 522.5 -11.999999930461238 260.0000138934479
endloop
endfacet
facet normal 1.0 0.0 0.0
outer loop
vertex 522.5 12.000001419895957 260.0000125671967
vertex 522.5 6.0000039142793264 180.00000736642943
vertex 522.5 6.000004379173978 180.00000358016635
endloop
endfacet
facet normal 1.0 0.0 0.0
outer loop
vertex 522.5 6.000005427892127 80.00000692806574
vertex 522.5 -5.999992555490054 80.0000079217024
vertex 522.5 -5.9999944486216 80.00000768925509
endloop
endfacet
facet normal 1.0 0.0 0.0
outer loop
vertex 522.5 12.000001419895957 260.0000125671967
vertex 522.5 6.000004379173978 180.00000358016635
vertex 522.5 6.000005427892127 80.00000692806574
endloop
endfacet
facet normal 1.0 0.0 0.0
outer loop
vertex 522.5 -5.9999944486216 80.00000768925509
vertex 522.5 -11.999999930461238 260.0000138934479
vertex 522.5 -12.000001419895957 1.3262512368328316e-06
endloop
endfacet
facet normal 0.9999999999999999 0.0 -0.0
outer loop
vertex 522.5 11.999999930461238 0.0
vertex 522.5 12.000001419895957 260.0000125671967
vertex 522.5 6.000005427892127 80.00000692806574
endloop
endfacet
facet normal 1.0 0.0 0.0
outer loop
vertex 522.5 6.000005427892127 80.00000692806574
vertex 522.5 -5.9999944486216 80.00000768925509
vertex 522.5 -12.000001419895957 1.3262512368328316e-06
endloop
endfacet
facet normal 1.0 -0.0 -0.0
outer loop
vertex 522.5 -12.000001419895957 1.3262512368328316e-06
vertex 522.5 11.999999930461238 0.0
vertex 522.5 6.000005427892127 80.00000692806574
endloop
endfacet
facet normal 0.0 -1.0 5.728594798334365e-09
outer loop
vertex 522.5 -12.000001419895957 1.3262512368328316e-06
vertex 522.5 -11.999999930461238 260.0000138934479
vertex -522.5 -11.999999930461238 260.0000138934479
endloop
endfacet
facet normal 0.0 -1.0 5.728594798334365e-09
outer loop
vertex 522.5 -12.000001419895957 1.3262512368328316e-06
vertex -522.5 -11.999999930461238 260.0000138934479
vertex -522.5 -12.000001419895957 1.3262512368328316e-06
endloop
endfacet
facet normal 0.0 -5.526046509214429e-08 -0.9999999999999987
outer loop
vertex -522.5 11.999999930461238 0.0
vertex 522.5 11.999999930461238 0.0
vertex 522.5 -12.000001419895957 1.3262512368328316e-06
endloop
endfacet
facet normal -0.0 -5.526046509214429e-08 -0.9999999999999987
outer loop
vertex -522.5 11.999999930461238 0.0
vertex 522.5 -12.000001419895957 1.3262512368328316e-06
vertex -522.5 -12.000001419895957 1.3262512368328316e-06
endloop
endfacet
facet normal 0.0 5.526046390790647e-08 0.9999999999999987
outer loop
vertex 522.5 12.000001419895957 260.0000125671967
vertex -522.5 12.000001419895957 260.0000125671967
vertex -522.5 -11.999999930461238 260.0000138934479
endloop
endfacet
facet normal -0.0 5.526046390790647e-08 0.9999999999999987
outer loop
vertex 522.5 12.000001419895957 260.0000125671967
vertex -522.5 -11.999999930461238 260.0000138934479
vertex 522.5 -11.999999930461238 260.0000138934479
endloop
endfacet
facet normal -9.01941598245841e-08 -8.280306899441721e-08 -0.9999999999999925
outer loop
vertex 522.5 -5.999992555490054 80.0000079217024
vertex 522.5 6.000005427892127 80.00000692806574
vertex 540.5000610351562 5.99999220555149 80.00000530456646
endloop
endfacet
facet normal 0.0 0.12186934478983462 -0.9925461514713039
outer loop
vertex 540.5000610351562 -6.000001074582008 80.00000687568944
vertex 540.5000610351562 -6.000007700542416 80.00000606212379
vertex 522.5 -5.9999944486216 80.00000768925509
endloop
endfacet
facet normal -5.8111696511599595e-08 -1.3092698825694072e-07 -0.9999999999999898
outer loop
vertex 522.5 -5.999992555490054 80.0000079217024
vertex 540.5000610351562 5.99999220555149 80.00000530456646
vertex 540.5000610351562 -6.000001074582008 80.00000687568944
endloop
endfacet
facet normal -1.6032894892960124e-15 0.1218693404990323 -0.992546151998148
outer loop
vertex 540.5000610351562 -6.000001074582008 80.00000687568944
vertex 522.5 -5.9999944486216 80.00000768925509
vertex 522.5 -5.999992555490054 80.0000079217024
endloop
endfacet
facet normal -7.362153286399516e-07 -0.9999999999997289 -2.1347965824391805e-08
outer loop
vertex 522.5 -5.9999944486216 80.00000768925509
vertex 540.5000610351562 -6.000007700542416 80.00000606212379
vertex 540.5000610351562 -6.000009835339006 180.0000064242157
endloop
endfacet
facet normal -7.345719909953575e-07 -0.9999999999997301 -2.1643767607174654e-08
outer loop
vertex 522.5 -5.9999944486216 80.00000768925509
vertex 540.5000610351562 -6.000009835339006 180.0000064242157
vertex 522.5 -5.999996612998369 180.000008047715
endloop
endfacet
facet normal -2.9917623042013035e-15 -0.12186934724906834 0.9925461511693479
outer loop
vertex 522.5 -5.999996612998369 180.000008047715
vertex 540.5000610351562 -6.000009835339006 180.0000064242157
vertex 540.5000610351562 -6.000006906901147 180.00000678378268
endloop
endfacet
facet normal 9.039593916418394e-08 8.704039431499364e-08 0.999999999999992
outer loop
vertex 540.5000610351562 -6.000006906901147 180.00000678378268
vertex 540.5000610351562 5.999990662358509 180.00000573929816
vertex 522.5 6.0000039142793264 180.00000736642943
endloop
endfacet
facet normal 8.051723402863331e-09 -3.647623676834754e-08 0.9999999999999993
outer loop
vertex 540.5000610351562 -6.000006906901147 180.00000678378268
vertex 522.5 6.0000039142793264 180.00000736642943
vertex 522.5 2.307705294623977 180.00000723174827
endloop
endfacet
facet normal 7.021828822670605e-08 1.1220798377785532e-07 0.9999999999999912
outer loop
vertex 522.5 2.307704348058204 180.00000711552462
vertex 522.5 -5.999996612998369 180.000008047715
vertex 540.5000610351562 -6.000006906901147 180.00000678378268
endloop
endfacet
facet normal -0.05615853453568356 -0.12167699947844897 0.9909797812249884
outer loop
vertex 540.5000610351562 -6.000006906901147 180.00000678378268
vertex 522.5 2.307705294623977 180.00000723174827
vertex 522.5 2.307704348058204 180.00000711552462
endloop
endfacet
facet normal 7.3918201168538e-07 0.9992383553853776 0.0390219057220329
outer loop
vertex 522.5 6.0000039142793264 180.00000736642943
vertex 540.5000610351562 5.999990662358509 180.00000573929816
vertex 540.5000610351562 5.999991110476689 179.99999426428522
endloop
endfacet
facet normal 7.350584608865525e-07 0.9999847780161836 0.00551758419816008
outer loop
vertex 540.5000610351562 5.99999212078371 80.00002066753818
vertex 540.5000610351562 5.99999220555149 80.00000530456646
vertex 522.5 6.000005427892127 80.00000692806574
endloop
endfacet
facet normal 7.113199641404298e-07 0.9999999999997469 1.0103072879079662e-08
outer loop
vertex 522.5 6.0000039142793264 180.00000736642943
vertex 540.5000610351562 5.999991110476689 179.99999426428522
vertex 540.5000610351562 5.99999212078371 80.00002066753818
endloop
endfacet
facet normal 7.392812861510687e-07 0.9999999999997266 1.048718183875913e-08
outer loop
vertex 540.5000610351562 5.99999212078371 80.00002066753818
vertex 522.5 6.000005427892127 80.00000692806574
vertex 522.5 6.000004379173978 180.00000358016635
endloop
endfacet
facet normal 0.5606385832087989 0.8218883748346594 0.10091520365769056
outer loop
vertex 540.5000610351562 5.99999212078371 80.00002066753818
vertex 522.5 6.000004379173978 180.00000358016635
vertex 522.5 6.0000039142793264 180.00000736642943
endloop
endfacet
facet normal 1.0 0.0 0.0
outer loop
vertex 542.5 4.0000683983281915 81.99995443054675
vertex 542.5 4.000061734392951 178.00005828934385
vertex 542.5 -4.000068280007469 178.0000594774291
endloop
endfacet
facet normal 1.0 0.0 0.0
outer loop
vertex 542.5 4.0000683983281915 81.99995443054675
vertex 542.5 -4.000068280007469 178.0000594774291
vertex 542.5 -4.000061734392951 81.99995560410403
endloop
endfacet
facet normal 0.7071085590678612 -1.0372684074371817e-07 -0.7071050033007561
outer loop
vertex 542.5 4.0000683983281915 81.99995443054675
vertex 542.5 -4.000061734392951 81.99995560410403
vertex 540.5000610351562 -6.000001074582008 80.00000687568944
endloop
endfacet
facet normal 1.0 -0.0 -0.0
outer loop
vertex 540.5000610351562 -6.000001074582008 80.00000687568944
vertex 540.5000610351562 5.99999220555149 80.00000530456646
vertex 540.5000610351562 5.99999212078371 80.00002066753818
endloop
endfacet
facet normal 0.7071062679378329 8.12693531722083e-07 -0.7071072944344226
outer loop
vertex 540.5000610351562 -6.000001074582008 80.00000687568944
vertex 540.5000610351562 5.99999212078371 80.00002066753818
vertex 542.5 4.0000683983281915 81.99995443054675
endloop
endfacet
facet normal 0.70710630513021 1.0501125491099186e-07 0.7071072572425566
outer loop
vertex 542.5 -4.000068280007469 178.0000594774291
vertex 542.5 4.000061734392951 178.00005828934385
vertex 540.5000610351562 5.999991110476689 179.99999426428522
endloop
endfacet
facet normal 1.0 0.0 0.0
outer loop
vertex 540.5000610351562 5.999991110476689 179.99999426428522
vertex 540.5000610351562 5.999990662358509 180.00000573929816
vertex 540.5000610351562 -6.000006906901147 180.00000678378268
endloop
endfacet
facet normal 0.7071078869540769 7.377174308326762e-07 0.7071056754169042
outer loop
vertex 540.5000610351562 5.999991110476689 179.99999426428522
vertex 540.5000610351562 -6.000006906901147 180.00000678378268
vertex 542.5 -4.000068280007469 178.0000594774291
endloop
endfacet
facet normal 0.7071050896314099 0.7071084727376384 7.143968433484884e-09
outer loop
vertex 540.5000610351562 5.99999212078371 80.00002066753818
vertex 540.5000610351562 5.999991110476689 179.99999426428522
vertex 542.5 4.000061734392951 178.00005828934385
endloop
endfacet
facet normal 0.7071040620474413 0.7071095003151958 4.908465437359901e-08
outer loop
vertex 540.5000610351562 5.99999212078371 80.00002066753818
vertex 542.5 4.000061734392951 178.00005828934385
vertex 542.5 4.0000683983281915 81.99995443054675
endloop
endfacet
facet normal 0.7071072150314209 -0.7071063473414063 -4.8212922550663495e-08
outer loop
vertex 542.5 -4.000061734392951 81.99995560410403
vertex 542.5 -4.000068280007469 178.0000594774291
vertex 540.5000610351562 -6.000009835339006 180.0000064242157
endloop
endfacet
facet normal 0.6566580335790364 0.09191245296239203 -0.7485668493371511
outer loop
vertex 540.5000610351562 -6.000007700542416 80.00000606212379
vertex 540.5000610351562 -6.000001074582008 80.00000687568944
vertex 542.5 -4.000061734392951 81.99995560410403
endloop
endfacet
facet normal 0.7071080264364024 -0.7071055359344994 -1.509526481537204e-08
outer loop
vertex 540.5000610351562 -6.000009835339006 180.0000064242157
vertex 540.5000610351562 -6.000007700542416 80.00000606212379
vertex 542.5 -4.000061734392951 81.99995560410403
endloop
endfacet
facet normal 0.7442821771228513 -0.08139230650744882 0.6628871195449991
outer loop
vertex 540.5000610351562 -6.000006906901147 180.00000678378268
vertex 540.5000610351562 -6.000009835339006 180.0000064242157
vertex 542.5 -4.000068280007469 178.0000594774291
endloop
endfacet

endsolid
