solid 
facet normal -1.0 0.0 -0.0
outer loop
vertex -522.5 -60.0 27.0
vertex -522.5 -60.0 9.0
vertex -522.5 -205.0 0.0
endloop
endfacet
facet normal -1.0 -0.0 -0.0
outer loop
vertex -522.5 205.0 36.0
vertex -522.5 205.0 0.0
vertex -522.5 60.0 9.0
endloop
endfacet
facet normal -1.0 -0.0 0.0
outer loop
vertex -522.5 205.0 36.0
vertex -522.5 60.0 9.0
vertex -522.5 60.0 27.0
endloop
endfacet
facet normal -1.0 -0.0 0.0
outer loop
vertex -522.5 -60.0 27.0
vertex -522.5 -205.0 0.0
vertex -522.5 -205.0 36.0
endloop
endfacet
facet normal -1.0 -0.0 0.0
outer loop
vertex -522.5 205.0 36.0
vertex -522.5 60.0 27.0
vertex -522.5 -60.0 27.0
endloop
endfacet
facet normal -1.0 0.0 -0.0
outer loop
vertex -522.5 -205.0 36.0
vertex -522.5 205.0 36.0
vertex -522.5 -60.0 27.0
endloop
endfacet
facet normal -1.0 -0.0 -0.0
outer loop
vertex -522.5 60.0 9.0
vertex -522.5 205.0 0.0
vertex -522.5 -205.0 0.0
endloop
endfacet
facet normal -1.0 -0.0 0.0
outer loop
vertex -522.5 60.0 9.0
vertex -522.5 -205.0 0.0
vertex -522.5 -60.0 9.0
endloop
endfacet
facet normal 0.0 1.0 0.0
outer loop
vertex -522.5 205.0 0.0
vertex -522.5 205.0 36.0
vertex 522.5 205.0 36.0
endloop
endfacet
facet normal -0.0 1.0 0.0
outer loop
vertex -522.5 205.0 0.0
vertex 522.5 205.0 36.0
vertex 522.5 205.0 0.0
endloop
endfacet
facet normal 1.0 -0.0 0.0
outer loop
vertex 522.5 60.20000076293945 8.799999237060547
vertex 522.5 205.0 0.0
vertex 522.5 205.0 36.0
endloop
endfacet
facet normal 1.0 -0.0 0.0
outer loop
vertex 522.5 -205.0 36.0
vertex 522.5 -205.0 0.0
vertex 522.5 -60.20000076293945 8.799999237060547
endloop
endfacet
facet normal 1.0 -0.0 0.0
outer loop
vertex 522.5 -205.0 36.0
vertex 522.5 -60.20000076293945 8.799999237060547
vertex 522.5 -60.20000076293945 27.19999885559082
endloop
endfacet
facet normal 1.0 -0.0 0.0
outer loop
vertex 522.5 60.20000076293945 27.19999885559082
vertex 522.5 60.20000076293945 8.799999237060547
vertex 522.5 205.0 36.0
endloop
endfacet
facet normal 1.0 -0.0 0.0
outer loop
vertex 522.5 -205.0 36.0
vertex 522.5 -60.20000076293945 27.19999885559082
vertex 522.5 60.20000076293945 27.19999885559082
endloop
endfacet
facet normal 0.9999999999999999 0.0 0.0
outer loop
vertex 522.5 205.0 36.0
vertex 522.5 -205.0 36.0
vertex 522.5 60.20000076293945 27.19999885559082
endloop
endfacet
facet normal 1.0 -0.0 0.0
outer loop
vertex 522.5 -60.20000076293945 8.799999237060547
vertex 522.5 -205.0 0.0
vertex 522.5 205.0 0.0
endloop
endfacet
facet normal 1.0 -0.0 -0.0
outer loop
vertex 522.5 -60.20000076293945 8.799999237060547
vertex 522.5 205.0 0.0
vertex 522.5 60.20000076293945 8.799999237060547
endloop
endfacet
facet normal 0.0 -1.0 0.0
outer loop
vertex 522.5 -205.0 0.0
vertex 522.5 -205.0 36.0
vertex -522.5 -205.0 36.0
endloop
endfacet
facet normal -0.0 -1.0 -0.0
outer loop
vertex 522.5 -205.0 0.0
vertex -522.5 -205.0 36.0
vertex -522.5 -205.0 0.0
endloop
endfacet
facet normal 0.0 0.0 -0.9999999999999999
outer loop
vertex -522.5 205.0 0.0
vertex 522.5 205.0 0.0
vertex 522.5 -205.0 0.0
endloop
endfacet
facet normal -0.0 -0.0 -0.9999999999999999
outer loop
vertex -522.5 205.0 0.0
vertex 522.5 -205.0 0.0
vertex -522.5 -205.0 0.0
endloop
endfacet
facet normal 0.0 0.0 0.9999999999999999
outer loop
vertex 522.5 205.0 36.0
vertex -522.5 205.0 36.0
vertex -522.5 -205.0 36.0
endloop
endfacet
facet normal -0.0 0.0 0.9999999999999999
outer loop
vertex 522.5 205.0 36.0
vertex -522.5 -205.0 36.0
vertex 522.5 -205.0 36.0
endloop
endfacet
facet normal 0.0 -1.0 0.0
outer loop
vertex -540.5 -60.0 27.000000953674316
vertex -540.5 -60.0 9.000000953674316
vertex -522.5 -60.0 9.0
endloop
endfacet
facet normal 0.0 -1.0 0.0
outer loop
vertex -540.5 -60.0 27.000000953674316
vertex -522.5 -60.0 9.0
vertex -522.5 -60.0 27.0
endloop
endfacet
facet normal -5.298190646701382e-08 0.0 -0.9999999999999987
outer loop
vertex -540.5 59.99997329711914 9.000000953674316
vertex -540.5 60.0 9.000000953674316
vertex -522.5 60.0 9.0
endloop
endfacet
facet normal -5.298190646701381e-08 -0.0 -0.9999999999999986
outer loop
vertex -522.5 60.0 9.0
vertex -522.5 -60.0 9.0
vertex -540.5 -60.0 9.000000953674316
endloop
endfacet
facet normal -5.298190646701381e-08 0.0 -0.9999999999999986
outer loop
vertex -540.5 -59.999977111816406 9.000000953674316
vertex -540.5 59.99997329711914 9.000000953674316
vertex -522.5 60.0 9.0
endloop
endfacet
facet normal -5.298190646701382e-08 0.0 -0.9999999999999987
outer loop
vertex -540.5 -59.999977111816406 9.000000953674316
vertex -522.5 60.0 9.0
vertex -540.5 -60.0 9.000000953674316
endloop
endfacet
facet normal 0.0 1.0 -0.0
outer loop
vertex -522.5 60.0 9.0
vertex -540.5 60.0 9.000000953674316
vertex -540.5 60.0 27.000000953674316
endloop
endfacet
facet normal -0.0 1.0 -0.0
outer loop
vertex -522.5 60.0 9.0
vertex -540.5 60.0 27.000000953674316
vertex -522.5 60.0 27.0
endloop
endfacet
facet normal 5.298190646701381e-08 -0.0 0.9999999999999986
outer loop
vertex -522.5 -60.0 27.0
vertex -522.5 60.0 27.0
vertex -540.5 60.0 27.000000953674316
endloop
endfacet
facet normal 5.298190646701382e-08 0.0 0.9999999999999987
outer loop
vertex -522.5 -60.0 27.0
vertex -540.5 60.0 27.000000953674316
vertex -540.5 59.999977111816406 27.000000953674316
endloop
endfacet
facet normal 5.298190646701382e-08 0.0 0.9999999999999987
outer loop
vertex -540.5 -59.99997329711914 27.000000953674316
vertex -540.5 -60.0 27.000000953674316
vertex -522.5 -60.0 27.0
endloop
endfacet
facet normal 5.298190646701381e-08 0.0 0.9999999999999986
outer loop
vertex -540.5 59.999977111816406 27.000000953674316
vertex -540.5 -59.99997329711914 27.000000953674316
vertex -522.5 -60.0 27.0
endloop
endfacet
facet normal -1.0 0.0 0.0
outer loop
vertex -542.5 -58.0 25.00002670288086
vertex -542.5 58.0 25.000022888183594
vertex -542.5 58.0 10.99997329711914
endloop
endfacet
facet normal -1.0 -0.0 -0.0
outer loop
vertex -542.5 -58.0 25.00002670288086
vertex -542.5 58.0 10.99997329711914
vertex -542.5 -58.0 10.999977111816406
endloop
endfacet
facet normal -1.0 0.0 0.0
outer loop
vertex -540.5 -59.999977111816406 9.000000953674316
vertex -540.5 -60.0 9.000000953674316
vertex -540.5 -60.0 27.000000953674316
endloop
endfacet
facet normal -0.7071067811865475 -0.7071067811865475 -0.0
outer loop
vertex -540.5 -60.0 27.000000953674316
vertex -542.5 -58.0 25.00002670288086
vertex -542.5 -58.0 10.999977111816406
endloop
endfacet
facet normal -0.70710318462239 -0.7071103777318403 -8.991373414762373e-07
outer loop
vertex -540.5 -60.0 27.000000953674316
vertex -542.5 -58.0 10.999977111816406
vertex -540.5 -59.999977111816406 9.000000953674316
endloop
endfacet
facet normal -0.7071022292829556 0.0 0.7071113330608375
outer loop
vertex -542.5 -58.0 25.00002670288086
vertex -540.5 -60.0 27.000000953674316
vertex -540.5 -59.99997329711914 27.000000953674316
endloop
endfacet
facet normal -0.7071018921014147 -0.0 -0.7071116702378765
outer loop
vertex -540.5 60.0 9.000000953674316
vertex -540.5 59.99997329711914 9.000000953674316
vertex -542.5 58.0 10.99997329711914
endloop
endfacet
facet normal -0.7071067811865475 0.7071067811865475 0.0
outer loop
vertex -542.5 58.0 10.99997329711914
vertex -542.5 58.0 25.000022888183594
vertex -540.5 60.0 27.000000953674316
endloop
endfacet
facet normal -0.7071067811865475 0.7071067811865475 0.0
outer loop
vertex -542.5 58.0 10.99997329711914
vertex -540.5 60.0 27.000000953674316
vertex -540.5 60.0 9.000000953674316
endloop
endfacet
facet normal -0.7071029036445902 0.0 0.7071106587072419
outer loop
vertex -540.5 60.0 27.000000953674316
vertex -542.5 58.0 25.000022888183594
vertex -540.5 59.999977111816406 27.000000953674316
endloop
endfacet
facet normal -0.7071029152713647 2.325356079235058e-08 0.7071106470805942
outer loop
vertex -540.5 59.999977111816406 27.000000953674316
vertex -542.5 58.0 25.000022888183594
vertex -542.5 -58.0 25.00002670288086
endloop
endfacet
facet normal -0.7071022292829554 0.0 0.7071113330608374
outer loop
vertex -540.5 59.999977111816406 27.000000953674316
vertex -542.5 -58.0 25.00002670288086
vertex -540.5 -59.99997329711914 27.000000953674316
endloop
endfacet
facet normal -0.7071018921014146 -0.0 -0.7071116702378762
outer loop
vertex -542.5 58.0 10.99997329711914
vertex -540.5 59.99997329711914 9.000000953674316
vertex -540.5 -59.999977111816406 9.000000953674316
endloop
endfacet
facet normal -0.7071025780908051 -2.3253571880515068e-08 -0.707110984257306
outer loop
vertex -542.5 58.0 10.99997329711914
vertex -540.5 -59.999977111816406 9.000000953674316
vertex -542.5 -58.0 10.999977111816406
endloop
endfacet
facet normal -0.0 1.0 0.0
outer loop
vertex 502.5 -60.20000076293945 8.80000114440918
vertex 502.5 -60.20000076293945 27.200000762939453
vertex 522.5 -60.20000076293945 27.19999885559082
endloop
endfacet
facet normal -0.0 1.0 0.0
outer loop
vertex 502.5 -60.20000076293945 8.80000114440918
vertex 522.5 -60.20000076293945 27.19999885559082
vertex 522.5 -60.20000076293945 8.799999237060547
endloop
endfacet
facet normal 9.536743164062456e-08 0.0 0.9999999999999954
outer loop
vertex 502.5 60.20000076293945 8.80000114440918
vertex 502.5 -60.20000076293945 8.80000114440918
vertex 522.5 -60.20000076293945 8.799999237060547
endloop
endfacet
facet normal 9.536743164062456e-08 -0.0 0.9999999999999954
outer loop
vertex 502.5 60.20000076293945 8.80000114440918
vertex 522.5 -60.20000076293945 8.799999237060547
vertex 522.5 60.20000076293945 8.799999237060547
endloop
endfacet
facet normal 0.0 -1.0 0.0
outer loop
vertex 502.5 60.20000076293945 27.200000762939453
vertex 502.5 60.20000076293945 8.80000114440918
vertex 522.5 60.20000076293945 8.799999237060547
endloop
endfacet
facet normal 0.0 -1.0 0.0
outer loop
vertex 502.5 60.20000076293945 27.200000762939453
vertex 522.5 60.20000076293945 8.799999237060547
vertex 522.5 60.20000076293945 27.19999885559082
endloop
endfacet
facet normal -9.536743164062456e-08 0.0 -0.9999999999999954
outer loop
vertex 502.5 -60.20000076293945 27.200000762939453
vertex 502.5 60.20000076293945 27.200000762939453
vertex 522.5 60.20000076293945 27.19999885559082
endloop
endfacet
facet normal -9.536743164062456e-08 -0.0 -0.9999999999999954
outer loop
vertex 502.5 -60.20000076293945 27.200000762939453
vertex 522.5 60.20000076293945 27.19999885559082
vertex 522.5 -60.20000076293945 27.19999885559082
endloop
endfacet
facet normal 1.0 0.0 -0.0
outer loop
vertex 502.5 60.20000076293945 8.80000114440918
vertex 502.5 60.20000076293945 27.200000762939453
vertex 502.5 -60.20000076293945 27.200000762939453
endloop
endfacet
facet normal 1.0 0.0 0.0
outer loop
vertex 502.5 60.20000076293945 8.80000114440918
vertex 502.5 -60.20000076293945 27.200000762939453
vertex 502.5 -60.20000076293945 8.80000114440918
endloop
endfacet

endsolid
