solid 
facet normal -1.007862036539149e-16 0.0 0.9999999999999999
outer loop
vertex 759.0 -60.0 40.0000000000001
vertex 900.0 -225.0 40.000000000000114
vertex 900.0 225.0 40.000000000000114
endloop
endfacet
facet normal -1.0078620365391492e-16 0.0 1.0
outer loop
vertex 759.0 -60.0 40.0000000000001
vertex 900.0 225.0 40.000000000000114
vertex 759.0 60.0 40.0000000000001
endloop
endfacet
facet normal -6.315935428978668e-17 -1.1580401021764075e-16 1.0
outer loop
vertex 818.4385986328125 208.12612915039062 40.00000000000011
vertex 900.0 225.0 40.000000000000114
vertex -900.0 225.0 40.0
endloop
endfacet
facet normal -0.0 1.7246182986639527e-16 1.0
outer loop
vertex -900.0 225.0 40.0
vertex -459.20001220703125 60.20000076293945 40.00000000000003
vertex -440.79998779296875 60.20000076293945 40.00000000000003
endloop
endfacet
facet normal 0.0 -1.7246182986639527e-16 1.0
outer loop
vertex -440.79998779296875 -60.20000076293945 40.00000000000003
vertex -459.20001220703125 -60.20000076293945 40.00000000000003
vertex -900.0 -225.0 40.0
endloop
endfacet
facet normal -6.202584791651695e-17 -3.6747991682281316e-19 1.0
outer loop
vertex 818.4385986328125 208.12612915039062 40.00000000000011
vertex -900.0 225.0 40.0
vertex -440.79998779296875 60.20000076293945 40.00000000000003
endloop
endfacet
facet normal -6.315935428978668e-17 3.525890977817296e-18 1.0
outer loop
vertex -440.79998779296875 -60.20000076293945 40.00000000000003
vertex -900.0 -225.0 40.0
vertex 900.0 -225.0 40.000000000000114
endloop
endfacet
facet normal -1.4212048914615086e-17 -4.0738807406838954e-16 1.0
outer loop
vertex 719.0156860351562 194.1531524658203 40.0000000000001
vertex 818.4385986328125 208.12612915039062 40.00000000000011
vertex -440.79998779296875 60.20000076293945 40.00000000000003
endloop
endfacet
facet normal 0.0 0.0 0.9999999999999999
outer loop
vertex 759.0 60.0 40.0000000000001
vertex 723.1663208007812 182.21463012695312 40.0000000000001
vertex 720.741455078125 181.87384033203125 40.0000000000001
endloop
endfacet
facet normal -6.028487364933922e-17 -8.47260559628831e-18 1.0
outer loop
vertex 720.741455078125 181.87384033203125 40.0000000000001
vertex 719.0156860351562 194.1531524658203 40.0000000000001
vertex -440.79998779296875 60.20000076293945 40.00000000000003
endloop
endfacet
facet normal -6.359272752646959e-17 0.0 1.0
outer loop
vertex -440.79998779296875 60.20000076293945 40.00000000000003
vertex -440.79998779296875 -60.20000076293945 40.00000000000003
vertex 900.0 -225.0 40.000000000000114
endloop
endfacet
facet normal 0.0 8.612639221334548e-17 1.0
outer loop
vertex 900.0 -225.0 40.000000000000114
vertex 759.0 -60.0 40.0000000000001
vertex 741.0 -60.0 40.0000000000001
endloop
endfacet
facet normal -4.885133943162866e-17 0.0 1.0
outer loop
vertex 741.0 -60.0 40.0000000000001
vertex 159.1999969482422 -39.79999923706055 40.00000000000007
vertex 159.1999969482422 -60.20000076293945 40.00000000000007
endloop
endfacet
facet normal -4.8864759397896306e-17 3.903853315719085e-17 1.0
outer loop
vertex 900.0 -225.0 40.000000000000114
vertex 741.0 -60.0 40.0000000000001
vertex 159.1999969482422 -60.20000076293945 40.00000000000007
endloop
endfacet
facet normal 0.0 -0.0 1.0
outer loop
vertex 741.0 60.0 40.0000000000001
vertex 759.0 60.0 40.0000000000001
vertex 720.741455078125 181.87384033203125 40.0000000000001
endloop
endfacet
facet normal -4.885413105598484e-17 -8.120804316336276e-18 1.0
outer loop
vertex 159.1999969482422 60.20000076293945 40.00000000000007
vertex 741.0 60.0 40.0000000000001
vertex 720.741455078125 181.87384033203125 40.0000000000001
endloop
endfacet
facet normal -3.8616465840016454e-16 -1.4771736474679064e-15 0.9999999999999999
outer loop
vertex 900.0 -225.0 40.000000000000114
vertex 159.1999969482422 -60.20000076293945 40.00000000000007
vertex 140.8000030517578 -60.20000076293945 40.000000000000064
endloop
endfacet
facet normal -3.861646584001646e-16 1.5486135441534746e-15 1.0
outer loop
vertex 140.8000030517578 60.20000076293945 40.000000000000064
vertex 159.1999969482422 60.20000076293945 40.00000000000007
vertex 720.741455078125 181.87384033203125 40.0000000000001
endloop
endfacet
facet normal 3.008608555499806e-17 4.4040866444630606e-16 1.0
outer loop
vertex -440.79998779296875 60.20000076293945 40.00000000000003
vertex 900.0 -225.0 40.000000000000114
vertex 140.8000030517578 -60.20000076293945 40.000000000000064
endloop
endfacet
facet normal -6.108517425594306e-17 -8.326533714110238e-19 1.0
outer loop
vertex 140.8000030517578 60.20000076293945 40.000000000000064
vertex 720.741455078125 181.87384033203125 40.0000000000001
vertex -440.79998779296875 60.20000076293945 40.00000000000003
endloop
endfacet
facet normal -6.108517425594306e-17 0.0 1.0
outer loop
vertex -440.79998779296875 60.20000076293945 40.00000000000003
vertex 140.8000030517578 -60.20000076293945 40.000000000000064
vertex 140.8000030517578 60.20000076293945 40.000000000000064
endloop
endfacet
facet normal -8.465604234950304e-17 -1.1897798149866098e-17 1.0
outer loop
vertex 900.0 225.0 40.000000000000114
vertex 818.4385986328125 208.12612915039062 40.00000000000011
vertex 820.1643676757812 195.84681701660156 40.00000000000011
endloop
endfacet
facet normal -7.035421879629258e-17 -2.0628058228701405e-17 1.0
outer loop
vertex 820.1643676757812 195.84681701660156 40.00000000000011
vertex 723.1663208007812 182.21463012695312 40.0000000000001
vertex 759.0 60.0 40.0000000000001
endloop
endfacet
facet normal -8.365486627724922e-17 -1.463950648551433e-17 1.0
outer loop
vertex 759.0 60.0 40.0000000000001
vertex 900.0 225.0 40.000000000000114
vertex 820.1643676757812 195.84681701660156 40.00000000000011
endloop
endfacet
facet normal -6.447756401425509e-17 0.0 1.0
outer loop
vertex -459.20001220703125 60.20000076293945 40.00000000000003
vertex -900.0 225.0 40.0
vertex -900.0 -225.0 40.0
endloop
endfacet
facet normal -6.44775640142551e-17 0.0 1.0
outer loop
vertex -459.20001220703125 60.20000076293945 40.00000000000003
vertex -900.0 -225.0 40.0
vertex -459.20001220703125 -60.20000076293945 40.00000000000003
endloop
endfacet
facet normal -4.885133943162865e-17 0.0 1.0
outer loop
vertex 741.0 -60.0 40.0000000000001
vertex 741.0 60.0 40.0000000000001
vertex 159.1999969482422 60.20000076293945 40.00000000000007
endloop
endfacet
facet normal -4.885133943162865e-17 0.0 1.0
outer loop
vertex 741.0 -60.0 40.0000000000001
vertex 159.1999969482422 60.20000076293945 40.00000000000007
vertex 159.1999969482422 -39.79999923706055 40.00000000000007
endloop
endfacet
facet normal -0.0 1.0 0.0
outer loop
vertex -900.0 225.0 40.0
vertex 900.0 225.0 40.000000000000114
vertex 900.0 225.0 1.1368683772161603e-13
endloop
endfacet
facet normal 0.0 1.0 0.0
outer loop
vertex -900.0 225.0 40.0
vertex 900.0 225.0 1.1368683772161603e-13
vertex -900.0 225.0 0.0
endloop
endfacet
facet normal 6.315935428978668e-17 0.0 -1.0
outer loop
vertex -900.0 225.0 0.0
vertex 900.0 225.0 1.1368683772161603e-13
vertex 900.0 -225.0 1.1368683772161603e-13
endloop
endfacet
facet normal 6.315935428978668e-17 0.0 -1.0
outer loop
vertex -900.0 225.0 0.0
vertex 900.0 -225.0 1.1368683772161603e-13
vertex -900.0 -225.0 0.0
endloop
endfacet
facet normal 0.0 -1.0 0.0
outer loop
vertex -900.0 -225.0 0.0
vertex 900.0 -225.0 1.1368683772161603e-13
vertex 900.0 -225.0 40.000000000000114
endloop
endfacet
facet normal -0.0 -1.0 0.0
outer loop
vertex -900.0 -225.0 0.0
vertex 900.0 -225.0 40.000000000000114
vertex -900.0 -225.0 40.0
endloop
endfacet
facet normal -1.0 -0.0 -0.0
outer loop
vertex -900.0 225.0 40.0
vertex -900.0 225.0 0.0
vertex -900.0 -225.0 0.0
endloop
endfacet
facet normal -1.0 -0.0 0.0
outer loop
vertex -900.0 225.0 40.0
vertex -900.0 -225.0 0.0
vertex -900.0 -225.0 40.0
endloop
endfacet
facet normal 1.0 0.0 -0.0
outer loop
vertex 900.0 225.0 1.1368683772161603e-13
vertex 900.0 225.0 40.000000000000114
vertex 900.0 -225.0 40.000000000000114
endloop
endfacet
facet normal 1.0 0.0 0.0
outer loop
vertex 900.0 225.0 1.1368683772161603e-13
vertex 900.0 -225.0 40.000000000000114
vertex 900.0 -225.0 1.1368683772161603e-13
endloop
endfacet
facet normal 0.0 -1.0 -0.0
outer loop
vertex 759.0 -60.0 58.00000000000011
vertex 741.0 -60.0 58.0000000000001
vertex 741.0 -60.0 40.0000000000001
endloop
endfacet
facet normal 0.0 -1.0 -0.0
outer loop
vertex 759.0 -60.0 58.00000000000011
vertex 741.0 -60.0 40.0000000000001
vertex 759.0 -60.0 40.0000000000001
endloop
endfacet
facet normal -1.0 0.0 0.0
outer loop
vertex 741.0 -60.0 58.0000000000001
vertex 741.0 -59.99995803833008 58.00004196167002
vertex 741.0 59.999961853027344 58.000038146972756
endloop
endfacet
facet normal -1.0 0.0 0.0
outer loop
vertex 741.0 59.999961853027344 58.000038146972756
vertex 741.0 60.0 58.0000000000001
vertex 741.0 60.0 40.0000000000001
endloop
endfacet
facet normal -1.0 0.0 0.0
outer loop
vertex 741.0 60.0 40.0000000000001
vertex 741.0 -60.0 40.0000000000001
vertex 741.0 -60.0 58.0000000000001
endloop
endfacet
facet normal -1.0 -0.0 -0.0
outer loop
vertex 741.0 59.999961853027344 58.000038146972756
vertex 741.0 60.0 40.0000000000001
vertex 741.0 -60.0 58.0000000000001
endloop
endfacet
facet normal 0.0 1.0 0.0
outer loop
vertex 741.0 60.0 40.0000000000001
vertex 741.0 60.0 58.0000000000001
vertex 759.0 60.0 58.00000000000011
endloop
endfacet
facet normal -0.0 1.0 0.0
outer loop
vertex 741.0 60.0 40.0000000000001
vertex 759.0 60.0 58.00000000000011
vertex 759.0 60.0 40.0000000000001
endloop
endfacet
facet normal 1.0 0.0 0.0
outer loop
vertex 759.0 -60.0 40.0000000000001
vertex 759.0 60.0 40.0000000000001
vertex 759.0 60.0 58.00000000000011
endloop
endfacet
facet normal 1.0 0.0 0.0
outer loop
vertex 759.0 60.0 58.00000000000011
vertex 759.0 59.99995803833008 58.00004196167003
vertex 759.0 -59.999961853027344 58.00003814697276
endloop
endfacet
facet normal 1.0 0.0 0.0
outer loop
vertex 759.0 -59.999961853027344 58.00003814697276
vertex 759.0 -60.0 58.00000000000011
vertex 759.0 -60.0 40.0000000000001
endloop
endfacet
facet normal 1.0 0.0 0.0
outer loop
vertex 759.0 60.0 58.00000000000011
vertex 759.0 -59.999961853027344 58.00003814697276
vertex 759.0 -60.0 40.0000000000001
endloop
endfacet
facet normal -5.075261002665232e-16 6.577064251077572e-08 0.9999999999999977
outer loop
vertex 757.0000610351562 -57.999996185302734 60.00000381469737
vertex 757.0000610351562 58.000003814697266 59.99999618530284
vertex 742.9999389648438 58.000003814697266 59.999996185302834
endloop
endfacet
facet normal -5.075261002665232e-16 6.577064251077572e-08 0.9999999999999977
outer loop
vertex 757.0000610351562 -57.999996185302734 60.00000381469737
vertex 742.9999389648438 58.000003814697266 59.999996185302834
vertex 742.9999389648438 -57.999996185302734 60.000003814697365
endloop
endfacet
facet normal -3.588751471276231e-16 -0.7071067811865474 0.7071067811865477
outer loop
vertex 757.0000610351562 -57.999996185302734 60.00000381469737
vertex 742.9999389648438 -57.999996185302734 60.000003814697365
vertex 741.0 -59.99995803833008 58.00004196167002
endloop
endfacet
facet normal -2.7912754821044893e-16 -0.7071067811865476 0.7071067811865476
outer loop
vertex 741.0 -59.99995803833008 58.00004196167002
vertex 741.0 -60.0 58.0000000000001
vertex 759.0 -60.0 58.00000000000011
endloop
endfacet
facet normal 0.0 -0.7071067811865476 0.7071067811865476
outer loop
vertex 759.0 -60.0 58.00000000000011
vertex 759.0 -59.999961853027344 58.00003814697276
vertex 757.0000610351562 -57.999996185302734 60.00000381469737
endloop
endfacet
facet normal -2.791281988940914e-16 -0.7071067811865477 0.7071067811865475
outer loop
vertex 741.0 -59.99995803833008 58.00004196167002
vertex 759.0 -60.0 58.00000000000011
vertex 757.0000610351562 -57.999996185302734 60.00000381469737
endloop
endfacet
facet normal 0.0 0.7071067811865476 0.7071067811865476
outer loop
vertex 757.0000610351562 58.000003814697266 59.99999618530284
vertex 759.0 59.99995803833008 58.00004196167003
vertex 759.0 60.0 58.00000000000011
endloop
endfacet
facet normal -2.7912754821044893e-16 0.7071067811865476 0.7071067811865476
outer loop
vertex 759.0 60.0 58.00000000000011
vertex 741.0 60.0 58.0000000000001
vertex 741.0 59.999961853027344 58.000038146972756
endloop
endfacet
facet normal -3.588751471276231e-16 0.7071067811865474 0.7071067811865478
outer loop
vertex 741.0 59.999961853027344 58.000038146972756
vertex 742.9999389648438 58.000003814697266 59.999996185302834
vertex 757.0000610351562 58.000003814697266 59.99999618530284
endloop
endfacet
facet normal -2.791281397431641e-16 0.7071067811865476 0.7071067811865474
outer loop
vertex 759.0 60.0 58.00000000000011
vertex 741.0 59.999961853027344 58.000038146972756
vertex 757.0000610351562 58.000003814697266 59.99999618530284
endloop
endfacet
facet normal 0.7071114904912781 -2.247818450585452e-08 0.7071020718504526
outer loop
vertex 757.0000610351562 -57.999996185302734 60.00000381469737
vertex 759.0 -59.999961853027344 58.00003814697276
vertex 759.0 59.99995803833008 58.00004196167003
endloop
endfacet
facet normal 0.7071094553983904 4.650669143706943e-08 0.7071041069645894
outer loop
vertex 757.0000610351562 -57.999996185302734 60.00000381469737
vertex 759.0 59.99995803833008 58.00004196167003
vertex 757.0000610351562 58.000003814697266 59.99999618530284
endloop
endfacet
facet normal -0.7071108506260542 4.650659967117436e-08 0.7071027117236192
outer loop
vertex 741.0 -59.99995803833008 58.00004196167002
vertex 742.9999389648438 -57.999996185302734 60.000003814697365
vertex 742.9999389648438 58.000003814697266 59.999996185302834
endloop
endfacet
facet normal -0.7071101417740973 2.2478227380936972e-08 0.707103420583026
outer loop
vertex 741.0 -59.99995803833008 58.00004196167002
vertex 742.9999389648438 58.000003814697266 59.999996185302834
vertex 741.0 59.999961853027344 58.000038146972756
endloop
endfacet
facet normal 0.0 1.0 0.0
outer loop
vertex 159.1999969482422 -60.20000076293945 40.00000000000007
vertex 159.1999969482422 -60.20000076293945 20.00000476837165
vertex 140.8000030517578 -60.20000076293945 20.00000381469733
endloop
endfacet
facet normal 0.0 1.0 -0.0
outer loop
vertex 159.1999969482422 -60.20000076293945 40.00000000000007
vertex 140.8000030517578 -60.20000076293945 20.00000381469733
vertex 140.8000030517578 -60.20000076293945 40.000000000000064
endloop
endfacet
facet normal -0.9999999999999999 0.0 0.0
outer loop
vertex 159.1999969482422 -39.79999923706055 40.00000000000007
vertex 159.1999969482422 60.20000076293945 40.00000000000007
vertex 159.1999969482422 60.20000076293945 19.999996185302802
endloop
endfacet
facet normal -0.9999999999999999 0.0 0.0
outer loop
vertex 159.1999969482422 60.20000076293945 19.999996185302802
vertex 159.1999969482422 -60.20000076293945 20.00000476837165
vertex 159.1999969482422 -60.20000076293945 40.00000000000007
endloop
endfacet
facet normal -1.0 -0.0 -0.0
outer loop
vertex 159.1999969482422 -39.79999923706055 40.00000000000007
vertex 159.1999969482422 60.20000076293945 19.999996185302802
vertex 159.1999969482422 -60.20000076293945 40.00000000000007
endloop
endfacet
facet normal 0.0 -1.0 0.0
outer loop
vertex 140.8000030517578 60.20000076293945 40.000000000000064
vertex 140.8000030517578 60.20000076293945 19.999995231628482
vertex 159.1999969482422 60.20000076293945 19.999996185302802
endloop
endfacet
facet normal 0.0 -1.0 0.0
outer loop
vertex 140.8000030517578 60.20000076293945 40.000000000000064
vertex 159.1999969482422 60.20000076293945 19.999996185302802
vertex 159.1999969482422 60.20000076293945 40.00000000000007
endloop
endfacet
facet normal 1.0 -0.0 0.0
outer loop
vertex 140.8000030517578 -60.20000076293945 20.00000381469733
vertex 140.8000030517578 60.20000076293945 19.999995231628482
vertex 140.8000030517578 60.20000076293945 40.000000000000064
endloop
endfacet
facet normal 1.0 0.0 -0.0
outer loop
vertex 140.8000030517578 -60.20000076293945 20.00000381469733
vertex 140.8000030517578 60.20000076293945 40.000000000000064
vertex 140.8000030517578 -60.20000076293945 40.000000000000064
endloop
endfacet
facet normal -5.1830143277448326e-08 7.1287946336208e-08 0.999999999999996
outer loop
vertex 159.1999969482422 60.20000076293945 19.999996185302802
vertex 140.8000030517578 60.20000076293945 19.999995231628482
vertex 140.8000030517578 -60.20000076293945 20.00000381469733
endloop
endfacet
facet normal -5.1830143277448326e-08 7.1287946336208e-08 0.999999999999996
outer loop
vertex 159.1999969482422 60.20000076293945 19.999996185302802
vertex 140.8000030517578 -60.20000076293945 20.00000381469733
vertex 159.1999969482422 -60.20000076293945 20.00000476837165
endloop
endfacet
facet normal 0.0 1.0 0.0
outer loop
vertex -440.79998779296875 -60.20000076293945 40.00000000000003
vertex -440.79998779296875 -60.20000076293945 20.00000476837161
vertex -459.20001220703125 -60.20000076293945 20.000003814697294
endloop
endfacet
facet normal 0.0 1.0 -0.0
outer loop
vertex -440.79998779296875 -60.20000076293945 40.00000000000003
vertex -459.20001220703125 -60.20000076293945 20.000003814697294
vertex -459.20001220703125 -60.20000076293945 40.00000000000003
endloop
endfacet
facet normal -1.0 -0.0 -0.0
outer loop
vertex -440.79998779296875 60.20000076293945 40.00000000000003
vertex -440.79998779296875 60.20000076293945 19.999996185302763
vertex -440.79998779296875 -60.20000076293945 20.00000476837161
endloop
endfacet
facet normal -1.0 -0.0 0.0
outer loop
vertex -440.79998779296875 60.20000076293945 40.00000000000003
vertex -440.79998779296875 -60.20000076293945 20.00000476837161
vertex -440.79998779296875 -60.20000076293945 40.00000000000003
endloop
endfacet
facet normal 0.0 -1.0 0.0
outer loop
vertex -459.20001220703125 60.20000076293945 40.00000000000003
vertex -459.20001220703125 60.20000076293945 19.999995231628446
vertex -440.79998779296875 60.20000076293945 19.999996185302763
endloop
endfacet
facet normal 0.0 -1.0 0.0
outer loop
vertex -459.20001220703125 60.20000076293945 40.00000000000003
vertex -440.79998779296875 60.20000076293945 19.999996185302763
vertex -440.79998779296875 60.20000076293945 40.00000000000003
endloop
endfacet
facet normal 1.0 0.0 0.0
outer loop
vertex -459.20001220703125 -60.20000076293945 40.00000000000003
vertex -459.20001220703125 -60.20000076293945 20.000003814697294
vertex -459.20001220703125 60.20000076293945 19.999995231628446
endloop
endfacet
facet normal 1.0 -0.0 0.0
outer loop
vertex -459.20001220703125 -60.20000076293945 40.00000000000003
vertex -459.20001220703125 60.20000076293945 19.999995231628446
vertex -459.20001220703125 60.20000076293945 40.00000000000003
endloop
endfacet
facet normal -5.183005712086915e-08 7.1287946336208e-08 0.999999999999996
outer loop
vertex -440.79998779296875 60.20000076293945 19.999996185302763
vertex -459.20001220703125 60.20000076293945 19.999995231628446
vertex -459.20001220703125 -60.20000076293945 20.000003814697294
endloop
endfacet
facet normal -5.183005712086915e-08 7.1287946336208e-08 0.999999999999996
outer loop
vertex -440.79998779296875 60.20000076293945 19.999996185302763
vertex -459.20001220703125 -60.20000076293945 20.000003814697294
vertex -440.79998779296875 -60.20000076293945 20.00000476837161
endloop
endfacet
facet normal 0.9902677990360083 0.13917502000120174 2.123641159073439e-07
outer loop
vertex 720.741455078125 181.87384033203125 40.0000000000001
vertex 720.741455078125 181.87387084960938 19.99998950958262
vertex 719.0156860351562 194.15318298339844 20.000008583068947
endloop
endfacet
facet normal 0.990267799035963 0.13917502000152523 2.123643184341275e-07
outer loop
vertex 720.741455078125 181.87384033203125 40.0000000000001
vertex 719.0156860351562 194.15318298339844 20.000008583068947
vertex 719.0156860351562 194.1531524658203 40.0000000000001
endloop
endfacet
facet normal -0.13917310513801168 0.9902680681532455 1.5110285082648889e-06
outer loop
vertex 723.1663208007812 182.21463012695312 40.0000000000001
vertex 820.1643676757812 195.84681701660156 40.00000000000011
vertex 820.1643676757812 195.8468475341797 19.99999141693126
endloop
endfacet
facet normal -0.1391730771235021 0.9902680720904278 1.5110283701697166e-06
outer loop
vertex 820.1643676757812 195.8468475341797 19.99999141693126
vertex 720.741455078125 181.87387084960938 19.99998950958262
vertex 720.741455078125 181.87384033203125 40.0000000000001
endloop
endfacet
facet normal -0.13917195649875228 0.9902682295583289 7.191829765904795e-06
outer loop
vertex 820.1643676757812 195.8468475341797 19.99999141693126
vertex 720.741455078125 181.87384033203125 40.0000000000001
vertex 723.1663208007812 182.21463012695312 40.0000000000001
endloop
endfacet
facet normal -0.9902677990360083 -0.13917502000120172 -2.123643386862841e-07
outer loop
vertex 818.4385986328125 208.12612915039062 40.00000000000011
vertex 818.4385986328125 208.12615966796875 20.000010490417587
vertex 820.1643676757812 195.8468475341797 19.99999141693126
endloop
endfacet
facet normal -0.9902677990359626 -0.13917502000152518 -2.1236413616044906e-07
outer loop
vertex 818.4385986328125 208.12612915039062 40.00000000000011
vertex 820.1643676757812 195.8468475341797 19.99999141693126
vertex 820.1643676757812 195.84681701660156 40.00000000000011
endloop
endfacet
facet normal 0.13917307712350208 -0.9902680720904276 -1.5110298111992828e-06
outer loop
vertex 719.0156860351562 194.1531524658203 40.0000000000001
vertex 719.0156860351562 194.15318298339844 20.000008583068947
vertex 818.4385986328125 208.12615966796875 20.000010490417587
endloop
endfacet
facet normal 0.13917307712347365 -0.9902680720904317 -1.5110299553023968e-06
outer loop
vertex 719.0156860351562 194.1531524658203 40.0000000000001
vertex 818.4385986328125 208.12615966796875 20.000010490417587
vertex 818.4385986328125 208.12612915039062 40.00000000000011
endloop
endfacet
facet normal 1.9526139370142599e-07 -1.5258599223981126e-06 0.999999999998817
outer loop
vertex 820.1643676757812 195.8468475341797 19.99999141693126
vertex 818.4385986328125 208.12615966796875 20.000010490417587
vertex 719.0156860351562 194.15318298339844 20.000008583068947
endloop
endfacet
facet normal 1.9526139370142599e-07 -1.5258599223981126e-06 0.999999999998817
outer loop
vertex 820.1643676757812 195.8468475341797 19.99999141693126
vertex 719.0156860351562 194.15318298339844 20.000008583068947
vertex 720.741455078125 181.87387084960938 19.99998950958262
endloop
endfacet

endsolid
