solid 
facet normal -1.0 0.0 0.0
outer loop
vertex -522.5 -12.0 0.0
vertex -522.5 -12.0 260.0
vertex -522.5 12.0 260.0
endloop
endfacet
facet normal -1.0 0.0 0.0
outer loop
vertex -522.5 -12.0 0.0
vertex -522.5 12.0 260.0
vertex -522.5 12.0 0.0
endloop
endfacet
facet normal 0.0 1.0 0.0
outer loop
vertex -522.5 12.0 0.0
vertex -522.5 12.0 260.0
vertex 522.5 12.0 260.0
endloop
endfacet
facet normal -0.0 1.0 0.0
outer loop
vertex -522.5 12.0 0.0
vertex 522.5 12.0 260.0
vertex 522.5 12.0 0.0
endloop
endfacet
facet normal 0.9999999999999999 -0.0 0.0
outer loop
vertex 522.5 6.000000476837158 80.0
vertex 522.5 12.0 0.0
vertex 522.5 12.0 260.0
endloop
endfacet
facet normal 1.0 0.0 -0.0
outer loop
vertex 522.5 6.000000476837158 80.0
vertex 522.5 12.0 260.0
vertex 522.5 6.000000476837158 180.0
endloop
endfacet
facet normal 1.0 0.0 0.0
outer loop
vertex 522.5 -5.999999523162842 180.0
vertex 522.5 6.000000476837158 180.0
vertex 522.5 12.0 260.0
endloop
endfacet
facet normal 1.0 0.0 -0.0
outer loop
vertex 522.5 -12.0 0.0
vertex 522.5 12.0 0.0
vertex 522.5 6.000000476837158 80.0
endloop
endfacet
facet normal 1.0 0.0 -0.0
outer loop
vertex 522.5 -12.0 0.0
vertex 522.5 6.000000476837158 80.0
vertex 522.5 -5.999999523162842 80.0
endloop
endfacet
facet normal 1.0 0.0 -0.0
outer loop
vertex 522.5 -5.999999523162842 180.0
vertex 522.5 12.0 260.0
vertex 522.5 -12.0 260.0
endloop
endfacet
facet normal 1.0 0.0 0.0
outer loop
vertex 522.5 -12.0 0.0
vertex 522.5 -5.999999523162842 80.0
vertex 522.5 -5.999999523162842 180.0
endloop
endfacet
facet normal 0.9999999999999999 -0.0 0.0
outer loop
vertex 522.5 -12.0 260.0
vertex 522.5 -12.0 0.0
vertex 522.5 -5.999999523162842 180.0
endloop
endfacet
facet normal 0.0 -1.0 0.0
outer loop
vertex 522.5 -12.0 0.0
vertex 522.5 -12.0 260.0
vertex -522.5 -12.0 260.0
endloop
endfacet
facet normal -0.0 -1.0 -0.0
outer loop
vertex 522.5 -12.0 0.0
vertex -522.5 -12.0 260.0
vertex -522.5 -12.0 0.0
endloop
endfacet
facet normal 0.0 0.0 -1.0
outer loop
vertex -522.5 12.0 0.0
vertex 522.5 12.0 0.0
vertex 522.5 -12.0 0.0
endloop
endfacet
facet normal -0.0 -0.0 -1.0
outer loop
vertex -522.5 12.0 0.0
vertex 522.5 -12.0 0.0
vertex -522.5 -12.0 0.0
endloop
endfacet
facet normal 0.0 0.0 1.0
outer loop
vertex 522.5 12.0 260.0
vertex -522.5 12.0 260.0
vertex -522.5 -12.0 260.0
endloop
endfacet
facet normal -0.0 0.0 1.0
outer loop
vertex 522.5 12.0 260.0
vertex -522.5 -12.0 260.0
vertex 522.5 -12.0 260.0
endloop
endfacet
facet normal 0.0 0.0 -1.0
outer loop
vertex 522.5 6.000000476837158 80.0
vertex 540.5000610351562 5.999998569488525 80.0
vertex 540.5000610351562 5.9999847412109375 80.0
endloop
endfacet
facet normal -0.0 -0.0 -1.0
outer loop
vertex 540.5000610351562 -5.9999847412109375 80.0
vertex 540.5000610351562 -6.000001430511475 80.0
vertex 522.5 -5.999999523162842 80.0
endloop
endfacet
facet normal 0.0 0.0 -1.0
outer loop
vertex 522.5 6.000000476837158 80.0
vertex 540.5000610351562 5.9999847412109375 80.0
vertex 540.5000610351562 -5.9999847412109375 80.0
endloop
endfacet
facet normal -0.0 0.0 -1.0
outer loop
vertex 540.5000610351562 -5.9999847412109375 80.0
vertex 522.5 -5.999999523162842 80.0
vertex 522.5 6.000000476837158 80.0
endloop
endfacet
facet normal -1.0596345362869669e-07 -0.9999999999999944 0.0
outer loop
vertex 540.5000610351562 -6.000001430511475 80.0
vertex 540.5000610351562 -6.000001430511475 180.0
vertex 522.5 -5.999999523162842 180.0
endloop
endfacet
facet normal -1.0596345362869669e-07 -0.9999999999999944 -0.0
outer loop
vertex 540.5000610351562 -6.000001430511475 80.0
vertex 522.5 -5.999999523162842 180.0
vertex 522.5 -5.999999523162842 80.0
endloop
endfacet
facet normal -0.0 0.0 1.0
outer loop
vertex 522.5 -5.999999523162842 180.0
vertex 540.5000610351562 -6.000001430511475 180.0
vertex 540.5000610351562 -5.9999847412109375 180.0
endloop
endfacet
facet normal 0.0 -0.0 1.0
outer loop
vertex 540.5000610351562 5.9999847412109375 180.0
vertex 540.5000610351562 5.999998569488525 180.0
vertex 522.5 6.000000476837158 180.0
endloop
endfacet
facet normal 0.0 0.0 1.0
outer loop
vertex 522.5 -5.999999523162842 180.0
vertex 540.5000610351562 -5.9999847412109375 180.0
vertex 540.5000610351562 5.9999847412109375 180.0
endloop
endfacet
facet normal 0.0 0.0 1.0
outer loop
vertex 540.5000610351562 5.9999847412109375 180.0
vertex 522.5 6.000000476837158 180.0
vertex 522.5 -5.999999523162842 180.0
endloop
endfacet
facet normal 1.0596345362869669e-07 0.9999999999999944 0.0
outer loop
vertex 540.5000610351562 5.999998569488525 180.0
vertex 540.5000610351562 5.999998569488525 80.0
vertex 522.5 6.000000476837158 80.0
endloop
endfacet
facet normal 1.0596345362869669e-07 0.9999999999999944 -0.0
outer loop
vertex 540.5000610351562 5.999998569488525 180.0
vertex 522.5 6.000000476837158 80.0
vertex 522.5 6.000000476837158 180.0
endloop
endfacet
facet normal 1.0 0.0 -0.0
outer loop
vertex 542.5 4.0000457763671875 81.99995422363281
vertex 542.5 4.0000457763671875 178.0000457763672
vertex 542.5 -4.0000457763671875 178.0000457763672
endloop
endfacet
facet normal 1.0 0.0 0.0
outer loop
vertex 542.5 4.0000457763671875 81.99995422363281
vertex 542.5 -4.0000457763671875 178.0000457763672
vertex 542.5 -4.0000457763671875 81.99995422363281
endloop
endfacet
facet normal 0.7071094786517372 0.0 -0.7071040837110675
outer loop
vertex 540.5000610351562 5.9999847412109375 80.0
vertex 542.5 4.0000457763671875 81.99995422363281
vertex 542.5 -4.0000457763671875 81.99995422363281
endloop
endfacet
facet normal 0.7071094786517372 0.0 -0.7071040837110675
outer loop
vertex 540.5000610351562 5.9999847412109375 80.0
vertex 542.5 -4.0000457763671875 81.99995422363281
vertex 540.5000610351562 -5.9999847412109375 80.0
endloop
endfacet
facet normal 0.7071094786517372 -0.0 0.7071040837110675
outer loop
vertex 542.5 -4.0000457763671875 178.0000457763672
vertex 542.5 4.0000457763671875 178.0000457763672
vertex 540.5000610351562 5.9999847412109375 180.0
endloop
endfacet
facet normal 0.7071094786517372 0.0 0.7071040837110675
outer loop
vertex 542.5 -4.0000457763671875 178.0000457763672
vertex 540.5000610351562 5.9999847412109375 180.0
vertex 540.5000610351562 -5.9999847412109375 180.0
endloop
endfacet
facet normal 0.7071094786517372 0.0 -0.7071040837110675
outer loop
vertex 542.5 4.0000457763671875 81.99995422363281
vertex 540.5000610351562 5.9999847412109375 80.0
vertex 540.5000610351562 5.999998569488525 80.0
endloop
endfacet
facet normal 0.7071092257656872 0.7071043365989567 0.0
outer loop
vertex 542.5 4.0000457763671875 178.0000457763672
vertex 542.5 4.0000457763671875 81.99995422363281
vertex 540.5000610351562 5.999998569488525 80.0
endloop
endfacet
facet normal 0.9999999999999999 0.0 -0.0
outer loop
vertex 540.5000610351562 5.999998569488525 80.0
vertex 540.5000610351562 5.999998569488525 180.0
vertex 540.5000610351562 5.9999847412109375 180.0
endloop
endfacet
facet normal 0.7071068300772564 0.7071067322958285 9.778068178452982e-08
outer loop
vertex 540.5000610351562 5.999998569488525 80.0
vertex 540.5000610351562 5.9999847412109375 180.0
vertex 542.5 4.0000457763671875 178.0000457763672
endloop
endfacet
facet normal 0.7071094786517373 0.0 0.7071040837110675
outer loop
vertex 542.5 -4.0000457763671875 178.0000457763672
vertex 540.5000610351562 -5.9999847412109375 180.0
vertex 540.5000610351562 -6.000001430511475 180.0
endloop
endfacet
facet normal 0.707109731537516 -0.7071038308232688 0.0
outer loop
vertex 542.5 -4.0000457763671875 81.99995422363281
vertex 542.5 -4.0000457763671875 178.0000457763672
vertex 540.5000610351562 -6.000001430511475 180.0
endloop
endfacet
facet normal 1.0 -0.0 0.0
outer loop
vertex 540.5000610351562 -6.000001430511475 180.0
vertex 540.5000610351562 -6.000001430511475 80.0
vertex 540.5000610351562 -5.9999847412109375 80.0
endloop
endfacet
facet normal 0.7071068401925733 -0.7071067221805069 -1.1801116598280783e-07
outer loop
vertex 540.5000610351562 -6.000001430511475 180.0
vertex 540.5000610351562 -5.9999847412109375 80.0
vertex 542.5 -4.0000457763671875 81.99995422363281
endloop
endfacet

endsolid
