solid 
facet normal -1.0 0.0 0.0
outer loop
vertex -385.0 24.999998092651367 67.5
vertex -385.0 -25.000001907348633 67.5
vertex -385.0 -45.0 80.0
endloop
endfacet
facet normal -1.0 0.0 0.0
outer loop
vertex -385.0 45.0 0.0
vertex -385.0 -45.0 0.0
vertex -385.0 -25.000001907348633 12.5
endloop
endfacet
facet normal -1.0 0.0 0.0
outer loop
vertex -385.0 45.0 0.0
vertex -385.0 -25.000001907348633 12.5
vertex -385.0 24.999998092651367 12.5
endloop
endfacet
facet normal -1.0 0.0 0.0
outer loop
vertex -385.0 24.999998092651367 67.5
vertex -385.0 -45.0 80.0
vertex -385.0 45.0 80.0
endloop
endfacet
facet normal -1.0 0.0 0.0
outer loop
vertex -385.0 45.0 0.0
vertex -385.0 24.999998092651367 12.5
vertex -385.0 24.999998092651367 67.5
endloop
endfacet
facet normal -0.9999999999999999 0.0 0.0
outer loop
vertex -385.0 24.999998092651367 67.5
vertex -385.0 45.0 80.0
vertex -385.0 45.0 0.0
endloop
endfacet
facet normal -1.0 0.0 0.0
outer loop
vertex -385.0 -45.0 0.0
vertex -385.0 -45.0 80.0
vertex -385.0 -25.000001907348633 67.5
endloop
endfacet
facet normal -0.9999999999999999 0.0 0.0
outer loop
vertex -385.0 -45.0 0.0
vertex -385.0 -25.000001907348633 67.5
vertex -385.0 -25.000001907348633 12.5
endloop
endfacet
facet normal 0.0 1.0 0.0
outer loop
vertex -385.0 45.0 0.0
vertex -385.0 45.0 80.0
vertex 385.0 45.0 80.0
endloop
endfacet
facet normal -0.0 1.0 0.0
outer loop
vertex -385.0 45.0 0.0
vertex 385.0 45.0 80.0
vertex 385.0 45.0 0.0
endloop
endfacet
facet normal 1.0 0.0 0.0
outer loop
vertex 385.0 -24.999998092651367 67.5
vertex 385.0 25.000001907348633 67.5
vertex 385.0 45.0 80.0
endloop
endfacet
facet normal 1.0 0.0 -0.0
outer loop
vertex 385.0 -45.0 0.0
vertex 385.0 45.0 0.0
vertex 385.0 25.000001907348633 12.5
endloop
endfacet
facet normal 1.0 0.0 -0.0
outer loop
vertex 385.0 -45.0 0.0
vertex 385.0 25.000001907348633 12.5
vertex 385.0 -24.999998092651367 12.5
endloop
endfacet
facet normal 1.0 0.0 -0.0
outer loop
vertex 385.0 -24.999998092651367 67.5
vertex 385.0 45.0 80.0
vertex 385.0 -45.0 80.0
endloop
endfacet
facet normal 1.0 0.0 0.0
outer loop
vertex 385.0 -45.0 0.0
vertex 385.0 -24.999998092651367 12.5
vertex 385.0 -24.999998092651367 67.5
endloop
endfacet
facet normal 0.9999999999999999 -0.0 0.0
outer loop
vertex 385.0 -45.0 80.0
vertex 385.0 -45.0 0.0
vertex 385.0 -24.999998092651367 67.5
endloop
endfacet
facet normal 1.0 -0.0 0.0
outer loop
vertex 385.0 25.000001907348633 12.5
vertex 385.0 45.0 0.0
vertex 385.0 45.0 80.0
endloop
endfacet
facet normal 0.9999999999999999 0.0 -0.0
outer loop
vertex 385.0 25.000001907348633 12.5
vertex 385.0 45.0 80.0
vertex 385.0 25.000001907348633 67.5
endloop
endfacet
facet normal 0.0 -1.0 0.0
outer loop
vertex 385.0 -45.0 0.0
vertex 385.0 -45.0 80.0
vertex -385.0 -45.0 80.0
endloop
endfacet
facet normal -0.0 -1.0 -0.0
outer loop
vertex 385.0 -45.0 0.0
vertex -385.0 -45.0 80.0
vertex -385.0 -45.0 0.0
endloop
endfacet
facet normal 0.0 0.0 -1.0
outer loop
vertex -385.0 45.0 0.0
vertex 385.0 45.0 0.0
vertex 385.0 -45.0 0.0
endloop
endfacet
facet normal -0.0 -0.0 -1.0
outer loop
vertex -385.0 45.0 0.0
vertex 385.0 -45.0 0.0
vertex -385.0 -45.0 0.0
endloop
endfacet
facet normal 0.0 0.0 1.0
outer loop
vertex 385.0 45.0 80.0
vertex -385.0 45.0 80.0
vertex -385.0 -45.0 80.0
endloop
endfacet
facet normal -0.0 0.0 1.0
outer loop
vertex 385.0 45.0 80.0
vertex -385.0 -45.0 80.0
vertex 385.0 -45.0 80.0
endloop
endfacet
facet normal -1.5258789062499823e-07 -0.9999999999999885 -0.0
outer loop
vertex -385.0 -25.000001907348633 67.5
vertex -410.0 -24.999998092651367 67.5
vertex -410.0 -24.999998092651367 12.5
endloop
endfacet
facet normal -1.5258789062499823e-07 -0.9999999999999885 0.0
outer loop
vertex -385.0 -25.000001907348633 67.5
vertex -410.0 -24.999998092651367 12.5
vertex -385.0 -25.000001907348633 12.5
endloop
endfacet
facet normal 0.0 0.0 -1.0
outer loop
vertex -385.0 -25.000001907348633 12.5
vertex -410.0 -24.999998092651367 12.5
vertex -410.0 25.000001907348633 12.5
endloop
endfacet
facet normal 0.0 0.0 -1.0
outer loop
vertex -385.0 -25.000001907348633 12.5
vertex -410.0 25.000001907348633 12.5
vertex -385.0 24.999998092651367 12.5
endloop
endfacet
facet normal 1.5258789062499823e-07 0.9999999999999885 -0.0
outer loop
vertex -385.0 24.999998092651367 12.5
vertex -410.0 25.000001907348633 12.5
vertex -410.0 25.000001907348633 67.5
endloop
endfacet
facet normal 1.5258789062499823e-07 0.9999999999999885 0.0
outer loop
vertex -385.0 24.999998092651367 12.5
vertex -410.0 25.000001907348633 67.5
vertex -385.0 24.999998092651367 67.5
endloop
endfacet
facet normal 0.0 0.0 1.0
outer loop
vertex -385.0 24.999998092651367 67.5
vertex -410.0 25.000001907348633 67.5
vertex -410.0 -24.999998092651367 67.5
endloop
endfacet
facet normal 0.0 0.0 1.0
outer loop
vertex -385.0 24.999998092651367 67.5
vertex -410.0 -24.999998092651367 67.5
vertex -385.0 -25.000001907348633 67.5
endloop
endfacet
facet normal -0.9999999999999999 0.0 0.0
outer loop
vertex -410.0 25.000001907348633 12.5
vertex -410.0 -24.999998092651367 12.5
vertex -410.0 -24.999998092651367 67.5
endloop
endfacet
facet normal -0.9999999999999999 0.0 0.0
outer loop
vertex -410.0 25.000001907348633 12.5
vertex -410.0 -24.999998092651367 67.5
vertex -410.0 25.000001907348633 67.5
endloop
endfacet
facet normal -1.5258789062499823e-07 -0.9999999999999885 0.0
outer loop
vertex 410.0 -25.000001907348633 12.5
vertex 410.0 -25.000001907348633 67.5
vertex 385.0 -24.999998092651367 67.5
endloop
endfacet
facet normal -1.5258789062499823e-07 -0.9999999999999885 -0.0
outer loop
vertex 410.0 -25.000001907348633 12.5
vertex 385.0 -24.999998092651367 67.5
vertex 385.0 -24.999998092651367 12.5
endloop
endfacet
facet normal 0.0 -0.0 1.0
outer loop
vertex 410.0 -25.000001907348633 67.5
vertex 410.0 24.999998092651367 67.5
vertex 385.0 25.000001907348633 67.5
endloop
endfacet
facet normal 0.0 0.0 1.0
outer loop
vertex 410.0 -25.000001907348633 67.5
vertex 385.0 25.000001907348633 67.5
vertex 385.0 -24.999998092651367 67.5
endloop
endfacet
facet normal 1.5258789062499823e-07 0.9999999999999885 0.0
outer loop
vertex 410.0 24.999998092651367 67.5
vertex 410.0 24.999998092651367 12.5
vertex 385.0 25.000001907348633 12.5
endloop
endfacet
facet normal 1.5258789062499823e-07 0.9999999999999885 -0.0
outer loop
vertex 410.0 24.999998092651367 67.5
vertex 385.0 25.000001907348633 12.5
vertex 385.0 25.000001907348633 67.5
endloop
endfacet
facet normal -0.0 -0.0 -1.0
outer loop
vertex 410.0 24.999998092651367 12.5
vertex 410.0 -25.000001907348633 12.5
vertex 385.0 -24.999998092651367 12.5
endloop
endfacet
facet normal -0.0 0.0 -1.0
outer loop
vertex 410.0 24.999998092651367 12.5
vertex 385.0 -24.999998092651367 12.5
vertex 385.0 25.000001907348633 12.5
endloop
endfacet
facet normal 0.9999999999999999 0.0 0.0
outer loop
vertex 410.0 24.999998092651367 67.5
vertex 410.0 -25.000001907348633 67.5
vertex 410.0 -25.000001907348633 12.5
endloop
endfacet
facet normal 0.9999999999999999 -0.0 0.0
outer loop
vertex 410.0 24.999998092651367 67.5
vertex 410.0 -25.000001907348633 12.5
vertex 410.0 24.999998092651367 12.5
endloop
endfacet

endsolid
