solid 
facet normal -1.0 0.0 0.0
outer loop
vertex -750.0 -375.0 0.0
vertex -750.0 -375.0 55.0
vertex -750.0 -374.9011535644531 55.0
endloop
endfacet
facet normal -1.0 0.0 0.0
outer loop
vertex -750.0 -375.0 0.0
vertex -750.0 -374.9011535644531 55.0
vertex -750.0 -374.9011535644531 0.0
endloop
endfacet
facet normal -0.0 1.0 0.0
outer loop
vertex -709.9959106445312 375.0 55.0
vertex 709.9957885742188 375.0 55.0
vertex 709.9957885742188 375.0 0.0
endloop
endfacet
facet normal 0.0 1.0 0.0
outer loop
vertex -709.9959106445312 375.0 55.0
vertex 709.9957885742188 375.0 0.0
vertex -709.9959106445312 375.0 0.0
endloop
endfacet
facet normal 1.0 -0.0 0.0
outer loop
vertex 750.0 -375.0 55.0
vertex 750.0 -375.0 0.0
vertex 750.0 -374.9046325683594 0.0
endloop
endfacet
facet normal 1.0 -0.0 0.0
outer loop
vertex 750.0 -375.0 55.0
vertex 750.0 -374.9046325683594 0.0
vertex 750.0 -374.9046325683594 55.0
endloop
endfacet
facet normal 0.0 -1.0 0.0
outer loop
vertex 750.0 -375.0 0.0
vertex 750.0 -375.0 55.0
vertex -750.0 -375.0 55.0
endloop
endfacet
facet normal -0.0 -1.0 -0.0
outer loop
vertex 750.0 -375.0 0.0
vertex -750.0 -375.0 55.0
vertex -750.0 -375.0 0.0
endloop
endfacet
facet normal -0.0 0.0 -1.0
outer loop
vertex -448.20001220703125 -175.1999969482422 0.0
vertex -750.0 -374.9011535644531 0.0
vertex -709.9959106445312 375.0 0.0
endloop
endfacet
facet normal 0.0 0.0 -1.0
outer loop
vertex -448.20001220703125 -175.1999969482422 0.0
vertex -709.9959106445312 375.0 0.0
vertex -448.20001220703125 -124.80000305175781 0.0
endloop
endfacet
facet normal 0.0 0.0 -1.0
outer loop
vertex -709.9959106445312 375.0 0.0
vertex -448.20001220703125 175.1999969482422 0.0
vertex -448.20001220703125 124.80000305175781 0.0
endloop
endfacet
facet normal 0.0 0.0 -1.0
outer loop
vertex -709.9959106445312 375.0 0.0
vertex -448.20001220703125 124.80000305175781 0.0
vertex -448.20001220703125 -124.80000305175781 0.0
endloop
endfacet
facet normal 0.0 0.0 -1.0
outer loop
vertex 448.20001220703125 -124.80000305175781 0.0
vertex 709.9957885742188 375.0 0.0
vertex 750.0 -374.9046325683594 0.0
endloop
endfacet
facet normal -0.0 -0.0 -1.0
outer loop
vertex 750.0 -374.9046325683594 0.0
vertex 750.0 -375.0 0.0
vertex 448.20001220703125 -175.1999969482422 0.0
endloop
endfacet
facet normal 0.0 0.0 -1.0
outer loop
vertex 750.0 -374.9046325683594 0.0
vertex 448.20001220703125 -175.1999969482422 0.0
vertex 448.20001220703125 -124.80000305175781 0.0
endloop
endfacet
facet normal 0.0 0.0 -1.0
outer loop
vertex -411.79998779296875 175.1999969482422 0.0
vertex -448.20001220703125 175.1999969482422 0.0
vertex -709.9959106445312 375.0 0.0
endloop
endfacet
facet normal 0.0 -0.0 -1.0
outer loop
vertex -709.9959106445312 375.0 0.0
vertex 709.9957885742188 375.0 0.0
vertex 448.20001220703125 175.1999969482422 0.0
endloop
endfacet
facet normal -0.0 -0.0 -1.0
outer loop
vertex -709.9959106445312 375.0 0.0
vertex 448.20001220703125 175.1999969482422 0.0
vertex 411.79998779296875 175.1999969482422 0.0
endloop
endfacet
facet normal 0.0 0.0 -1.0
outer loop
vertex -411.79998779296875 175.1999969482422 0.0
vertex -709.9959106445312 375.0 0.0
vertex 411.79998779296875 175.1999969482422 0.0
endloop
endfacet
facet normal 0.0 0.0 -1.0
outer loop
vertex -411.79998779296875 175.1999969482422 0.0
vertex 411.79998779296875 175.1999969482422 0.0
vertex 411.79998779296875 124.80000305175781 0.0
endloop
endfacet
facet normal 0.0 0.0 -1.0
outer loop
vertex -448.20001220703125 -124.80000305175781 0.0
vertex -448.20001220703125 124.80000305175781 0.0
vertex -411.79998779296875 124.80000305175781 0.0
endloop
endfacet
facet normal 0.0 0.0 -1.0
outer loop
vertex -411.79998779296875 124.80000305175781 0.0
vertex -411.79998779296875 175.1999969482422 0.0
vertex 411.79998779296875 124.80000305175781 0.0
endloop
endfacet
facet normal 0.0 0.0 -0.9999999999999999
outer loop
vertex -411.79998779296875 124.80000305175781 0.0
vertex 411.79998779296875 124.80000305175781 0.0
vertex 411.79998779296875 -124.80000305175781 0.0
endloop
endfacet
facet normal 0.0 0.0 -1.0
outer loop
vertex -411.79998779296875 -124.80000305175781 0.0
vertex -448.20001220703125 -124.80000305175781 0.0
vertex -411.79998779296875 124.80000305175781 0.0
endloop
endfacet
facet normal 0.0 0.0 -1.0
outer loop
vertex -750.0 -374.9011535644531 0.0
vertex -448.20001220703125 -175.1999969482422 0.0
vertex -411.79998779296875 -175.1999969482422 0.0
endloop
endfacet
facet normal 0.0 0.0 -0.9999999999999999
outer loop
vertex -411.79998779296875 -124.80000305175781 0.0
vertex -411.79998779296875 124.80000305175781 0.0
vertex 411.79998779296875 -124.80000305175781 0.0
endloop
endfacet
facet normal 0.0 0.0 -1.0
outer loop
vertex -750.0 -375.0 0.0
vertex -750.0 -374.9011535644531 0.0
vertex -411.79998779296875 -175.1999969482422 0.0
endloop
endfacet
facet normal 0.0 0.0 -1.0
outer loop
vertex -411.79998779296875 -175.1999969482422 0.0
vertex -411.79998779296875 -124.80000305175781 0.0
vertex 411.79998779296875 -124.80000305175781 0.0
endloop
endfacet
facet normal 0.0 0.0 -1.0
outer loop
vertex 411.79998779296875 -175.1999969482422 0.0
vertex 448.20001220703125 -175.1999969482422 0.0
vertex 750.0 -375.0 0.0
endloop
endfacet
facet normal 0.0 0.0 -1.0
outer loop
vertex -411.79998779296875 -175.1999969482422 0.0
vertex 411.79998779296875 -124.80000305175781 0.0
vertex 411.79998779296875 -175.1999969482422 0.0
endloop
endfacet
facet normal 0.0 0.0 -1.0
outer loop
vertex 750.0 -375.0 0.0
vertex -750.0 -375.0 0.0
vertex -411.79998779296875 -175.1999969482422 0.0
endloop
endfacet
facet normal -0.0 -0.0 -1.0
outer loop
vertex 411.79998779296875 -175.1999969482422 0.0
vertex 750.0 -375.0 0.0
vertex -411.79998779296875 -175.1999969482422 0.0
endloop
endfacet
facet normal 0.0 0.0 -1.0
outer loop
vertex 448.20001220703125 124.80000305175781 0.0
vertex 448.20001220703125 175.1999969482422 0.0
vertex 709.9957885742188 375.0 0.0
endloop
endfacet
facet normal -0.0 0.0 -1.0
outer loop
vertex 709.9957885742188 375.0 0.0
vertex 448.20001220703125 -124.80000305175781 0.0
vertex 411.79998779296875 -124.80000305175781 0.0
endloop
endfacet
facet normal 0.0 0.0 -1.0
outer loop
vertex 411.79998779296875 -124.80000305175781 0.0
vertex 411.79998779296875 124.80000305175781 0.0
vertex 448.20001220703125 124.80000305175781 0.0
endloop
endfacet
facet normal -0.0 0.0 -0.9999999999999999
outer loop
vertex 709.9957885742188 375.0 0.0
vertex 411.79998779296875 -124.80000305175781 0.0
vertex 448.20001220703125 124.80000305175781 0.0
endloop
endfacet
facet normal 0.0 0.0 0.9999999999999999
outer loop
vertex -709.9959106445312 375.0 55.0
vertex -750.0 -374.9011535644531 55.0
vertex -750.0 -375.0 55.0
endloop
endfacet
facet normal 0.0 0.0 1.0
outer loop
vertex -750.0 -375.0 55.0
vertex 750.0 -375.0 55.0
vertex 750.0 -374.9046325683594 55.0
endloop
endfacet
facet normal 0.0 0.0 1.0
outer loop
vertex 750.0 -374.9046325683594 55.0
vertex 709.9957885742188 375.0 55.0
vertex -709.9959106445312 375.0 55.0
endloop
endfacet
facet normal 0.0 -0.0 1.0
outer loop
vertex -750.0 -375.0 55.0
vertex 750.0 -374.9046325683594 55.0
vertex -709.9959106445312 375.0 55.0
endloop
endfacet
facet normal 0.9985801461602275 0.053269988686114406 0.0
outer loop
vertex 750.0 -374.9046325683594 55.0
vertex 750.0 -374.9046325683594 0.0
vertex 709.9957885742188 375.0 0.0
endloop
endfacet
facet normal 0.9985801461602275 0.053269988686114406 -0.0
outer loop
vertex 750.0 -374.9046325683594 55.0
vertex 709.9957885742188 375.0 0.0
vertex 709.9957885742188 375.0 55.0
endloop
endfacet
facet normal -0.9985801416608421 0.0532700730299164 0.0
outer loop
vertex -709.9959106445312 375.0 0.0
vertex -750.0 -374.9011535644531 0.0
vertex -750.0 -374.9011535644531 55.0
endloop
endfacet
facet normal -0.9985801416608421 0.0532700730299164 0.0
outer loop
vertex -709.9959106445312 375.0 0.0
vertex -750.0 -374.9011535644531 55.0
vertex -709.9959106445312 375.0 55.0
endloop
endfacet
facet normal 0.9999999999999999 0.0 -0.0
outer loop
vertex -448.20001220703125 -124.80000305175781 0.0
vertex -448.20001220703125 -124.80000305175781 20.0
vertex -448.20001220703125 -175.1999969482422 20.0
endloop
endfacet
facet normal 0.9999999999999999 0.0 0.0
outer loop
vertex -448.20001220703125 -124.80000305175781 0.0
vertex -448.20001220703125 -175.1999969482422 20.0
vertex -448.20001220703125 -175.1999969482422 0.0
endloop
endfacet
facet normal 0.0 -1.0 0.0
outer loop
vertex -411.79998779296875 -124.80000305175781 0.0
vertex -411.79998779296875 -124.80000305175781 20.0
vertex -448.20001220703125 -124.80000305175781 20.0
endloop
endfacet
facet normal -0.0 -1.0 -0.0
outer loop
vertex -411.79998779296875 -124.80000305175781 0.0
vertex -448.20001220703125 -124.80000305175781 20.0
vertex -448.20001220703125 -124.80000305175781 0.0
endloop
endfacet
facet normal -0.9999999999999999 0.0 0.0
outer loop
vertex -411.79998779296875 -175.1999969482422 0.0
vertex -411.79998779296875 -175.1999969482422 20.0
vertex -411.79998779296875 -124.80000305175781 20.0
endloop
endfacet
facet normal -0.9999999999999999 0.0 0.0
outer loop
vertex -411.79998779296875 -175.1999969482422 0.0
vertex -411.79998779296875 -124.80000305175781 20.0
vertex -411.79998779296875 -124.80000305175781 0.0
endloop
endfacet
facet normal 0.0 1.0 0.0
outer loop
vertex -448.20001220703125 -175.1999969482422 0.0
vertex -448.20001220703125 -175.1999969482422 20.0
vertex -411.79998779296875 -175.1999969482422 20.0
endloop
endfacet
facet normal -0.0 1.0 0.0
outer loop
vertex -448.20001220703125 -175.1999969482422 0.0
vertex -411.79998779296875 -175.1999969482422 20.0
vertex -411.79998779296875 -175.1999969482422 0.0
endloop
endfacet
facet normal -0.0 -0.0 -1.0
outer loop
vertex -411.79998779296875 -124.80000305175781 20.0
vertex -411.79998779296875 -175.1999969482422 20.0
vertex -448.20001220703125 -175.1999969482422 20.0
endloop
endfacet
facet normal -0.0 0.0 -1.0
outer loop
vertex -411.79998779296875 -124.80000305175781 20.0
vertex -448.20001220703125 -175.1999969482422 20.0
vertex -448.20001220703125 -124.80000305175781 20.0
endloop
endfacet
facet normal 0.9999999999999999 0.0 -0.0
outer loop
vertex -448.20001220703125 175.1999969482422 0.0
vertex -448.20001220703125 175.1999969482422 20.0
vertex -448.20001220703125 124.80000305175781 20.0
endloop
endfacet
facet normal 0.9999999999999999 0.0 0.0
outer loop
vertex -448.20001220703125 175.1999969482422 0.0
vertex -448.20001220703125 124.80000305175781 20.0
vertex -448.20001220703125 124.80000305175781 0.0
endloop
endfacet
facet normal 0.0 -1.0 0.0
outer loop
vertex -411.79998779296875 175.1999969482422 0.0
vertex -411.79998779296875 175.1999969482422 20.0
vertex -448.20001220703125 175.1999969482422 20.0
endloop
endfacet
facet normal -0.0 -1.0 -0.0
outer loop
vertex -411.79998779296875 175.1999969482422 0.0
vertex -448.20001220703125 175.1999969482422 20.0
vertex -448.20001220703125 175.1999969482422 0.0
endloop
endfacet
facet normal -0.9999999999999999 0.0 0.0
outer loop
vertex -411.79998779296875 124.80000305175781 0.0
vertex -411.79998779296875 124.80000305175781 20.0
vertex -411.79998779296875 175.1999969482422 20.0
endloop
endfacet
facet normal -0.9999999999999999 0.0 0.0
outer loop
vertex -411.79998779296875 124.80000305175781 0.0
vertex -411.79998779296875 175.1999969482422 20.0
vertex -411.79998779296875 175.1999969482422 0.0
endloop
endfacet
facet normal 0.0 1.0 0.0
outer loop
vertex -448.20001220703125 124.80000305175781 0.0
vertex -448.20001220703125 124.80000305175781 20.0
vertex -411.79998779296875 124.80000305175781 20.0
endloop
endfacet
facet normal -0.0 1.0 0.0
outer loop
vertex -448.20001220703125 124.80000305175781 0.0
vertex -411.79998779296875 124.80000305175781 20.0
vertex -411.79998779296875 124.80000305175781 0.0
endloop
endfacet
facet normal -0.0 -0.0 -1.0
outer loop
vertex -411.79998779296875 175.1999969482422 20.0
vertex -411.79998779296875 124.80000305175781 20.0
vertex -448.20001220703125 124.80000305175781 20.0
endloop
endfacet
facet normal -0.0 0.0 -1.0
outer loop
vertex -411.79998779296875 175.1999969482422 20.0
vertex -448.20001220703125 124.80000305175781 20.0
vertex -448.20001220703125 175.1999969482422 20.0
endloop
endfacet
facet normal 0.9999999999999999 0.0 -0.0
outer loop
vertex 411.79998779296875 -124.80000305175781 0.0
vertex 411.79998779296875 -124.80000305175781 20.0
vertex 411.79998779296875 -175.1999969482422 20.0
endloop
endfacet
facet normal 0.9999999999999999 0.0 0.0
outer loop
vertex 411.79998779296875 -124.80000305175781 0.0
vertex 411.79998779296875 -175.1999969482422 20.0
vertex 411.79998779296875 -175.1999969482422 0.0
endloop
endfacet
facet normal 0.0 -1.0 0.0
outer loop
vertex 448.20001220703125 -124.80000305175781 0.0
vertex 448.20001220703125 -124.80000305175781 20.0
vertex 411.79998779296875 -124.80000305175781 20.0
endloop
endfacet
facet normal -0.0 -1.0 -0.0
outer loop
vertex 448.20001220703125 -124.80000305175781 0.0
vertex 411.79998779296875 -124.80000305175781 20.0
vertex 411.79998779296875 -124.80000305175781 0.0
endloop
endfacet
facet normal -0.9999999999999999 0.0 0.0
outer loop
vertex 448.20001220703125 -175.1999969482422 0.0
vertex 448.20001220703125 -175.1999969482422 20.0
vertex 448.20001220703125 -124.80000305175781 20.0
endloop
endfacet
facet normal -0.9999999999999999 0.0 0.0
outer loop
vertex 448.20001220703125 -175.1999969482422 0.0
vertex 448.20001220703125 -124.80000305175781 20.0
vertex 448.20001220703125 -124.80000305175781 0.0
endloop
endfacet
facet normal 0.0 1.0 0.0
outer loop
vertex 411.79998779296875 -175.1999969482422 0.0
vertex 411.79998779296875 -175.1999969482422 20.0
vertex 448.20001220703125 -175.1999969482422 20.0
endloop
endfacet
facet normal -0.0 1.0 0.0
outer loop
vertex 411.79998779296875 -175.1999969482422 0.0
vertex 448.20001220703125 -175.1999969482422 20.0
vertex 448.20001220703125 -175.1999969482422 0.0
endloop
endfacet
facet normal -0.0 -0.0 -1.0
outer loop
vertex 448.20001220703125 -124.80000305175781 20.0
vertex 448.20001220703125 -175.1999969482422 20.0
vertex 411.79998779296875 -175.1999969482422 20.0
endloop
endfacet
facet normal -0.0 0.0 -1.0
outer loop
vertex 448.20001220703125 -124.80000305175781 20.0
vertex 411.79998779296875 -175.1999969482422 20.0
vertex 411.79998779296875 -124.80000305175781 20.0
endloop
endfacet
facet normal 0.9999999999999999 0.0 -0.0
outer loop
vertex 411.79998779296875 175.1999969482422 0.0
vertex 411.79998779296875 175.1999969482422 20.0
vertex 411.79998779296875 124.80000305175781 20.0
endloop
endfacet
facet normal 0.9999999999999999 0.0 0.0
outer loop
vertex 411.79998779296875 175.1999969482422 0.0
vertex 411.79998779296875 124.80000305175781 20.0
vertex 411.79998779296875 124.80000305175781 0.0
endloop
endfacet
facet normal 0.0 -1.0 0.0
outer loop
vertex 448.20001220703125 175.1999969482422 0.0
vertex 448.20001220703125 175.1999969482422 20.0
vertex 411.79998779296875 175.1999969482422 20.0
endloop
endfacet
facet normal -0.0 -1.0 -0.0
outer loop
vertex 448.20001220703125 175.1999969482422 0.0
vertex 411.79998779296875 175.1999969482422 20.0
vertex 411.79998779296875 175.1999969482422 0.0
endloop
endfacet
facet normal -0.9999999999999999 0.0 0.0
outer loop
vertex 448.20001220703125 124.80000305175781 0.0
vertex 448.20001220703125 124.80000305175781 20.0
vertex 448.20001220703125 175.1999969482422 20.0
endloop
endfacet
facet normal -0.9999999999999999 0.0 0.0
outer loop
vertex 448.20001220703125 124.80000305175781 0.0
vertex 448.20001220703125 175.1999969482422 20.0
vertex 448.20001220703125 175.1999969482422 0.0
endloop
endfacet
facet normal 0.0 1.0 0.0
outer loop
vertex 411.79998779296875 124.80000305175781 0.0
vertex 411.79998779296875 124.80000305175781 20.0
vertex 448.20001220703125 124.80000305175781 20.0
endloop
endfacet
facet normal -0.0 1.0 0.0
outer loop
vertex 411.79998779296875 124.80000305175781 0.0
vertex 448.20001220703125 124.80000305175781 20.0
vertex 448.20001220703125 124.80000305175781 0.0
endloop
endfacet
facet normal -0.0 -0.0 -1.0
outer loop
vertex 448.20001220703125 175.1999969482422 20.0
vertex 448.20001220703125 124.80000305175781 20.0
vertex 411.79998779296875 124.80000305175781 20.0
endloop
endfacet
facet normal -0.0 0.0 -1.0
outer loop
vertex 448.20001220703125 175.1999969482422 20.0
vertex 411.79998779296875 124.80000305175781 20.0
vertex 411.79998779296875 175.1999969482422 20.0
endloop
endfacet

endsolid
